G04 #@! TF.GenerationSoftware,KiCad,Pcbnew,(5.1.10)-1*
G04 #@! TF.CreationDate,2021-07-15T16:55:59+03:00*
G04 #@! TF.ProjectId,clock,636c6f63-6b2e-46b6-9963-61645f706362,rev?*
G04 #@! TF.SameCoordinates,Original*
G04 #@! TF.FileFunction,Copper,L4,Bot*
G04 #@! TF.FilePolarity,Positive*
%FSLAX46Y46*%
G04 Gerber Fmt 4.6, Leading zero omitted, Abs format (unit mm)*
G04 Created by KiCad (PCBNEW (5.1.10)-1) date 2021-07-15 16:55:59*
%MOMM*%
%LPD*%
G01*
G04 APERTURE LIST*
G04 #@! TA.AperFunction,ComponentPad*
%ADD10O,1.700000X1.700000*%
G04 #@! TD*
G04 #@! TA.AperFunction,ComponentPad*
%ADD11R,1.700000X1.700000*%
G04 #@! TD*
G04 #@! TA.AperFunction,SMDPad,CuDef*
%ADD12R,0.800000X0.900000*%
G04 #@! TD*
G04 #@! TA.AperFunction,SMDPad,CuDef*
%ADD13R,0.900000X0.800000*%
G04 #@! TD*
G04 #@! TA.AperFunction,ComponentPad*
%ADD14C,1.524000*%
G04 #@! TD*
G04 #@! TA.AperFunction,ComponentPad*
%ADD15R,1.524000X1.524000*%
G04 #@! TD*
G04 #@! TA.AperFunction,SMDPad,CuDef*
%ADD16R,1.000000X1.800000*%
G04 #@! TD*
G04 #@! TA.AperFunction,SMDPad,CuDef*
%ADD17R,0.900000X1.225000*%
G04 #@! TD*
G04 #@! TA.AperFunction,ComponentPad*
%ADD18O,1.700000X1.100000*%
G04 #@! TD*
G04 #@! TA.AperFunction,SMDPad,CuDef*
%ADD19R,1.200000X0.800000*%
G04 #@! TD*
G04 #@! TA.AperFunction,SMDPad,CuDef*
%ADD20R,1.200000X0.760000*%
G04 #@! TD*
G04 #@! TA.AperFunction,SMDPad,CuDef*
%ADD21R,1.200000X0.700000*%
G04 #@! TD*
G04 #@! TA.AperFunction,ComponentPad*
%ADD22C,5.400000*%
G04 #@! TD*
G04 #@! TA.AperFunction,ComponentPad*
%ADD23C,0.800000*%
G04 #@! TD*
G04 #@! TA.AperFunction,ViaPad*
%ADD24C,0.800000*%
G04 #@! TD*
G04 #@! TA.AperFunction,Conductor*
%ADD25C,0.254000*%
G04 #@! TD*
G04 #@! TA.AperFunction,Conductor*
%ADD26C,0.381000*%
G04 #@! TD*
G04 #@! TA.AperFunction,Conductor*
%ADD27C,0.508000*%
G04 #@! TD*
G04 #@! TA.AperFunction,Conductor*
%ADD28C,0.300000*%
G04 #@! TD*
G04 #@! TA.AperFunction,Conductor*
%ADD29C,0.100000*%
G04 #@! TD*
G04 APERTURE END LIST*
G04 #@! TA.AperFunction,SMDPad,CuDef*
G36*
G01*
X49750000Y-29949000D02*
X49750000Y-29749000D01*
G75*
G02*
X49850000Y-29649000I100000J0D01*
G01*
X51125000Y-29649000D01*
G75*
G02*
X51225000Y-29749000I0J-100000D01*
G01*
X51225000Y-29949000D01*
G75*
G02*
X51125000Y-30049000I-100000J0D01*
G01*
X49850000Y-30049000D01*
G75*
G02*
X49750000Y-29949000I0J100000D01*
G01*
G37*
G04 #@! TD.AperFunction*
G04 #@! TA.AperFunction,SMDPad,CuDef*
G36*
G01*
X49750000Y-29299000D02*
X49750000Y-29099000D01*
G75*
G02*
X49850000Y-28999000I100000J0D01*
G01*
X51125000Y-28999000D01*
G75*
G02*
X51225000Y-29099000I0J-100000D01*
G01*
X51225000Y-29299000D01*
G75*
G02*
X51125000Y-29399000I-100000J0D01*
G01*
X49850000Y-29399000D01*
G75*
G02*
X49750000Y-29299000I0J100000D01*
G01*
G37*
G04 #@! TD.AperFunction*
G04 #@! TA.AperFunction,SMDPad,CuDef*
G36*
G01*
X49750000Y-28649000D02*
X49750000Y-28449000D01*
G75*
G02*
X49850000Y-28349000I100000J0D01*
G01*
X51125000Y-28349000D01*
G75*
G02*
X51225000Y-28449000I0J-100000D01*
G01*
X51225000Y-28649000D01*
G75*
G02*
X51125000Y-28749000I-100000J0D01*
G01*
X49850000Y-28749000D01*
G75*
G02*
X49750000Y-28649000I0J100000D01*
G01*
G37*
G04 #@! TD.AperFunction*
G04 #@! TA.AperFunction,SMDPad,CuDef*
G36*
G01*
X49750000Y-27999000D02*
X49750000Y-27799000D01*
G75*
G02*
X49850000Y-27699000I100000J0D01*
G01*
X51125000Y-27699000D01*
G75*
G02*
X51225000Y-27799000I0J-100000D01*
G01*
X51225000Y-27999000D01*
G75*
G02*
X51125000Y-28099000I-100000J0D01*
G01*
X49850000Y-28099000D01*
G75*
G02*
X49750000Y-27999000I0J100000D01*
G01*
G37*
G04 #@! TD.AperFunction*
G04 #@! TA.AperFunction,SMDPad,CuDef*
G36*
G01*
X49750000Y-27349000D02*
X49750000Y-27149000D01*
G75*
G02*
X49850000Y-27049000I100000J0D01*
G01*
X51125000Y-27049000D01*
G75*
G02*
X51225000Y-27149000I0J-100000D01*
G01*
X51225000Y-27349000D01*
G75*
G02*
X51125000Y-27449000I-100000J0D01*
G01*
X49850000Y-27449000D01*
G75*
G02*
X49750000Y-27349000I0J100000D01*
G01*
G37*
G04 #@! TD.AperFunction*
G04 #@! TA.AperFunction,SMDPad,CuDef*
G36*
G01*
X49750000Y-26699000D02*
X49750000Y-26499000D01*
G75*
G02*
X49850000Y-26399000I100000J0D01*
G01*
X51125000Y-26399000D01*
G75*
G02*
X51225000Y-26499000I0J-100000D01*
G01*
X51225000Y-26699000D01*
G75*
G02*
X51125000Y-26799000I-100000J0D01*
G01*
X49850000Y-26799000D01*
G75*
G02*
X49750000Y-26699000I0J100000D01*
G01*
G37*
G04 #@! TD.AperFunction*
G04 #@! TA.AperFunction,SMDPad,CuDef*
G36*
G01*
X49750000Y-26049000D02*
X49750000Y-25849000D01*
G75*
G02*
X49850000Y-25749000I100000J0D01*
G01*
X51125000Y-25749000D01*
G75*
G02*
X51225000Y-25849000I0J-100000D01*
G01*
X51225000Y-26049000D01*
G75*
G02*
X51125000Y-26149000I-100000J0D01*
G01*
X49850000Y-26149000D01*
G75*
G02*
X49750000Y-26049000I0J100000D01*
G01*
G37*
G04 #@! TD.AperFunction*
G04 #@! TA.AperFunction,SMDPad,CuDef*
G36*
G01*
X49750000Y-25399000D02*
X49750000Y-25199000D01*
G75*
G02*
X49850000Y-25099000I100000J0D01*
G01*
X51125000Y-25099000D01*
G75*
G02*
X51225000Y-25199000I0J-100000D01*
G01*
X51225000Y-25399000D01*
G75*
G02*
X51125000Y-25499000I-100000J0D01*
G01*
X49850000Y-25499000D01*
G75*
G02*
X49750000Y-25399000I0J100000D01*
G01*
G37*
G04 #@! TD.AperFunction*
G04 #@! TA.AperFunction,SMDPad,CuDef*
G36*
G01*
X49750000Y-24749000D02*
X49750000Y-24549000D01*
G75*
G02*
X49850000Y-24449000I100000J0D01*
G01*
X51125000Y-24449000D01*
G75*
G02*
X51225000Y-24549000I0J-100000D01*
G01*
X51225000Y-24749000D01*
G75*
G02*
X51125000Y-24849000I-100000J0D01*
G01*
X49850000Y-24849000D01*
G75*
G02*
X49750000Y-24749000I0J100000D01*
G01*
G37*
G04 #@! TD.AperFunction*
G04 #@! TA.AperFunction,SMDPad,CuDef*
G36*
G01*
X49750000Y-24099000D02*
X49750000Y-23899000D01*
G75*
G02*
X49850000Y-23799000I100000J0D01*
G01*
X51125000Y-23799000D01*
G75*
G02*
X51225000Y-23899000I0J-100000D01*
G01*
X51225000Y-24099000D01*
G75*
G02*
X51125000Y-24199000I-100000J0D01*
G01*
X49850000Y-24199000D01*
G75*
G02*
X49750000Y-24099000I0J100000D01*
G01*
G37*
G04 #@! TD.AperFunction*
G04 #@! TA.AperFunction,SMDPad,CuDef*
G36*
G01*
X44025000Y-24099000D02*
X44025000Y-23899000D01*
G75*
G02*
X44125000Y-23799000I100000J0D01*
G01*
X45400000Y-23799000D01*
G75*
G02*
X45500000Y-23899000I0J-100000D01*
G01*
X45500000Y-24099000D01*
G75*
G02*
X45400000Y-24199000I-100000J0D01*
G01*
X44125000Y-24199000D01*
G75*
G02*
X44025000Y-24099000I0J100000D01*
G01*
G37*
G04 #@! TD.AperFunction*
G04 #@! TA.AperFunction,SMDPad,CuDef*
G36*
G01*
X44025000Y-24749000D02*
X44025000Y-24549000D01*
G75*
G02*
X44125000Y-24449000I100000J0D01*
G01*
X45400000Y-24449000D01*
G75*
G02*
X45500000Y-24549000I0J-100000D01*
G01*
X45500000Y-24749000D01*
G75*
G02*
X45400000Y-24849000I-100000J0D01*
G01*
X44125000Y-24849000D01*
G75*
G02*
X44025000Y-24749000I0J100000D01*
G01*
G37*
G04 #@! TD.AperFunction*
G04 #@! TA.AperFunction,SMDPad,CuDef*
G36*
G01*
X44025000Y-25399000D02*
X44025000Y-25199000D01*
G75*
G02*
X44125000Y-25099000I100000J0D01*
G01*
X45400000Y-25099000D01*
G75*
G02*
X45500000Y-25199000I0J-100000D01*
G01*
X45500000Y-25399000D01*
G75*
G02*
X45400000Y-25499000I-100000J0D01*
G01*
X44125000Y-25499000D01*
G75*
G02*
X44025000Y-25399000I0J100000D01*
G01*
G37*
G04 #@! TD.AperFunction*
G04 #@! TA.AperFunction,SMDPad,CuDef*
G36*
G01*
X44025000Y-26049000D02*
X44025000Y-25849000D01*
G75*
G02*
X44125000Y-25749000I100000J0D01*
G01*
X45400000Y-25749000D01*
G75*
G02*
X45500000Y-25849000I0J-100000D01*
G01*
X45500000Y-26049000D01*
G75*
G02*
X45400000Y-26149000I-100000J0D01*
G01*
X44125000Y-26149000D01*
G75*
G02*
X44025000Y-26049000I0J100000D01*
G01*
G37*
G04 #@! TD.AperFunction*
G04 #@! TA.AperFunction,SMDPad,CuDef*
G36*
G01*
X44025000Y-26699000D02*
X44025000Y-26499000D01*
G75*
G02*
X44125000Y-26399000I100000J0D01*
G01*
X45400000Y-26399000D01*
G75*
G02*
X45500000Y-26499000I0J-100000D01*
G01*
X45500000Y-26699000D01*
G75*
G02*
X45400000Y-26799000I-100000J0D01*
G01*
X44125000Y-26799000D01*
G75*
G02*
X44025000Y-26699000I0J100000D01*
G01*
G37*
G04 #@! TD.AperFunction*
G04 #@! TA.AperFunction,SMDPad,CuDef*
G36*
G01*
X44025000Y-27349000D02*
X44025000Y-27149000D01*
G75*
G02*
X44125000Y-27049000I100000J0D01*
G01*
X45400000Y-27049000D01*
G75*
G02*
X45500000Y-27149000I0J-100000D01*
G01*
X45500000Y-27349000D01*
G75*
G02*
X45400000Y-27449000I-100000J0D01*
G01*
X44125000Y-27449000D01*
G75*
G02*
X44025000Y-27349000I0J100000D01*
G01*
G37*
G04 #@! TD.AperFunction*
G04 #@! TA.AperFunction,SMDPad,CuDef*
G36*
G01*
X44025000Y-27999000D02*
X44025000Y-27799000D01*
G75*
G02*
X44125000Y-27699000I100000J0D01*
G01*
X45400000Y-27699000D01*
G75*
G02*
X45500000Y-27799000I0J-100000D01*
G01*
X45500000Y-27999000D01*
G75*
G02*
X45400000Y-28099000I-100000J0D01*
G01*
X44125000Y-28099000D01*
G75*
G02*
X44025000Y-27999000I0J100000D01*
G01*
G37*
G04 #@! TD.AperFunction*
G04 #@! TA.AperFunction,SMDPad,CuDef*
G36*
G01*
X44025000Y-28649000D02*
X44025000Y-28449000D01*
G75*
G02*
X44125000Y-28349000I100000J0D01*
G01*
X45400000Y-28349000D01*
G75*
G02*
X45500000Y-28449000I0J-100000D01*
G01*
X45500000Y-28649000D01*
G75*
G02*
X45400000Y-28749000I-100000J0D01*
G01*
X44125000Y-28749000D01*
G75*
G02*
X44025000Y-28649000I0J100000D01*
G01*
G37*
G04 #@! TD.AperFunction*
G04 #@! TA.AperFunction,SMDPad,CuDef*
G36*
G01*
X44025000Y-29299000D02*
X44025000Y-29099000D01*
G75*
G02*
X44125000Y-28999000I100000J0D01*
G01*
X45400000Y-28999000D01*
G75*
G02*
X45500000Y-29099000I0J-100000D01*
G01*
X45500000Y-29299000D01*
G75*
G02*
X45400000Y-29399000I-100000J0D01*
G01*
X44125000Y-29399000D01*
G75*
G02*
X44025000Y-29299000I0J100000D01*
G01*
G37*
G04 #@! TD.AperFunction*
G04 #@! TA.AperFunction,SMDPad,CuDef*
G36*
G01*
X44025000Y-29949000D02*
X44025000Y-29749000D01*
G75*
G02*
X44125000Y-29649000I100000J0D01*
G01*
X45400000Y-29649000D01*
G75*
G02*
X45500000Y-29749000I0J-100000D01*
G01*
X45500000Y-29949000D01*
G75*
G02*
X45400000Y-30049000I-100000J0D01*
G01*
X44125000Y-30049000D01*
G75*
G02*
X44025000Y-29949000I0J100000D01*
G01*
G37*
G04 #@! TD.AperFunction*
G04 #@! TA.AperFunction,SMDPad,CuDef*
G36*
G01*
X34729000Y-21242000D02*
X34729000Y-22192000D01*
G75*
G02*
X34479000Y-22442000I-250000J0D01*
G01*
X33979000Y-22442000D01*
G75*
G02*
X33729000Y-22192000I0J250000D01*
G01*
X33729000Y-21242000D01*
G75*
G02*
X33979000Y-20992000I250000J0D01*
G01*
X34479000Y-20992000D01*
G75*
G02*
X34729000Y-21242000I0J-250000D01*
G01*
G37*
G04 #@! TD.AperFunction*
G04 #@! TA.AperFunction,SMDPad,CuDef*
G36*
G01*
X36629000Y-21242000D02*
X36629000Y-22192000D01*
G75*
G02*
X36379000Y-22442000I-250000J0D01*
G01*
X35879000Y-22442000D01*
G75*
G02*
X35629000Y-22192000I0J250000D01*
G01*
X35629000Y-21242000D01*
G75*
G02*
X35879000Y-20992000I250000J0D01*
G01*
X36379000Y-20992000D01*
G75*
G02*
X36629000Y-21242000I0J-250000D01*
G01*
G37*
G04 #@! TD.AperFunction*
G04 #@! TA.AperFunction,SMDPad,CuDef*
G36*
G01*
X34854400Y-35303750D02*
X34854400Y-35816250D01*
G75*
G02*
X34635650Y-36035000I-218750J0D01*
G01*
X34198150Y-36035000D01*
G75*
G02*
X33979400Y-35816250I0J218750D01*
G01*
X33979400Y-35303750D01*
G75*
G02*
X34198150Y-35085000I218750J0D01*
G01*
X34635650Y-35085000D01*
G75*
G02*
X34854400Y-35303750I0J-218750D01*
G01*
G37*
G04 #@! TD.AperFunction*
G04 #@! TA.AperFunction,SMDPad,CuDef*
G36*
G01*
X36429400Y-35303750D02*
X36429400Y-35816250D01*
G75*
G02*
X36210650Y-36035000I-218750J0D01*
G01*
X35773150Y-36035000D01*
G75*
G02*
X35554400Y-35816250I0J218750D01*
G01*
X35554400Y-35303750D01*
G75*
G02*
X35773150Y-35085000I218750J0D01*
G01*
X36210650Y-35085000D01*
G75*
G02*
X36429400Y-35303750I0J-218750D01*
G01*
G37*
G04 #@! TD.AperFunction*
D10*
X40894000Y-32893000D03*
D11*
X40894000Y-30353000D03*
G04 #@! TA.AperFunction,SMDPad,CuDef*
G36*
G01*
X32254000Y-23805000D02*
X31754000Y-23805000D01*
G75*
G02*
X31529000Y-23580000I0J225000D01*
G01*
X31529000Y-23130000D01*
G75*
G02*
X31754000Y-22905000I225000J0D01*
G01*
X32254000Y-22905000D01*
G75*
G02*
X32479000Y-23130000I0J-225000D01*
G01*
X32479000Y-23580000D01*
G75*
G02*
X32254000Y-23805000I-225000J0D01*
G01*
G37*
G04 #@! TD.AperFunction*
G04 #@! TA.AperFunction,SMDPad,CuDef*
G36*
G01*
X32254000Y-25355000D02*
X31754000Y-25355000D01*
G75*
G02*
X31529000Y-25130000I0J225000D01*
G01*
X31529000Y-24680000D01*
G75*
G02*
X31754000Y-24455000I225000J0D01*
G01*
X32254000Y-24455000D01*
G75*
G02*
X32479000Y-24680000I0J-225000D01*
G01*
X32479000Y-25130000D01*
G75*
G02*
X32254000Y-25355000I-225000J0D01*
G01*
G37*
G04 #@! TD.AperFunction*
G04 #@! TA.AperFunction,SMDPad,CuDef*
G36*
G01*
X30349000Y-23805000D02*
X29849000Y-23805000D01*
G75*
G02*
X29624000Y-23580000I0J225000D01*
G01*
X29624000Y-23130000D01*
G75*
G02*
X29849000Y-22905000I225000J0D01*
G01*
X30349000Y-22905000D01*
G75*
G02*
X30574000Y-23130000I0J-225000D01*
G01*
X30574000Y-23580000D01*
G75*
G02*
X30349000Y-23805000I-225000J0D01*
G01*
G37*
G04 #@! TD.AperFunction*
G04 #@! TA.AperFunction,SMDPad,CuDef*
G36*
G01*
X30349000Y-25355000D02*
X29849000Y-25355000D01*
G75*
G02*
X29624000Y-25130000I0J225000D01*
G01*
X29624000Y-24680000D01*
G75*
G02*
X29849000Y-24455000I225000J0D01*
G01*
X30349000Y-24455000D01*
G75*
G02*
X30574000Y-24680000I0J-225000D01*
G01*
X30574000Y-25130000D01*
G75*
G02*
X30349000Y-25355000I-225000J0D01*
G01*
G37*
G04 #@! TD.AperFunction*
G04 #@! TA.AperFunction,SMDPad,CuDef*
G36*
G01*
X50923000Y-31819000D02*
X50423000Y-31819000D01*
G75*
G02*
X50198000Y-31594000I0J225000D01*
G01*
X50198000Y-31144000D01*
G75*
G02*
X50423000Y-30919000I225000J0D01*
G01*
X50923000Y-30919000D01*
G75*
G02*
X51148000Y-31144000I0J-225000D01*
G01*
X51148000Y-31594000D01*
G75*
G02*
X50923000Y-31819000I-225000J0D01*
G01*
G37*
G04 #@! TD.AperFunction*
G04 #@! TA.AperFunction,SMDPad,CuDef*
G36*
G01*
X50923000Y-33369000D02*
X50423000Y-33369000D01*
G75*
G02*
X50198000Y-33144000I0J225000D01*
G01*
X50198000Y-32694000D01*
G75*
G02*
X50423000Y-32469000I225000J0D01*
G01*
X50923000Y-32469000D01*
G75*
G02*
X51148000Y-32694000I0J-225000D01*
G01*
X51148000Y-33144000D01*
G75*
G02*
X50923000Y-33369000I-225000J0D01*
G01*
G37*
G04 #@! TD.AperFunction*
G04 #@! TA.AperFunction,SMDPad,CuDef*
G36*
G01*
X44827000Y-31819000D02*
X44327000Y-31819000D01*
G75*
G02*
X44102000Y-31594000I0J225000D01*
G01*
X44102000Y-31144000D01*
G75*
G02*
X44327000Y-30919000I225000J0D01*
G01*
X44827000Y-30919000D01*
G75*
G02*
X45052000Y-31144000I0J-225000D01*
G01*
X45052000Y-31594000D01*
G75*
G02*
X44827000Y-31819000I-225000J0D01*
G01*
G37*
G04 #@! TD.AperFunction*
G04 #@! TA.AperFunction,SMDPad,CuDef*
G36*
G01*
X44827000Y-33369000D02*
X44327000Y-33369000D01*
G75*
G02*
X44102000Y-33144000I0J225000D01*
G01*
X44102000Y-32694000D01*
G75*
G02*
X44327000Y-32469000I225000J0D01*
G01*
X44827000Y-32469000D01*
G75*
G02*
X45052000Y-32694000I0J-225000D01*
G01*
X45052000Y-33144000D01*
G75*
G02*
X44827000Y-33369000I-225000J0D01*
G01*
G37*
G04 #@! TD.AperFunction*
G04 #@! TA.AperFunction,SMDPad,CuDef*
G36*
G01*
X38350000Y-25075000D02*
X37850000Y-25075000D01*
G75*
G02*
X37625000Y-24850000I0J225000D01*
G01*
X37625000Y-24400000D01*
G75*
G02*
X37850000Y-24175000I225000J0D01*
G01*
X38350000Y-24175000D01*
G75*
G02*
X38575000Y-24400000I0J-225000D01*
G01*
X38575000Y-24850000D01*
G75*
G02*
X38350000Y-25075000I-225000J0D01*
G01*
G37*
G04 #@! TD.AperFunction*
G04 #@! TA.AperFunction,SMDPad,CuDef*
G36*
G01*
X38350000Y-26625000D02*
X37850000Y-26625000D01*
G75*
G02*
X37625000Y-26400000I0J225000D01*
G01*
X37625000Y-25950000D01*
G75*
G02*
X37850000Y-25725000I225000J0D01*
G01*
X38350000Y-25725000D01*
G75*
G02*
X38575000Y-25950000I0J-225000D01*
G01*
X38575000Y-26400000D01*
G75*
G02*
X38350000Y-26625000I-225000J0D01*
G01*
G37*
G04 #@! TD.AperFunction*
G04 #@! TA.AperFunction,SMDPad,CuDef*
G36*
G01*
X35504000Y-28698000D02*
X35504000Y-28198000D01*
G75*
G02*
X35729000Y-27973000I225000J0D01*
G01*
X36179000Y-27973000D01*
G75*
G02*
X36404000Y-28198000I0J-225000D01*
G01*
X36404000Y-28698000D01*
G75*
G02*
X36179000Y-28923000I-225000J0D01*
G01*
X35729000Y-28923000D01*
G75*
G02*
X35504000Y-28698000I0J225000D01*
G01*
G37*
G04 #@! TD.AperFunction*
G04 #@! TA.AperFunction,SMDPad,CuDef*
G36*
G01*
X33954000Y-28698000D02*
X33954000Y-28198000D01*
G75*
G02*
X34179000Y-27973000I225000J0D01*
G01*
X34629000Y-27973000D01*
G75*
G02*
X34854000Y-28198000I0J-225000D01*
G01*
X34854000Y-28698000D01*
G75*
G02*
X34629000Y-28923000I-225000J0D01*
G01*
X34179000Y-28923000D01*
G75*
G02*
X33954000Y-28698000I0J225000D01*
G01*
G37*
G04 #@! TD.AperFunction*
G04 #@! TA.AperFunction,SMDPad,CuDef*
G36*
G01*
X42295000Y-26487000D02*
X42795000Y-26487000D01*
G75*
G02*
X43020000Y-26712000I0J-225000D01*
G01*
X43020000Y-27162000D01*
G75*
G02*
X42795000Y-27387000I-225000J0D01*
G01*
X42295000Y-27387000D01*
G75*
G02*
X42070000Y-27162000I0J225000D01*
G01*
X42070000Y-26712000D01*
G75*
G02*
X42295000Y-26487000I225000J0D01*
G01*
G37*
G04 #@! TD.AperFunction*
G04 #@! TA.AperFunction,SMDPad,CuDef*
G36*
G01*
X42295000Y-24937000D02*
X42795000Y-24937000D01*
G75*
G02*
X43020000Y-25162000I0J-225000D01*
G01*
X43020000Y-25612000D01*
G75*
G02*
X42795000Y-25837000I-225000J0D01*
G01*
X42295000Y-25837000D01*
G75*
G02*
X42070000Y-25612000I0J225000D01*
G01*
X42070000Y-25162000D01*
G75*
G02*
X42295000Y-24937000I225000J0D01*
G01*
G37*
G04 #@! TD.AperFunction*
G04 #@! TA.AperFunction,SMDPad,CuDef*
G36*
G01*
X68219000Y-26141000D02*
X68219000Y-26691000D01*
G75*
G02*
X68019000Y-26891000I-200000J0D01*
G01*
X67619000Y-26891000D01*
G75*
G02*
X67419000Y-26691000I0J200000D01*
G01*
X67419000Y-26141000D01*
G75*
G02*
X67619000Y-25941000I200000J0D01*
G01*
X68019000Y-25941000D01*
G75*
G02*
X68219000Y-26141000I0J-200000D01*
G01*
G37*
G04 #@! TD.AperFunction*
G04 #@! TA.AperFunction,SMDPad,CuDef*
G36*
G01*
X69869000Y-26141000D02*
X69869000Y-26691000D01*
G75*
G02*
X69669000Y-26891000I-200000J0D01*
G01*
X69269000Y-26891000D01*
G75*
G02*
X69069000Y-26691000I0J200000D01*
G01*
X69069000Y-26141000D01*
G75*
G02*
X69269000Y-25941000I200000J0D01*
G01*
X69669000Y-25941000D01*
G75*
G02*
X69869000Y-26141000I0J-200000D01*
G01*
G37*
G04 #@! TD.AperFunction*
G04 #@! TA.AperFunction,SMDPad,CuDef*
G36*
G01*
X41040000Y-20807000D02*
X41040000Y-21357000D01*
G75*
G02*
X40840000Y-21557000I-200000J0D01*
G01*
X40440000Y-21557000D01*
G75*
G02*
X40240000Y-21357000I0J200000D01*
G01*
X40240000Y-20807000D01*
G75*
G02*
X40440000Y-20607000I200000J0D01*
G01*
X40840000Y-20607000D01*
G75*
G02*
X41040000Y-20807000I0J-200000D01*
G01*
G37*
G04 #@! TD.AperFunction*
G04 #@! TA.AperFunction,SMDPad,CuDef*
G36*
G01*
X42690000Y-20807000D02*
X42690000Y-21357000D01*
G75*
G02*
X42490000Y-21557000I-200000J0D01*
G01*
X42090000Y-21557000D01*
G75*
G02*
X41890000Y-21357000I0J200000D01*
G01*
X41890000Y-20807000D01*
G75*
G02*
X42090000Y-20607000I200000J0D01*
G01*
X42490000Y-20607000D01*
G75*
G02*
X42690000Y-20807000I0J-200000D01*
G01*
G37*
G04 #@! TD.AperFunction*
G04 #@! TA.AperFunction,SMDPad,CuDef*
G36*
G01*
X65893000Y-30755000D02*
X65893000Y-30205000D01*
G75*
G02*
X66093000Y-30005000I200000J0D01*
G01*
X66493000Y-30005000D01*
G75*
G02*
X66693000Y-30205000I0J-200000D01*
G01*
X66693000Y-30755000D01*
G75*
G02*
X66493000Y-30955000I-200000J0D01*
G01*
X66093000Y-30955000D01*
G75*
G02*
X65893000Y-30755000I0J200000D01*
G01*
G37*
G04 #@! TD.AperFunction*
G04 #@! TA.AperFunction,SMDPad,CuDef*
G36*
G01*
X64243000Y-30755000D02*
X64243000Y-30205000D01*
G75*
G02*
X64443000Y-30005000I200000J0D01*
G01*
X64843000Y-30005000D01*
G75*
G02*
X65043000Y-30205000I0J-200000D01*
G01*
X65043000Y-30755000D01*
G75*
G02*
X64843000Y-30955000I-200000J0D01*
G01*
X64443000Y-30955000D01*
G75*
G02*
X64243000Y-30755000I0J200000D01*
G01*
G37*
G04 #@! TD.AperFunction*
G04 #@! TA.AperFunction,SMDPad,CuDef*
G36*
G01*
X64155000Y-26141000D02*
X64155000Y-26691000D01*
G75*
G02*
X63955000Y-26891000I-200000J0D01*
G01*
X63555000Y-26891000D01*
G75*
G02*
X63355000Y-26691000I0J200000D01*
G01*
X63355000Y-26141000D01*
G75*
G02*
X63555000Y-25941000I200000J0D01*
G01*
X63955000Y-25941000D01*
G75*
G02*
X64155000Y-26141000I0J-200000D01*
G01*
G37*
G04 #@! TD.AperFunction*
G04 #@! TA.AperFunction,SMDPad,CuDef*
G36*
G01*
X65805000Y-26141000D02*
X65805000Y-26691000D01*
G75*
G02*
X65605000Y-26891000I-200000J0D01*
G01*
X65205000Y-26891000D01*
G75*
G02*
X65005000Y-26691000I0J200000D01*
G01*
X65005000Y-26141000D01*
G75*
G02*
X65205000Y-25941000I200000J0D01*
G01*
X65605000Y-25941000D01*
G75*
G02*
X65805000Y-26141000I0J-200000D01*
G01*
G37*
G04 #@! TD.AperFunction*
G04 #@! TA.AperFunction,SMDPad,CuDef*
G36*
G01*
X60091000Y-26141000D02*
X60091000Y-26691000D01*
G75*
G02*
X59891000Y-26891000I-200000J0D01*
G01*
X59491000Y-26891000D01*
G75*
G02*
X59291000Y-26691000I0J200000D01*
G01*
X59291000Y-26141000D01*
G75*
G02*
X59491000Y-25941000I200000J0D01*
G01*
X59891000Y-25941000D01*
G75*
G02*
X60091000Y-26141000I0J-200000D01*
G01*
G37*
G04 #@! TD.AperFunction*
G04 #@! TA.AperFunction,SMDPad,CuDef*
G36*
G01*
X61741000Y-26141000D02*
X61741000Y-26691000D01*
G75*
G02*
X61541000Y-26891000I-200000J0D01*
G01*
X61141000Y-26891000D01*
G75*
G02*
X60941000Y-26691000I0J200000D01*
G01*
X60941000Y-26141000D01*
G75*
G02*
X61141000Y-25941000I200000J0D01*
G01*
X61541000Y-25941000D01*
G75*
G02*
X61741000Y-26141000I0J-200000D01*
G01*
G37*
G04 #@! TD.AperFunction*
G04 #@! TA.AperFunction,SMDPad,CuDef*
G36*
G01*
X59203000Y-30817000D02*
X58653000Y-30817000D01*
G75*
G02*
X58453000Y-30617000I0J200000D01*
G01*
X58453000Y-30217000D01*
G75*
G02*
X58653000Y-30017000I200000J0D01*
G01*
X59203000Y-30017000D01*
G75*
G02*
X59403000Y-30217000I0J-200000D01*
G01*
X59403000Y-30617000D01*
G75*
G02*
X59203000Y-30817000I-200000J0D01*
G01*
G37*
G04 #@! TD.AperFunction*
G04 #@! TA.AperFunction,SMDPad,CuDef*
G36*
G01*
X59203000Y-32467000D02*
X58653000Y-32467000D01*
G75*
G02*
X58453000Y-32267000I0J200000D01*
G01*
X58453000Y-31867000D01*
G75*
G02*
X58653000Y-31667000I200000J0D01*
G01*
X59203000Y-31667000D01*
G75*
G02*
X59403000Y-31867000I0J-200000D01*
G01*
X59403000Y-32267000D01*
G75*
G02*
X59203000Y-32467000I-200000J0D01*
G01*
G37*
G04 #@! TD.AperFunction*
G04 #@! TA.AperFunction,SMDPad,CuDef*
G36*
G01*
X62759000Y-30817000D02*
X62209000Y-30817000D01*
G75*
G02*
X62009000Y-30617000I0J200000D01*
G01*
X62009000Y-30217000D01*
G75*
G02*
X62209000Y-30017000I200000J0D01*
G01*
X62759000Y-30017000D01*
G75*
G02*
X62959000Y-30217000I0J-200000D01*
G01*
X62959000Y-30617000D01*
G75*
G02*
X62759000Y-30817000I-200000J0D01*
G01*
G37*
G04 #@! TD.AperFunction*
G04 #@! TA.AperFunction,SMDPad,CuDef*
G36*
G01*
X62759000Y-32467000D02*
X62209000Y-32467000D01*
G75*
G02*
X62009000Y-32267000I0J200000D01*
G01*
X62009000Y-31867000D01*
G75*
G02*
X62209000Y-31667000I200000J0D01*
G01*
X62759000Y-31667000D01*
G75*
G02*
X62959000Y-31867000I0J-200000D01*
G01*
X62959000Y-32267000D01*
G75*
G02*
X62759000Y-32467000I-200000J0D01*
G01*
G37*
G04 #@! TD.AperFunction*
G04 #@! TA.AperFunction,SMDPad,CuDef*
G36*
G01*
X55097000Y-24428000D02*
X55647000Y-24428000D01*
G75*
G02*
X55847000Y-24628000I0J-200000D01*
G01*
X55847000Y-25028000D01*
G75*
G02*
X55647000Y-25228000I-200000J0D01*
G01*
X55097000Y-25228000D01*
G75*
G02*
X54897000Y-25028000I0J200000D01*
G01*
X54897000Y-24628000D01*
G75*
G02*
X55097000Y-24428000I200000J0D01*
G01*
G37*
G04 #@! TD.AperFunction*
G04 #@! TA.AperFunction,SMDPad,CuDef*
G36*
G01*
X55097000Y-22778000D02*
X55647000Y-22778000D01*
G75*
G02*
X55847000Y-22978000I0J-200000D01*
G01*
X55847000Y-23378000D01*
G75*
G02*
X55647000Y-23578000I-200000J0D01*
G01*
X55097000Y-23578000D01*
G75*
G02*
X54897000Y-23378000I0J200000D01*
G01*
X54897000Y-22978000D01*
G75*
G02*
X55097000Y-22778000I200000J0D01*
G01*
G37*
G04 #@! TD.AperFunction*
G04 #@! TA.AperFunction,SMDPad,CuDef*
G36*
G01*
X55647000Y-30817000D02*
X55097000Y-30817000D01*
G75*
G02*
X54897000Y-30617000I0J200000D01*
G01*
X54897000Y-30217000D01*
G75*
G02*
X55097000Y-30017000I200000J0D01*
G01*
X55647000Y-30017000D01*
G75*
G02*
X55847000Y-30217000I0J-200000D01*
G01*
X55847000Y-30617000D01*
G75*
G02*
X55647000Y-30817000I-200000J0D01*
G01*
G37*
G04 #@! TD.AperFunction*
G04 #@! TA.AperFunction,SMDPad,CuDef*
G36*
G01*
X55647000Y-32467000D02*
X55097000Y-32467000D01*
G75*
G02*
X54897000Y-32267000I0J200000D01*
G01*
X54897000Y-31867000D01*
G75*
G02*
X55097000Y-31667000I200000J0D01*
G01*
X55647000Y-31667000D01*
G75*
G02*
X55847000Y-31867000I0J-200000D01*
G01*
X55847000Y-32267000D01*
G75*
G02*
X55647000Y-32467000I-200000J0D01*
G01*
G37*
G04 #@! TD.AperFunction*
G04 #@! TA.AperFunction,SMDPad,CuDef*
G36*
G01*
X57425000Y-30817000D02*
X56875000Y-30817000D01*
G75*
G02*
X56675000Y-30617000I0J200000D01*
G01*
X56675000Y-30217000D01*
G75*
G02*
X56875000Y-30017000I200000J0D01*
G01*
X57425000Y-30017000D01*
G75*
G02*
X57625000Y-30217000I0J-200000D01*
G01*
X57625000Y-30617000D01*
G75*
G02*
X57425000Y-30817000I-200000J0D01*
G01*
G37*
G04 #@! TD.AperFunction*
G04 #@! TA.AperFunction,SMDPad,CuDef*
G36*
G01*
X57425000Y-32467000D02*
X56875000Y-32467000D01*
G75*
G02*
X56675000Y-32267000I0J200000D01*
G01*
X56675000Y-31867000D01*
G75*
G02*
X56875000Y-31667000I200000J0D01*
G01*
X57425000Y-31667000D01*
G75*
G02*
X57625000Y-31867000I0J-200000D01*
G01*
X57625000Y-32267000D01*
G75*
G02*
X57425000Y-32467000I-200000J0D01*
G01*
G37*
G04 #@! TD.AperFunction*
G04 #@! TA.AperFunction,SMDPad,CuDef*
G36*
G01*
X60981000Y-30817000D02*
X60431000Y-30817000D01*
G75*
G02*
X60231000Y-30617000I0J200000D01*
G01*
X60231000Y-30217000D01*
G75*
G02*
X60431000Y-30017000I200000J0D01*
G01*
X60981000Y-30017000D01*
G75*
G02*
X61181000Y-30217000I0J-200000D01*
G01*
X61181000Y-30617000D01*
G75*
G02*
X60981000Y-30817000I-200000J0D01*
G01*
G37*
G04 #@! TD.AperFunction*
G04 #@! TA.AperFunction,SMDPad,CuDef*
G36*
G01*
X60981000Y-32467000D02*
X60431000Y-32467000D01*
G75*
G02*
X60231000Y-32267000I0J200000D01*
G01*
X60231000Y-31867000D01*
G75*
G02*
X60431000Y-31667000I200000J0D01*
G01*
X60981000Y-31667000D01*
G75*
G02*
X61181000Y-31867000I0J-200000D01*
G01*
X61181000Y-32267000D01*
G75*
G02*
X60981000Y-32467000I-200000J0D01*
G01*
G37*
G04 #@! TD.AperFunction*
G04 #@! TA.AperFunction,SMDPad,CuDef*
G36*
G01*
X56875000Y-24428000D02*
X57425000Y-24428000D01*
G75*
G02*
X57625000Y-24628000I0J-200000D01*
G01*
X57625000Y-25028000D01*
G75*
G02*
X57425000Y-25228000I-200000J0D01*
G01*
X56875000Y-25228000D01*
G75*
G02*
X56675000Y-25028000I0J200000D01*
G01*
X56675000Y-24628000D01*
G75*
G02*
X56875000Y-24428000I200000J0D01*
G01*
G37*
G04 #@! TD.AperFunction*
G04 #@! TA.AperFunction,SMDPad,CuDef*
G36*
G01*
X56875000Y-22778000D02*
X57425000Y-22778000D01*
G75*
G02*
X57625000Y-22978000I0J-200000D01*
G01*
X57625000Y-23378000D01*
G75*
G02*
X57425000Y-23578000I-200000J0D01*
G01*
X56875000Y-23578000D01*
G75*
G02*
X56675000Y-23378000I0J200000D01*
G01*
X56675000Y-22978000D01*
G75*
G02*
X56875000Y-22778000I200000J0D01*
G01*
G37*
G04 #@! TD.AperFunction*
G04 #@! TA.AperFunction,SMDPad,CuDef*
G36*
G01*
X53319000Y-24428000D02*
X53869000Y-24428000D01*
G75*
G02*
X54069000Y-24628000I0J-200000D01*
G01*
X54069000Y-25028000D01*
G75*
G02*
X53869000Y-25228000I-200000J0D01*
G01*
X53319000Y-25228000D01*
G75*
G02*
X53119000Y-25028000I0J200000D01*
G01*
X53119000Y-24628000D01*
G75*
G02*
X53319000Y-24428000I200000J0D01*
G01*
G37*
G04 #@! TD.AperFunction*
G04 #@! TA.AperFunction,SMDPad,CuDef*
G36*
G01*
X53319000Y-22778000D02*
X53869000Y-22778000D01*
G75*
G02*
X54069000Y-22978000I0J-200000D01*
G01*
X54069000Y-23378000D01*
G75*
G02*
X53869000Y-23578000I-200000J0D01*
G01*
X53319000Y-23578000D01*
G75*
G02*
X53119000Y-23378000I0J200000D01*
G01*
X53119000Y-22978000D01*
G75*
G02*
X53319000Y-22778000I200000J0D01*
G01*
G37*
G04 #@! TD.AperFunction*
G04 #@! TA.AperFunction,SMDPad,CuDef*
G36*
G01*
X41890000Y-23135000D02*
X41890000Y-22585000D01*
G75*
G02*
X42090000Y-22385000I200000J0D01*
G01*
X42490000Y-22385000D01*
G75*
G02*
X42690000Y-22585000I0J-200000D01*
G01*
X42690000Y-23135000D01*
G75*
G02*
X42490000Y-23335000I-200000J0D01*
G01*
X42090000Y-23335000D01*
G75*
G02*
X41890000Y-23135000I0J200000D01*
G01*
G37*
G04 #@! TD.AperFunction*
G04 #@! TA.AperFunction,SMDPad,CuDef*
G36*
G01*
X40240000Y-23135000D02*
X40240000Y-22585000D01*
G75*
G02*
X40440000Y-22385000I200000J0D01*
G01*
X40840000Y-22385000D01*
G75*
G02*
X41040000Y-22585000I0J-200000D01*
G01*
X41040000Y-23135000D01*
G75*
G02*
X40840000Y-23335000I-200000J0D01*
G01*
X40440000Y-23335000D01*
G75*
G02*
X40240000Y-23135000I0J200000D01*
G01*
G37*
G04 #@! TD.AperFunction*
G04 #@! TA.AperFunction,SMDPad,CuDef*
G36*
G01*
X71776000Y-31325000D02*
X71226000Y-31325000D01*
G75*
G02*
X71026000Y-31125000I0J200000D01*
G01*
X71026000Y-30725000D01*
G75*
G02*
X71226000Y-30525000I200000J0D01*
G01*
X71776000Y-30525000D01*
G75*
G02*
X71976000Y-30725000I0J-200000D01*
G01*
X71976000Y-31125000D01*
G75*
G02*
X71776000Y-31325000I-200000J0D01*
G01*
G37*
G04 #@! TD.AperFunction*
G04 #@! TA.AperFunction,SMDPad,CuDef*
G36*
G01*
X71776000Y-32975000D02*
X71226000Y-32975000D01*
G75*
G02*
X71026000Y-32775000I0J200000D01*
G01*
X71026000Y-32375000D01*
G75*
G02*
X71226000Y-32175000I200000J0D01*
G01*
X71776000Y-32175000D01*
G75*
G02*
X71976000Y-32375000I0J-200000D01*
G01*
X71976000Y-32775000D01*
G75*
G02*
X71776000Y-32975000I-200000J0D01*
G01*
G37*
G04 #@! TD.AperFunction*
G04 #@! TA.AperFunction,SMDPad,CuDef*
G36*
G01*
X71776000Y-23705000D02*
X71226000Y-23705000D01*
G75*
G02*
X71026000Y-23505000I0J200000D01*
G01*
X71026000Y-23105000D01*
G75*
G02*
X71226000Y-22905000I200000J0D01*
G01*
X71776000Y-22905000D01*
G75*
G02*
X71976000Y-23105000I0J-200000D01*
G01*
X71976000Y-23505000D01*
G75*
G02*
X71776000Y-23705000I-200000J0D01*
G01*
G37*
G04 #@! TD.AperFunction*
G04 #@! TA.AperFunction,SMDPad,CuDef*
G36*
G01*
X71776000Y-25355000D02*
X71226000Y-25355000D01*
G75*
G02*
X71026000Y-25155000I0J200000D01*
G01*
X71026000Y-24755000D01*
G75*
G02*
X71226000Y-24555000I200000J0D01*
G01*
X71776000Y-24555000D01*
G75*
G02*
X71976000Y-24755000I0J-200000D01*
G01*
X71976000Y-25155000D01*
G75*
G02*
X71776000Y-25355000I-200000J0D01*
G01*
G37*
G04 #@! TD.AperFunction*
G04 #@! TA.AperFunction,SMDPad,CuDef*
G36*
G01*
X28469000Y-23705000D02*
X27919000Y-23705000D01*
G75*
G02*
X27719000Y-23505000I0J200000D01*
G01*
X27719000Y-23105000D01*
G75*
G02*
X27919000Y-22905000I200000J0D01*
G01*
X28469000Y-22905000D01*
G75*
G02*
X28669000Y-23105000I0J-200000D01*
G01*
X28669000Y-23505000D01*
G75*
G02*
X28469000Y-23705000I-200000J0D01*
G01*
G37*
G04 #@! TD.AperFunction*
G04 #@! TA.AperFunction,SMDPad,CuDef*
G36*
G01*
X28469000Y-25355000D02*
X27919000Y-25355000D01*
G75*
G02*
X27719000Y-25155000I0J200000D01*
G01*
X27719000Y-24755000D01*
G75*
G02*
X27919000Y-24555000I200000J0D01*
G01*
X28469000Y-24555000D01*
G75*
G02*
X28669000Y-24755000I0J-200000D01*
G01*
X28669000Y-25155000D01*
G75*
G02*
X28469000Y-25355000I-200000J0D01*
G01*
G37*
G04 #@! TD.AperFunction*
G04 #@! TA.AperFunction,SMDPad,CuDef*
G36*
G01*
X35629400Y-32279000D02*
X35629400Y-31729000D01*
G75*
G02*
X35829400Y-31529000I200000J0D01*
G01*
X36229400Y-31529000D01*
G75*
G02*
X36429400Y-31729000I0J-200000D01*
G01*
X36429400Y-32279000D01*
G75*
G02*
X36229400Y-32479000I-200000J0D01*
G01*
X35829400Y-32479000D01*
G75*
G02*
X35629400Y-32279000I0J200000D01*
G01*
G37*
G04 #@! TD.AperFunction*
G04 #@! TA.AperFunction,SMDPad,CuDef*
G36*
G01*
X33979400Y-32279000D02*
X33979400Y-31729000D01*
G75*
G02*
X34179400Y-31529000I200000J0D01*
G01*
X34579400Y-31529000D01*
G75*
G02*
X34779400Y-31729000I0J-200000D01*
G01*
X34779400Y-32279000D01*
G75*
G02*
X34579400Y-32479000I-200000J0D01*
G01*
X34179400Y-32479000D01*
G75*
G02*
X33979400Y-32279000I0J200000D01*
G01*
G37*
G04 #@! TD.AperFunction*
G04 #@! TA.AperFunction,SMDPad,CuDef*
G36*
G01*
X35629400Y-30501000D02*
X35629400Y-29951000D01*
G75*
G02*
X35829400Y-29751000I200000J0D01*
G01*
X36229400Y-29751000D01*
G75*
G02*
X36429400Y-29951000I0J-200000D01*
G01*
X36429400Y-30501000D01*
G75*
G02*
X36229400Y-30701000I-200000J0D01*
G01*
X35829400Y-30701000D01*
G75*
G02*
X35629400Y-30501000I0J200000D01*
G01*
G37*
G04 #@! TD.AperFunction*
G04 #@! TA.AperFunction,SMDPad,CuDef*
G36*
G01*
X33979400Y-30501000D02*
X33979400Y-29951000D01*
G75*
G02*
X34179400Y-29751000I200000J0D01*
G01*
X34579400Y-29751000D01*
G75*
G02*
X34779400Y-29951000I0J-200000D01*
G01*
X34779400Y-30501000D01*
G75*
G02*
X34579400Y-30701000I-200000J0D01*
G01*
X34179400Y-30701000D01*
G75*
G02*
X33979400Y-30501000I0J200000D01*
G01*
G37*
G04 #@! TD.AperFunction*
G04 #@! TA.AperFunction,SMDPad,CuDef*
G36*
G01*
X34779400Y-33507000D02*
X34779400Y-34057000D01*
G75*
G02*
X34579400Y-34257000I-200000J0D01*
G01*
X34179400Y-34257000D01*
G75*
G02*
X33979400Y-34057000I0J200000D01*
G01*
X33979400Y-33507000D01*
G75*
G02*
X34179400Y-33307000I200000J0D01*
G01*
X34579400Y-33307000D01*
G75*
G02*
X34779400Y-33507000I0J-200000D01*
G01*
G37*
G04 #@! TD.AperFunction*
G04 #@! TA.AperFunction,SMDPad,CuDef*
G36*
G01*
X36429400Y-33507000D02*
X36429400Y-34057000D01*
G75*
G02*
X36229400Y-34257000I-200000J0D01*
G01*
X35829400Y-34257000D01*
G75*
G02*
X35629400Y-34057000I0J200000D01*
G01*
X35629400Y-33507000D01*
G75*
G02*
X35829400Y-33307000I200000J0D01*
G01*
X36229400Y-33307000D01*
G75*
G02*
X36429400Y-33507000I0J-200000D01*
G01*
G37*
G04 #@! TD.AperFunction*
D12*
X60386000Y-22765000D03*
X59436000Y-24765000D03*
X61336000Y-24765000D03*
X65598000Y-34131000D03*
X66548000Y-32131000D03*
X64648000Y-32131000D03*
D13*
X34322000Y-25146000D03*
X36322000Y-26096000D03*
X36322000Y-24196000D03*
D12*
X64450000Y-22765000D03*
X63500000Y-24765000D03*
X65400000Y-24765000D03*
X68514000Y-22765000D03*
X67564000Y-24765000D03*
X69464000Y-24765000D03*
D14*
X44450000Y-20955000D03*
X46990000Y-20955000D03*
X49530000Y-20955000D03*
X52070000Y-20955000D03*
X54610000Y-20955000D03*
X57150000Y-20955000D03*
X57150000Y-36195000D03*
X54610000Y-36195000D03*
X52070000Y-36195000D03*
X49530000Y-36195000D03*
X46990000Y-36195000D03*
D15*
X44450000Y-36195000D03*
D16*
X48875000Y-32918400D03*
X46375000Y-32918400D03*
D17*
X75186400Y-31107500D03*
X75186400Y-34932500D03*
X73686400Y-34932500D03*
X73686400Y-31107500D03*
X75186400Y-23487500D03*
X75186400Y-27312500D03*
X73686400Y-27312500D03*
X73686400Y-23487500D03*
D18*
X28275200Y-35435000D03*
X32075200Y-35435000D03*
X28275200Y-26795000D03*
D19*
X32225200Y-28365000D03*
D20*
X32225200Y-29595000D03*
D21*
X32225200Y-30615000D03*
X32225200Y-31615000D03*
D20*
X32225200Y-32635000D03*
D18*
X32075200Y-26795000D03*
D19*
X32225200Y-33865000D03*
D22*
X71501000Y-41402000D03*
D23*
X69476000Y-41402000D03*
X70069109Y-42833891D03*
X71501000Y-43427000D03*
X72932891Y-42833891D03*
X73526000Y-41402000D03*
X72932891Y-39970109D03*
X71501000Y-39377000D03*
X70069109Y-39970109D03*
D22*
X30099000Y-41402000D03*
D23*
X32124000Y-41402000D03*
X31530891Y-39970109D03*
X30099000Y-39377000D03*
X28667109Y-39970109D03*
X28074000Y-41402000D03*
X28667109Y-42833891D03*
X30099000Y-43427000D03*
X31530891Y-42833891D03*
D24*
X61595000Y-33782000D03*
X60960000Y-21590002D03*
X64135000Y-21590000D03*
X68199000Y-21590000D03*
X37084000Y-28448000D03*
X37084000Y-30226000D03*
X37084000Y-32004000D03*
X37084000Y-35560000D03*
X38100000Y-23495000D03*
X33020000Y-21717000D03*
X42545000Y-28067000D03*
X30861000Y-28448000D03*
X30861000Y-33782000D03*
X28194000Y-22225000D03*
X30099000Y-22225000D03*
X32004000Y-22225000D03*
X36322000Y-23114000D03*
X43434000Y-31369000D03*
X40640000Y-19939000D03*
X58356500Y-24765000D03*
X62420500Y-24765000D03*
X66484500Y-24765000D03*
X67691000Y-32131000D03*
X75057000Y-29718000D03*
X75057000Y-36322000D03*
X75057000Y-28702000D03*
X75057000Y-22098000D03*
X46379845Y-26067979D03*
X49530000Y-31115000D03*
X37084000Y-33782000D03*
X38100000Y-27305000D03*
X37338000Y-21717000D03*
X42545000Y-24257000D03*
X36322000Y-27178000D03*
X39497000Y-22860000D03*
X71501000Y-33655000D03*
X71501000Y-26035000D03*
X46355000Y-24638000D03*
X70485000Y-22606000D03*
X53219231Y-29712808D03*
X71501000Y-29845000D03*
X52324000Y-30353000D03*
X47752000Y-26543000D03*
X58610500Y-25971500D03*
X62738000Y-26416000D03*
X47625000Y-27559000D03*
X66802000Y-26416000D03*
X47625000Y-28702000D03*
X66294000Y-29337000D03*
X48767996Y-28956000D03*
D25*
X62484000Y-32893000D02*
X61595000Y-33782000D01*
X62484000Y-32067000D02*
X62484000Y-32893000D01*
X55372000Y-23178000D02*
X54546000Y-22352000D01*
X50927000Y-22352000D02*
X49530000Y-20955000D01*
X54546000Y-22352000D02*
X50927000Y-22352000D01*
D26*
X60386000Y-22765000D02*
X60386000Y-22164002D01*
X60386000Y-22164002D02*
X60960000Y-21590002D01*
D25*
X48841011Y-22806011D02*
X46990000Y-20955000D01*
X52143011Y-22806011D02*
X48841011Y-22806011D01*
X52515000Y-23178000D02*
X52143011Y-22806011D01*
X53594000Y-23178000D02*
X52515000Y-23178000D01*
X57150000Y-23178000D02*
X57150000Y-20955000D01*
X58928000Y-32639000D02*
X58928000Y-32067000D01*
X57096011Y-34470989D02*
X58928000Y-32639000D01*
X52016011Y-34470989D02*
X57096011Y-34470989D01*
X50292000Y-36195000D02*
X52016011Y-34470989D01*
X49530000Y-36195000D02*
X50292000Y-36195000D01*
X60706000Y-32766000D02*
X60706000Y-32067000D01*
X58547000Y-34925000D02*
X60706000Y-32766000D01*
X52070000Y-36195000D02*
X53340000Y-34925000D01*
X53340000Y-34925000D02*
X58547000Y-34925000D01*
X57150000Y-32639000D02*
X57150000Y-32067000D01*
X55772022Y-34016978D02*
X57150000Y-32639000D01*
X51827954Y-34016978D02*
X55772022Y-34016978D01*
X50919932Y-34925000D02*
X51827954Y-34016978D01*
X48260000Y-34925000D02*
X50919932Y-34925000D01*
X46990000Y-36195000D02*
X48260000Y-34925000D01*
X55372000Y-32639000D02*
X55372000Y-32067000D01*
X54483000Y-33528000D02*
X55372000Y-32639000D01*
X51674864Y-33528000D02*
X54483000Y-33528000D01*
X50785864Y-34417000D02*
X51674864Y-33528000D01*
X46228000Y-34417000D02*
X50785864Y-34417000D01*
X44450000Y-36195000D02*
X46228000Y-34417000D01*
D26*
X64450000Y-22765000D02*
X64450000Y-21905000D01*
X64450000Y-21905000D02*
X64135000Y-21590000D01*
X68514000Y-21905000D02*
X68199000Y-21590000D01*
X68514000Y-22765000D02*
X68514000Y-21905000D01*
X64389000Y-36195000D02*
X57150000Y-36195000D01*
X65598000Y-34986000D02*
X64389000Y-36195000D01*
X65598000Y-34131000D02*
X65598000Y-34986000D01*
X35954000Y-28448000D02*
X37084000Y-28448000D01*
X36029400Y-30226000D02*
X37084000Y-30226000D01*
X36029400Y-32004000D02*
X37084000Y-32004000D01*
X35991900Y-35560000D02*
X37084000Y-35560000D01*
X38100000Y-24625000D02*
X38100000Y-23495000D01*
D27*
X34229000Y-21717000D02*
X33020000Y-21717000D01*
D26*
X42545000Y-26937000D02*
X42545000Y-28067000D01*
X30944000Y-28365000D02*
X30861000Y-28448000D01*
X32225200Y-28365000D02*
X30944000Y-28365000D01*
X32225200Y-33865000D02*
X30944000Y-33865000D01*
X30944000Y-33865000D02*
X30861000Y-33782000D01*
X28194000Y-23305000D02*
X28194000Y-22225000D01*
X30099000Y-23355000D02*
X30099000Y-22225000D01*
X32004000Y-23355000D02*
X32004000Y-22225000D01*
X36322000Y-24196000D02*
X36322000Y-23114000D01*
X44577000Y-31369000D02*
X43434000Y-31369000D01*
X40640000Y-21082000D02*
X40640000Y-19939000D01*
X59436000Y-24765000D02*
X58356500Y-24765000D01*
X63500000Y-24765000D02*
X62420500Y-24765000D01*
X67564000Y-24765000D02*
X66484500Y-24765000D01*
X66548000Y-32131000D02*
X67691000Y-32131000D01*
X75186400Y-29847400D02*
X75057000Y-29718000D01*
X75186400Y-31107500D02*
X75186400Y-29847400D01*
X75186400Y-34932500D02*
X75186400Y-36192600D01*
X75186400Y-36192600D02*
X75057000Y-36322000D01*
X75186400Y-28572600D02*
X75057000Y-28702000D01*
X75186400Y-27312500D02*
X75186400Y-28572600D01*
X75186400Y-23487500D02*
X75186400Y-22227400D01*
X75186400Y-22227400D02*
X75057000Y-22098000D01*
D28*
X44762500Y-25949000D02*
X46260866Y-25949000D01*
X46260866Y-25949000D02*
X46379845Y-26067979D01*
D25*
X49784000Y-31369000D02*
X49530000Y-31115000D01*
X50673000Y-31369000D02*
X49784000Y-31369000D01*
D26*
X36029400Y-33782000D02*
X37084000Y-33782000D01*
X38100000Y-26175000D02*
X38100000Y-27305000D01*
D27*
X36195000Y-21717000D02*
X37338000Y-21717000D01*
D26*
X42545000Y-25387000D02*
X42545000Y-24257000D01*
X36322000Y-26096000D02*
X36322000Y-27178000D01*
X40640000Y-22860000D02*
X39497000Y-22860000D01*
X71501000Y-32575000D02*
X71501000Y-33655000D01*
X71501000Y-24955000D02*
X71501000Y-26035000D01*
D28*
X44762500Y-25299000D02*
X45694000Y-25299000D01*
X45694000Y-25299000D02*
X46355000Y-24638000D01*
D26*
X30861000Y-30099000D02*
X31365000Y-29595000D01*
X31365000Y-29595000D02*
X32225200Y-29595000D01*
X30861000Y-32131000D02*
X30861000Y-30099000D01*
X31365000Y-32635000D02*
X30861000Y-32131000D01*
X32225200Y-32635000D02*
X31365000Y-32635000D01*
X33655000Y-28448000D02*
X34404000Y-28448000D01*
X33401000Y-29337000D02*
X33401000Y-28702000D01*
X33401000Y-28702000D02*
X33655000Y-28448000D01*
X33143000Y-29595000D02*
X33401000Y-29337000D01*
X32225200Y-29595000D02*
X33143000Y-29595000D01*
X34417000Y-28435000D02*
X34404000Y-28448000D01*
X34417000Y-25241000D02*
X34417000Y-28435000D01*
X34322000Y-25146000D02*
X34417000Y-25241000D01*
D25*
X46374400Y-32919000D02*
X46375000Y-32918400D01*
X44577000Y-32919000D02*
X46374400Y-32919000D01*
X46375000Y-31643000D02*
X46375000Y-32129120D01*
X46400154Y-31532793D02*
X46381369Y-31586479D01*
X46430415Y-31484633D02*
X46400154Y-31532793D01*
X46900620Y-31333585D02*
X46852460Y-31363846D01*
X46940839Y-31293366D02*
X46900620Y-31333585D01*
X46971100Y-31245206D02*
X46940839Y-31293366D01*
X46989885Y-31191520D02*
X46971100Y-31245206D01*
X46996253Y-31135000D02*
X46989885Y-31191520D01*
X46375000Y-32129120D02*
X46375000Y-32918400D01*
X46989885Y-31078479D02*
X46996253Y-31135000D01*
X46572480Y-31395368D02*
X46518794Y-31414153D01*
X46971100Y-31024793D02*
X46989885Y-31078479D01*
X46742253Y-31389000D02*
X46629000Y-31389000D01*
X46940839Y-30976633D02*
X46971100Y-31024793D01*
X46900620Y-30936414D02*
X46940839Y-30976633D01*
X45951226Y-30379368D02*
X45897540Y-30398153D01*
X45753747Y-30627000D02*
X45760115Y-30683520D01*
X46007747Y-30373000D02*
X45951226Y-30379368D01*
X46518794Y-31414153D02*
X46470634Y-31444414D01*
X45778900Y-30516793D02*
X45760115Y-30570479D01*
X46121000Y-30373000D02*
X46007747Y-30373000D01*
X46470634Y-31444414D02*
X46430415Y-31484633D01*
X45849380Y-30428414D02*
X45809161Y-30468633D01*
X46177520Y-30366631D02*
X46121000Y-30373000D01*
X46279366Y-30317585D02*
X46231206Y-30347846D01*
X46381369Y-31586479D02*
X46375000Y-31643000D01*
X46368631Y-30175520D02*
X46349846Y-30229206D01*
X45809161Y-30785366D02*
X45849380Y-30825585D01*
X46852460Y-31363846D02*
X46798774Y-31382631D01*
X46319585Y-30277366D02*
X46279366Y-30317585D01*
X46349846Y-30229206D02*
X46319585Y-30277366D01*
X45849380Y-30825585D02*
X45897540Y-30855846D01*
X46375000Y-30119000D02*
X46368631Y-30175520D01*
X46375000Y-29992000D02*
X46375000Y-30119000D01*
X45951226Y-30874631D02*
X46007747Y-30881000D01*
X46231206Y-30347846D02*
X46177520Y-30366631D01*
X46629000Y-31389000D02*
X46572480Y-31395368D01*
X46232000Y-29849000D02*
X46375000Y-29992000D01*
X44762500Y-29849000D02*
X46232000Y-29849000D01*
X45897540Y-30398153D02*
X45849380Y-30428414D01*
X45809161Y-30468633D02*
X45778900Y-30516793D01*
X45760115Y-30570479D02*
X45753747Y-30627000D01*
X45760115Y-30683520D02*
X45778900Y-30737206D01*
X45778900Y-30737206D02*
X45809161Y-30785366D01*
X45897540Y-30855846D02*
X45951226Y-30874631D01*
X46007747Y-30881000D02*
X46742253Y-30881000D01*
X46742253Y-30881000D02*
X46798774Y-30887368D01*
X46798774Y-30887368D02*
X46852460Y-30906153D01*
X46798774Y-31382631D02*
X46742253Y-31389000D01*
X46852460Y-30906153D02*
X46900620Y-30936414D01*
X50672400Y-32918400D02*
X50673000Y-32919000D01*
X48875000Y-32918400D02*
X50672400Y-32918400D01*
X48875000Y-31603000D02*
X48875000Y-32918400D01*
X44762500Y-29199000D02*
X46471000Y-29199000D01*
X46471000Y-29199000D02*
X48875000Y-31603000D01*
X33528000Y-30226000D02*
X34379400Y-30226000D01*
X33139000Y-30615000D02*
X33528000Y-30226000D01*
X32225200Y-30615000D02*
X33139000Y-30615000D01*
X33528000Y-32004000D02*
X34379400Y-32004000D01*
X33139000Y-31615000D02*
X33528000Y-32004000D01*
X32225200Y-31615000D02*
X33139000Y-31615000D01*
X43396500Y-28549000D02*
X44762500Y-28549000D01*
X42799000Y-29146500D02*
X43396500Y-28549000D01*
X42799000Y-29845000D02*
X42799000Y-29146500D01*
X42291000Y-30353000D02*
X42799000Y-29845000D01*
X40894000Y-30353000D02*
X42291000Y-30353000D01*
X61341000Y-24770000D02*
X61336000Y-24765000D01*
X61341000Y-26416000D02*
X61341000Y-24770000D01*
X65405000Y-24770000D02*
X65400000Y-24765000D01*
X65405000Y-26416000D02*
X65405000Y-24770000D01*
X69469000Y-24770000D02*
X69464000Y-24765000D01*
X69469000Y-26416000D02*
X69469000Y-24770000D01*
X64643000Y-32126000D02*
X64648000Y-32131000D01*
X64643000Y-30480000D02*
X64643000Y-32126000D01*
X71501000Y-23305000D02*
X72454000Y-23305000D01*
X72636500Y-23487500D02*
X73686400Y-23487500D01*
X72454000Y-23305000D02*
X72636500Y-23487500D01*
X73032500Y-27312500D02*
X73686400Y-27312500D01*
X72636500Y-26916500D02*
X73032500Y-27312500D01*
X72636500Y-23487500D02*
X72636500Y-26916500D01*
X70485000Y-22987000D02*
X70485000Y-22606000D01*
X70803000Y-23305000D02*
X70485000Y-22987000D01*
X71501000Y-23305000D02*
X70803000Y-23305000D01*
X50487500Y-28549000D02*
X51479881Y-28549000D01*
X51479881Y-28549000D02*
X51886881Y-28956000D01*
X51886881Y-28956000D02*
X52462423Y-28956000D01*
X52462423Y-28956000D02*
X53219231Y-29712808D01*
X72629000Y-31107500D02*
X73686400Y-31107500D01*
X72446500Y-30925000D02*
X72629000Y-31107500D01*
X71501000Y-30925000D02*
X72446500Y-30925000D01*
X73032500Y-34932500D02*
X73686400Y-34932500D01*
X72629000Y-34529000D02*
X73032500Y-34932500D01*
X72629000Y-31107500D02*
X72629000Y-34529000D01*
X71501000Y-30925000D02*
X71501000Y-29845000D01*
X50487500Y-29199000D02*
X51424000Y-29199000D01*
X51424000Y-29199000D02*
X52324000Y-30099000D01*
X52324000Y-30099000D02*
X52324000Y-30353000D01*
X42290000Y-21082000D02*
X42290000Y-22860000D01*
X43434000Y-23241000D02*
X43053000Y-22860000D01*
X43434000Y-24257000D02*
X43434000Y-23241000D01*
X43826000Y-24649000D02*
X43434000Y-24257000D01*
X43053000Y-22860000D02*
X42290000Y-22860000D01*
X44762500Y-24649000D02*
X43826000Y-24649000D01*
X53119000Y-24828000D02*
X53594000Y-24828000D01*
X51659000Y-23368000D02*
X53119000Y-24828000D01*
X46482000Y-23368000D02*
X51659000Y-23368000D01*
X45851000Y-23999000D02*
X46482000Y-23368000D01*
X44762500Y-23999000D02*
X45851000Y-23999000D01*
X57150000Y-25400000D02*
X57150000Y-24828000D01*
X56441989Y-26108011D02*
X57150000Y-25400000D01*
X52891290Y-26108011D02*
X56441989Y-26108011D01*
X51432279Y-24649000D02*
X52891290Y-26108011D01*
X50487500Y-24649000D02*
X51432279Y-24649000D01*
X60706000Y-29845000D02*
X60706000Y-30417000D01*
X57877033Y-27016033D02*
X60706000Y-29845000D01*
X52515176Y-27016033D02*
X57877033Y-27016033D01*
X51448143Y-25949000D02*
X52515176Y-27016033D01*
X50487500Y-25949000D02*
X51448143Y-25949000D01*
X57150000Y-29845000D02*
X57150000Y-30417000D01*
X55229055Y-27924055D02*
X57150000Y-29845000D01*
X52139062Y-27924055D02*
X55229055Y-27924055D01*
X51464007Y-27249000D02*
X52139062Y-27924055D01*
X50487500Y-27249000D02*
X51464007Y-27249000D01*
X55372000Y-29845000D02*
X55372000Y-30417000D01*
X53905062Y-28378062D02*
X55372000Y-29845000D01*
X51951009Y-28378062D02*
X53905062Y-28378062D01*
X51471945Y-27899000D02*
X51951009Y-28378062D01*
X50487500Y-27899000D02*
X51471945Y-27899000D01*
X50487500Y-23999000D02*
X51423932Y-23999000D01*
X55372000Y-25400000D02*
X55372000Y-24828000D01*
X53079347Y-25654000D02*
X55118000Y-25654000D01*
X55118000Y-25654000D02*
X55372000Y-25400000D01*
X51424347Y-23999000D02*
X51423932Y-23999000D01*
X53079347Y-25654000D02*
X51424347Y-23999000D01*
X62484000Y-29845000D02*
X62484000Y-30417000D01*
X60071000Y-27432000D02*
X62484000Y-29845000D01*
X58935068Y-27432000D02*
X60071000Y-27432000D01*
X58065090Y-26562022D02*
X58935068Y-27432000D01*
X51440211Y-25299000D02*
X52703233Y-26562022D01*
X52703233Y-26562022D02*
X58065090Y-26562022D01*
X50487500Y-25299000D02*
X51440211Y-25299000D01*
X58928000Y-29845000D02*
X58928000Y-30417000D01*
X56553044Y-27470044D02*
X58928000Y-29845000D01*
X52327119Y-27470044D02*
X56553044Y-27470044D01*
X51456075Y-26599000D02*
X52327119Y-27470044D01*
X50487500Y-26599000D02*
X51456075Y-26599000D01*
X46934326Y-26794989D02*
X47186315Y-26543000D01*
X45852057Y-26794989D02*
X46934326Y-26794989D01*
X47186315Y-26543000D02*
X47752000Y-26543000D01*
X44762500Y-26599000D02*
X45656068Y-26599000D01*
X45656068Y-26599000D02*
X45852057Y-26794989D01*
X59055000Y-26416000D02*
X58610500Y-25971500D01*
X59691000Y-26416000D02*
X59055000Y-26416000D01*
X63755000Y-26416000D02*
X62738000Y-26416000D01*
X44762500Y-27249000D02*
X47315000Y-27249000D01*
X47315000Y-27249000D02*
X47625000Y-27559000D01*
X67819000Y-26416000D02*
X66802000Y-26416000D01*
X44762500Y-27899000D02*
X46822000Y-27899000D01*
X46822000Y-27899000D02*
X47625000Y-28702000D01*
X66293000Y-30480000D02*
X66293000Y-29338000D01*
X66293000Y-29338000D02*
X66294000Y-29337000D01*
X48767996Y-29336996D02*
X48767996Y-28956000D01*
X49280000Y-29849000D02*
X48767996Y-29336996D01*
X50487500Y-29849000D02*
X49280000Y-29849000D01*
X34379400Y-35522500D02*
X34416900Y-35560000D01*
X34379400Y-33782000D02*
X34379400Y-35522500D01*
X33020000Y-26115134D02*
X32998033Y-26091459D01*
X32848811Y-25983469D01*
X32681389Y-25906665D01*
X32502200Y-25864000D01*
X32202200Y-25864000D01*
X32202200Y-26668000D01*
X32222200Y-26668000D01*
X32222200Y-26922000D01*
X32202200Y-26922000D01*
X32202200Y-26942000D01*
X31948200Y-26942000D01*
X31948200Y-26922000D01*
X30949156Y-26922000D01*
X30884125Y-27064715D01*
X30930544Y-27206639D01*
X31027081Y-27363514D01*
X31090626Y-27432000D01*
X30099000Y-27432000D01*
X30074224Y-27434440D01*
X30050399Y-27441667D01*
X30028443Y-27453403D01*
X30009197Y-27469197D01*
X29993403Y-27488443D01*
X29981667Y-27510399D01*
X29974440Y-27534224D01*
X29972000Y-27559000D01*
X29972000Y-34671000D01*
X29974440Y-34695776D01*
X29981667Y-34719601D01*
X29993403Y-34741557D01*
X30009197Y-34760803D01*
X30028443Y-34776597D01*
X30050399Y-34788333D01*
X30074224Y-34795560D01*
X30099000Y-34798000D01*
X31090626Y-34798000D01*
X31027081Y-34866486D01*
X30930544Y-35023361D01*
X30884125Y-35165285D01*
X30949156Y-35308000D01*
X31948200Y-35308000D01*
X31948200Y-35288000D01*
X32202200Y-35288000D01*
X32202200Y-35308000D01*
X32222200Y-35308000D01*
X32222200Y-35562000D01*
X32202200Y-35562000D01*
X32202200Y-36366000D01*
X32502200Y-36366000D01*
X32681389Y-36323335D01*
X32848811Y-36246531D01*
X32998033Y-36138541D01*
X33020000Y-36114866D01*
X33020000Y-36830000D01*
X25933000Y-36830000D01*
X25933000Y-35704715D01*
X27084125Y-35704715D01*
X27130544Y-35846639D01*
X27227081Y-36003514D01*
X27352367Y-36138541D01*
X27501589Y-36246531D01*
X27669011Y-36323335D01*
X27848200Y-36366000D01*
X28148200Y-36366000D01*
X28148200Y-35562000D01*
X28402200Y-35562000D01*
X28402200Y-36366000D01*
X28702200Y-36366000D01*
X28881389Y-36323335D01*
X29048811Y-36246531D01*
X29198033Y-36138541D01*
X29323319Y-36003514D01*
X29419856Y-35846639D01*
X29466275Y-35704715D01*
X30884125Y-35704715D01*
X30930544Y-35846639D01*
X31027081Y-36003514D01*
X31152367Y-36138541D01*
X31301589Y-36246531D01*
X31469011Y-36323335D01*
X31648200Y-36366000D01*
X31948200Y-36366000D01*
X31948200Y-35562000D01*
X30949156Y-35562000D01*
X30884125Y-35704715D01*
X29466275Y-35704715D01*
X29401244Y-35562000D01*
X28402200Y-35562000D01*
X28148200Y-35562000D01*
X27149156Y-35562000D01*
X27084125Y-35704715D01*
X25933000Y-35704715D01*
X25933000Y-35165285D01*
X27084125Y-35165285D01*
X27149156Y-35308000D01*
X28148200Y-35308000D01*
X28148200Y-34504000D01*
X28402200Y-34504000D01*
X28402200Y-35308000D01*
X29401244Y-35308000D01*
X29466275Y-35165285D01*
X29419856Y-35023361D01*
X29323319Y-34866486D01*
X29198033Y-34731459D01*
X29048811Y-34623469D01*
X28881389Y-34546665D01*
X28702200Y-34504000D01*
X28402200Y-34504000D01*
X28148200Y-34504000D01*
X27848200Y-34504000D01*
X27669011Y-34546665D01*
X27501589Y-34623469D01*
X27352367Y-34731459D01*
X27227081Y-34866486D01*
X27130544Y-35023361D01*
X27084125Y-35165285D01*
X25933000Y-35165285D01*
X25933000Y-27064715D01*
X27084125Y-27064715D01*
X27130544Y-27206639D01*
X27227081Y-27363514D01*
X27352367Y-27498541D01*
X27501589Y-27606531D01*
X27669011Y-27683335D01*
X27848200Y-27726000D01*
X28148200Y-27726000D01*
X28148200Y-26922000D01*
X28402200Y-26922000D01*
X28402200Y-27726000D01*
X28702200Y-27726000D01*
X28881389Y-27683335D01*
X29048811Y-27606531D01*
X29198033Y-27498541D01*
X29323319Y-27363514D01*
X29419856Y-27206639D01*
X29466275Y-27064715D01*
X29401244Y-26922000D01*
X28402200Y-26922000D01*
X28148200Y-26922000D01*
X27149156Y-26922000D01*
X27084125Y-27064715D01*
X25933000Y-27064715D01*
X25933000Y-26525285D01*
X27084125Y-26525285D01*
X27149156Y-26668000D01*
X28148200Y-26668000D01*
X28148200Y-25864000D01*
X28402200Y-25864000D01*
X28402200Y-26668000D01*
X29401244Y-26668000D01*
X29466275Y-26525285D01*
X30884125Y-26525285D01*
X30949156Y-26668000D01*
X31948200Y-26668000D01*
X31948200Y-25864000D01*
X31648200Y-25864000D01*
X31469011Y-25906665D01*
X31301589Y-25983469D01*
X31152367Y-26091459D01*
X31027081Y-26226486D01*
X30930544Y-26383361D01*
X30884125Y-26525285D01*
X29466275Y-26525285D01*
X29419856Y-26383361D01*
X29323319Y-26226486D01*
X29198033Y-26091459D01*
X29048811Y-25983469D01*
X28881389Y-25906665D01*
X28702200Y-25864000D01*
X28402200Y-25864000D01*
X28148200Y-25864000D01*
X27848200Y-25864000D01*
X27669011Y-25906665D01*
X27501589Y-25983469D01*
X27352367Y-26091459D01*
X27227081Y-26226486D01*
X27130544Y-26383361D01*
X27084125Y-26525285D01*
X25933000Y-26525285D01*
X25933000Y-25355000D01*
X27336157Y-25355000D01*
X27343513Y-25429689D01*
X27365299Y-25501508D01*
X27400678Y-25567696D01*
X27448289Y-25625711D01*
X27506304Y-25673322D01*
X27572492Y-25708701D01*
X27644311Y-25730487D01*
X27719000Y-25737843D01*
X27971750Y-25736000D01*
X28067000Y-25640750D01*
X28067000Y-25082000D01*
X28321000Y-25082000D01*
X28321000Y-25640750D01*
X28416250Y-25736000D01*
X28669000Y-25737843D01*
X28743689Y-25730487D01*
X28815508Y-25708701D01*
X28881696Y-25673322D01*
X28939711Y-25625711D01*
X28987322Y-25567696D01*
X29022701Y-25501508D01*
X29044487Y-25429689D01*
X29051843Y-25355000D01*
X29241157Y-25355000D01*
X29248513Y-25429689D01*
X29270299Y-25501508D01*
X29305678Y-25567696D01*
X29353289Y-25625711D01*
X29411304Y-25673322D01*
X29477492Y-25708701D01*
X29549311Y-25730487D01*
X29624000Y-25737843D01*
X29876750Y-25736000D01*
X29972000Y-25640750D01*
X29972000Y-25032000D01*
X30226000Y-25032000D01*
X30226000Y-25640750D01*
X30321250Y-25736000D01*
X30574000Y-25737843D01*
X30648689Y-25730487D01*
X30720508Y-25708701D01*
X30786696Y-25673322D01*
X30844711Y-25625711D01*
X30892322Y-25567696D01*
X30927701Y-25501508D01*
X30949487Y-25429689D01*
X30956843Y-25355000D01*
X31146157Y-25355000D01*
X31153513Y-25429689D01*
X31175299Y-25501508D01*
X31210678Y-25567696D01*
X31258289Y-25625711D01*
X31316304Y-25673322D01*
X31382492Y-25708701D01*
X31454311Y-25730487D01*
X31529000Y-25737843D01*
X31781750Y-25736000D01*
X31877000Y-25640750D01*
X31877000Y-25032000D01*
X32131000Y-25032000D01*
X32131000Y-25640750D01*
X32226250Y-25736000D01*
X32479000Y-25737843D01*
X32553689Y-25730487D01*
X32625508Y-25708701D01*
X32691696Y-25673322D01*
X32749711Y-25625711D01*
X32797322Y-25567696D01*
X32832701Y-25501508D01*
X32854487Y-25429689D01*
X32861843Y-25355000D01*
X32860000Y-25127250D01*
X32764750Y-25032000D01*
X32131000Y-25032000D01*
X31877000Y-25032000D01*
X31243250Y-25032000D01*
X31148000Y-25127250D01*
X31146157Y-25355000D01*
X30956843Y-25355000D01*
X30955000Y-25127250D01*
X30859750Y-25032000D01*
X30226000Y-25032000D01*
X29972000Y-25032000D01*
X29338250Y-25032000D01*
X29243000Y-25127250D01*
X29241157Y-25355000D01*
X29051843Y-25355000D01*
X29050000Y-25177250D01*
X28954750Y-25082000D01*
X28321000Y-25082000D01*
X28067000Y-25082000D01*
X27433250Y-25082000D01*
X27338000Y-25177250D01*
X27336157Y-25355000D01*
X25933000Y-25355000D01*
X25933000Y-24892000D01*
X33020000Y-24892000D01*
X33020000Y-26115134D01*
G04 #@! TA.AperFunction,Conductor*
D29*
G36*
X33020000Y-26115134D02*
G01*
X32998033Y-26091459D01*
X32848811Y-25983469D01*
X32681389Y-25906665D01*
X32502200Y-25864000D01*
X32202200Y-25864000D01*
X32202200Y-26668000D01*
X32222200Y-26668000D01*
X32222200Y-26922000D01*
X32202200Y-26922000D01*
X32202200Y-26942000D01*
X31948200Y-26942000D01*
X31948200Y-26922000D01*
X30949156Y-26922000D01*
X30884125Y-27064715D01*
X30930544Y-27206639D01*
X31027081Y-27363514D01*
X31090626Y-27432000D01*
X30099000Y-27432000D01*
X30074224Y-27434440D01*
X30050399Y-27441667D01*
X30028443Y-27453403D01*
X30009197Y-27469197D01*
X29993403Y-27488443D01*
X29981667Y-27510399D01*
X29974440Y-27534224D01*
X29972000Y-27559000D01*
X29972000Y-34671000D01*
X29974440Y-34695776D01*
X29981667Y-34719601D01*
X29993403Y-34741557D01*
X30009197Y-34760803D01*
X30028443Y-34776597D01*
X30050399Y-34788333D01*
X30074224Y-34795560D01*
X30099000Y-34798000D01*
X31090626Y-34798000D01*
X31027081Y-34866486D01*
X30930544Y-35023361D01*
X30884125Y-35165285D01*
X30949156Y-35308000D01*
X31948200Y-35308000D01*
X31948200Y-35288000D01*
X32202200Y-35288000D01*
X32202200Y-35308000D01*
X32222200Y-35308000D01*
X32222200Y-35562000D01*
X32202200Y-35562000D01*
X32202200Y-36366000D01*
X32502200Y-36366000D01*
X32681389Y-36323335D01*
X32848811Y-36246531D01*
X32998033Y-36138541D01*
X33020000Y-36114866D01*
X33020000Y-36830000D01*
X25933000Y-36830000D01*
X25933000Y-35704715D01*
X27084125Y-35704715D01*
X27130544Y-35846639D01*
X27227081Y-36003514D01*
X27352367Y-36138541D01*
X27501589Y-36246531D01*
X27669011Y-36323335D01*
X27848200Y-36366000D01*
X28148200Y-36366000D01*
X28148200Y-35562000D01*
X28402200Y-35562000D01*
X28402200Y-36366000D01*
X28702200Y-36366000D01*
X28881389Y-36323335D01*
X29048811Y-36246531D01*
X29198033Y-36138541D01*
X29323319Y-36003514D01*
X29419856Y-35846639D01*
X29466275Y-35704715D01*
X30884125Y-35704715D01*
X30930544Y-35846639D01*
X31027081Y-36003514D01*
X31152367Y-36138541D01*
X31301589Y-36246531D01*
X31469011Y-36323335D01*
X31648200Y-36366000D01*
X31948200Y-36366000D01*
X31948200Y-35562000D01*
X30949156Y-35562000D01*
X30884125Y-35704715D01*
X29466275Y-35704715D01*
X29401244Y-35562000D01*
X28402200Y-35562000D01*
X28148200Y-35562000D01*
X27149156Y-35562000D01*
X27084125Y-35704715D01*
X25933000Y-35704715D01*
X25933000Y-35165285D01*
X27084125Y-35165285D01*
X27149156Y-35308000D01*
X28148200Y-35308000D01*
X28148200Y-34504000D01*
X28402200Y-34504000D01*
X28402200Y-35308000D01*
X29401244Y-35308000D01*
X29466275Y-35165285D01*
X29419856Y-35023361D01*
X29323319Y-34866486D01*
X29198033Y-34731459D01*
X29048811Y-34623469D01*
X28881389Y-34546665D01*
X28702200Y-34504000D01*
X28402200Y-34504000D01*
X28148200Y-34504000D01*
X27848200Y-34504000D01*
X27669011Y-34546665D01*
X27501589Y-34623469D01*
X27352367Y-34731459D01*
X27227081Y-34866486D01*
X27130544Y-35023361D01*
X27084125Y-35165285D01*
X25933000Y-35165285D01*
X25933000Y-27064715D01*
X27084125Y-27064715D01*
X27130544Y-27206639D01*
X27227081Y-27363514D01*
X27352367Y-27498541D01*
X27501589Y-27606531D01*
X27669011Y-27683335D01*
X27848200Y-27726000D01*
X28148200Y-27726000D01*
X28148200Y-26922000D01*
X28402200Y-26922000D01*
X28402200Y-27726000D01*
X28702200Y-27726000D01*
X28881389Y-27683335D01*
X29048811Y-27606531D01*
X29198033Y-27498541D01*
X29323319Y-27363514D01*
X29419856Y-27206639D01*
X29466275Y-27064715D01*
X29401244Y-26922000D01*
X28402200Y-26922000D01*
X28148200Y-26922000D01*
X27149156Y-26922000D01*
X27084125Y-27064715D01*
X25933000Y-27064715D01*
X25933000Y-26525285D01*
X27084125Y-26525285D01*
X27149156Y-26668000D01*
X28148200Y-26668000D01*
X28148200Y-25864000D01*
X28402200Y-25864000D01*
X28402200Y-26668000D01*
X29401244Y-26668000D01*
X29466275Y-26525285D01*
X30884125Y-26525285D01*
X30949156Y-26668000D01*
X31948200Y-26668000D01*
X31948200Y-25864000D01*
X31648200Y-25864000D01*
X31469011Y-25906665D01*
X31301589Y-25983469D01*
X31152367Y-26091459D01*
X31027081Y-26226486D01*
X30930544Y-26383361D01*
X30884125Y-26525285D01*
X29466275Y-26525285D01*
X29419856Y-26383361D01*
X29323319Y-26226486D01*
X29198033Y-26091459D01*
X29048811Y-25983469D01*
X28881389Y-25906665D01*
X28702200Y-25864000D01*
X28402200Y-25864000D01*
X28148200Y-25864000D01*
X27848200Y-25864000D01*
X27669011Y-25906665D01*
X27501589Y-25983469D01*
X27352367Y-26091459D01*
X27227081Y-26226486D01*
X27130544Y-26383361D01*
X27084125Y-26525285D01*
X25933000Y-26525285D01*
X25933000Y-25355000D01*
X27336157Y-25355000D01*
X27343513Y-25429689D01*
X27365299Y-25501508D01*
X27400678Y-25567696D01*
X27448289Y-25625711D01*
X27506304Y-25673322D01*
X27572492Y-25708701D01*
X27644311Y-25730487D01*
X27719000Y-25737843D01*
X27971750Y-25736000D01*
X28067000Y-25640750D01*
X28067000Y-25082000D01*
X28321000Y-25082000D01*
X28321000Y-25640750D01*
X28416250Y-25736000D01*
X28669000Y-25737843D01*
X28743689Y-25730487D01*
X28815508Y-25708701D01*
X28881696Y-25673322D01*
X28939711Y-25625711D01*
X28987322Y-25567696D01*
X29022701Y-25501508D01*
X29044487Y-25429689D01*
X29051843Y-25355000D01*
X29241157Y-25355000D01*
X29248513Y-25429689D01*
X29270299Y-25501508D01*
X29305678Y-25567696D01*
X29353289Y-25625711D01*
X29411304Y-25673322D01*
X29477492Y-25708701D01*
X29549311Y-25730487D01*
X29624000Y-25737843D01*
X29876750Y-25736000D01*
X29972000Y-25640750D01*
X29972000Y-25032000D01*
X30226000Y-25032000D01*
X30226000Y-25640750D01*
X30321250Y-25736000D01*
X30574000Y-25737843D01*
X30648689Y-25730487D01*
X30720508Y-25708701D01*
X30786696Y-25673322D01*
X30844711Y-25625711D01*
X30892322Y-25567696D01*
X30927701Y-25501508D01*
X30949487Y-25429689D01*
X30956843Y-25355000D01*
X31146157Y-25355000D01*
X31153513Y-25429689D01*
X31175299Y-25501508D01*
X31210678Y-25567696D01*
X31258289Y-25625711D01*
X31316304Y-25673322D01*
X31382492Y-25708701D01*
X31454311Y-25730487D01*
X31529000Y-25737843D01*
X31781750Y-25736000D01*
X31877000Y-25640750D01*
X31877000Y-25032000D01*
X32131000Y-25032000D01*
X32131000Y-25640750D01*
X32226250Y-25736000D01*
X32479000Y-25737843D01*
X32553689Y-25730487D01*
X32625508Y-25708701D01*
X32691696Y-25673322D01*
X32749711Y-25625711D01*
X32797322Y-25567696D01*
X32832701Y-25501508D01*
X32854487Y-25429689D01*
X32861843Y-25355000D01*
X32860000Y-25127250D01*
X32764750Y-25032000D01*
X32131000Y-25032000D01*
X31877000Y-25032000D01*
X31243250Y-25032000D01*
X31148000Y-25127250D01*
X31146157Y-25355000D01*
X30956843Y-25355000D01*
X30955000Y-25127250D01*
X30859750Y-25032000D01*
X30226000Y-25032000D01*
X29972000Y-25032000D01*
X29338250Y-25032000D01*
X29243000Y-25127250D01*
X29241157Y-25355000D01*
X29051843Y-25355000D01*
X29050000Y-25177250D01*
X28954750Y-25082000D01*
X28321000Y-25082000D01*
X28067000Y-25082000D01*
X27433250Y-25082000D01*
X27338000Y-25177250D01*
X27336157Y-25355000D01*
X25933000Y-25355000D01*
X25933000Y-24892000D01*
X33020000Y-24892000D01*
X33020000Y-26115134D01*
G37*
G04 #@! TD.AperFunction*
M02*
