G04 #@! TF.GenerationSoftware,KiCad,Pcbnew,(5.1.10)-1*
G04 #@! TF.CreationDate,2021-07-15T16:55:59+03:00*
G04 #@! TF.ProjectId,clock,636c6f63-6b2e-46b6-9963-61645f706362,rev?*
G04 #@! TF.SameCoordinates,Original*
G04 #@! TF.FileFunction,Soldermask,Bot*
G04 #@! TF.FilePolarity,Negative*
%FSLAX46Y46*%
G04 Gerber Fmt 4.6, Leading zero omitted, Abs format (unit mm)*
G04 Created by KiCad (PCBNEW (5.1.10)-1) date 2021-07-15 16:55:59*
%MOMM*%
%LPD*%
G01*
G04 APERTURE LIST*
%ADD10O,1.700000X1.700000*%
%ADD11R,1.700000X1.700000*%
%ADD12R,0.800000X0.900000*%
%ADD13R,0.900000X0.800000*%
%ADD14C,1.524000*%
%ADD15R,1.524000X1.524000*%
%ADD16R,1.000000X1.800000*%
%ADD17C,0.600000*%
%ADD18R,0.900000X1.225000*%
%ADD19O,1.700000X1.100000*%
%ADD20R,1.200000X0.800000*%
%ADD21R,1.200000X0.760000*%
%ADD22R,1.200000X0.700000*%
%ADD23C,5.400000*%
%ADD24C,0.800000*%
G04 APERTURE END LIST*
G36*
G01*
X49750000Y-29949000D02*
X49750000Y-29749000D01*
G75*
G02*
X49850000Y-29649000I100000J0D01*
G01*
X51125000Y-29649000D01*
G75*
G02*
X51225000Y-29749000I0J-100000D01*
G01*
X51225000Y-29949000D01*
G75*
G02*
X51125000Y-30049000I-100000J0D01*
G01*
X49850000Y-30049000D01*
G75*
G02*
X49750000Y-29949000I0J100000D01*
G01*
G37*
G36*
G01*
X49750000Y-29299000D02*
X49750000Y-29099000D01*
G75*
G02*
X49850000Y-28999000I100000J0D01*
G01*
X51125000Y-28999000D01*
G75*
G02*
X51225000Y-29099000I0J-100000D01*
G01*
X51225000Y-29299000D01*
G75*
G02*
X51125000Y-29399000I-100000J0D01*
G01*
X49850000Y-29399000D01*
G75*
G02*
X49750000Y-29299000I0J100000D01*
G01*
G37*
G36*
G01*
X49750000Y-28649000D02*
X49750000Y-28449000D01*
G75*
G02*
X49850000Y-28349000I100000J0D01*
G01*
X51125000Y-28349000D01*
G75*
G02*
X51225000Y-28449000I0J-100000D01*
G01*
X51225000Y-28649000D01*
G75*
G02*
X51125000Y-28749000I-100000J0D01*
G01*
X49850000Y-28749000D01*
G75*
G02*
X49750000Y-28649000I0J100000D01*
G01*
G37*
G36*
G01*
X49750000Y-27999000D02*
X49750000Y-27799000D01*
G75*
G02*
X49850000Y-27699000I100000J0D01*
G01*
X51125000Y-27699000D01*
G75*
G02*
X51225000Y-27799000I0J-100000D01*
G01*
X51225000Y-27999000D01*
G75*
G02*
X51125000Y-28099000I-100000J0D01*
G01*
X49850000Y-28099000D01*
G75*
G02*
X49750000Y-27999000I0J100000D01*
G01*
G37*
G36*
G01*
X49750000Y-27349000D02*
X49750000Y-27149000D01*
G75*
G02*
X49850000Y-27049000I100000J0D01*
G01*
X51125000Y-27049000D01*
G75*
G02*
X51225000Y-27149000I0J-100000D01*
G01*
X51225000Y-27349000D01*
G75*
G02*
X51125000Y-27449000I-100000J0D01*
G01*
X49850000Y-27449000D01*
G75*
G02*
X49750000Y-27349000I0J100000D01*
G01*
G37*
G36*
G01*
X49750000Y-26699000D02*
X49750000Y-26499000D01*
G75*
G02*
X49850000Y-26399000I100000J0D01*
G01*
X51125000Y-26399000D01*
G75*
G02*
X51225000Y-26499000I0J-100000D01*
G01*
X51225000Y-26699000D01*
G75*
G02*
X51125000Y-26799000I-100000J0D01*
G01*
X49850000Y-26799000D01*
G75*
G02*
X49750000Y-26699000I0J100000D01*
G01*
G37*
G36*
G01*
X49750000Y-26049000D02*
X49750000Y-25849000D01*
G75*
G02*
X49850000Y-25749000I100000J0D01*
G01*
X51125000Y-25749000D01*
G75*
G02*
X51225000Y-25849000I0J-100000D01*
G01*
X51225000Y-26049000D01*
G75*
G02*
X51125000Y-26149000I-100000J0D01*
G01*
X49850000Y-26149000D01*
G75*
G02*
X49750000Y-26049000I0J100000D01*
G01*
G37*
G36*
G01*
X49750000Y-25399000D02*
X49750000Y-25199000D01*
G75*
G02*
X49850000Y-25099000I100000J0D01*
G01*
X51125000Y-25099000D01*
G75*
G02*
X51225000Y-25199000I0J-100000D01*
G01*
X51225000Y-25399000D01*
G75*
G02*
X51125000Y-25499000I-100000J0D01*
G01*
X49850000Y-25499000D01*
G75*
G02*
X49750000Y-25399000I0J100000D01*
G01*
G37*
G36*
G01*
X49750000Y-24749000D02*
X49750000Y-24549000D01*
G75*
G02*
X49850000Y-24449000I100000J0D01*
G01*
X51125000Y-24449000D01*
G75*
G02*
X51225000Y-24549000I0J-100000D01*
G01*
X51225000Y-24749000D01*
G75*
G02*
X51125000Y-24849000I-100000J0D01*
G01*
X49850000Y-24849000D01*
G75*
G02*
X49750000Y-24749000I0J100000D01*
G01*
G37*
G36*
G01*
X49750000Y-24099000D02*
X49750000Y-23899000D01*
G75*
G02*
X49850000Y-23799000I100000J0D01*
G01*
X51125000Y-23799000D01*
G75*
G02*
X51225000Y-23899000I0J-100000D01*
G01*
X51225000Y-24099000D01*
G75*
G02*
X51125000Y-24199000I-100000J0D01*
G01*
X49850000Y-24199000D01*
G75*
G02*
X49750000Y-24099000I0J100000D01*
G01*
G37*
G36*
G01*
X44025000Y-24099000D02*
X44025000Y-23899000D01*
G75*
G02*
X44125000Y-23799000I100000J0D01*
G01*
X45400000Y-23799000D01*
G75*
G02*
X45500000Y-23899000I0J-100000D01*
G01*
X45500000Y-24099000D01*
G75*
G02*
X45400000Y-24199000I-100000J0D01*
G01*
X44125000Y-24199000D01*
G75*
G02*
X44025000Y-24099000I0J100000D01*
G01*
G37*
G36*
G01*
X44025000Y-24749000D02*
X44025000Y-24549000D01*
G75*
G02*
X44125000Y-24449000I100000J0D01*
G01*
X45400000Y-24449000D01*
G75*
G02*
X45500000Y-24549000I0J-100000D01*
G01*
X45500000Y-24749000D01*
G75*
G02*
X45400000Y-24849000I-100000J0D01*
G01*
X44125000Y-24849000D01*
G75*
G02*
X44025000Y-24749000I0J100000D01*
G01*
G37*
G36*
G01*
X44025000Y-25399000D02*
X44025000Y-25199000D01*
G75*
G02*
X44125000Y-25099000I100000J0D01*
G01*
X45400000Y-25099000D01*
G75*
G02*
X45500000Y-25199000I0J-100000D01*
G01*
X45500000Y-25399000D01*
G75*
G02*
X45400000Y-25499000I-100000J0D01*
G01*
X44125000Y-25499000D01*
G75*
G02*
X44025000Y-25399000I0J100000D01*
G01*
G37*
G36*
G01*
X44025000Y-26049000D02*
X44025000Y-25849000D01*
G75*
G02*
X44125000Y-25749000I100000J0D01*
G01*
X45400000Y-25749000D01*
G75*
G02*
X45500000Y-25849000I0J-100000D01*
G01*
X45500000Y-26049000D01*
G75*
G02*
X45400000Y-26149000I-100000J0D01*
G01*
X44125000Y-26149000D01*
G75*
G02*
X44025000Y-26049000I0J100000D01*
G01*
G37*
G36*
G01*
X44025000Y-26699000D02*
X44025000Y-26499000D01*
G75*
G02*
X44125000Y-26399000I100000J0D01*
G01*
X45400000Y-26399000D01*
G75*
G02*
X45500000Y-26499000I0J-100000D01*
G01*
X45500000Y-26699000D01*
G75*
G02*
X45400000Y-26799000I-100000J0D01*
G01*
X44125000Y-26799000D01*
G75*
G02*
X44025000Y-26699000I0J100000D01*
G01*
G37*
G36*
G01*
X44025000Y-27349000D02*
X44025000Y-27149000D01*
G75*
G02*
X44125000Y-27049000I100000J0D01*
G01*
X45400000Y-27049000D01*
G75*
G02*
X45500000Y-27149000I0J-100000D01*
G01*
X45500000Y-27349000D01*
G75*
G02*
X45400000Y-27449000I-100000J0D01*
G01*
X44125000Y-27449000D01*
G75*
G02*
X44025000Y-27349000I0J100000D01*
G01*
G37*
G36*
G01*
X44025000Y-27999000D02*
X44025000Y-27799000D01*
G75*
G02*
X44125000Y-27699000I100000J0D01*
G01*
X45400000Y-27699000D01*
G75*
G02*
X45500000Y-27799000I0J-100000D01*
G01*
X45500000Y-27999000D01*
G75*
G02*
X45400000Y-28099000I-100000J0D01*
G01*
X44125000Y-28099000D01*
G75*
G02*
X44025000Y-27999000I0J100000D01*
G01*
G37*
G36*
G01*
X44025000Y-28649000D02*
X44025000Y-28449000D01*
G75*
G02*
X44125000Y-28349000I100000J0D01*
G01*
X45400000Y-28349000D01*
G75*
G02*
X45500000Y-28449000I0J-100000D01*
G01*
X45500000Y-28649000D01*
G75*
G02*
X45400000Y-28749000I-100000J0D01*
G01*
X44125000Y-28749000D01*
G75*
G02*
X44025000Y-28649000I0J100000D01*
G01*
G37*
G36*
G01*
X44025000Y-29299000D02*
X44025000Y-29099000D01*
G75*
G02*
X44125000Y-28999000I100000J0D01*
G01*
X45400000Y-28999000D01*
G75*
G02*
X45500000Y-29099000I0J-100000D01*
G01*
X45500000Y-29299000D01*
G75*
G02*
X45400000Y-29399000I-100000J0D01*
G01*
X44125000Y-29399000D01*
G75*
G02*
X44025000Y-29299000I0J100000D01*
G01*
G37*
G36*
G01*
X44025000Y-29949000D02*
X44025000Y-29749000D01*
G75*
G02*
X44125000Y-29649000I100000J0D01*
G01*
X45400000Y-29649000D01*
G75*
G02*
X45500000Y-29749000I0J-100000D01*
G01*
X45500000Y-29949000D01*
G75*
G02*
X45400000Y-30049000I-100000J0D01*
G01*
X44125000Y-30049000D01*
G75*
G02*
X44025000Y-29949000I0J100000D01*
G01*
G37*
G36*
G01*
X34729000Y-21242000D02*
X34729000Y-22192000D01*
G75*
G02*
X34479000Y-22442000I-250000J0D01*
G01*
X33979000Y-22442000D01*
G75*
G02*
X33729000Y-22192000I0J250000D01*
G01*
X33729000Y-21242000D01*
G75*
G02*
X33979000Y-20992000I250000J0D01*
G01*
X34479000Y-20992000D01*
G75*
G02*
X34729000Y-21242000I0J-250000D01*
G01*
G37*
G36*
G01*
X36629000Y-21242000D02*
X36629000Y-22192000D01*
G75*
G02*
X36379000Y-22442000I-250000J0D01*
G01*
X35879000Y-22442000D01*
G75*
G02*
X35629000Y-22192000I0J250000D01*
G01*
X35629000Y-21242000D01*
G75*
G02*
X35879000Y-20992000I250000J0D01*
G01*
X36379000Y-20992000D01*
G75*
G02*
X36629000Y-21242000I0J-250000D01*
G01*
G37*
G36*
G01*
X34854400Y-35303750D02*
X34854400Y-35816250D01*
G75*
G02*
X34635650Y-36035000I-218750J0D01*
G01*
X34198150Y-36035000D01*
G75*
G02*
X33979400Y-35816250I0J218750D01*
G01*
X33979400Y-35303750D01*
G75*
G02*
X34198150Y-35085000I218750J0D01*
G01*
X34635650Y-35085000D01*
G75*
G02*
X34854400Y-35303750I0J-218750D01*
G01*
G37*
G36*
G01*
X36429400Y-35303750D02*
X36429400Y-35816250D01*
G75*
G02*
X36210650Y-36035000I-218750J0D01*
G01*
X35773150Y-36035000D01*
G75*
G02*
X35554400Y-35816250I0J218750D01*
G01*
X35554400Y-35303750D01*
G75*
G02*
X35773150Y-35085000I218750J0D01*
G01*
X36210650Y-35085000D01*
G75*
G02*
X36429400Y-35303750I0J-218750D01*
G01*
G37*
D10*
X40894000Y-32893000D03*
D11*
X40894000Y-30353000D03*
G36*
G01*
X32254000Y-23805000D02*
X31754000Y-23805000D01*
G75*
G02*
X31529000Y-23580000I0J225000D01*
G01*
X31529000Y-23130000D01*
G75*
G02*
X31754000Y-22905000I225000J0D01*
G01*
X32254000Y-22905000D01*
G75*
G02*
X32479000Y-23130000I0J-225000D01*
G01*
X32479000Y-23580000D01*
G75*
G02*
X32254000Y-23805000I-225000J0D01*
G01*
G37*
G36*
G01*
X32254000Y-25355000D02*
X31754000Y-25355000D01*
G75*
G02*
X31529000Y-25130000I0J225000D01*
G01*
X31529000Y-24680000D01*
G75*
G02*
X31754000Y-24455000I225000J0D01*
G01*
X32254000Y-24455000D01*
G75*
G02*
X32479000Y-24680000I0J-225000D01*
G01*
X32479000Y-25130000D01*
G75*
G02*
X32254000Y-25355000I-225000J0D01*
G01*
G37*
G36*
G01*
X30349000Y-23805000D02*
X29849000Y-23805000D01*
G75*
G02*
X29624000Y-23580000I0J225000D01*
G01*
X29624000Y-23130000D01*
G75*
G02*
X29849000Y-22905000I225000J0D01*
G01*
X30349000Y-22905000D01*
G75*
G02*
X30574000Y-23130000I0J-225000D01*
G01*
X30574000Y-23580000D01*
G75*
G02*
X30349000Y-23805000I-225000J0D01*
G01*
G37*
G36*
G01*
X30349000Y-25355000D02*
X29849000Y-25355000D01*
G75*
G02*
X29624000Y-25130000I0J225000D01*
G01*
X29624000Y-24680000D01*
G75*
G02*
X29849000Y-24455000I225000J0D01*
G01*
X30349000Y-24455000D01*
G75*
G02*
X30574000Y-24680000I0J-225000D01*
G01*
X30574000Y-25130000D01*
G75*
G02*
X30349000Y-25355000I-225000J0D01*
G01*
G37*
G36*
G01*
X50923000Y-31819000D02*
X50423000Y-31819000D01*
G75*
G02*
X50198000Y-31594000I0J225000D01*
G01*
X50198000Y-31144000D01*
G75*
G02*
X50423000Y-30919000I225000J0D01*
G01*
X50923000Y-30919000D01*
G75*
G02*
X51148000Y-31144000I0J-225000D01*
G01*
X51148000Y-31594000D01*
G75*
G02*
X50923000Y-31819000I-225000J0D01*
G01*
G37*
G36*
G01*
X50923000Y-33369000D02*
X50423000Y-33369000D01*
G75*
G02*
X50198000Y-33144000I0J225000D01*
G01*
X50198000Y-32694000D01*
G75*
G02*
X50423000Y-32469000I225000J0D01*
G01*
X50923000Y-32469000D01*
G75*
G02*
X51148000Y-32694000I0J-225000D01*
G01*
X51148000Y-33144000D01*
G75*
G02*
X50923000Y-33369000I-225000J0D01*
G01*
G37*
G36*
G01*
X44827000Y-31819000D02*
X44327000Y-31819000D01*
G75*
G02*
X44102000Y-31594000I0J225000D01*
G01*
X44102000Y-31144000D01*
G75*
G02*
X44327000Y-30919000I225000J0D01*
G01*
X44827000Y-30919000D01*
G75*
G02*
X45052000Y-31144000I0J-225000D01*
G01*
X45052000Y-31594000D01*
G75*
G02*
X44827000Y-31819000I-225000J0D01*
G01*
G37*
G36*
G01*
X44827000Y-33369000D02*
X44327000Y-33369000D01*
G75*
G02*
X44102000Y-33144000I0J225000D01*
G01*
X44102000Y-32694000D01*
G75*
G02*
X44327000Y-32469000I225000J0D01*
G01*
X44827000Y-32469000D01*
G75*
G02*
X45052000Y-32694000I0J-225000D01*
G01*
X45052000Y-33144000D01*
G75*
G02*
X44827000Y-33369000I-225000J0D01*
G01*
G37*
G36*
G01*
X38350000Y-25075000D02*
X37850000Y-25075000D01*
G75*
G02*
X37625000Y-24850000I0J225000D01*
G01*
X37625000Y-24400000D01*
G75*
G02*
X37850000Y-24175000I225000J0D01*
G01*
X38350000Y-24175000D01*
G75*
G02*
X38575000Y-24400000I0J-225000D01*
G01*
X38575000Y-24850000D01*
G75*
G02*
X38350000Y-25075000I-225000J0D01*
G01*
G37*
G36*
G01*
X38350000Y-26625000D02*
X37850000Y-26625000D01*
G75*
G02*
X37625000Y-26400000I0J225000D01*
G01*
X37625000Y-25950000D01*
G75*
G02*
X37850000Y-25725000I225000J0D01*
G01*
X38350000Y-25725000D01*
G75*
G02*
X38575000Y-25950000I0J-225000D01*
G01*
X38575000Y-26400000D01*
G75*
G02*
X38350000Y-26625000I-225000J0D01*
G01*
G37*
G36*
G01*
X35504000Y-28698000D02*
X35504000Y-28198000D01*
G75*
G02*
X35729000Y-27973000I225000J0D01*
G01*
X36179000Y-27973000D01*
G75*
G02*
X36404000Y-28198000I0J-225000D01*
G01*
X36404000Y-28698000D01*
G75*
G02*
X36179000Y-28923000I-225000J0D01*
G01*
X35729000Y-28923000D01*
G75*
G02*
X35504000Y-28698000I0J225000D01*
G01*
G37*
G36*
G01*
X33954000Y-28698000D02*
X33954000Y-28198000D01*
G75*
G02*
X34179000Y-27973000I225000J0D01*
G01*
X34629000Y-27973000D01*
G75*
G02*
X34854000Y-28198000I0J-225000D01*
G01*
X34854000Y-28698000D01*
G75*
G02*
X34629000Y-28923000I-225000J0D01*
G01*
X34179000Y-28923000D01*
G75*
G02*
X33954000Y-28698000I0J225000D01*
G01*
G37*
G36*
G01*
X42295000Y-26487000D02*
X42795000Y-26487000D01*
G75*
G02*
X43020000Y-26712000I0J-225000D01*
G01*
X43020000Y-27162000D01*
G75*
G02*
X42795000Y-27387000I-225000J0D01*
G01*
X42295000Y-27387000D01*
G75*
G02*
X42070000Y-27162000I0J225000D01*
G01*
X42070000Y-26712000D01*
G75*
G02*
X42295000Y-26487000I225000J0D01*
G01*
G37*
G36*
G01*
X42295000Y-24937000D02*
X42795000Y-24937000D01*
G75*
G02*
X43020000Y-25162000I0J-225000D01*
G01*
X43020000Y-25612000D01*
G75*
G02*
X42795000Y-25837000I-225000J0D01*
G01*
X42295000Y-25837000D01*
G75*
G02*
X42070000Y-25612000I0J225000D01*
G01*
X42070000Y-25162000D01*
G75*
G02*
X42295000Y-24937000I225000J0D01*
G01*
G37*
G36*
G01*
X68219000Y-26141000D02*
X68219000Y-26691000D01*
G75*
G02*
X68019000Y-26891000I-200000J0D01*
G01*
X67619000Y-26891000D01*
G75*
G02*
X67419000Y-26691000I0J200000D01*
G01*
X67419000Y-26141000D01*
G75*
G02*
X67619000Y-25941000I200000J0D01*
G01*
X68019000Y-25941000D01*
G75*
G02*
X68219000Y-26141000I0J-200000D01*
G01*
G37*
G36*
G01*
X69869000Y-26141000D02*
X69869000Y-26691000D01*
G75*
G02*
X69669000Y-26891000I-200000J0D01*
G01*
X69269000Y-26891000D01*
G75*
G02*
X69069000Y-26691000I0J200000D01*
G01*
X69069000Y-26141000D01*
G75*
G02*
X69269000Y-25941000I200000J0D01*
G01*
X69669000Y-25941000D01*
G75*
G02*
X69869000Y-26141000I0J-200000D01*
G01*
G37*
G36*
G01*
X41040000Y-20807000D02*
X41040000Y-21357000D01*
G75*
G02*
X40840000Y-21557000I-200000J0D01*
G01*
X40440000Y-21557000D01*
G75*
G02*
X40240000Y-21357000I0J200000D01*
G01*
X40240000Y-20807000D01*
G75*
G02*
X40440000Y-20607000I200000J0D01*
G01*
X40840000Y-20607000D01*
G75*
G02*
X41040000Y-20807000I0J-200000D01*
G01*
G37*
G36*
G01*
X42690000Y-20807000D02*
X42690000Y-21357000D01*
G75*
G02*
X42490000Y-21557000I-200000J0D01*
G01*
X42090000Y-21557000D01*
G75*
G02*
X41890000Y-21357000I0J200000D01*
G01*
X41890000Y-20807000D01*
G75*
G02*
X42090000Y-20607000I200000J0D01*
G01*
X42490000Y-20607000D01*
G75*
G02*
X42690000Y-20807000I0J-200000D01*
G01*
G37*
G36*
G01*
X65893000Y-30755000D02*
X65893000Y-30205000D01*
G75*
G02*
X66093000Y-30005000I200000J0D01*
G01*
X66493000Y-30005000D01*
G75*
G02*
X66693000Y-30205000I0J-200000D01*
G01*
X66693000Y-30755000D01*
G75*
G02*
X66493000Y-30955000I-200000J0D01*
G01*
X66093000Y-30955000D01*
G75*
G02*
X65893000Y-30755000I0J200000D01*
G01*
G37*
G36*
G01*
X64243000Y-30755000D02*
X64243000Y-30205000D01*
G75*
G02*
X64443000Y-30005000I200000J0D01*
G01*
X64843000Y-30005000D01*
G75*
G02*
X65043000Y-30205000I0J-200000D01*
G01*
X65043000Y-30755000D01*
G75*
G02*
X64843000Y-30955000I-200000J0D01*
G01*
X64443000Y-30955000D01*
G75*
G02*
X64243000Y-30755000I0J200000D01*
G01*
G37*
G36*
G01*
X64155000Y-26141000D02*
X64155000Y-26691000D01*
G75*
G02*
X63955000Y-26891000I-200000J0D01*
G01*
X63555000Y-26891000D01*
G75*
G02*
X63355000Y-26691000I0J200000D01*
G01*
X63355000Y-26141000D01*
G75*
G02*
X63555000Y-25941000I200000J0D01*
G01*
X63955000Y-25941000D01*
G75*
G02*
X64155000Y-26141000I0J-200000D01*
G01*
G37*
G36*
G01*
X65805000Y-26141000D02*
X65805000Y-26691000D01*
G75*
G02*
X65605000Y-26891000I-200000J0D01*
G01*
X65205000Y-26891000D01*
G75*
G02*
X65005000Y-26691000I0J200000D01*
G01*
X65005000Y-26141000D01*
G75*
G02*
X65205000Y-25941000I200000J0D01*
G01*
X65605000Y-25941000D01*
G75*
G02*
X65805000Y-26141000I0J-200000D01*
G01*
G37*
G36*
G01*
X60091000Y-26141000D02*
X60091000Y-26691000D01*
G75*
G02*
X59891000Y-26891000I-200000J0D01*
G01*
X59491000Y-26891000D01*
G75*
G02*
X59291000Y-26691000I0J200000D01*
G01*
X59291000Y-26141000D01*
G75*
G02*
X59491000Y-25941000I200000J0D01*
G01*
X59891000Y-25941000D01*
G75*
G02*
X60091000Y-26141000I0J-200000D01*
G01*
G37*
G36*
G01*
X61741000Y-26141000D02*
X61741000Y-26691000D01*
G75*
G02*
X61541000Y-26891000I-200000J0D01*
G01*
X61141000Y-26891000D01*
G75*
G02*
X60941000Y-26691000I0J200000D01*
G01*
X60941000Y-26141000D01*
G75*
G02*
X61141000Y-25941000I200000J0D01*
G01*
X61541000Y-25941000D01*
G75*
G02*
X61741000Y-26141000I0J-200000D01*
G01*
G37*
G36*
G01*
X59203000Y-30817000D02*
X58653000Y-30817000D01*
G75*
G02*
X58453000Y-30617000I0J200000D01*
G01*
X58453000Y-30217000D01*
G75*
G02*
X58653000Y-30017000I200000J0D01*
G01*
X59203000Y-30017000D01*
G75*
G02*
X59403000Y-30217000I0J-200000D01*
G01*
X59403000Y-30617000D01*
G75*
G02*
X59203000Y-30817000I-200000J0D01*
G01*
G37*
G36*
G01*
X59203000Y-32467000D02*
X58653000Y-32467000D01*
G75*
G02*
X58453000Y-32267000I0J200000D01*
G01*
X58453000Y-31867000D01*
G75*
G02*
X58653000Y-31667000I200000J0D01*
G01*
X59203000Y-31667000D01*
G75*
G02*
X59403000Y-31867000I0J-200000D01*
G01*
X59403000Y-32267000D01*
G75*
G02*
X59203000Y-32467000I-200000J0D01*
G01*
G37*
G36*
G01*
X62759000Y-30817000D02*
X62209000Y-30817000D01*
G75*
G02*
X62009000Y-30617000I0J200000D01*
G01*
X62009000Y-30217000D01*
G75*
G02*
X62209000Y-30017000I200000J0D01*
G01*
X62759000Y-30017000D01*
G75*
G02*
X62959000Y-30217000I0J-200000D01*
G01*
X62959000Y-30617000D01*
G75*
G02*
X62759000Y-30817000I-200000J0D01*
G01*
G37*
G36*
G01*
X62759000Y-32467000D02*
X62209000Y-32467000D01*
G75*
G02*
X62009000Y-32267000I0J200000D01*
G01*
X62009000Y-31867000D01*
G75*
G02*
X62209000Y-31667000I200000J0D01*
G01*
X62759000Y-31667000D01*
G75*
G02*
X62959000Y-31867000I0J-200000D01*
G01*
X62959000Y-32267000D01*
G75*
G02*
X62759000Y-32467000I-200000J0D01*
G01*
G37*
G36*
G01*
X55097000Y-24428000D02*
X55647000Y-24428000D01*
G75*
G02*
X55847000Y-24628000I0J-200000D01*
G01*
X55847000Y-25028000D01*
G75*
G02*
X55647000Y-25228000I-200000J0D01*
G01*
X55097000Y-25228000D01*
G75*
G02*
X54897000Y-25028000I0J200000D01*
G01*
X54897000Y-24628000D01*
G75*
G02*
X55097000Y-24428000I200000J0D01*
G01*
G37*
G36*
G01*
X55097000Y-22778000D02*
X55647000Y-22778000D01*
G75*
G02*
X55847000Y-22978000I0J-200000D01*
G01*
X55847000Y-23378000D01*
G75*
G02*
X55647000Y-23578000I-200000J0D01*
G01*
X55097000Y-23578000D01*
G75*
G02*
X54897000Y-23378000I0J200000D01*
G01*
X54897000Y-22978000D01*
G75*
G02*
X55097000Y-22778000I200000J0D01*
G01*
G37*
G36*
G01*
X55647000Y-30817000D02*
X55097000Y-30817000D01*
G75*
G02*
X54897000Y-30617000I0J200000D01*
G01*
X54897000Y-30217000D01*
G75*
G02*
X55097000Y-30017000I200000J0D01*
G01*
X55647000Y-30017000D01*
G75*
G02*
X55847000Y-30217000I0J-200000D01*
G01*
X55847000Y-30617000D01*
G75*
G02*
X55647000Y-30817000I-200000J0D01*
G01*
G37*
G36*
G01*
X55647000Y-32467000D02*
X55097000Y-32467000D01*
G75*
G02*
X54897000Y-32267000I0J200000D01*
G01*
X54897000Y-31867000D01*
G75*
G02*
X55097000Y-31667000I200000J0D01*
G01*
X55647000Y-31667000D01*
G75*
G02*
X55847000Y-31867000I0J-200000D01*
G01*
X55847000Y-32267000D01*
G75*
G02*
X55647000Y-32467000I-200000J0D01*
G01*
G37*
G36*
G01*
X57425000Y-30817000D02*
X56875000Y-30817000D01*
G75*
G02*
X56675000Y-30617000I0J200000D01*
G01*
X56675000Y-30217000D01*
G75*
G02*
X56875000Y-30017000I200000J0D01*
G01*
X57425000Y-30017000D01*
G75*
G02*
X57625000Y-30217000I0J-200000D01*
G01*
X57625000Y-30617000D01*
G75*
G02*
X57425000Y-30817000I-200000J0D01*
G01*
G37*
G36*
G01*
X57425000Y-32467000D02*
X56875000Y-32467000D01*
G75*
G02*
X56675000Y-32267000I0J200000D01*
G01*
X56675000Y-31867000D01*
G75*
G02*
X56875000Y-31667000I200000J0D01*
G01*
X57425000Y-31667000D01*
G75*
G02*
X57625000Y-31867000I0J-200000D01*
G01*
X57625000Y-32267000D01*
G75*
G02*
X57425000Y-32467000I-200000J0D01*
G01*
G37*
G36*
G01*
X60981000Y-30817000D02*
X60431000Y-30817000D01*
G75*
G02*
X60231000Y-30617000I0J200000D01*
G01*
X60231000Y-30217000D01*
G75*
G02*
X60431000Y-30017000I200000J0D01*
G01*
X60981000Y-30017000D01*
G75*
G02*
X61181000Y-30217000I0J-200000D01*
G01*
X61181000Y-30617000D01*
G75*
G02*
X60981000Y-30817000I-200000J0D01*
G01*
G37*
G36*
G01*
X60981000Y-32467000D02*
X60431000Y-32467000D01*
G75*
G02*
X60231000Y-32267000I0J200000D01*
G01*
X60231000Y-31867000D01*
G75*
G02*
X60431000Y-31667000I200000J0D01*
G01*
X60981000Y-31667000D01*
G75*
G02*
X61181000Y-31867000I0J-200000D01*
G01*
X61181000Y-32267000D01*
G75*
G02*
X60981000Y-32467000I-200000J0D01*
G01*
G37*
G36*
G01*
X56875000Y-24428000D02*
X57425000Y-24428000D01*
G75*
G02*
X57625000Y-24628000I0J-200000D01*
G01*
X57625000Y-25028000D01*
G75*
G02*
X57425000Y-25228000I-200000J0D01*
G01*
X56875000Y-25228000D01*
G75*
G02*
X56675000Y-25028000I0J200000D01*
G01*
X56675000Y-24628000D01*
G75*
G02*
X56875000Y-24428000I200000J0D01*
G01*
G37*
G36*
G01*
X56875000Y-22778000D02*
X57425000Y-22778000D01*
G75*
G02*
X57625000Y-22978000I0J-200000D01*
G01*
X57625000Y-23378000D01*
G75*
G02*
X57425000Y-23578000I-200000J0D01*
G01*
X56875000Y-23578000D01*
G75*
G02*
X56675000Y-23378000I0J200000D01*
G01*
X56675000Y-22978000D01*
G75*
G02*
X56875000Y-22778000I200000J0D01*
G01*
G37*
G36*
G01*
X53319000Y-24428000D02*
X53869000Y-24428000D01*
G75*
G02*
X54069000Y-24628000I0J-200000D01*
G01*
X54069000Y-25028000D01*
G75*
G02*
X53869000Y-25228000I-200000J0D01*
G01*
X53319000Y-25228000D01*
G75*
G02*
X53119000Y-25028000I0J200000D01*
G01*
X53119000Y-24628000D01*
G75*
G02*
X53319000Y-24428000I200000J0D01*
G01*
G37*
G36*
G01*
X53319000Y-22778000D02*
X53869000Y-22778000D01*
G75*
G02*
X54069000Y-22978000I0J-200000D01*
G01*
X54069000Y-23378000D01*
G75*
G02*
X53869000Y-23578000I-200000J0D01*
G01*
X53319000Y-23578000D01*
G75*
G02*
X53119000Y-23378000I0J200000D01*
G01*
X53119000Y-22978000D01*
G75*
G02*
X53319000Y-22778000I200000J0D01*
G01*
G37*
G36*
G01*
X41890000Y-23135000D02*
X41890000Y-22585000D01*
G75*
G02*
X42090000Y-22385000I200000J0D01*
G01*
X42490000Y-22385000D01*
G75*
G02*
X42690000Y-22585000I0J-200000D01*
G01*
X42690000Y-23135000D01*
G75*
G02*
X42490000Y-23335000I-200000J0D01*
G01*
X42090000Y-23335000D01*
G75*
G02*
X41890000Y-23135000I0J200000D01*
G01*
G37*
G36*
G01*
X40240000Y-23135000D02*
X40240000Y-22585000D01*
G75*
G02*
X40440000Y-22385000I200000J0D01*
G01*
X40840000Y-22385000D01*
G75*
G02*
X41040000Y-22585000I0J-200000D01*
G01*
X41040000Y-23135000D01*
G75*
G02*
X40840000Y-23335000I-200000J0D01*
G01*
X40440000Y-23335000D01*
G75*
G02*
X40240000Y-23135000I0J200000D01*
G01*
G37*
G36*
G01*
X71776000Y-31325000D02*
X71226000Y-31325000D01*
G75*
G02*
X71026000Y-31125000I0J200000D01*
G01*
X71026000Y-30725000D01*
G75*
G02*
X71226000Y-30525000I200000J0D01*
G01*
X71776000Y-30525000D01*
G75*
G02*
X71976000Y-30725000I0J-200000D01*
G01*
X71976000Y-31125000D01*
G75*
G02*
X71776000Y-31325000I-200000J0D01*
G01*
G37*
G36*
G01*
X71776000Y-32975000D02*
X71226000Y-32975000D01*
G75*
G02*
X71026000Y-32775000I0J200000D01*
G01*
X71026000Y-32375000D01*
G75*
G02*
X71226000Y-32175000I200000J0D01*
G01*
X71776000Y-32175000D01*
G75*
G02*
X71976000Y-32375000I0J-200000D01*
G01*
X71976000Y-32775000D01*
G75*
G02*
X71776000Y-32975000I-200000J0D01*
G01*
G37*
G36*
G01*
X71776000Y-23705000D02*
X71226000Y-23705000D01*
G75*
G02*
X71026000Y-23505000I0J200000D01*
G01*
X71026000Y-23105000D01*
G75*
G02*
X71226000Y-22905000I200000J0D01*
G01*
X71776000Y-22905000D01*
G75*
G02*
X71976000Y-23105000I0J-200000D01*
G01*
X71976000Y-23505000D01*
G75*
G02*
X71776000Y-23705000I-200000J0D01*
G01*
G37*
G36*
G01*
X71776000Y-25355000D02*
X71226000Y-25355000D01*
G75*
G02*
X71026000Y-25155000I0J200000D01*
G01*
X71026000Y-24755000D01*
G75*
G02*
X71226000Y-24555000I200000J0D01*
G01*
X71776000Y-24555000D01*
G75*
G02*
X71976000Y-24755000I0J-200000D01*
G01*
X71976000Y-25155000D01*
G75*
G02*
X71776000Y-25355000I-200000J0D01*
G01*
G37*
G36*
G01*
X28469000Y-23705000D02*
X27919000Y-23705000D01*
G75*
G02*
X27719000Y-23505000I0J200000D01*
G01*
X27719000Y-23105000D01*
G75*
G02*
X27919000Y-22905000I200000J0D01*
G01*
X28469000Y-22905000D01*
G75*
G02*
X28669000Y-23105000I0J-200000D01*
G01*
X28669000Y-23505000D01*
G75*
G02*
X28469000Y-23705000I-200000J0D01*
G01*
G37*
G36*
G01*
X28469000Y-25355000D02*
X27919000Y-25355000D01*
G75*
G02*
X27719000Y-25155000I0J200000D01*
G01*
X27719000Y-24755000D01*
G75*
G02*
X27919000Y-24555000I200000J0D01*
G01*
X28469000Y-24555000D01*
G75*
G02*
X28669000Y-24755000I0J-200000D01*
G01*
X28669000Y-25155000D01*
G75*
G02*
X28469000Y-25355000I-200000J0D01*
G01*
G37*
G36*
G01*
X35629400Y-32279000D02*
X35629400Y-31729000D01*
G75*
G02*
X35829400Y-31529000I200000J0D01*
G01*
X36229400Y-31529000D01*
G75*
G02*
X36429400Y-31729000I0J-200000D01*
G01*
X36429400Y-32279000D01*
G75*
G02*
X36229400Y-32479000I-200000J0D01*
G01*
X35829400Y-32479000D01*
G75*
G02*
X35629400Y-32279000I0J200000D01*
G01*
G37*
G36*
G01*
X33979400Y-32279000D02*
X33979400Y-31729000D01*
G75*
G02*
X34179400Y-31529000I200000J0D01*
G01*
X34579400Y-31529000D01*
G75*
G02*
X34779400Y-31729000I0J-200000D01*
G01*
X34779400Y-32279000D01*
G75*
G02*
X34579400Y-32479000I-200000J0D01*
G01*
X34179400Y-32479000D01*
G75*
G02*
X33979400Y-32279000I0J200000D01*
G01*
G37*
G36*
G01*
X35629400Y-30501000D02*
X35629400Y-29951000D01*
G75*
G02*
X35829400Y-29751000I200000J0D01*
G01*
X36229400Y-29751000D01*
G75*
G02*
X36429400Y-29951000I0J-200000D01*
G01*
X36429400Y-30501000D01*
G75*
G02*
X36229400Y-30701000I-200000J0D01*
G01*
X35829400Y-30701000D01*
G75*
G02*
X35629400Y-30501000I0J200000D01*
G01*
G37*
G36*
G01*
X33979400Y-30501000D02*
X33979400Y-29951000D01*
G75*
G02*
X34179400Y-29751000I200000J0D01*
G01*
X34579400Y-29751000D01*
G75*
G02*
X34779400Y-29951000I0J-200000D01*
G01*
X34779400Y-30501000D01*
G75*
G02*
X34579400Y-30701000I-200000J0D01*
G01*
X34179400Y-30701000D01*
G75*
G02*
X33979400Y-30501000I0J200000D01*
G01*
G37*
G36*
G01*
X34779400Y-33507000D02*
X34779400Y-34057000D01*
G75*
G02*
X34579400Y-34257000I-200000J0D01*
G01*
X34179400Y-34257000D01*
G75*
G02*
X33979400Y-34057000I0J200000D01*
G01*
X33979400Y-33507000D01*
G75*
G02*
X34179400Y-33307000I200000J0D01*
G01*
X34579400Y-33307000D01*
G75*
G02*
X34779400Y-33507000I0J-200000D01*
G01*
G37*
G36*
G01*
X36429400Y-33507000D02*
X36429400Y-34057000D01*
G75*
G02*
X36229400Y-34257000I-200000J0D01*
G01*
X35829400Y-34257000D01*
G75*
G02*
X35629400Y-34057000I0J200000D01*
G01*
X35629400Y-33507000D01*
G75*
G02*
X35829400Y-33307000I200000J0D01*
G01*
X36229400Y-33307000D01*
G75*
G02*
X36429400Y-33507000I0J-200000D01*
G01*
G37*
D12*
X60386000Y-22765000D03*
X59436000Y-24765000D03*
X61336000Y-24765000D03*
X65598000Y-34131000D03*
X66548000Y-32131000D03*
X64648000Y-32131000D03*
D13*
X34322000Y-25146000D03*
X36322000Y-26096000D03*
X36322000Y-24196000D03*
D12*
X64450000Y-22765000D03*
X63500000Y-24765000D03*
X65400000Y-24765000D03*
X68514000Y-22765000D03*
X67564000Y-24765000D03*
X69464000Y-24765000D03*
D14*
X44450000Y-20955000D03*
X46990000Y-20955000D03*
X49530000Y-20955000D03*
X52070000Y-20955000D03*
X54610000Y-20955000D03*
X57150000Y-20955000D03*
X57150000Y-36195000D03*
X54610000Y-36195000D03*
X52070000Y-36195000D03*
X49530000Y-36195000D03*
X46990000Y-36195000D03*
D15*
X44450000Y-36195000D03*
D16*
X48875000Y-32918400D03*
X46375000Y-32918400D03*
D17*
X75336400Y-33020000D03*
X73536400Y-33020000D03*
D18*
X75186400Y-31107500D03*
X75186400Y-34932500D03*
X73686400Y-34932500D03*
X73686400Y-31107500D03*
D17*
X75336400Y-25400000D03*
X73536400Y-25400000D03*
D18*
X75186400Y-23487500D03*
X75186400Y-27312500D03*
X73686400Y-27312500D03*
X73686400Y-23487500D03*
D19*
X28275200Y-35435000D03*
X32075200Y-35435000D03*
X28275200Y-26795000D03*
D20*
X32225200Y-28365000D03*
D21*
X32225200Y-29595000D03*
D22*
X32225200Y-30615000D03*
X32225200Y-31615000D03*
D21*
X32225200Y-32635000D03*
D19*
X32075200Y-26795000D03*
D20*
X32225200Y-33865000D03*
D23*
X71501000Y-41402000D03*
D24*
X69476000Y-41402000D03*
X70069109Y-42833891D03*
X71501000Y-43427000D03*
X72932891Y-42833891D03*
X73526000Y-41402000D03*
X72932891Y-39970109D03*
X71501000Y-39377000D03*
X70069109Y-39970109D03*
D23*
X30099000Y-41402000D03*
D24*
X32124000Y-41402000D03*
X31530891Y-39970109D03*
X30099000Y-39377000D03*
X28667109Y-39970109D03*
X28074000Y-41402000D03*
X28667109Y-42833891D03*
X30099000Y-43427000D03*
X31530891Y-42833891D03*
M02*
