M48
; DRILL file {KiCad (5.1.10)-1} date 07/15/21 16:56:02
; FORMAT={-:-/ absolute / metric / decimal}
; #@! TF.CreationDate,2021-07-15T16:56:02+03:00
; #@! TF.GenerationSoftware,Kicad,Pcbnew,(5.1.10)-1
; #@! TF.FileFunction,Plated,1,4,PTH
FMAT,2
METRIC
T1C0.400
T2C0.500
T3C0.600
T4C0.762
T5C1.000
T6C2.700
%
G90
G05
T1
X28.194Y-22.225
X30.099Y-22.225
X30.861Y-28.448
X30.861Y-33.782
X32.004Y-22.225
X33.02Y-21.717
X36.322Y-23.114
X36.322Y-27.178
X37.084Y-28.448
X37.084Y-30.226
X37.084Y-32.004
X37.084Y-33.782
X37.084Y-35.56
X37.338Y-21.717
X38.1Y-23.495
X38.1Y-27.305
X39.497Y-22.86
X40.64Y-19.939
X42.545Y-24.257
X42.545Y-28.067
X43.434Y-31.369
X46.355Y-24.638
X46.38Y-26.068
X47.625Y-27.559
X47.625Y-28.702
X47.752Y-26.543
X48.768Y-28.956
X49.53Y-31.115
X52.324Y-30.353
X53.219Y-29.713
X58.356Y-24.765
X58.61Y-25.971
X60.96Y-21.59
X61.595Y-33.782
X62.42Y-24.765
X62.738Y-26.416
X64.135Y-21.59
X66.294Y-29.337
X66.484Y-24.765
X66.802Y-26.416
X67.691Y-32.131
X68.199Y-21.59
X70.485Y-22.606
X71.501Y-26.035
X71.501Y-29.845
X71.501Y-33.655
X75.057Y-22.098
X75.057Y-28.702
X75.057Y-29.718
X75.057Y-36.322
T2
X28.074Y-41.402
X28.667Y-39.97
X28.667Y-42.834
X30.099Y-39.377
X30.099Y-43.427
X31.531Y-39.97
X31.531Y-42.834
X32.124Y-41.402
X69.476Y-41.402
X70.069Y-39.97
X70.069Y-42.834
X71.501Y-39.377
X71.501Y-43.427
X72.933Y-39.97
X72.933Y-42.834
X73.526Y-41.402
T4
X44.45Y-20.955
X44.45Y-36.195
X46.99Y-20.955
X46.99Y-36.195
X49.53Y-20.955
X49.53Y-36.195
X52.07Y-20.955
X52.07Y-36.195
X54.61Y-20.955
X54.61Y-36.195
X57.15Y-20.955
X57.15Y-36.195
T5
X40.894Y-30.353
X40.894Y-32.893
T6
X30.099Y-41.402
X71.501Y-41.402
T3
X27.975Y-26.795G85X28.575Y-26.795
G05
X27.975Y-35.435G85X28.575Y-35.435
G05
X31.775Y-26.795G85X32.375Y-26.795
G05
X31.775Y-35.435G85X32.375Y-35.435
G05
T0
M30
