G04 #@! TF.GenerationSoftware,KiCad,Pcbnew,(5.1.10)-1*
G04 #@! TF.CreationDate,2021-07-15T16:55:59+03:00*
G04 #@! TF.ProjectId,clock,636c6f63-6b2e-46b6-9963-61645f706362,rev?*
G04 #@! TF.SameCoordinates,Original*
G04 #@! TF.FileFunction,Copper,L3,Inr*
G04 #@! TF.FilePolarity,Positive*
%FSLAX46Y46*%
G04 Gerber Fmt 4.6, Leading zero omitted, Abs format (unit mm)*
G04 Created by KiCad (PCBNEW (5.1.10)-1) date 2021-07-15 16:55:59*
%MOMM*%
%LPD*%
G01*
G04 APERTURE LIST*
G04 #@! TA.AperFunction,ComponentPad*
%ADD10O,1.700000X1.700000*%
G04 #@! TD*
G04 #@! TA.AperFunction,ComponentPad*
%ADD11R,1.700000X1.700000*%
G04 #@! TD*
G04 #@! TA.AperFunction,ComponentPad*
%ADD12C,1.524000*%
G04 #@! TD*
G04 #@! TA.AperFunction,ComponentPad*
%ADD13R,1.524000X1.524000*%
G04 #@! TD*
G04 #@! TA.AperFunction,ComponentPad*
%ADD14O,1.700000X1.100000*%
G04 #@! TD*
G04 #@! TA.AperFunction,ComponentPad*
%ADD15C,5.400000*%
G04 #@! TD*
G04 #@! TA.AperFunction,ComponentPad*
%ADD16C,0.800000*%
G04 #@! TD*
G04 #@! TA.AperFunction,ViaPad*
%ADD17C,0.800000*%
G04 #@! TD*
G04 #@! TA.AperFunction,Conductor*
%ADD18C,0.254000*%
G04 #@! TD*
G04 #@! TA.AperFunction,Conductor*
%ADD19C,0.100000*%
G04 #@! TD*
G04 APERTURE END LIST*
D10*
X40894000Y-32893000D03*
D11*
X40894000Y-30353000D03*
D12*
X44450000Y-20955000D03*
X46990000Y-20955000D03*
X49530000Y-20955000D03*
X52070000Y-20955000D03*
X54610000Y-20955000D03*
X57150000Y-20955000D03*
X57150000Y-36195000D03*
X54610000Y-36195000D03*
X52070000Y-36195000D03*
X49530000Y-36195000D03*
X46990000Y-36195000D03*
D13*
X44450000Y-36195000D03*
D14*
X28275200Y-35435000D03*
X32075200Y-35435000D03*
X28275200Y-26795000D03*
X32075200Y-26795000D03*
D15*
X71501000Y-41402000D03*
D16*
X69476000Y-41402000D03*
X70069109Y-42833891D03*
X71501000Y-43427000D03*
X72932891Y-42833891D03*
X73526000Y-41402000D03*
X72932891Y-39970109D03*
X71501000Y-39377000D03*
X70069109Y-39970109D03*
D15*
X30099000Y-41402000D03*
D16*
X32124000Y-41402000D03*
X31530891Y-39970109D03*
X30099000Y-39377000D03*
X28667109Y-39970109D03*
X28074000Y-41402000D03*
X28667109Y-42833891D03*
X30099000Y-43427000D03*
X31530891Y-42833891D03*
D17*
X61595000Y-33782000D03*
X60960000Y-21590002D03*
X64135000Y-21590000D03*
X68199000Y-21590000D03*
X37084000Y-28448000D03*
X37084000Y-30226000D03*
X37084000Y-32004000D03*
X37084000Y-35560000D03*
X38100000Y-23495000D03*
X33020000Y-21717000D03*
X42545000Y-28067000D03*
X30861000Y-28448000D03*
X30861000Y-33782000D03*
X28194000Y-22225000D03*
X30099000Y-22225000D03*
X32004000Y-22225000D03*
X36322000Y-23114000D03*
X43434000Y-31369000D03*
X40640000Y-19939000D03*
X58356500Y-24765000D03*
X62420500Y-24765000D03*
X66484500Y-24765000D03*
X67691000Y-32131000D03*
X75057000Y-29718000D03*
X75057000Y-36322000D03*
X75057000Y-28702000D03*
X75057000Y-22098000D03*
X46379845Y-26067979D03*
X49530000Y-31115000D03*
X37084000Y-33782000D03*
X38100000Y-27305000D03*
X37338000Y-21717000D03*
X42545000Y-24257000D03*
X36322000Y-27178000D03*
X39497000Y-22860000D03*
X71501000Y-33655000D03*
X71501000Y-26035000D03*
X46355000Y-24638000D03*
X70485000Y-22606000D03*
X53219231Y-29712808D03*
X71501000Y-29845000D03*
X52324000Y-30353000D03*
X47752000Y-26543000D03*
X58610500Y-25971500D03*
X62738000Y-26416000D03*
X47625000Y-27559000D03*
X66802000Y-26416000D03*
X47625000Y-28702000D03*
X66294000Y-29337000D03*
X48767996Y-28956000D03*
D18*
X75667000Y-21472661D02*
X75667000Y-24866813D01*
X75633396Y-24844360D01*
X75519289Y-24797095D01*
X75398154Y-24773000D01*
X75274646Y-24773000D01*
X75153511Y-24797095D01*
X75039404Y-24844360D01*
X74936711Y-24912977D01*
X74849377Y-25000311D01*
X74780760Y-25103004D01*
X74733495Y-25217111D01*
X74709400Y-25338246D01*
X74709400Y-25461754D01*
X74733495Y-25582889D01*
X74780760Y-25696996D01*
X74849377Y-25799689D01*
X74936711Y-25887023D01*
X75039404Y-25955640D01*
X75153511Y-26002905D01*
X75274646Y-26027000D01*
X75398154Y-26027000D01*
X75519289Y-26002905D01*
X75633396Y-25955640D01*
X75667000Y-25933186D01*
X75667001Y-32486814D01*
X75633396Y-32464360D01*
X75519289Y-32417095D01*
X75398154Y-32393000D01*
X75274646Y-32393000D01*
X75153511Y-32417095D01*
X75039404Y-32464360D01*
X74936711Y-32532977D01*
X74849377Y-32620311D01*
X74780760Y-32723004D01*
X74733495Y-32837111D01*
X74709400Y-32958246D01*
X74709400Y-33081754D01*
X74733495Y-33202889D01*
X74780760Y-33316996D01*
X74849377Y-33419689D01*
X74936711Y-33507023D01*
X75039404Y-33575640D01*
X75153511Y-33622905D01*
X75274646Y-33647000D01*
X75398154Y-33647000D01*
X75519289Y-33622905D01*
X75633396Y-33575640D01*
X75667001Y-33553186D01*
X75667001Y-37719000D01*
X25933000Y-37719000D01*
X25933000Y-35435000D01*
X27093957Y-35435000D01*
X27110890Y-35606922D01*
X27161038Y-35772237D01*
X27242473Y-35924592D01*
X27352067Y-36058133D01*
X27485608Y-36167727D01*
X27637963Y-36249162D01*
X27803278Y-36299310D01*
X27932121Y-36312000D01*
X28618279Y-36312000D01*
X28747122Y-36299310D01*
X28912437Y-36249162D01*
X29064792Y-36167727D01*
X29198333Y-36058133D01*
X29307927Y-35924592D01*
X29389362Y-35772237D01*
X29439510Y-35606922D01*
X29456443Y-35435000D01*
X30893957Y-35435000D01*
X30910890Y-35606922D01*
X30961038Y-35772237D01*
X31042473Y-35924592D01*
X31152067Y-36058133D01*
X31285608Y-36167727D01*
X31437963Y-36249162D01*
X31603278Y-36299310D01*
X31732121Y-36312000D01*
X32418279Y-36312000D01*
X32547122Y-36299310D01*
X32712437Y-36249162D01*
X32864792Y-36167727D01*
X32998333Y-36058133D01*
X33107927Y-35924592D01*
X33189362Y-35772237D01*
X33239510Y-35606922D01*
X33256443Y-35435000D01*
X33256247Y-35433000D01*
X43359418Y-35433000D01*
X43359418Y-36957000D01*
X43365732Y-37021103D01*
X43384430Y-37082743D01*
X43414794Y-37139550D01*
X43455657Y-37189343D01*
X43505450Y-37230206D01*
X43562257Y-37260570D01*
X43623897Y-37279268D01*
X43688000Y-37285582D01*
X45212000Y-37285582D01*
X45276103Y-37279268D01*
X45337743Y-37260570D01*
X45394550Y-37230206D01*
X45444343Y-37189343D01*
X45485206Y-37139550D01*
X45515570Y-37082743D01*
X45534268Y-37021103D01*
X45540582Y-36957000D01*
X45540582Y-36087743D01*
X45901000Y-36087743D01*
X45901000Y-36302257D01*
X45942850Y-36512650D01*
X46024941Y-36710835D01*
X46144119Y-36889197D01*
X46295803Y-37040881D01*
X46474165Y-37160059D01*
X46672350Y-37242150D01*
X46882743Y-37284000D01*
X47097257Y-37284000D01*
X47307650Y-37242150D01*
X47505835Y-37160059D01*
X47684197Y-37040881D01*
X47835881Y-36889197D01*
X47955059Y-36710835D01*
X48037150Y-36512650D01*
X48079000Y-36302257D01*
X48079000Y-36087743D01*
X48441000Y-36087743D01*
X48441000Y-36302257D01*
X48482850Y-36512650D01*
X48564941Y-36710835D01*
X48684119Y-36889197D01*
X48835803Y-37040881D01*
X49014165Y-37160059D01*
X49212350Y-37242150D01*
X49422743Y-37284000D01*
X49637257Y-37284000D01*
X49847650Y-37242150D01*
X50045835Y-37160059D01*
X50224197Y-37040881D01*
X50375881Y-36889197D01*
X50495059Y-36710835D01*
X50577150Y-36512650D01*
X50619000Y-36302257D01*
X50619000Y-36087743D01*
X50981000Y-36087743D01*
X50981000Y-36302257D01*
X51022850Y-36512650D01*
X51104941Y-36710835D01*
X51224119Y-36889197D01*
X51375803Y-37040881D01*
X51554165Y-37160059D01*
X51752350Y-37242150D01*
X51962743Y-37284000D01*
X52177257Y-37284000D01*
X52387650Y-37242150D01*
X52585835Y-37160059D01*
X52764197Y-37040881D01*
X52915881Y-36889197D01*
X53035059Y-36710835D01*
X53117150Y-36512650D01*
X53159000Y-36302257D01*
X53159000Y-36087743D01*
X53521000Y-36087743D01*
X53521000Y-36302257D01*
X53562850Y-36512650D01*
X53644941Y-36710835D01*
X53764119Y-36889197D01*
X53915803Y-37040881D01*
X54094165Y-37160059D01*
X54292350Y-37242150D01*
X54502743Y-37284000D01*
X54717257Y-37284000D01*
X54927650Y-37242150D01*
X55125835Y-37160059D01*
X55304197Y-37040881D01*
X55455881Y-36889197D01*
X55575059Y-36710835D01*
X55657150Y-36512650D01*
X55699000Y-36302257D01*
X55699000Y-36087743D01*
X56061000Y-36087743D01*
X56061000Y-36302257D01*
X56102850Y-36512650D01*
X56184941Y-36710835D01*
X56304119Y-36889197D01*
X56455803Y-37040881D01*
X56634165Y-37160059D01*
X56832350Y-37242150D01*
X57042743Y-37284000D01*
X57257257Y-37284000D01*
X57467650Y-37242150D01*
X57665835Y-37160059D01*
X57844197Y-37040881D01*
X57995881Y-36889197D01*
X58115059Y-36710835D01*
X58197150Y-36512650D01*
X58239000Y-36302257D01*
X58239000Y-36087743D01*
X58197150Y-35877350D01*
X58115059Y-35679165D01*
X57995881Y-35500803D01*
X57844197Y-35349119D01*
X57665835Y-35229941D01*
X57467650Y-35147850D01*
X57257257Y-35106000D01*
X57042743Y-35106000D01*
X56832350Y-35147850D01*
X56634165Y-35229941D01*
X56455803Y-35349119D01*
X56304119Y-35500803D01*
X56184941Y-35679165D01*
X56102850Y-35877350D01*
X56061000Y-36087743D01*
X55699000Y-36087743D01*
X55657150Y-35877350D01*
X55575059Y-35679165D01*
X55455881Y-35500803D01*
X55304197Y-35349119D01*
X55125835Y-35229941D01*
X54927650Y-35147850D01*
X54717257Y-35106000D01*
X54502743Y-35106000D01*
X54292350Y-35147850D01*
X54094165Y-35229941D01*
X53915803Y-35349119D01*
X53764119Y-35500803D01*
X53644941Y-35679165D01*
X53562850Y-35877350D01*
X53521000Y-36087743D01*
X53159000Y-36087743D01*
X53117150Y-35877350D01*
X53035059Y-35679165D01*
X52915881Y-35500803D01*
X52764197Y-35349119D01*
X52585835Y-35229941D01*
X52387650Y-35147850D01*
X52177257Y-35106000D01*
X51962743Y-35106000D01*
X51752350Y-35147850D01*
X51554165Y-35229941D01*
X51375803Y-35349119D01*
X51224119Y-35500803D01*
X51104941Y-35679165D01*
X51022850Y-35877350D01*
X50981000Y-36087743D01*
X50619000Y-36087743D01*
X50577150Y-35877350D01*
X50495059Y-35679165D01*
X50375881Y-35500803D01*
X50224197Y-35349119D01*
X50045835Y-35229941D01*
X49847650Y-35147850D01*
X49637257Y-35106000D01*
X49422743Y-35106000D01*
X49212350Y-35147850D01*
X49014165Y-35229941D01*
X48835803Y-35349119D01*
X48684119Y-35500803D01*
X48564941Y-35679165D01*
X48482850Y-35877350D01*
X48441000Y-36087743D01*
X48079000Y-36087743D01*
X48037150Y-35877350D01*
X47955059Y-35679165D01*
X47835881Y-35500803D01*
X47684197Y-35349119D01*
X47505835Y-35229941D01*
X47307650Y-35147850D01*
X47097257Y-35106000D01*
X46882743Y-35106000D01*
X46672350Y-35147850D01*
X46474165Y-35229941D01*
X46295803Y-35349119D01*
X46144119Y-35500803D01*
X46024941Y-35679165D01*
X45942850Y-35877350D01*
X45901000Y-36087743D01*
X45540582Y-36087743D01*
X45540582Y-35433000D01*
X45534268Y-35368897D01*
X45515570Y-35307257D01*
X45485206Y-35250450D01*
X45444343Y-35200657D01*
X45394550Y-35159794D01*
X45337743Y-35129430D01*
X45276103Y-35110732D01*
X45212000Y-35104418D01*
X43688000Y-35104418D01*
X43623897Y-35110732D01*
X43562257Y-35129430D01*
X43505450Y-35159794D01*
X43455657Y-35200657D01*
X43414794Y-35250450D01*
X43384430Y-35307257D01*
X43365732Y-35368897D01*
X43359418Y-35433000D01*
X33256247Y-35433000D01*
X33239510Y-35263078D01*
X33189362Y-35097763D01*
X33107927Y-34945408D01*
X32998333Y-34811867D01*
X32864792Y-34702273D01*
X32712437Y-34620838D01*
X32547122Y-34570690D01*
X32418279Y-34558000D01*
X31732121Y-34558000D01*
X31603278Y-34570690D01*
X31437963Y-34620838D01*
X31285608Y-34702273D01*
X31152067Y-34811867D01*
X31042473Y-34945408D01*
X30961038Y-35097763D01*
X30910890Y-35263078D01*
X30893957Y-35435000D01*
X29456443Y-35435000D01*
X29439510Y-35263078D01*
X29389362Y-35097763D01*
X29307927Y-34945408D01*
X29198333Y-34811867D01*
X29064792Y-34702273D01*
X28912437Y-34620838D01*
X28747122Y-34570690D01*
X28618279Y-34558000D01*
X27932121Y-34558000D01*
X27803278Y-34570690D01*
X27637963Y-34620838D01*
X27485608Y-34702273D01*
X27352067Y-34811867D01*
X27242473Y-34945408D01*
X27161038Y-35097763D01*
X27110890Y-35263078D01*
X27093957Y-35435000D01*
X25933000Y-35435000D01*
X25933000Y-33710397D01*
X36357000Y-33710397D01*
X36357000Y-33853603D01*
X36384938Y-33994058D01*
X36439741Y-34126364D01*
X36519302Y-34245436D01*
X36620564Y-34346698D01*
X36739636Y-34426259D01*
X36871942Y-34481062D01*
X37012397Y-34509000D01*
X37155603Y-34509000D01*
X37296058Y-34481062D01*
X37428364Y-34426259D01*
X37547436Y-34346698D01*
X37648698Y-34245436D01*
X37728259Y-34126364D01*
X37783062Y-33994058D01*
X37811000Y-33853603D01*
X37811000Y-33710397D01*
X37783062Y-33569942D01*
X37728259Y-33437636D01*
X37648698Y-33318564D01*
X37547436Y-33217302D01*
X37428364Y-33137741D01*
X37296058Y-33082938D01*
X37212684Y-33066354D01*
X39802683Y-33066354D01*
X39819414Y-33150471D01*
X39890292Y-33355165D01*
X39999742Y-33542098D01*
X40143558Y-33704087D01*
X40316213Y-33834906D01*
X40511072Y-33929528D01*
X40720646Y-33984317D01*
X40893500Y-33934250D01*
X40893500Y-32893500D01*
X40894500Y-32893500D01*
X40894500Y-33934250D01*
X41067354Y-33984317D01*
X41276928Y-33929528D01*
X41471787Y-33834906D01*
X41644442Y-33704087D01*
X41788258Y-33542098D01*
X41897708Y-33355165D01*
X41968586Y-33150471D01*
X41985317Y-33066354D01*
X41935250Y-32893500D01*
X40894500Y-32893500D01*
X40893500Y-32893500D01*
X39852750Y-32893500D01*
X39802683Y-33066354D01*
X37212684Y-33066354D01*
X37155603Y-33055000D01*
X37012397Y-33055000D01*
X36871942Y-33082938D01*
X36739636Y-33137741D01*
X36620564Y-33217302D01*
X36519302Y-33318564D01*
X36439741Y-33437636D01*
X36384938Y-33569942D01*
X36357000Y-33710397D01*
X25933000Y-33710397D01*
X25933000Y-32719646D01*
X39802683Y-32719646D01*
X39852750Y-32892500D01*
X40893500Y-32892500D01*
X40893500Y-31851750D01*
X40894500Y-31851750D01*
X40894500Y-32892500D01*
X41935250Y-32892500D01*
X41985317Y-32719646D01*
X41968586Y-32635529D01*
X41897708Y-32430835D01*
X41788258Y-32243902D01*
X41644442Y-32081913D01*
X41471787Y-31951094D01*
X41276928Y-31856472D01*
X41067354Y-31801683D01*
X40894500Y-31851750D01*
X40893500Y-31851750D01*
X40720646Y-31801683D01*
X40511072Y-31856472D01*
X40316213Y-31951094D01*
X40143558Y-32081913D01*
X39999742Y-32243902D01*
X39890292Y-32430835D01*
X39819414Y-32635529D01*
X39802683Y-32719646D01*
X25933000Y-32719646D01*
X25933000Y-29503000D01*
X39715418Y-29503000D01*
X39715418Y-31203000D01*
X39721732Y-31267103D01*
X39740430Y-31328743D01*
X39770794Y-31385550D01*
X39811657Y-31435343D01*
X39861450Y-31476206D01*
X39918257Y-31506570D01*
X39979897Y-31525268D01*
X40044000Y-31531582D01*
X41744000Y-31531582D01*
X41808103Y-31525268D01*
X41869743Y-31506570D01*
X41926550Y-31476206D01*
X41976343Y-31435343D01*
X42017206Y-31385550D01*
X42047570Y-31328743D01*
X42066268Y-31267103D01*
X42072582Y-31203000D01*
X42072582Y-29718000D01*
X42418000Y-29718000D01*
X42418000Y-33147000D01*
X42420440Y-33171776D01*
X42427667Y-33195601D01*
X42439403Y-33217557D01*
X42455197Y-33236803D01*
X43598197Y-34379803D01*
X43617443Y-34395597D01*
X43639399Y-34407333D01*
X43663224Y-34414560D01*
X43688000Y-34417000D01*
X50800000Y-34417000D01*
X50824776Y-34414560D01*
X50848601Y-34407333D01*
X50870557Y-34395597D01*
X50889803Y-34379803D01*
X51559209Y-33710397D01*
X60868000Y-33710397D01*
X60868000Y-33853603D01*
X60895938Y-33994058D01*
X60950741Y-34126364D01*
X61030302Y-34245436D01*
X61131564Y-34346698D01*
X61250636Y-34426259D01*
X61382942Y-34481062D01*
X61523397Y-34509000D01*
X61666603Y-34509000D01*
X61807058Y-34481062D01*
X61939364Y-34426259D01*
X62058436Y-34346698D01*
X62159698Y-34245436D01*
X62239259Y-34126364D01*
X62294062Y-33994058D01*
X62322000Y-33853603D01*
X62322000Y-33710397D01*
X62296739Y-33583397D01*
X70774000Y-33583397D01*
X70774000Y-33726603D01*
X70801938Y-33867058D01*
X70856741Y-33999364D01*
X70936302Y-34118436D01*
X71037564Y-34219698D01*
X71156636Y-34299259D01*
X71288942Y-34354062D01*
X71429397Y-34382000D01*
X71572603Y-34382000D01*
X71713058Y-34354062D01*
X71845364Y-34299259D01*
X71964436Y-34219698D01*
X72065698Y-34118436D01*
X72145259Y-33999364D01*
X72200062Y-33867058D01*
X72228000Y-33726603D01*
X72228000Y-33583397D01*
X72200062Y-33442942D01*
X72145259Y-33310636D01*
X72065698Y-33191564D01*
X71964436Y-33090302D01*
X71845364Y-33010741D01*
X71718630Y-32958246D01*
X72909400Y-32958246D01*
X72909400Y-33081754D01*
X72933495Y-33202889D01*
X72980760Y-33316996D01*
X73049377Y-33419689D01*
X73136711Y-33507023D01*
X73239404Y-33575640D01*
X73353511Y-33622905D01*
X73474646Y-33647000D01*
X73598154Y-33647000D01*
X73719289Y-33622905D01*
X73833396Y-33575640D01*
X73936089Y-33507023D01*
X74023423Y-33419689D01*
X74092040Y-33316996D01*
X74139305Y-33202889D01*
X74163400Y-33081754D01*
X74163400Y-32958246D01*
X74139305Y-32837111D01*
X74092040Y-32723004D01*
X74023423Y-32620311D01*
X73936089Y-32532977D01*
X73833396Y-32464360D01*
X73719289Y-32417095D01*
X73598154Y-32393000D01*
X73474646Y-32393000D01*
X73353511Y-32417095D01*
X73239404Y-32464360D01*
X73136711Y-32532977D01*
X73049377Y-32620311D01*
X72980760Y-32723004D01*
X72933495Y-32837111D01*
X72909400Y-32958246D01*
X71718630Y-32958246D01*
X71713058Y-32955938D01*
X71572603Y-32928000D01*
X71429397Y-32928000D01*
X71288942Y-32955938D01*
X71156636Y-33010741D01*
X71037564Y-33090302D01*
X70936302Y-33191564D01*
X70856741Y-33310636D01*
X70801938Y-33442942D01*
X70774000Y-33583397D01*
X62296739Y-33583397D01*
X62294062Y-33569942D01*
X62239259Y-33437636D01*
X62159698Y-33318564D01*
X62058436Y-33217302D01*
X61939364Y-33137741D01*
X61807058Y-33082938D01*
X61666603Y-33055000D01*
X61523397Y-33055000D01*
X61382942Y-33082938D01*
X61250636Y-33137741D01*
X61131564Y-33217302D01*
X61030302Y-33318564D01*
X60950741Y-33437636D01*
X60895938Y-33569942D01*
X60868000Y-33710397D01*
X51559209Y-33710397D01*
X51905803Y-33363803D01*
X51921597Y-33344557D01*
X51933333Y-33322601D01*
X51940560Y-33298776D01*
X51943000Y-33274000D01*
X51943000Y-31115000D01*
X51940560Y-31090224D01*
X51933333Y-31066399D01*
X51921597Y-31044443D01*
X51905803Y-31025197D01*
X51162003Y-30281397D01*
X51597000Y-30281397D01*
X51597000Y-30424603D01*
X51624938Y-30565058D01*
X51679741Y-30697364D01*
X51759302Y-30816436D01*
X51860564Y-30917698D01*
X51979636Y-30997259D01*
X52111942Y-31052062D01*
X52252397Y-31080000D01*
X52395603Y-31080000D01*
X52536058Y-31052062D01*
X52668364Y-30997259D01*
X52787436Y-30917698D01*
X52888698Y-30816436D01*
X52968259Y-30697364D01*
X53023062Y-30565058D01*
X53051000Y-30424603D01*
X53051000Y-30420588D01*
X53147628Y-30439808D01*
X53290834Y-30439808D01*
X53431289Y-30411870D01*
X53563595Y-30357067D01*
X53682667Y-30277506D01*
X53783929Y-30176244D01*
X53863490Y-30057172D01*
X53918293Y-29924866D01*
X53946231Y-29784411D01*
X53946231Y-29641205D01*
X53918293Y-29500750D01*
X53863490Y-29368444D01*
X53794637Y-29265397D01*
X65567000Y-29265397D01*
X65567000Y-29408603D01*
X65594938Y-29549058D01*
X65649741Y-29681364D01*
X65729302Y-29800436D01*
X65830564Y-29901698D01*
X65949636Y-29981259D01*
X66081942Y-30036062D01*
X66222397Y-30064000D01*
X66365603Y-30064000D01*
X66506058Y-30036062D01*
X66638364Y-29981259D01*
X66757436Y-29901698D01*
X66858698Y-29800436D01*
X66876764Y-29773397D01*
X70774000Y-29773397D01*
X70774000Y-29916603D01*
X70801938Y-30057058D01*
X70856741Y-30189364D01*
X70936302Y-30308436D01*
X71037564Y-30409698D01*
X71156636Y-30489259D01*
X71288942Y-30544062D01*
X71429397Y-30572000D01*
X71572603Y-30572000D01*
X71713058Y-30544062D01*
X71845364Y-30489259D01*
X71964436Y-30409698D01*
X72065698Y-30308436D01*
X72145259Y-30189364D01*
X72200062Y-30057058D01*
X72228000Y-29916603D01*
X72228000Y-29773397D01*
X72200062Y-29632942D01*
X72145259Y-29500636D01*
X72065698Y-29381564D01*
X71964436Y-29280302D01*
X71845364Y-29200741D01*
X71713058Y-29145938D01*
X71572603Y-29118000D01*
X71429397Y-29118000D01*
X71288942Y-29145938D01*
X71156636Y-29200741D01*
X71037564Y-29280302D01*
X70936302Y-29381564D01*
X70856741Y-29500636D01*
X70801938Y-29632942D01*
X70774000Y-29773397D01*
X66876764Y-29773397D01*
X66938259Y-29681364D01*
X66993062Y-29549058D01*
X67021000Y-29408603D01*
X67021000Y-29265397D01*
X66993062Y-29124942D01*
X66938259Y-28992636D01*
X66858698Y-28873564D01*
X66757436Y-28772302D01*
X66638364Y-28692741D01*
X66506058Y-28637938D01*
X66365603Y-28610000D01*
X66222397Y-28610000D01*
X66081942Y-28637938D01*
X65949636Y-28692741D01*
X65830564Y-28772302D01*
X65729302Y-28873564D01*
X65649741Y-28992636D01*
X65594938Y-29124942D01*
X65567000Y-29265397D01*
X53794637Y-29265397D01*
X53783929Y-29249372D01*
X53682667Y-29148110D01*
X53563595Y-29068549D01*
X53431289Y-29013746D01*
X53290834Y-28985808D01*
X53147628Y-28985808D01*
X53007173Y-29013746D01*
X52874867Y-29068549D01*
X52755795Y-29148110D01*
X52654533Y-29249372D01*
X52574972Y-29368444D01*
X52520169Y-29500750D01*
X52492231Y-29641205D01*
X52492231Y-29645220D01*
X52395603Y-29626000D01*
X52252397Y-29626000D01*
X52111942Y-29653938D01*
X51979636Y-29708741D01*
X51860564Y-29788302D01*
X51759302Y-29889564D01*
X51679741Y-30008636D01*
X51624938Y-30140942D01*
X51597000Y-30281397D01*
X51162003Y-30281397D01*
X51016803Y-30136197D01*
X50997557Y-30120403D01*
X50975601Y-30108667D01*
X50951776Y-30101440D01*
X50927000Y-30099000D01*
X47550606Y-30099000D01*
X46190803Y-28739197D01*
X46171557Y-28723403D01*
X46149601Y-28711667D01*
X46125776Y-28704440D01*
X46101000Y-28702000D01*
X44958000Y-28702000D01*
X44933224Y-28704440D01*
X44909399Y-28711667D01*
X44887443Y-28723403D01*
X44868197Y-28739197D01*
X44852403Y-28758443D01*
X44840667Y-28780399D01*
X44833440Y-28804224D01*
X44831000Y-28829000D01*
X44831000Y-29083000D01*
X44833440Y-29107776D01*
X44840667Y-29131601D01*
X44852403Y-29153557D01*
X44868197Y-29172803D01*
X44887443Y-29188597D01*
X44909399Y-29200333D01*
X44933224Y-29207560D01*
X44958000Y-29210000D01*
X45921394Y-29210000D01*
X47281197Y-30569803D01*
X47300443Y-30585597D01*
X47322399Y-30597333D01*
X47346224Y-30604560D01*
X47371000Y-30607000D01*
X50747394Y-30607000D01*
X51435000Y-31294606D01*
X51435000Y-33094394D01*
X50620394Y-33909000D01*
X43867606Y-33909000D01*
X42926000Y-32967394D01*
X42926000Y-29897606D01*
X43613606Y-29210000D01*
X44196000Y-29210000D01*
X44220776Y-29207560D01*
X44244601Y-29200333D01*
X44266557Y-29188597D01*
X44285803Y-29172803D01*
X44301597Y-29153557D01*
X44313333Y-29131601D01*
X44320560Y-29107776D01*
X44323000Y-29083000D01*
X44323000Y-28829000D01*
X44320560Y-28804224D01*
X44313333Y-28780399D01*
X44301597Y-28758443D01*
X44285803Y-28739197D01*
X44266557Y-28723403D01*
X44244601Y-28711667D01*
X44220776Y-28704440D01*
X44196000Y-28702000D01*
X43434000Y-28702000D01*
X43409224Y-28704440D01*
X43385399Y-28711667D01*
X43363443Y-28723403D01*
X43344197Y-28739197D01*
X42455197Y-29628197D01*
X42439403Y-29647443D01*
X42427667Y-29669399D01*
X42420440Y-29693224D01*
X42418000Y-29718000D01*
X42072582Y-29718000D01*
X42072582Y-29503000D01*
X42066268Y-29438897D01*
X42047570Y-29377257D01*
X42017206Y-29320450D01*
X41976343Y-29270657D01*
X41926550Y-29229794D01*
X41869743Y-29199430D01*
X41808103Y-29180732D01*
X41744000Y-29174418D01*
X40044000Y-29174418D01*
X39979897Y-29180732D01*
X39918257Y-29199430D01*
X39861450Y-29229794D01*
X39811657Y-29270657D01*
X39770794Y-29320450D01*
X39740430Y-29377257D01*
X39721732Y-29438897D01*
X39715418Y-29503000D01*
X25933000Y-29503000D01*
X25933000Y-26795000D01*
X27093957Y-26795000D01*
X27110890Y-26966922D01*
X27161038Y-27132237D01*
X27242473Y-27284592D01*
X27352067Y-27418133D01*
X27485608Y-27527727D01*
X27637963Y-27609162D01*
X27803278Y-27659310D01*
X27932121Y-27672000D01*
X28618279Y-27672000D01*
X28747122Y-27659310D01*
X28912437Y-27609162D01*
X29064792Y-27527727D01*
X29198333Y-27418133D01*
X29307927Y-27284592D01*
X29389362Y-27132237D01*
X29439510Y-26966922D01*
X29456443Y-26795000D01*
X30893957Y-26795000D01*
X30910890Y-26966922D01*
X30961038Y-27132237D01*
X31042473Y-27284592D01*
X31152067Y-27418133D01*
X31285608Y-27527727D01*
X31437963Y-27609162D01*
X31603278Y-27659310D01*
X31732121Y-27672000D01*
X32418279Y-27672000D01*
X32547122Y-27659310D01*
X32712437Y-27609162D01*
X32864792Y-27527727D01*
X32998333Y-27418133D01*
X33107927Y-27284592D01*
X33189362Y-27132237D01*
X33197200Y-27106397D01*
X35595000Y-27106397D01*
X35595000Y-27249603D01*
X35622938Y-27390058D01*
X35677741Y-27522364D01*
X35757302Y-27641436D01*
X35858564Y-27742698D01*
X35977636Y-27822259D01*
X36109942Y-27877062D01*
X36250397Y-27905000D01*
X36393603Y-27905000D01*
X36534058Y-27877062D01*
X36666364Y-27822259D01*
X36785436Y-27742698D01*
X36886698Y-27641436D01*
X36966259Y-27522364D01*
X37021062Y-27390058D01*
X37049000Y-27249603D01*
X37049000Y-27233397D01*
X37373000Y-27233397D01*
X37373000Y-27376603D01*
X37400938Y-27517058D01*
X37455741Y-27649364D01*
X37535302Y-27768436D01*
X37636564Y-27869698D01*
X37755636Y-27949259D01*
X37887942Y-28004062D01*
X38028397Y-28032000D01*
X38171603Y-28032000D01*
X38312058Y-28004062D01*
X38444364Y-27949259D01*
X38563436Y-27869698D01*
X38664698Y-27768436D01*
X38744259Y-27649364D01*
X38799062Y-27517058D01*
X38804961Y-27487397D01*
X46898000Y-27487397D01*
X46898000Y-27630603D01*
X46925938Y-27771058D01*
X46980741Y-27903364D01*
X47060302Y-28022436D01*
X47161564Y-28123698D01*
X47171744Y-28130500D01*
X47161564Y-28137302D01*
X47060302Y-28238564D01*
X46980741Y-28357636D01*
X46925938Y-28489942D01*
X46898000Y-28630397D01*
X46898000Y-28773603D01*
X46925938Y-28914058D01*
X46980741Y-29046364D01*
X47060302Y-29165436D01*
X47161564Y-29266698D01*
X47280636Y-29346259D01*
X47412942Y-29401062D01*
X47553397Y-29429000D01*
X47696603Y-29429000D01*
X47837058Y-29401062D01*
X47969364Y-29346259D01*
X48088436Y-29266698D01*
X48103537Y-29251597D01*
X48123737Y-29300364D01*
X48203298Y-29419436D01*
X48304560Y-29520698D01*
X48423632Y-29600259D01*
X48555938Y-29655062D01*
X48696393Y-29683000D01*
X48839599Y-29683000D01*
X48980054Y-29655062D01*
X49112360Y-29600259D01*
X49231432Y-29520698D01*
X49332694Y-29419436D01*
X49412255Y-29300364D01*
X49467058Y-29168058D01*
X49494996Y-29027603D01*
X49494996Y-28884397D01*
X49467058Y-28743942D01*
X49412255Y-28611636D01*
X49332694Y-28492564D01*
X49231432Y-28391302D01*
X49112360Y-28311741D01*
X48980054Y-28256938D01*
X48839599Y-28229000D01*
X48696393Y-28229000D01*
X48555938Y-28256938D01*
X48423632Y-28311741D01*
X48304560Y-28391302D01*
X48289459Y-28406403D01*
X48269259Y-28357636D01*
X48189698Y-28238564D01*
X48088436Y-28137302D01*
X48078256Y-28130500D01*
X48088436Y-28123698D01*
X48189698Y-28022436D01*
X48269259Y-27903364D01*
X48324062Y-27771058D01*
X48352000Y-27630603D01*
X48352000Y-27487397D01*
X48324062Y-27346942D01*
X48269259Y-27214636D01*
X48203247Y-27115842D01*
X48215436Y-27107698D01*
X48316698Y-27006436D01*
X48396259Y-26887364D01*
X48451062Y-26755058D01*
X48479000Y-26614603D01*
X48479000Y-26471397D01*
X48451062Y-26330942D01*
X48396259Y-26198636D01*
X48316698Y-26079564D01*
X48215436Y-25978302D01*
X48098095Y-25899897D01*
X57883500Y-25899897D01*
X57883500Y-26043103D01*
X57911438Y-26183558D01*
X57966241Y-26315864D01*
X58045802Y-26434936D01*
X58147064Y-26536198D01*
X58266136Y-26615759D01*
X58398442Y-26670562D01*
X58538897Y-26698500D01*
X58682103Y-26698500D01*
X58822558Y-26670562D01*
X58954864Y-26615759D01*
X59073936Y-26536198D01*
X59175198Y-26434936D01*
X59235693Y-26344397D01*
X62011000Y-26344397D01*
X62011000Y-26487603D01*
X62038938Y-26628058D01*
X62093741Y-26760364D01*
X62173302Y-26879436D01*
X62274564Y-26980698D01*
X62393636Y-27060259D01*
X62525942Y-27115062D01*
X62666397Y-27143000D01*
X62809603Y-27143000D01*
X62950058Y-27115062D01*
X63082364Y-27060259D01*
X63201436Y-26980698D01*
X63302698Y-26879436D01*
X63382259Y-26760364D01*
X63437062Y-26628058D01*
X63465000Y-26487603D01*
X63465000Y-26344397D01*
X66075000Y-26344397D01*
X66075000Y-26487603D01*
X66102938Y-26628058D01*
X66157741Y-26760364D01*
X66237302Y-26879436D01*
X66338564Y-26980698D01*
X66457636Y-27060259D01*
X66589942Y-27115062D01*
X66730397Y-27143000D01*
X66873603Y-27143000D01*
X67014058Y-27115062D01*
X67146364Y-27060259D01*
X67265436Y-26980698D01*
X67366698Y-26879436D01*
X67446259Y-26760364D01*
X67501062Y-26628058D01*
X67529000Y-26487603D01*
X67529000Y-26344397D01*
X67501062Y-26203942D01*
X67446259Y-26071636D01*
X67373937Y-25963397D01*
X70774000Y-25963397D01*
X70774000Y-26106603D01*
X70801938Y-26247058D01*
X70856741Y-26379364D01*
X70936302Y-26498436D01*
X71037564Y-26599698D01*
X71156636Y-26679259D01*
X71288942Y-26734062D01*
X71429397Y-26762000D01*
X71572603Y-26762000D01*
X71713058Y-26734062D01*
X71845364Y-26679259D01*
X71964436Y-26599698D01*
X72065698Y-26498436D01*
X72145259Y-26379364D01*
X72200062Y-26247058D01*
X72228000Y-26106603D01*
X72228000Y-25963397D01*
X72200062Y-25822942D01*
X72145259Y-25690636D01*
X72065698Y-25571564D01*
X71964436Y-25470302D01*
X71845364Y-25390741D01*
X71718630Y-25338246D01*
X72909400Y-25338246D01*
X72909400Y-25461754D01*
X72933495Y-25582889D01*
X72980760Y-25696996D01*
X73049377Y-25799689D01*
X73136711Y-25887023D01*
X73239404Y-25955640D01*
X73353511Y-26002905D01*
X73474646Y-26027000D01*
X73598154Y-26027000D01*
X73719289Y-26002905D01*
X73833396Y-25955640D01*
X73936089Y-25887023D01*
X74023423Y-25799689D01*
X74092040Y-25696996D01*
X74139305Y-25582889D01*
X74163400Y-25461754D01*
X74163400Y-25338246D01*
X74139305Y-25217111D01*
X74092040Y-25103004D01*
X74023423Y-25000311D01*
X73936089Y-24912977D01*
X73833396Y-24844360D01*
X73719289Y-24797095D01*
X73598154Y-24773000D01*
X73474646Y-24773000D01*
X73353511Y-24797095D01*
X73239404Y-24844360D01*
X73136711Y-24912977D01*
X73049377Y-25000311D01*
X72980760Y-25103004D01*
X72933495Y-25217111D01*
X72909400Y-25338246D01*
X71718630Y-25338246D01*
X71713058Y-25335938D01*
X71572603Y-25308000D01*
X71429397Y-25308000D01*
X71288942Y-25335938D01*
X71156636Y-25390741D01*
X71037564Y-25470302D01*
X70936302Y-25571564D01*
X70856741Y-25690636D01*
X70801938Y-25822942D01*
X70774000Y-25963397D01*
X67373937Y-25963397D01*
X67366698Y-25952564D01*
X67265436Y-25851302D01*
X67146364Y-25771741D01*
X67014058Y-25716938D01*
X66873603Y-25689000D01*
X66730397Y-25689000D01*
X66589942Y-25716938D01*
X66457636Y-25771741D01*
X66338564Y-25851302D01*
X66237302Y-25952564D01*
X66157741Y-26071636D01*
X66102938Y-26203942D01*
X66075000Y-26344397D01*
X63465000Y-26344397D01*
X63437062Y-26203942D01*
X63382259Y-26071636D01*
X63302698Y-25952564D01*
X63201436Y-25851302D01*
X63082364Y-25771741D01*
X62950058Y-25716938D01*
X62809603Y-25689000D01*
X62666397Y-25689000D01*
X62525942Y-25716938D01*
X62393636Y-25771741D01*
X62274564Y-25851302D01*
X62173302Y-25952564D01*
X62093741Y-26071636D01*
X62038938Y-26203942D01*
X62011000Y-26344397D01*
X59235693Y-26344397D01*
X59254759Y-26315864D01*
X59309562Y-26183558D01*
X59337500Y-26043103D01*
X59337500Y-25899897D01*
X59309562Y-25759442D01*
X59254759Y-25627136D01*
X59175198Y-25508064D01*
X59073936Y-25406802D01*
X58954864Y-25327241D01*
X58822558Y-25272438D01*
X58682103Y-25244500D01*
X58538897Y-25244500D01*
X58398442Y-25272438D01*
X58266136Y-25327241D01*
X58147064Y-25406802D01*
X58045802Y-25508064D01*
X57966241Y-25627136D01*
X57911438Y-25759442D01*
X57883500Y-25899897D01*
X48098095Y-25899897D01*
X48096364Y-25898741D01*
X47964058Y-25843938D01*
X47823603Y-25816000D01*
X47680397Y-25816000D01*
X47539942Y-25843938D01*
X47407636Y-25898741D01*
X47288564Y-25978302D01*
X47187302Y-26079564D01*
X47107741Y-26198636D01*
X47052938Y-26330942D01*
X47025000Y-26471397D01*
X47025000Y-26614603D01*
X47052938Y-26755058D01*
X47107741Y-26887364D01*
X47173753Y-26986158D01*
X47161564Y-26994302D01*
X47060302Y-27095564D01*
X46980741Y-27214636D01*
X46925938Y-27346942D01*
X46898000Y-27487397D01*
X38804961Y-27487397D01*
X38827000Y-27376603D01*
X38827000Y-27233397D01*
X38799062Y-27092942D01*
X38744259Y-26960636D01*
X38664698Y-26841564D01*
X38563436Y-26740302D01*
X38444364Y-26660741D01*
X38312058Y-26605938D01*
X38171603Y-26578000D01*
X38028397Y-26578000D01*
X37887942Y-26605938D01*
X37755636Y-26660741D01*
X37636564Y-26740302D01*
X37535302Y-26841564D01*
X37455741Y-26960636D01*
X37400938Y-27092942D01*
X37373000Y-27233397D01*
X37049000Y-27233397D01*
X37049000Y-27106397D01*
X37021062Y-26965942D01*
X36966259Y-26833636D01*
X36886698Y-26714564D01*
X36785436Y-26613302D01*
X36666364Y-26533741D01*
X36534058Y-26478938D01*
X36393603Y-26451000D01*
X36250397Y-26451000D01*
X36109942Y-26478938D01*
X35977636Y-26533741D01*
X35858564Y-26613302D01*
X35757302Y-26714564D01*
X35677741Y-26833636D01*
X35622938Y-26965942D01*
X35595000Y-27106397D01*
X33197200Y-27106397D01*
X33239510Y-26966922D01*
X33256443Y-26795000D01*
X33239510Y-26623078D01*
X33189362Y-26457763D01*
X33107927Y-26305408D01*
X32998333Y-26171867D01*
X32864792Y-26062273D01*
X32712437Y-25980838D01*
X32547122Y-25930690D01*
X32418279Y-25918000D01*
X31732121Y-25918000D01*
X31603278Y-25930690D01*
X31437963Y-25980838D01*
X31285608Y-26062273D01*
X31152067Y-26171867D01*
X31042473Y-26305408D01*
X30961038Y-26457763D01*
X30910890Y-26623078D01*
X30893957Y-26795000D01*
X29456443Y-26795000D01*
X29439510Y-26623078D01*
X29389362Y-26457763D01*
X29307927Y-26305408D01*
X29198333Y-26171867D01*
X29064792Y-26062273D01*
X28912437Y-25980838D01*
X28747122Y-25930690D01*
X28618279Y-25918000D01*
X27932121Y-25918000D01*
X27803278Y-25930690D01*
X27637963Y-25980838D01*
X27485608Y-26062273D01*
X27352067Y-26171867D01*
X27242473Y-26305408D01*
X27161038Y-26457763D01*
X27110890Y-26623078D01*
X27093957Y-26795000D01*
X25933000Y-26795000D01*
X25933000Y-24185397D01*
X41818000Y-24185397D01*
X41818000Y-24328603D01*
X41845938Y-24469058D01*
X41900741Y-24601364D01*
X41980302Y-24720436D01*
X42081564Y-24821698D01*
X42200636Y-24901259D01*
X42332942Y-24956062D01*
X42473397Y-24984000D01*
X42616603Y-24984000D01*
X42757058Y-24956062D01*
X42889364Y-24901259D01*
X43008436Y-24821698D01*
X43109698Y-24720436D01*
X43189259Y-24601364D01*
X43203742Y-24566397D01*
X45628000Y-24566397D01*
X45628000Y-24709603D01*
X45655938Y-24850058D01*
X45710741Y-24982364D01*
X45790302Y-25101436D01*
X45891564Y-25202698D01*
X46010636Y-25282259D01*
X46142942Y-25337062D01*
X46283397Y-25365000D01*
X46426603Y-25365000D01*
X46567058Y-25337062D01*
X46699364Y-25282259D01*
X46818436Y-25202698D01*
X46919698Y-25101436D01*
X46999259Y-24982364D01*
X47054062Y-24850058D01*
X47082000Y-24709603D01*
X47082000Y-24566397D01*
X47054062Y-24425942D01*
X46999259Y-24293636D01*
X46919698Y-24174564D01*
X46818436Y-24073302D01*
X46699364Y-23993741D01*
X46567058Y-23938938D01*
X46426603Y-23911000D01*
X46283397Y-23911000D01*
X46142942Y-23938938D01*
X46010636Y-23993741D01*
X45891564Y-24073302D01*
X45790302Y-24174564D01*
X45710741Y-24293636D01*
X45655938Y-24425942D01*
X45628000Y-24566397D01*
X43203742Y-24566397D01*
X43244062Y-24469058D01*
X43272000Y-24328603D01*
X43272000Y-24185397D01*
X43244062Y-24044942D01*
X43189259Y-23912636D01*
X43109698Y-23793564D01*
X43008436Y-23692302D01*
X42889364Y-23612741D01*
X42757058Y-23557938D01*
X42616603Y-23530000D01*
X42473397Y-23530000D01*
X42332942Y-23557938D01*
X42200636Y-23612741D01*
X42081564Y-23692302D01*
X41980302Y-23793564D01*
X41900741Y-23912636D01*
X41845938Y-24044942D01*
X41818000Y-24185397D01*
X25933000Y-24185397D01*
X25933000Y-22788397D01*
X38770000Y-22788397D01*
X38770000Y-22931603D01*
X38797938Y-23072058D01*
X38852741Y-23204364D01*
X38932302Y-23323436D01*
X39033564Y-23424698D01*
X39152636Y-23504259D01*
X39284942Y-23559062D01*
X39425397Y-23587000D01*
X39568603Y-23587000D01*
X39709058Y-23559062D01*
X39841364Y-23504259D01*
X39960436Y-23424698D01*
X40061698Y-23323436D01*
X40141259Y-23204364D01*
X40196062Y-23072058D01*
X40224000Y-22931603D01*
X40224000Y-22788397D01*
X40196062Y-22647942D01*
X40149031Y-22534397D01*
X69758000Y-22534397D01*
X69758000Y-22677603D01*
X69785938Y-22818058D01*
X69840741Y-22950364D01*
X69920302Y-23069436D01*
X70021564Y-23170698D01*
X70140636Y-23250259D01*
X70272942Y-23305062D01*
X70413397Y-23333000D01*
X70556603Y-23333000D01*
X70697058Y-23305062D01*
X70829364Y-23250259D01*
X70948436Y-23170698D01*
X71049698Y-23069436D01*
X71129259Y-22950364D01*
X71184062Y-22818058D01*
X71212000Y-22677603D01*
X71212000Y-22534397D01*
X71184062Y-22393942D01*
X71129259Y-22261636D01*
X71049698Y-22142564D01*
X70948436Y-22041302D01*
X70829364Y-21961741D01*
X70697058Y-21906938D01*
X70556603Y-21879000D01*
X70413397Y-21879000D01*
X70272942Y-21906938D01*
X70140636Y-21961741D01*
X70021564Y-22041302D01*
X69920302Y-22142564D01*
X69840741Y-22261636D01*
X69785938Y-22393942D01*
X69758000Y-22534397D01*
X40149031Y-22534397D01*
X40141259Y-22515636D01*
X40061698Y-22396564D01*
X39960436Y-22295302D01*
X39841364Y-22215741D01*
X39709058Y-22160938D01*
X39568603Y-22133000D01*
X39425397Y-22133000D01*
X39284942Y-22160938D01*
X39152636Y-22215741D01*
X39033564Y-22295302D01*
X38932302Y-22396564D01*
X38852741Y-22515636D01*
X38797938Y-22647942D01*
X38770000Y-22788397D01*
X25933000Y-22788397D01*
X25933000Y-21645397D01*
X36611000Y-21645397D01*
X36611000Y-21788603D01*
X36638938Y-21929058D01*
X36693741Y-22061364D01*
X36773302Y-22180436D01*
X36874564Y-22281698D01*
X36993636Y-22361259D01*
X37125942Y-22416062D01*
X37266397Y-22444000D01*
X37409603Y-22444000D01*
X37550058Y-22416062D01*
X37682364Y-22361259D01*
X37801436Y-22281698D01*
X37902698Y-22180436D01*
X37982259Y-22061364D01*
X38037062Y-21929058D01*
X38065000Y-21788603D01*
X38065000Y-21645397D01*
X38037062Y-21504942D01*
X37982259Y-21372636D01*
X37902698Y-21253564D01*
X37801436Y-21152302D01*
X37682364Y-21072741D01*
X37550058Y-21017938D01*
X37409603Y-20990000D01*
X37266397Y-20990000D01*
X37125942Y-21017938D01*
X36993636Y-21072741D01*
X36874564Y-21152302D01*
X36773302Y-21253564D01*
X36693741Y-21372636D01*
X36638938Y-21504942D01*
X36611000Y-21645397D01*
X25933000Y-21645397D01*
X25933000Y-21472660D01*
X26738448Y-20847743D01*
X43361000Y-20847743D01*
X43361000Y-21062257D01*
X43402850Y-21272650D01*
X43484941Y-21470835D01*
X43604119Y-21649197D01*
X43755803Y-21800881D01*
X43934165Y-21920059D01*
X44132350Y-22002150D01*
X44342743Y-22044000D01*
X44557257Y-22044000D01*
X44767650Y-22002150D01*
X44965835Y-21920059D01*
X45144197Y-21800881D01*
X45295881Y-21649197D01*
X45415059Y-21470835D01*
X45497150Y-21272650D01*
X45539000Y-21062257D01*
X45539000Y-20847743D01*
X45901000Y-20847743D01*
X45901000Y-21062257D01*
X45942850Y-21272650D01*
X46024941Y-21470835D01*
X46144119Y-21649197D01*
X46295803Y-21800881D01*
X46474165Y-21920059D01*
X46672350Y-22002150D01*
X46882743Y-22044000D01*
X47097257Y-22044000D01*
X47307650Y-22002150D01*
X47505835Y-21920059D01*
X47684197Y-21800881D01*
X47835881Y-21649197D01*
X47955059Y-21470835D01*
X48037150Y-21272650D01*
X48079000Y-21062257D01*
X48079000Y-20847743D01*
X48441000Y-20847743D01*
X48441000Y-21062257D01*
X48482850Y-21272650D01*
X48564941Y-21470835D01*
X48684119Y-21649197D01*
X48835803Y-21800881D01*
X49014165Y-21920059D01*
X49212350Y-22002150D01*
X49422743Y-22044000D01*
X49637257Y-22044000D01*
X49847650Y-22002150D01*
X50045835Y-21920059D01*
X50224197Y-21800881D01*
X50375881Y-21649197D01*
X50495059Y-21470835D01*
X50577150Y-21272650D01*
X50619000Y-21062257D01*
X50619000Y-20847743D01*
X50981000Y-20847743D01*
X50981000Y-21062257D01*
X51022850Y-21272650D01*
X51104941Y-21470835D01*
X51224119Y-21649197D01*
X51375803Y-21800881D01*
X51554165Y-21920059D01*
X51752350Y-22002150D01*
X51962743Y-22044000D01*
X52177257Y-22044000D01*
X52387650Y-22002150D01*
X52585835Y-21920059D01*
X52764197Y-21800881D01*
X52915881Y-21649197D01*
X53035059Y-21470835D01*
X53117150Y-21272650D01*
X53159000Y-21062257D01*
X53159000Y-20847743D01*
X53521000Y-20847743D01*
X53521000Y-21062257D01*
X53562850Y-21272650D01*
X53644941Y-21470835D01*
X53764119Y-21649197D01*
X53915803Y-21800881D01*
X54094165Y-21920059D01*
X54292350Y-22002150D01*
X54502743Y-22044000D01*
X54717257Y-22044000D01*
X54927650Y-22002150D01*
X55125835Y-21920059D01*
X55304197Y-21800881D01*
X55455881Y-21649197D01*
X55575059Y-21470835D01*
X55657150Y-21272650D01*
X55699000Y-21062257D01*
X55699000Y-20847743D01*
X56061000Y-20847743D01*
X56061000Y-21062257D01*
X56102850Y-21272650D01*
X56184941Y-21470835D01*
X56304119Y-21649197D01*
X56455803Y-21800881D01*
X56634165Y-21920059D01*
X56832350Y-22002150D01*
X57042743Y-22044000D01*
X57257257Y-22044000D01*
X57467650Y-22002150D01*
X57665835Y-21920059D01*
X57844197Y-21800881D01*
X57995881Y-21649197D01*
X58083277Y-21518399D01*
X60233000Y-21518399D01*
X60233000Y-21661605D01*
X60260938Y-21802060D01*
X60315741Y-21934366D01*
X60395302Y-22053438D01*
X60496564Y-22154700D01*
X60615636Y-22234261D01*
X60747942Y-22289064D01*
X60888397Y-22317002D01*
X61031603Y-22317002D01*
X61172058Y-22289064D01*
X61304364Y-22234261D01*
X61423436Y-22154700D01*
X61524698Y-22053438D01*
X61604259Y-21934366D01*
X61659062Y-21802060D01*
X61687000Y-21661605D01*
X61687000Y-21518399D01*
X61687000Y-21518397D01*
X63408000Y-21518397D01*
X63408000Y-21661603D01*
X63435938Y-21802058D01*
X63490741Y-21934364D01*
X63570302Y-22053436D01*
X63671564Y-22154698D01*
X63790636Y-22234259D01*
X63922942Y-22289062D01*
X64063397Y-22317000D01*
X64206603Y-22317000D01*
X64347058Y-22289062D01*
X64479364Y-22234259D01*
X64598436Y-22154698D01*
X64699698Y-22053436D01*
X64779259Y-21934364D01*
X64834062Y-21802058D01*
X64862000Y-21661603D01*
X64862000Y-21518397D01*
X67472000Y-21518397D01*
X67472000Y-21661603D01*
X67499938Y-21802058D01*
X67554741Y-21934364D01*
X67634302Y-22053436D01*
X67735564Y-22154698D01*
X67854636Y-22234259D01*
X67986942Y-22289062D01*
X68127397Y-22317000D01*
X68270603Y-22317000D01*
X68411058Y-22289062D01*
X68543364Y-22234259D01*
X68662436Y-22154698D01*
X68763698Y-22053436D01*
X68843259Y-21934364D01*
X68898062Y-21802058D01*
X68926000Y-21661603D01*
X68926000Y-21518397D01*
X68898062Y-21377942D01*
X68843259Y-21245636D01*
X68763698Y-21126564D01*
X68662436Y-21025302D01*
X68543364Y-20945741D01*
X68411058Y-20890938D01*
X68270603Y-20863000D01*
X68127397Y-20863000D01*
X67986942Y-20890938D01*
X67854636Y-20945741D01*
X67735564Y-21025302D01*
X67634302Y-21126564D01*
X67554741Y-21245636D01*
X67499938Y-21377942D01*
X67472000Y-21518397D01*
X64862000Y-21518397D01*
X64834062Y-21377942D01*
X64779259Y-21245636D01*
X64699698Y-21126564D01*
X64598436Y-21025302D01*
X64479364Y-20945741D01*
X64347058Y-20890938D01*
X64206603Y-20863000D01*
X64063397Y-20863000D01*
X63922942Y-20890938D01*
X63790636Y-20945741D01*
X63671564Y-21025302D01*
X63570302Y-21126564D01*
X63490741Y-21245636D01*
X63435938Y-21377942D01*
X63408000Y-21518397D01*
X61687000Y-21518397D01*
X61659062Y-21377944D01*
X61604259Y-21245638D01*
X61524698Y-21126566D01*
X61423436Y-21025304D01*
X61304364Y-20945743D01*
X61172058Y-20890940D01*
X61031603Y-20863002D01*
X60888397Y-20863002D01*
X60747942Y-20890940D01*
X60615636Y-20945743D01*
X60496564Y-21025304D01*
X60395302Y-21126566D01*
X60315741Y-21245638D01*
X60260938Y-21377944D01*
X60233000Y-21518399D01*
X58083277Y-21518399D01*
X58115059Y-21470835D01*
X58197150Y-21272650D01*
X58239000Y-21062257D01*
X58239000Y-20847743D01*
X58197150Y-20637350D01*
X58115059Y-20439165D01*
X57995881Y-20260803D01*
X57844197Y-20109119D01*
X57665835Y-19989941D01*
X57467650Y-19907850D01*
X57257257Y-19866000D01*
X57042743Y-19866000D01*
X56832350Y-19907850D01*
X56634165Y-19989941D01*
X56455803Y-20109119D01*
X56304119Y-20260803D01*
X56184941Y-20439165D01*
X56102850Y-20637350D01*
X56061000Y-20847743D01*
X55699000Y-20847743D01*
X55657150Y-20637350D01*
X55575059Y-20439165D01*
X55455881Y-20260803D01*
X55304197Y-20109119D01*
X55125835Y-19989941D01*
X54927650Y-19907850D01*
X54717257Y-19866000D01*
X54502743Y-19866000D01*
X54292350Y-19907850D01*
X54094165Y-19989941D01*
X53915803Y-20109119D01*
X53764119Y-20260803D01*
X53644941Y-20439165D01*
X53562850Y-20637350D01*
X53521000Y-20847743D01*
X53159000Y-20847743D01*
X53117150Y-20637350D01*
X53035059Y-20439165D01*
X52915881Y-20260803D01*
X52764197Y-20109119D01*
X52585835Y-19989941D01*
X52387650Y-19907850D01*
X52177257Y-19866000D01*
X51962743Y-19866000D01*
X51752350Y-19907850D01*
X51554165Y-19989941D01*
X51375803Y-20109119D01*
X51224119Y-20260803D01*
X51104941Y-20439165D01*
X51022850Y-20637350D01*
X50981000Y-20847743D01*
X50619000Y-20847743D01*
X50577150Y-20637350D01*
X50495059Y-20439165D01*
X50375881Y-20260803D01*
X50224197Y-20109119D01*
X50045835Y-19989941D01*
X49847650Y-19907850D01*
X49637257Y-19866000D01*
X49422743Y-19866000D01*
X49212350Y-19907850D01*
X49014165Y-19989941D01*
X48835803Y-20109119D01*
X48684119Y-20260803D01*
X48564941Y-20439165D01*
X48482850Y-20637350D01*
X48441000Y-20847743D01*
X48079000Y-20847743D01*
X48037150Y-20637350D01*
X47955059Y-20439165D01*
X47835881Y-20260803D01*
X47684197Y-20109119D01*
X47505835Y-19989941D01*
X47307650Y-19907850D01*
X47097257Y-19866000D01*
X46882743Y-19866000D01*
X46672350Y-19907850D01*
X46474165Y-19989941D01*
X46295803Y-20109119D01*
X46144119Y-20260803D01*
X46024941Y-20439165D01*
X45942850Y-20637350D01*
X45901000Y-20847743D01*
X45539000Y-20847743D01*
X45497150Y-20637350D01*
X45415059Y-20439165D01*
X45295881Y-20260803D01*
X45144197Y-20109119D01*
X44965835Y-19989941D01*
X44767650Y-19907850D01*
X44557257Y-19866000D01*
X44342743Y-19866000D01*
X44132350Y-19907850D01*
X43934165Y-19989941D01*
X43755803Y-20109119D01*
X43604119Y-20260803D01*
X43484941Y-20439165D01*
X43402850Y-20637350D01*
X43361000Y-20847743D01*
X26738448Y-20847743D01*
X28695941Y-19329000D01*
X72904060Y-19329000D01*
X75667000Y-21472661D01*
G04 #@! TA.AperFunction,Conductor*
D19*
G36*
X75667000Y-21472661D02*
G01*
X75667000Y-24866813D01*
X75633396Y-24844360D01*
X75519289Y-24797095D01*
X75398154Y-24773000D01*
X75274646Y-24773000D01*
X75153511Y-24797095D01*
X75039404Y-24844360D01*
X74936711Y-24912977D01*
X74849377Y-25000311D01*
X74780760Y-25103004D01*
X74733495Y-25217111D01*
X74709400Y-25338246D01*
X74709400Y-25461754D01*
X74733495Y-25582889D01*
X74780760Y-25696996D01*
X74849377Y-25799689D01*
X74936711Y-25887023D01*
X75039404Y-25955640D01*
X75153511Y-26002905D01*
X75274646Y-26027000D01*
X75398154Y-26027000D01*
X75519289Y-26002905D01*
X75633396Y-25955640D01*
X75667000Y-25933186D01*
X75667001Y-32486814D01*
X75633396Y-32464360D01*
X75519289Y-32417095D01*
X75398154Y-32393000D01*
X75274646Y-32393000D01*
X75153511Y-32417095D01*
X75039404Y-32464360D01*
X74936711Y-32532977D01*
X74849377Y-32620311D01*
X74780760Y-32723004D01*
X74733495Y-32837111D01*
X74709400Y-32958246D01*
X74709400Y-33081754D01*
X74733495Y-33202889D01*
X74780760Y-33316996D01*
X74849377Y-33419689D01*
X74936711Y-33507023D01*
X75039404Y-33575640D01*
X75153511Y-33622905D01*
X75274646Y-33647000D01*
X75398154Y-33647000D01*
X75519289Y-33622905D01*
X75633396Y-33575640D01*
X75667001Y-33553186D01*
X75667001Y-37719000D01*
X25933000Y-37719000D01*
X25933000Y-35435000D01*
X27093957Y-35435000D01*
X27110890Y-35606922D01*
X27161038Y-35772237D01*
X27242473Y-35924592D01*
X27352067Y-36058133D01*
X27485608Y-36167727D01*
X27637963Y-36249162D01*
X27803278Y-36299310D01*
X27932121Y-36312000D01*
X28618279Y-36312000D01*
X28747122Y-36299310D01*
X28912437Y-36249162D01*
X29064792Y-36167727D01*
X29198333Y-36058133D01*
X29307927Y-35924592D01*
X29389362Y-35772237D01*
X29439510Y-35606922D01*
X29456443Y-35435000D01*
X30893957Y-35435000D01*
X30910890Y-35606922D01*
X30961038Y-35772237D01*
X31042473Y-35924592D01*
X31152067Y-36058133D01*
X31285608Y-36167727D01*
X31437963Y-36249162D01*
X31603278Y-36299310D01*
X31732121Y-36312000D01*
X32418279Y-36312000D01*
X32547122Y-36299310D01*
X32712437Y-36249162D01*
X32864792Y-36167727D01*
X32998333Y-36058133D01*
X33107927Y-35924592D01*
X33189362Y-35772237D01*
X33239510Y-35606922D01*
X33256443Y-35435000D01*
X33256247Y-35433000D01*
X43359418Y-35433000D01*
X43359418Y-36957000D01*
X43365732Y-37021103D01*
X43384430Y-37082743D01*
X43414794Y-37139550D01*
X43455657Y-37189343D01*
X43505450Y-37230206D01*
X43562257Y-37260570D01*
X43623897Y-37279268D01*
X43688000Y-37285582D01*
X45212000Y-37285582D01*
X45276103Y-37279268D01*
X45337743Y-37260570D01*
X45394550Y-37230206D01*
X45444343Y-37189343D01*
X45485206Y-37139550D01*
X45515570Y-37082743D01*
X45534268Y-37021103D01*
X45540582Y-36957000D01*
X45540582Y-36087743D01*
X45901000Y-36087743D01*
X45901000Y-36302257D01*
X45942850Y-36512650D01*
X46024941Y-36710835D01*
X46144119Y-36889197D01*
X46295803Y-37040881D01*
X46474165Y-37160059D01*
X46672350Y-37242150D01*
X46882743Y-37284000D01*
X47097257Y-37284000D01*
X47307650Y-37242150D01*
X47505835Y-37160059D01*
X47684197Y-37040881D01*
X47835881Y-36889197D01*
X47955059Y-36710835D01*
X48037150Y-36512650D01*
X48079000Y-36302257D01*
X48079000Y-36087743D01*
X48441000Y-36087743D01*
X48441000Y-36302257D01*
X48482850Y-36512650D01*
X48564941Y-36710835D01*
X48684119Y-36889197D01*
X48835803Y-37040881D01*
X49014165Y-37160059D01*
X49212350Y-37242150D01*
X49422743Y-37284000D01*
X49637257Y-37284000D01*
X49847650Y-37242150D01*
X50045835Y-37160059D01*
X50224197Y-37040881D01*
X50375881Y-36889197D01*
X50495059Y-36710835D01*
X50577150Y-36512650D01*
X50619000Y-36302257D01*
X50619000Y-36087743D01*
X50981000Y-36087743D01*
X50981000Y-36302257D01*
X51022850Y-36512650D01*
X51104941Y-36710835D01*
X51224119Y-36889197D01*
X51375803Y-37040881D01*
X51554165Y-37160059D01*
X51752350Y-37242150D01*
X51962743Y-37284000D01*
X52177257Y-37284000D01*
X52387650Y-37242150D01*
X52585835Y-37160059D01*
X52764197Y-37040881D01*
X52915881Y-36889197D01*
X53035059Y-36710835D01*
X53117150Y-36512650D01*
X53159000Y-36302257D01*
X53159000Y-36087743D01*
X53521000Y-36087743D01*
X53521000Y-36302257D01*
X53562850Y-36512650D01*
X53644941Y-36710835D01*
X53764119Y-36889197D01*
X53915803Y-37040881D01*
X54094165Y-37160059D01*
X54292350Y-37242150D01*
X54502743Y-37284000D01*
X54717257Y-37284000D01*
X54927650Y-37242150D01*
X55125835Y-37160059D01*
X55304197Y-37040881D01*
X55455881Y-36889197D01*
X55575059Y-36710835D01*
X55657150Y-36512650D01*
X55699000Y-36302257D01*
X55699000Y-36087743D01*
X56061000Y-36087743D01*
X56061000Y-36302257D01*
X56102850Y-36512650D01*
X56184941Y-36710835D01*
X56304119Y-36889197D01*
X56455803Y-37040881D01*
X56634165Y-37160059D01*
X56832350Y-37242150D01*
X57042743Y-37284000D01*
X57257257Y-37284000D01*
X57467650Y-37242150D01*
X57665835Y-37160059D01*
X57844197Y-37040881D01*
X57995881Y-36889197D01*
X58115059Y-36710835D01*
X58197150Y-36512650D01*
X58239000Y-36302257D01*
X58239000Y-36087743D01*
X58197150Y-35877350D01*
X58115059Y-35679165D01*
X57995881Y-35500803D01*
X57844197Y-35349119D01*
X57665835Y-35229941D01*
X57467650Y-35147850D01*
X57257257Y-35106000D01*
X57042743Y-35106000D01*
X56832350Y-35147850D01*
X56634165Y-35229941D01*
X56455803Y-35349119D01*
X56304119Y-35500803D01*
X56184941Y-35679165D01*
X56102850Y-35877350D01*
X56061000Y-36087743D01*
X55699000Y-36087743D01*
X55657150Y-35877350D01*
X55575059Y-35679165D01*
X55455881Y-35500803D01*
X55304197Y-35349119D01*
X55125835Y-35229941D01*
X54927650Y-35147850D01*
X54717257Y-35106000D01*
X54502743Y-35106000D01*
X54292350Y-35147850D01*
X54094165Y-35229941D01*
X53915803Y-35349119D01*
X53764119Y-35500803D01*
X53644941Y-35679165D01*
X53562850Y-35877350D01*
X53521000Y-36087743D01*
X53159000Y-36087743D01*
X53117150Y-35877350D01*
X53035059Y-35679165D01*
X52915881Y-35500803D01*
X52764197Y-35349119D01*
X52585835Y-35229941D01*
X52387650Y-35147850D01*
X52177257Y-35106000D01*
X51962743Y-35106000D01*
X51752350Y-35147850D01*
X51554165Y-35229941D01*
X51375803Y-35349119D01*
X51224119Y-35500803D01*
X51104941Y-35679165D01*
X51022850Y-35877350D01*
X50981000Y-36087743D01*
X50619000Y-36087743D01*
X50577150Y-35877350D01*
X50495059Y-35679165D01*
X50375881Y-35500803D01*
X50224197Y-35349119D01*
X50045835Y-35229941D01*
X49847650Y-35147850D01*
X49637257Y-35106000D01*
X49422743Y-35106000D01*
X49212350Y-35147850D01*
X49014165Y-35229941D01*
X48835803Y-35349119D01*
X48684119Y-35500803D01*
X48564941Y-35679165D01*
X48482850Y-35877350D01*
X48441000Y-36087743D01*
X48079000Y-36087743D01*
X48037150Y-35877350D01*
X47955059Y-35679165D01*
X47835881Y-35500803D01*
X47684197Y-35349119D01*
X47505835Y-35229941D01*
X47307650Y-35147850D01*
X47097257Y-35106000D01*
X46882743Y-35106000D01*
X46672350Y-35147850D01*
X46474165Y-35229941D01*
X46295803Y-35349119D01*
X46144119Y-35500803D01*
X46024941Y-35679165D01*
X45942850Y-35877350D01*
X45901000Y-36087743D01*
X45540582Y-36087743D01*
X45540582Y-35433000D01*
X45534268Y-35368897D01*
X45515570Y-35307257D01*
X45485206Y-35250450D01*
X45444343Y-35200657D01*
X45394550Y-35159794D01*
X45337743Y-35129430D01*
X45276103Y-35110732D01*
X45212000Y-35104418D01*
X43688000Y-35104418D01*
X43623897Y-35110732D01*
X43562257Y-35129430D01*
X43505450Y-35159794D01*
X43455657Y-35200657D01*
X43414794Y-35250450D01*
X43384430Y-35307257D01*
X43365732Y-35368897D01*
X43359418Y-35433000D01*
X33256247Y-35433000D01*
X33239510Y-35263078D01*
X33189362Y-35097763D01*
X33107927Y-34945408D01*
X32998333Y-34811867D01*
X32864792Y-34702273D01*
X32712437Y-34620838D01*
X32547122Y-34570690D01*
X32418279Y-34558000D01*
X31732121Y-34558000D01*
X31603278Y-34570690D01*
X31437963Y-34620838D01*
X31285608Y-34702273D01*
X31152067Y-34811867D01*
X31042473Y-34945408D01*
X30961038Y-35097763D01*
X30910890Y-35263078D01*
X30893957Y-35435000D01*
X29456443Y-35435000D01*
X29439510Y-35263078D01*
X29389362Y-35097763D01*
X29307927Y-34945408D01*
X29198333Y-34811867D01*
X29064792Y-34702273D01*
X28912437Y-34620838D01*
X28747122Y-34570690D01*
X28618279Y-34558000D01*
X27932121Y-34558000D01*
X27803278Y-34570690D01*
X27637963Y-34620838D01*
X27485608Y-34702273D01*
X27352067Y-34811867D01*
X27242473Y-34945408D01*
X27161038Y-35097763D01*
X27110890Y-35263078D01*
X27093957Y-35435000D01*
X25933000Y-35435000D01*
X25933000Y-33710397D01*
X36357000Y-33710397D01*
X36357000Y-33853603D01*
X36384938Y-33994058D01*
X36439741Y-34126364D01*
X36519302Y-34245436D01*
X36620564Y-34346698D01*
X36739636Y-34426259D01*
X36871942Y-34481062D01*
X37012397Y-34509000D01*
X37155603Y-34509000D01*
X37296058Y-34481062D01*
X37428364Y-34426259D01*
X37547436Y-34346698D01*
X37648698Y-34245436D01*
X37728259Y-34126364D01*
X37783062Y-33994058D01*
X37811000Y-33853603D01*
X37811000Y-33710397D01*
X37783062Y-33569942D01*
X37728259Y-33437636D01*
X37648698Y-33318564D01*
X37547436Y-33217302D01*
X37428364Y-33137741D01*
X37296058Y-33082938D01*
X37212684Y-33066354D01*
X39802683Y-33066354D01*
X39819414Y-33150471D01*
X39890292Y-33355165D01*
X39999742Y-33542098D01*
X40143558Y-33704087D01*
X40316213Y-33834906D01*
X40511072Y-33929528D01*
X40720646Y-33984317D01*
X40893500Y-33934250D01*
X40893500Y-32893500D01*
X40894500Y-32893500D01*
X40894500Y-33934250D01*
X41067354Y-33984317D01*
X41276928Y-33929528D01*
X41471787Y-33834906D01*
X41644442Y-33704087D01*
X41788258Y-33542098D01*
X41897708Y-33355165D01*
X41968586Y-33150471D01*
X41985317Y-33066354D01*
X41935250Y-32893500D01*
X40894500Y-32893500D01*
X40893500Y-32893500D01*
X39852750Y-32893500D01*
X39802683Y-33066354D01*
X37212684Y-33066354D01*
X37155603Y-33055000D01*
X37012397Y-33055000D01*
X36871942Y-33082938D01*
X36739636Y-33137741D01*
X36620564Y-33217302D01*
X36519302Y-33318564D01*
X36439741Y-33437636D01*
X36384938Y-33569942D01*
X36357000Y-33710397D01*
X25933000Y-33710397D01*
X25933000Y-32719646D01*
X39802683Y-32719646D01*
X39852750Y-32892500D01*
X40893500Y-32892500D01*
X40893500Y-31851750D01*
X40894500Y-31851750D01*
X40894500Y-32892500D01*
X41935250Y-32892500D01*
X41985317Y-32719646D01*
X41968586Y-32635529D01*
X41897708Y-32430835D01*
X41788258Y-32243902D01*
X41644442Y-32081913D01*
X41471787Y-31951094D01*
X41276928Y-31856472D01*
X41067354Y-31801683D01*
X40894500Y-31851750D01*
X40893500Y-31851750D01*
X40720646Y-31801683D01*
X40511072Y-31856472D01*
X40316213Y-31951094D01*
X40143558Y-32081913D01*
X39999742Y-32243902D01*
X39890292Y-32430835D01*
X39819414Y-32635529D01*
X39802683Y-32719646D01*
X25933000Y-32719646D01*
X25933000Y-29503000D01*
X39715418Y-29503000D01*
X39715418Y-31203000D01*
X39721732Y-31267103D01*
X39740430Y-31328743D01*
X39770794Y-31385550D01*
X39811657Y-31435343D01*
X39861450Y-31476206D01*
X39918257Y-31506570D01*
X39979897Y-31525268D01*
X40044000Y-31531582D01*
X41744000Y-31531582D01*
X41808103Y-31525268D01*
X41869743Y-31506570D01*
X41926550Y-31476206D01*
X41976343Y-31435343D01*
X42017206Y-31385550D01*
X42047570Y-31328743D01*
X42066268Y-31267103D01*
X42072582Y-31203000D01*
X42072582Y-29718000D01*
X42418000Y-29718000D01*
X42418000Y-33147000D01*
X42420440Y-33171776D01*
X42427667Y-33195601D01*
X42439403Y-33217557D01*
X42455197Y-33236803D01*
X43598197Y-34379803D01*
X43617443Y-34395597D01*
X43639399Y-34407333D01*
X43663224Y-34414560D01*
X43688000Y-34417000D01*
X50800000Y-34417000D01*
X50824776Y-34414560D01*
X50848601Y-34407333D01*
X50870557Y-34395597D01*
X50889803Y-34379803D01*
X51559209Y-33710397D01*
X60868000Y-33710397D01*
X60868000Y-33853603D01*
X60895938Y-33994058D01*
X60950741Y-34126364D01*
X61030302Y-34245436D01*
X61131564Y-34346698D01*
X61250636Y-34426259D01*
X61382942Y-34481062D01*
X61523397Y-34509000D01*
X61666603Y-34509000D01*
X61807058Y-34481062D01*
X61939364Y-34426259D01*
X62058436Y-34346698D01*
X62159698Y-34245436D01*
X62239259Y-34126364D01*
X62294062Y-33994058D01*
X62322000Y-33853603D01*
X62322000Y-33710397D01*
X62296739Y-33583397D01*
X70774000Y-33583397D01*
X70774000Y-33726603D01*
X70801938Y-33867058D01*
X70856741Y-33999364D01*
X70936302Y-34118436D01*
X71037564Y-34219698D01*
X71156636Y-34299259D01*
X71288942Y-34354062D01*
X71429397Y-34382000D01*
X71572603Y-34382000D01*
X71713058Y-34354062D01*
X71845364Y-34299259D01*
X71964436Y-34219698D01*
X72065698Y-34118436D01*
X72145259Y-33999364D01*
X72200062Y-33867058D01*
X72228000Y-33726603D01*
X72228000Y-33583397D01*
X72200062Y-33442942D01*
X72145259Y-33310636D01*
X72065698Y-33191564D01*
X71964436Y-33090302D01*
X71845364Y-33010741D01*
X71718630Y-32958246D01*
X72909400Y-32958246D01*
X72909400Y-33081754D01*
X72933495Y-33202889D01*
X72980760Y-33316996D01*
X73049377Y-33419689D01*
X73136711Y-33507023D01*
X73239404Y-33575640D01*
X73353511Y-33622905D01*
X73474646Y-33647000D01*
X73598154Y-33647000D01*
X73719289Y-33622905D01*
X73833396Y-33575640D01*
X73936089Y-33507023D01*
X74023423Y-33419689D01*
X74092040Y-33316996D01*
X74139305Y-33202889D01*
X74163400Y-33081754D01*
X74163400Y-32958246D01*
X74139305Y-32837111D01*
X74092040Y-32723004D01*
X74023423Y-32620311D01*
X73936089Y-32532977D01*
X73833396Y-32464360D01*
X73719289Y-32417095D01*
X73598154Y-32393000D01*
X73474646Y-32393000D01*
X73353511Y-32417095D01*
X73239404Y-32464360D01*
X73136711Y-32532977D01*
X73049377Y-32620311D01*
X72980760Y-32723004D01*
X72933495Y-32837111D01*
X72909400Y-32958246D01*
X71718630Y-32958246D01*
X71713058Y-32955938D01*
X71572603Y-32928000D01*
X71429397Y-32928000D01*
X71288942Y-32955938D01*
X71156636Y-33010741D01*
X71037564Y-33090302D01*
X70936302Y-33191564D01*
X70856741Y-33310636D01*
X70801938Y-33442942D01*
X70774000Y-33583397D01*
X62296739Y-33583397D01*
X62294062Y-33569942D01*
X62239259Y-33437636D01*
X62159698Y-33318564D01*
X62058436Y-33217302D01*
X61939364Y-33137741D01*
X61807058Y-33082938D01*
X61666603Y-33055000D01*
X61523397Y-33055000D01*
X61382942Y-33082938D01*
X61250636Y-33137741D01*
X61131564Y-33217302D01*
X61030302Y-33318564D01*
X60950741Y-33437636D01*
X60895938Y-33569942D01*
X60868000Y-33710397D01*
X51559209Y-33710397D01*
X51905803Y-33363803D01*
X51921597Y-33344557D01*
X51933333Y-33322601D01*
X51940560Y-33298776D01*
X51943000Y-33274000D01*
X51943000Y-31115000D01*
X51940560Y-31090224D01*
X51933333Y-31066399D01*
X51921597Y-31044443D01*
X51905803Y-31025197D01*
X51162003Y-30281397D01*
X51597000Y-30281397D01*
X51597000Y-30424603D01*
X51624938Y-30565058D01*
X51679741Y-30697364D01*
X51759302Y-30816436D01*
X51860564Y-30917698D01*
X51979636Y-30997259D01*
X52111942Y-31052062D01*
X52252397Y-31080000D01*
X52395603Y-31080000D01*
X52536058Y-31052062D01*
X52668364Y-30997259D01*
X52787436Y-30917698D01*
X52888698Y-30816436D01*
X52968259Y-30697364D01*
X53023062Y-30565058D01*
X53051000Y-30424603D01*
X53051000Y-30420588D01*
X53147628Y-30439808D01*
X53290834Y-30439808D01*
X53431289Y-30411870D01*
X53563595Y-30357067D01*
X53682667Y-30277506D01*
X53783929Y-30176244D01*
X53863490Y-30057172D01*
X53918293Y-29924866D01*
X53946231Y-29784411D01*
X53946231Y-29641205D01*
X53918293Y-29500750D01*
X53863490Y-29368444D01*
X53794637Y-29265397D01*
X65567000Y-29265397D01*
X65567000Y-29408603D01*
X65594938Y-29549058D01*
X65649741Y-29681364D01*
X65729302Y-29800436D01*
X65830564Y-29901698D01*
X65949636Y-29981259D01*
X66081942Y-30036062D01*
X66222397Y-30064000D01*
X66365603Y-30064000D01*
X66506058Y-30036062D01*
X66638364Y-29981259D01*
X66757436Y-29901698D01*
X66858698Y-29800436D01*
X66876764Y-29773397D01*
X70774000Y-29773397D01*
X70774000Y-29916603D01*
X70801938Y-30057058D01*
X70856741Y-30189364D01*
X70936302Y-30308436D01*
X71037564Y-30409698D01*
X71156636Y-30489259D01*
X71288942Y-30544062D01*
X71429397Y-30572000D01*
X71572603Y-30572000D01*
X71713058Y-30544062D01*
X71845364Y-30489259D01*
X71964436Y-30409698D01*
X72065698Y-30308436D01*
X72145259Y-30189364D01*
X72200062Y-30057058D01*
X72228000Y-29916603D01*
X72228000Y-29773397D01*
X72200062Y-29632942D01*
X72145259Y-29500636D01*
X72065698Y-29381564D01*
X71964436Y-29280302D01*
X71845364Y-29200741D01*
X71713058Y-29145938D01*
X71572603Y-29118000D01*
X71429397Y-29118000D01*
X71288942Y-29145938D01*
X71156636Y-29200741D01*
X71037564Y-29280302D01*
X70936302Y-29381564D01*
X70856741Y-29500636D01*
X70801938Y-29632942D01*
X70774000Y-29773397D01*
X66876764Y-29773397D01*
X66938259Y-29681364D01*
X66993062Y-29549058D01*
X67021000Y-29408603D01*
X67021000Y-29265397D01*
X66993062Y-29124942D01*
X66938259Y-28992636D01*
X66858698Y-28873564D01*
X66757436Y-28772302D01*
X66638364Y-28692741D01*
X66506058Y-28637938D01*
X66365603Y-28610000D01*
X66222397Y-28610000D01*
X66081942Y-28637938D01*
X65949636Y-28692741D01*
X65830564Y-28772302D01*
X65729302Y-28873564D01*
X65649741Y-28992636D01*
X65594938Y-29124942D01*
X65567000Y-29265397D01*
X53794637Y-29265397D01*
X53783929Y-29249372D01*
X53682667Y-29148110D01*
X53563595Y-29068549D01*
X53431289Y-29013746D01*
X53290834Y-28985808D01*
X53147628Y-28985808D01*
X53007173Y-29013746D01*
X52874867Y-29068549D01*
X52755795Y-29148110D01*
X52654533Y-29249372D01*
X52574972Y-29368444D01*
X52520169Y-29500750D01*
X52492231Y-29641205D01*
X52492231Y-29645220D01*
X52395603Y-29626000D01*
X52252397Y-29626000D01*
X52111942Y-29653938D01*
X51979636Y-29708741D01*
X51860564Y-29788302D01*
X51759302Y-29889564D01*
X51679741Y-30008636D01*
X51624938Y-30140942D01*
X51597000Y-30281397D01*
X51162003Y-30281397D01*
X51016803Y-30136197D01*
X50997557Y-30120403D01*
X50975601Y-30108667D01*
X50951776Y-30101440D01*
X50927000Y-30099000D01*
X47550606Y-30099000D01*
X46190803Y-28739197D01*
X46171557Y-28723403D01*
X46149601Y-28711667D01*
X46125776Y-28704440D01*
X46101000Y-28702000D01*
X44958000Y-28702000D01*
X44933224Y-28704440D01*
X44909399Y-28711667D01*
X44887443Y-28723403D01*
X44868197Y-28739197D01*
X44852403Y-28758443D01*
X44840667Y-28780399D01*
X44833440Y-28804224D01*
X44831000Y-28829000D01*
X44831000Y-29083000D01*
X44833440Y-29107776D01*
X44840667Y-29131601D01*
X44852403Y-29153557D01*
X44868197Y-29172803D01*
X44887443Y-29188597D01*
X44909399Y-29200333D01*
X44933224Y-29207560D01*
X44958000Y-29210000D01*
X45921394Y-29210000D01*
X47281197Y-30569803D01*
X47300443Y-30585597D01*
X47322399Y-30597333D01*
X47346224Y-30604560D01*
X47371000Y-30607000D01*
X50747394Y-30607000D01*
X51435000Y-31294606D01*
X51435000Y-33094394D01*
X50620394Y-33909000D01*
X43867606Y-33909000D01*
X42926000Y-32967394D01*
X42926000Y-29897606D01*
X43613606Y-29210000D01*
X44196000Y-29210000D01*
X44220776Y-29207560D01*
X44244601Y-29200333D01*
X44266557Y-29188597D01*
X44285803Y-29172803D01*
X44301597Y-29153557D01*
X44313333Y-29131601D01*
X44320560Y-29107776D01*
X44323000Y-29083000D01*
X44323000Y-28829000D01*
X44320560Y-28804224D01*
X44313333Y-28780399D01*
X44301597Y-28758443D01*
X44285803Y-28739197D01*
X44266557Y-28723403D01*
X44244601Y-28711667D01*
X44220776Y-28704440D01*
X44196000Y-28702000D01*
X43434000Y-28702000D01*
X43409224Y-28704440D01*
X43385399Y-28711667D01*
X43363443Y-28723403D01*
X43344197Y-28739197D01*
X42455197Y-29628197D01*
X42439403Y-29647443D01*
X42427667Y-29669399D01*
X42420440Y-29693224D01*
X42418000Y-29718000D01*
X42072582Y-29718000D01*
X42072582Y-29503000D01*
X42066268Y-29438897D01*
X42047570Y-29377257D01*
X42017206Y-29320450D01*
X41976343Y-29270657D01*
X41926550Y-29229794D01*
X41869743Y-29199430D01*
X41808103Y-29180732D01*
X41744000Y-29174418D01*
X40044000Y-29174418D01*
X39979897Y-29180732D01*
X39918257Y-29199430D01*
X39861450Y-29229794D01*
X39811657Y-29270657D01*
X39770794Y-29320450D01*
X39740430Y-29377257D01*
X39721732Y-29438897D01*
X39715418Y-29503000D01*
X25933000Y-29503000D01*
X25933000Y-26795000D01*
X27093957Y-26795000D01*
X27110890Y-26966922D01*
X27161038Y-27132237D01*
X27242473Y-27284592D01*
X27352067Y-27418133D01*
X27485608Y-27527727D01*
X27637963Y-27609162D01*
X27803278Y-27659310D01*
X27932121Y-27672000D01*
X28618279Y-27672000D01*
X28747122Y-27659310D01*
X28912437Y-27609162D01*
X29064792Y-27527727D01*
X29198333Y-27418133D01*
X29307927Y-27284592D01*
X29389362Y-27132237D01*
X29439510Y-26966922D01*
X29456443Y-26795000D01*
X30893957Y-26795000D01*
X30910890Y-26966922D01*
X30961038Y-27132237D01*
X31042473Y-27284592D01*
X31152067Y-27418133D01*
X31285608Y-27527727D01*
X31437963Y-27609162D01*
X31603278Y-27659310D01*
X31732121Y-27672000D01*
X32418279Y-27672000D01*
X32547122Y-27659310D01*
X32712437Y-27609162D01*
X32864792Y-27527727D01*
X32998333Y-27418133D01*
X33107927Y-27284592D01*
X33189362Y-27132237D01*
X33197200Y-27106397D01*
X35595000Y-27106397D01*
X35595000Y-27249603D01*
X35622938Y-27390058D01*
X35677741Y-27522364D01*
X35757302Y-27641436D01*
X35858564Y-27742698D01*
X35977636Y-27822259D01*
X36109942Y-27877062D01*
X36250397Y-27905000D01*
X36393603Y-27905000D01*
X36534058Y-27877062D01*
X36666364Y-27822259D01*
X36785436Y-27742698D01*
X36886698Y-27641436D01*
X36966259Y-27522364D01*
X37021062Y-27390058D01*
X37049000Y-27249603D01*
X37049000Y-27233397D01*
X37373000Y-27233397D01*
X37373000Y-27376603D01*
X37400938Y-27517058D01*
X37455741Y-27649364D01*
X37535302Y-27768436D01*
X37636564Y-27869698D01*
X37755636Y-27949259D01*
X37887942Y-28004062D01*
X38028397Y-28032000D01*
X38171603Y-28032000D01*
X38312058Y-28004062D01*
X38444364Y-27949259D01*
X38563436Y-27869698D01*
X38664698Y-27768436D01*
X38744259Y-27649364D01*
X38799062Y-27517058D01*
X38804961Y-27487397D01*
X46898000Y-27487397D01*
X46898000Y-27630603D01*
X46925938Y-27771058D01*
X46980741Y-27903364D01*
X47060302Y-28022436D01*
X47161564Y-28123698D01*
X47171744Y-28130500D01*
X47161564Y-28137302D01*
X47060302Y-28238564D01*
X46980741Y-28357636D01*
X46925938Y-28489942D01*
X46898000Y-28630397D01*
X46898000Y-28773603D01*
X46925938Y-28914058D01*
X46980741Y-29046364D01*
X47060302Y-29165436D01*
X47161564Y-29266698D01*
X47280636Y-29346259D01*
X47412942Y-29401062D01*
X47553397Y-29429000D01*
X47696603Y-29429000D01*
X47837058Y-29401062D01*
X47969364Y-29346259D01*
X48088436Y-29266698D01*
X48103537Y-29251597D01*
X48123737Y-29300364D01*
X48203298Y-29419436D01*
X48304560Y-29520698D01*
X48423632Y-29600259D01*
X48555938Y-29655062D01*
X48696393Y-29683000D01*
X48839599Y-29683000D01*
X48980054Y-29655062D01*
X49112360Y-29600259D01*
X49231432Y-29520698D01*
X49332694Y-29419436D01*
X49412255Y-29300364D01*
X49467058Y-29168058D01*
X49494996Y-29027603D01*
X49494996Y-28884397D01*
X49467058Y-28743942D01*
X49412255Y-28611636D01*
X49332694Y-28492564D01*
X49231432Y-28391302D01*
X49112360Y-28311741D01*
X48980054Y-28256938D01*
X48839599Y-28229000D01*
X48696393Y-28229000D01*
X48555938Y-28256938D01*
X48423632Y-28311741D01*
X48304560Y-28391302D01*
X48289459Y-28406403D01*
X48269259Y-28357636D01*
X48189698Y-28238564D01*
X48088436Y-28137302D01*
X48078256Y-28130500D01*
X48088436Y-28123698D01*
X48189698Y-28022436D01*
X48269259Y-27903364D01*
X48324062Y-27771058D01*
X48352000Y-27630603D01*
X48352000Y-27487397D01*
X48324062Y-27346942D01*
X48269259Y-27214636D01*
X48203247Y-27115842D01*
X48215436Y-27107698D01*
X48316698Y-27006436D01*
X48396259Y-26887364D01*
X48451062Y-26755058D01*
X48479000Y-26614603D01*
X48479000Y-26471397D01*
X48451062Y-26330942D01*
X48396259Y-26198636D01*
X48316698Y-26079564D01*
X48215436Y-25978302D01*
X48098095Y-25899897D01*
X57883500Y-25899897D01*
X57883500Y-26043103D01*
X57911438Y-26183558D01*
X57966241Y-26315864D01*
X58045802Y-26434936D01*
X58147064Y-26536198D01*
X58266136Y-26615759D01*
X58398442Y-26670562D01*
X58538897Y-26698500D01*
X58682103Y-26698500D01*
X58822558Y-26670562D01*
X58954864Y-26615759D01*
X59073936Y-26536198D01*
X59175198Y-26434936D01*
X59235693Y-26344397D01*
X62011000Y-26344397D01*
X62011000Y-26487603D01*
X62038938Y-26628058D01*
X62093741Y-26760364D01*
X62173302Y-26879436D01*
X62274564Y-26980698D01*
X62393636Y-27060259D01*
X62525942Y-27115062D01*
X62666397Y-27143000D01*
X62809603Y-27143000D01*
X62950058Y-27115062D01*
X63082364Y-27060259D01*
X63201436Y-26980698D01*
X63302698Y-26879436D01*
X63382259Y-26760364D01*
X63437062Y-26628058D01*
X63465000Y-26487603D01*
X63465000Y-26344397D01*
X66075000Y-26344397D01*
X66075000Y-26487603D01*
X66102938Y-26628058D01*
X66157741Y-26760364D01*
X66237302Y-26879436D01*
X66338564Y-26980698D01*
X66457636Y-27060259D01*
X66589942Y-27115062D01*
X66730397Y-27143000D01*
X66873603Y-27143000D01*
X67014058Y-27115062D01*
X67146364Y-27060259D01*
X67265436Y-26980698D01*
X67366698Y-26879436D01*
X67446259Y-26760364D01*
X67501062Y-26628058D01*
X67529000Y-26487603D01*
X67529000Y-26344397D01*
X67501062Y-26203942D01*
X67446259Y-26071636D01*
X67373937Y-25963397D01*
X70774000Y-25963397D01*
X70774000Y-26106603D01*
X70801938Y-26247058D01*
X70856741Y-26379364D01*
X70936302Y-26498436D01*
X71037564Y-26599698D01*
X71156636Y-26679259D01*
X71288942Y-26734062D01*
X71429397Y-26762000D01*
X71572603Y-26762000D01*
X71713058Y-26734062D01*
X71845364Y-26679259D01*
X71964436Y-26599698D01*
X72065698Y-26498436D01*
X72145259Y-26379364D01*
X72200062Y-26247058D01*
X72228000Y-26106603D01*
X72228000Y-25963397D01*
X72200062Y-25822942D01*
X72145259Y-25690636D01*
X72065698Y-25571564D01*
X71964436Y-25470302D01*
X71845364Y-25390741D01*
X71718630Y-25338246D01*
X72909400Y-25338246D01*
X72909400Y-25461754D01*
X72933495Y-25582889D01*
X72980760Y-25696996D01*
X73049377Y-25799689D01*
X73136711Y-25887023D01*
X73239404Y-25955640D01*
X73353511Y-26002905D01*
X73474646Y-26027000D01*
X73598154Y-26027000D01*
X73719289Y-26002905D01*
X73833396Y-25955640D01*
X73936089Y-25887023D01*
X74023423Y-25799689D01*
X74092040Y-25696996D01*
X74139305Y-25582889D01*
X74163400Y-25461754D01*
X74163400Y-25338246D01*
X74139305Y-25217111D01*
X74092040Y-25103004D01*
X74023423Y-25000311D01*
X73936089Y-24912977D01*
X73833396Y-24844360D01*
X73719289Y-24797095D01*
X73598154Y-24773000D01*
X73474646Y-24773000D01*
X73353511Y-24797095D01*
X73239404Y-24844360D01*
X73136711Y-24912977D01*
X73049377Y-25000311D01*
X72980760Y-25103004D01*
X72933495Y-25217111D01*
X72909400Y-25338246D01*
X71718630Y-25338246D01*
X71713058Y-25335938D01*
X71572603Y-25308000D01*
X71429397Y-25308000D01*
X71288942Y-25335938D01*
X71156636Y-25390741D01*
X71037564Y-25470302D01*
X70936302Y-25571564D01*
X70856741Y-25690636D01*
X70801938Y-25822942D01*
X70774000Y-25963397D01*
X67373937Y-25963397D01*
X67366698Y-25952564D01*
X67265436Y-25851302D01*
X67146364Y-25771741D01*
X67014058Y-25716938D01*
X66873603Y-25689000D01*
X66730397Y-25689000D01*
X66589942Y-25716938D01*
X66457636Y-25771741D01*
X66338564Y-25851302D01*
X66237302Y-25952564D01*
X66157741Y-26071636D01*
X66102938Y-26203942D01*
X66075000Y-26344397D01*
X63465000Y-26344397D01*
X63437062Y-26203942D01*
X63382259Y-26071636D01*
X63302698Y-25952564D01*
X63201436Y-25851302D01*
X63082364Y-25771741D01*
X62950058Y-25716938D01*
X62809603Y-25689000D01*
X62666397Y-25689000D01*
X62525942Y-25716938D01*
X62393636Y-25771741D01*
X62274564Y-25851302D01*
X62173302Y-25952564D01*
X62093741Y-26071636D01*
X62038938Y-26203942D01*
X62011000Y-26344397D01*
X59235693Y-26344397D01*
X59254759Y-26315864D01*
X59309562Y-26183558D01*
X59337500Y-26043103D01*
X59337500Y-25899897D01*
X59309562Y-25759442D01*
X59254759Y-25627136D01*
X59175198Y-25508064D01*
X59073936Y-25406802D01*
X58954864Y-25327241D01*
X58822558Y-25272438D01*
X58682103Y-25244500D01*
X58538897Y-25244500D01*
X58398442Y-25272438D01*
X58266136Y-25327241D01*
X58147064Y-25406802D01*
X58045802Y-25508064D01*
X57966241Y-25627136D01*
X57911438Y-25759442D01*
X57883500Y-25899897D01*
X48098095Y-25899897D01*
X48096364Y-25898741D01*
X47964058Y-25843938D01*
X47823603Y-25816000D01*
X47680397Y-25816000D01*
X47539942Y-25843938D01*
X47407636Y-25898741D01*
X47288564Y-25978302D01*
X47187302Y-26079564D01*
X47107741Y-26198636D01*
X47052938Y-26330942D01*
X47025000Y-26471397D01*
X47025000Y-26614603D01*
X47052938Y-26755058D01*
X47107741Y-26887364D01*
X47173753Y-26986158D01*
X47161564Y-26994302D01*
X47060302Y-27095564D01*
X46980741Y-27214636D01*
X46925938Y-27346942D01*
X46898000Y-27487397D01*
X38804961Y-27487397D01*
X38827000Y-27376603D01*
X38827000Y-27233397D01*
X38799062Y-27092942D01*
X38744259Y-26960636D01*
X38664698Y-26841564D01*
X38563436Y-26740302D01*
X38444364Y-26660741D01*
X38312058Y-26605938D01*
X38171603Y-26578000D01*
X38028397Y-26578000D01*
X37887942Y-26605938D01*
X37755636Y-26660741D01*
X37636564Y-26740302D01*
X37535302Y-26841564D01*
X37455741Y-26960636D01*
X37400938Y-27092942D01*
X37373000Y-27233397D01*
X37049000Y-27233397D01*
X37049000Y-27106397D01*
X37021062Y-26965942D01*
X36966259Y-26833636D01*
X36886698Y-26714564D01*
X36785436Y-26613302D01*
X36666364Y-26533741D01*
X36534058Y-26478938D01*
X36393603Y-26451000D01*
X36250397Y-26451000D01*
X36109942Y-26478938D01*
X35977636Y-26533741D01*
X35858564Y-26613302D01*
X35757302Y-26714564D01*
X35677741Y-26833636D01*
X35622938Y-26965942D01*
X35595000Y-27106397D01*
X33197200Y-27106397D01*
X33239510Y-26966922D01*
X33256443Y-26795000D01*
X33239510Y-26623078D01*
X33189362Y-26457763D01*
X33107927Y-26305408D01*
X32998333Y-26171867D01*
X32864792Y-26062273D01*
X32712437Y-25980838D01*
X32547122Y-25930690D01*
X32418279Y-25918000D01*
X31732121Y-25918000D01*
X31603278Y-25930690D01*
X31437963Y-25980838D01*
X31285608Y-26062273D01*
X31152067Y-26171867D01*
X31042473Y-26305408D01*
X30961038Y-26457763D01*
X30910890Y-26623078D01*
X30893957Y-26795000D01*
X29456443Y-26795000D01*
X29439510Y-26623078D01*
X29389362Y-26457763D01*
X29307927Y-26305408D01*
X29198333Y-26171867D01*
X29064792Y-26062273D01*
X28912437Y-25980838D01*
X28747122Y-25930690D01*
X28618279Y-25918000D01*
X27932121Y-25918000D01*
X27803278Y-25930690D01*
X27637963Y-25980838D01*
X27485608Y-26062273D01*
X27352067Y-26171867D01*
X27242473Y-26305408D01*
X27161038Y-26457763D01*
X27110890Y-26623078D01*
X27093957Y-26795000D01*
X25933000Y-26795000D01*
X25933000Y-24185397D01*
X41818000Y-24185397D01*
X41818000Y-24328603D01*
X41845938Y-24469058D01*
X41900741Y-24601364D01*
X41980302Y-24720436D01*
X42081564Y-24821698D01*
X42200636Y-24901259D01*
X42332942Y-24956062D01*
X42473397Y-24984000D01*
X42616603Y-24984000D01*
X42757058Y-24956062D01*
X42889364Y-24901259D01*
X43008436Y-24821698D01*
X43109698Y-24720436D01*
X43189259Y-24601364D01*
X43203742Y-24566397D01*
X45628000Y-24566397D01*
X45628000Y-24709603D01*
X45655938Y-24850058D01*
X45710741Y-24982364D01*
X45790302Y-25101436D01*
X45891564Y-25202698D01*
X46010636Y-25282259D01*
X46142942Y-25337062D01*
X46283397Y-25365000D01*
X46426603Y-25365000D01*
X46567058Y-25337062D01*
X46699364Y-25282259D01*
X46818436Y-25202698D01*
X46919698Y-25101436D01*
X46999259Y-24982364D01*
X47054062Y-24850058D01*
X47082000Y-24709603D01*
X47082000Y-24566397D01*
X47054062Y-24425942D01*
X46999259Y-24293636D01*
X46919698Y-24174564D01*
X46818436Y-24073302D01*
X46699364Y-23993741D01*
X46567058Y-23938938D01*
X46426603Y-23911000D01*
X46283397Y-23911000D01*
X46142942Y-23938938D01*
X46010636Y-23993741D01*
X45891564Y-24073302D01*
X45790302Y-24174564D01*
X45710741Y-24293636D01*
X45655938Y-24425942D01*
X45628000Y-24566397D01*
X43203742Y-24566397D01*
X43244062Y-24469058D01*
X43272000Y-24328603D01*
X43272000Y-24185397D01*
X43244062Y-24044942D01*
X43189259Y-23912636D01*
X43109698Y-23793564D01*
X43008436Y-23692302D01*
X42889364Y-23612741D01*
X42757058Y-23557938D01*
X42616603Y-23530000D01*
X42473397Y-23530000D01*
X42332942Y-23557938D01*
X42200636Y-23612741D01*
X42081564Y-23692302D01*
X41980302Y-23793564D01*
X41900741Y-23912636D01*
X41845938Y-24044942D01*
X41818000Y-24185397D01*
X25933000Y-24185397D01*
X25933000Y-22788397D01*
X38770000Y-22788397D01*
X38770000Y-22931603D01*
X38797938Y-23072058D01*
X38852741Y-23204364D01*
X38932302Y-23323436D01*
X39033564Y-23424698D01*
X39152636Y-23504259D01*
X39284942Y-23559062D01*
X39425397Y-23587000D01*
X39568603Y-23587000D01*
X39709058Y-23559062D01*
X39841364Y-23504259D01*
X39960436Y-23424698D01*
X40061698Y-23323436D01*
X40141259Y-23204364D01*
X40196062Y-23072058D01*
X40224000Y-22931603D01*
X40224000Y-22788397D01*
X40196062Y-22647942D01*
X40149031Y-22534397D01*
X69758000Y-22534397D01*
X69758000Y-22677603D01*
X69785938Y-22818058D01*
X69840741Y-22950364D01*
X69920302Y-23069436D01*
X70021564Y-23170698D01*
X70140636Y-23250259D01*
X70272942Y-23305062D01*
X70413397Y-23333000D01*
X70556603Y-23333000D01*
X70697058Y-23305062D01*
X70829364Y-23250259D01*
X70948436Y-23170698D01*
X71049698Y-23069436D01*
X71129259Y-22950364D01*
X71184062Y-22818058D01*
X71212000Y-22677603D01*
X71212000Y-22534397D01*
X71184062Y-22393942D01*
X71129259Y-22261636D01*
X71049698Y-22142564D01*
X70948436Y-22041302D01*
X70829364Y-21961741D01*
X70697058Y-21906938D01*
X70556603Y-21879000D01*
X70413397Y-21879000D01*
X70272942Y-21906938D01*
X70140636Y-21961741D01*
X70021564Y-22041302D01*
X69920302Y-22142564D01*
X69840741Y-22261636D01*
X69785938Y-22393942D01*
X69758000Y-22534397D01*
X40149031Y-22534397D01*
X40141259Y-22515636D01*
X40061698Y-22396564D01*
X39960436Y-22295302D01*
X39841364Y-22215741D01*
X39709058Y-22160938D01*
X39568603Y-22133000D01*
X39425397Y-22133000D01*
X39284942Y-22160938D01*
X39152636Y-22215741D01*
X39033564Y-22295302D01*
X38932302Y-22396564D01*
X38852741Y-22515636D01*
X38797938Y-22647942D01*
X38770000Y-22788397D01*
X25933000Y-22788397D01*
X25933000Y-21645397D01*
X36611000Y-21645397D01*
X36611000Y-21788603D01*
X36638938Y-21929058D01*
X36693741Y-22061364D01*
X36773302Y-22180436D01*
X36874564Y-22281698D01*
X36993636Y-22361259D01*
X37125942Y-22416062D01*
X37266397Y-22444000D01*
X37409603Y-22444000D01*
X37550058Y-22416062D01*
X37682364Y-22361259D01*
X37801436Y-22281698D01*
X37902698Y-22180436D01*
X37982259Y-22061364D01*
X38037062Y-21929058D01*
X38065000Y-21788603D01*
X38065000Y-21645397D01*
X38037062Y-21504942D01*
X37982259Y-21372636D01*
X37902698Y-21253564D01*
X37801436Y-21152302D01*
X37682364Y-21072741D01*
X37550058Y-21017938D01*
X37409603Y-20990000D01*
X37266397Y-20990000D01*
X37125942Y-21017938D01*
X36993636Y-21072741D01*
X36874564Y-21152302D01*
X36773302Y-21253564D01*
X36693741Y-21372636D01*
X36638938Y-21504942D01*
X36611000Y-21645397D01*
X25933000Y-21645397D01*
X25933000Y-21472660D01*
X26738448Y-20847743D01*
X43361000Y-20847743D01*
X43361000Y-21062257D01*
X43402850Y-21272650D01*
X43484941Y-21470835D01*
X43604119Y-21649197D01*
X43755803Y-21800881D01*
X43934165Y-21920059D01*
X44132350Y-22002150D01*
X44342743Y-22044000D01*
X44557257Y-22044000D01*
X44767650Y-22002150D01*
X44965835Y-21920059D01*
X45144197Y-21800881D01*
X45295881Y-21649197D01*
X45415059Y-21470835D01*
X45497150Y-21272650D01*
X45539000Y-21062257D01*
X45539000Y-20847743D01*
X45901000Y-20847743D01*
X45901000Y-21062257D01*
X45942850Y-21272650D01*
X46024941Y-21470835D01*
X46144119Y-21649197D01*
X46295803Y-21800881D01*
X46474165Y-21920059D01*
X46672350Y-22002150D01*
X46882743Y-22044000D01*
X47097257Y-22044000D01*
X47307650Y-22002150D01*
X47505835Y-21920059D01*
X47684197Y-21800881D01*
X47835881Y-21649197D01*
X47955059Y-21470835D01*
X48037150Y-21272650D01*
X48079000Y-21062257D01*
X48079000Y-20847743D01*
X48441000Y-20847743D01*
X48441000Y-21062257D01*
X48482850Y-21272650D01*
X48564941Y-21470835D01*
X48684119Y-21649197D01*
X48835803Y-21800881D01*
X49014165Y-21920059D01*
X49212350Y-22002150D01*
X49422743Y-22044000D01*
X49637257Y-22044000D01*
X49847650Y-22002150D01*
X50045835Y-21920059D01*
X50224197Y-21800881D01*
X50375881Y-21649197D01*
X50495059Y-21470835D01*
X50577150Y-21272650D01*
X50619000Y-21062257D01*
X50619000Y-20847743D01*
X50981000Y-20847743D01*
X50981000Y-21062257D01*
X51022850Y-21272650D01*
X51104941Y-21470835D01*
X51224119Y-21649197D01*
X51375803Y-21800881D01*
X51554165Y-21920059D01*
X51752350Y-22002150D01*
X51962743Y-22044000D01*
X52177257Y-22044000D01*
X52387650Y-22002150D01*
X52585835Y-21920059D01*
X52764197Y-21800881D01*
X52915881Y-21649197D01*
X53035059Y-21470835D01*
X53117150Y-21272650D01*
X53159000Y-21062257D01*
X53159000Y-20847743D01*
X53521000Y-20847743D01*
X53521000Y-21062257D01*
X53562850Y-21272650D01*
X53644941Y-21470835D01*
X53764119Y-21649197D01*
X53915803Y-21800881D01*
X54094165Y-21920059D01*
X54292350Y-22002150D01*
X54502743Y-22044000D01*
X54717257Y-22044000D01*
X54927650Y-22002150D01*
X55125835Y-21920059D01*
X55304197Y-21800881D01*
X55455881Y-21649197D01*
X55575059Y-21470835D01*
X55657150Y-21272650D01*
X55699000Y-21062257D01*
X55699000Y-20847743D01*
X56061000Y-20847743D01*
X56061000Y-21062257D01*
X56102850Y-21272650D01*
X56184941Y-21470835D01*
X56304119Y-21649197D01*
X56455803Y-21800881D01*
X56634165Y-21920059D01*
X56832350Y-22002150D01*
X57042743Y-22044000D01*
X57257257Y-22044000D01*
X57467650Y-22002150D01*
X57665835Y-21920059D01*
X57844197Y-21800881D01*
X57995881Y-21649197D01*
X58083277Y-21518399D01*
X60233000Y-21518399D01*
X60233000Y-21661605D01*
X60260938Y-21802060D01*
X60315741Y-21934366D01*
X60395302Y-22053438D01*
X60496564Y-22154700D01*
X60615636Y-22234261D01*
X60747942Y-22289064D01*
X60888397Y-22317002D01*
X61031603Y-22317002D01*
X61172058Y-22289064D01*
X61304364Y-22234261D01*
X61423436Y-22154700D01*
X61524698Y-22053438D01*
X61604259Y-21934366D01*
X61659062Y-21802060D01*
X61687000Y-21661605D01*
X61687000Y-21518399D01*
X61687000Y-21518397D01*
X63408000Y-21518397D01*
X63408000Y-21661603D01*
X63435938Y-21802058D01*
X63490741Y-21934364D01*
X63570302Y-22053436D01*
X63671564Y-22154698D01*
X63790636Y-22234259D01*
X63922942Y-22289062D01*
X64063397Y-22317000D01*
X64206603Y-22317000D01*
X64347058Y-22289062D01*
X64479364Y-22234259D01*
X64598436Y-22154698D01*
X64699698Y-22053436D01*
X64779259Y-21934364D01*
X64834062Y-21802058D01*
X64862000Y-21661603D01*
X64862000Y-21518397D01*
X67472000Y-21518397D01*
X67472000Y-21661603D01*
X67499938Y-21802058D01*
X67554741Y-21934364D01*
X67634302Y-22053436D01*
X67735564Y-22154698D01*
X67854636Y-22234259D01*
X67986942Y-22289062D01*
X68127397Y-22317000D01*
X68270603Y-22317000D01*
X68411058Y-22289062D01*
X68543364Y-22234259D01*
X68662436Y-22154698D01*
X68763698Y-22053436D01*
X68843259Y-21934364D01*
X68898062Y-21802058D01*
X68926000Y-21661603D01*
X68926000Y-21518397D01*
X68898062Y-21377942D01*
X68843259Y-21245636D01*
X68763698Y-21126564D01*
X68662436Y-21025302D01*
X68543364Y-20945741D01*
X68411058Y-20890938D01*
X68270603Y-20863000D01*
X68127397Y-20863000D01*
X67986942Y-20890938D01*
X67854636Y-20945741D01*
X67735564Y-21025302D01*
X67634302Y-21126564D01*
X67554741Y-21245636D01*
X67499938Y-21377942D01*
X67472000Y-21518397D01*
X64862000Y-21518397D01*
X64834062Y-21377942D01*
X64779259Y-21245636D01*
X64699698Y-21126564D01*
X64598436Y-21025302D01*
X64479364Y-20945741D01*
X64347058Y-20890938D01*
X64206603Y-20863000D01*
X64063397Y-20863000D01*
X63922942Y-20890938D01*
X63790636Y-20945741D01*
X63671564Y-21025302D01*
X63570302Y-21126564D01*
X63490741Y-21245636D01*
X63435938Y-21377942D01*
X63408000Y-21518397D01*
X61687000Y-21518397D01*
X61659062Y-21377944D01*
X61604259Y-21245638D01*
X61524698Y-21126566D01*
X61423436Y-21025304D01*
X61304364Y-20945743D01*
X61172058Y-20890940D01*
X61031603Y-20863002D01*
X60888397Y-20863002D01*
X60747942Y-20890940D01*
X60615636Y-20945743D01*
X60496564Y-21025304D01*
X60395302Y-21126566D01*
X60315741Y-21245638D01*
X60260938Y-21377944D01*
X60233000Y-21518399D01*
X58083277Y-21518399D01*
X58115059Y-21470835D01*
X58197150Y-21272650D01*
X58239000Y-21062257D01*
X58239000Y-20847743D01*
X58197150Y-20637350D01*
X58115059Y-20439165D01*
X57995881Y-20260803D01*
X57844197Y-20109119D01*
X57665835Y-19989941D01*
X57467650Y-19907850D01*
X57257257Y-19866000D01*
X57042743Y-19866000D01*
X56832350Y-19907850D01*
X56634165Y-19989941D01*
X56455803Y-20109119D01*
X56304119Y-20260803D01*
X56184941Y-20439165D01*
X56102850Y-20637350D01*
X56061000Y-20847743D01*
X55699000Y-20847743D01*
X55657150Y-20637350D01*
X55575059Y-20439165D01*
X55455881Y-20260803D01*
X55304197Y-20109119D01*
X55125835Y-19989941D01*
X54927650Y-19907850D01*
X54717257Y-19866000D01*
X54502743Y-19866000D01*
X54292350Y-19907850D01*
X54094165Y-19989941D01*
X53915803Y-20109119D01*
X53764119Y-20260803D01*
X53644941Y-20439165D01*
X53562850Y-20637350D01*
X53521000Y-20847743D01*
X53159000Y-20847743D01*
X53117150Y-20637350D01*
X53035059Y-20439165D01*
X52915881Y-20260803D01*
X52764197Y-20109119D01*
X52585835Y-19989941D01*
X52387650Y-19907850D01*
X52177257Y-19866000D01*
X51962743Y-19866000D01*
X51752350Y-19907850D01*
X51554165Y-19989941D01*
X51375803Y-20109119D01*
X51224119Y-20260803D01*
X51104941Y-20439165D01*
X51022850Y-20637350D01*
X50981000Y-20847743D01*
X50619000Y-20847743D01*
X50577150Y-20637350D01*
X50495059Y-20439165D01*
X50375881Y-20260803D01*
X50224197Y-20109119D01*
X50045835Y-19989941D01*
X49847650Y-19907850D01*
X49637257Y-19866000D01*
X49422743Y-19866000D01*
X49212350Y-19907850D01*
X49014165Y-19989941D01*
X48835803Y-20109119D01*
X48684119Y-20260803D01*
X48564941Y-20439165D01*
X48482850Y-20637350D01*
X48441000Y-20847743D01*
X48079000Y-20847743D01*
X48037150Y-20637350D01*
X47955059Y-20439165D01*
X47835881Y-20260803D01*
X47684197Y-20109119D01*
X47505835Y-19989941D01*
X47307650Y-19907850D01*
X47097257Y-19866000D01*
X46882743Y-19866000D01*
X46672350Y-19907850D01*
X46474165Y-19989941D01*
X46295803Y-20109119D01*
X46144119Y-20260803D01*
X46024941Y-20439165D01*
X45942850Y-20637350D01*
X45901000Y-20847743D01*
X45539000Y-20847743D01*
X45497150Y-20637350D01*
X45415059Y-20439165D01*
X45295881Y-20260803D01*
X45144197Y-20109119D01*
X44965835Y-19989941D01*
X44767650Y-19907850D01*
X44557257Y-19866000D01*
X44342743Y-19866000D01*
X44132350Y-19907850D01*
X43934165Y-19989941D01*
X43755803Y-20109119D01*
X43604119Y-20260803D01*
X43484941Y-20439165D01*
X43402850Y-20637350D01*
X43361000Y-20847743D01*
X26738448Y-20847743D01*
X28695941Y-19329000D01*
X72904060Y-19329000D01*
X75667000Y-21472661D01*
G37*
G04 #@! TD.AperFunction*
M02*
