%FSLAX45Y45*%
G04 Gerber Fmt 4.5, Leading zero omitted, Abs format (unit mm)*
G04 Created by KiCad (PCBNEW (5.1.10)-1) date 2021-07-15 16:56:06*
%MOMM*%
%LPD*%
G01*
G04 APERTURE LIST*
%TA.AperFunction,Profile*%
%ADD10C,0.050000*%
%TD*%
%ADD11C,0.200000*%
%ADD12C,0.300000*%
G04 APERTURE END LIST*
D10*
X7150100Y-4692200D02*
X7429500Y-4692200D01*
X2565400Y-2133600D02*
X2860040Y-1905000D01*
X7299960Y-1905000D02*
X7594600Y-2133600D01*
X7594600Y-4527100D02*
X7594600Y-4254500D01*
X7594600Y-4527100D02*
X7429500Y-4692200D01*
X6413500Y-4140200D02*
X7150100Y-4692200D01*
X3009900Y-4692200D02*
X3746500Y-4140200D01*
X2730500Y-4692200D02*
X3009900Y-4692200D01*
X2565400Y-4527100D02*
X2730500Y-4692200D01*
X2565400Y-4254500D02*
X2565400Y-4527100D01*
X2565400Y-4254500D02*
X2565400Y-2133600D01*
X3746500Y-4140200D02*
X6413500Y-4140200D01*
X7594600Y-2133600D02*
X7594600Y-4254500D01*
X2860040Y-1905000D02*
X7299960Y-1905000D01*
D11*
X2799400Y-2202500D02*
X2839400Y-2242500D01*
X2839400Y-2202500D02*
X2799400Y-2242500D01*
X2989900Y-2202500D02*
X3029900Y-2242500D01*
X3029900Y-2202500D02*
X2989900Y-2242500D01*
X3066100Y-2824800D02*
X3106100Y-2864800D01*
X3106100Y-2824800D02*
X3066100Y-2864800D01*
X3066100Y-3358200D02*
X3106100Y-3398200D01*
X3106100Y-3358200D02*
X3066100Y-3398200D01*
X3180400Y-2202500D02*
X3220400Y-2242500D01*
X3220400Y-2202500D02*
X3180400Y-2242500D01*
X3282000Y-2151700D02*
X3322000Y-2191700D01*
X3322000Y-2151700D02*
X3282000Y-2191700D01*
X3612200Y-2291400D02*
X3652200Y-2331400D01*
X3652200Y-2291400D02*
X3612200Y-2331400D01*
X3612200Y-2697800D02*
X3652200Y-2737800D01*
X3652200Y-2697800D02*
X3612200Y-2737800D01*
X3688400Y-2824800D02*
X3728400Y-2864800D01*
X3728400Y-2824800D02*
X3688400Y-2864800D01*
X3688400Y-3002600D02*
X3728400Y-3042600D01*
X3728400Y-3002600D02*
X3688400Y-3042600D01*
X3688400Y-3180400D02*
X3728400Y-3220400D01*
X3728400Y-3180400D02*
X3688400Y-3220400D01*
X3688400Y-3358200D02*
X3728400Y-3398200D01*
X3728400Y-3358200D02*
X3688400Y-3398200D01*
X3688400Y-3536000D02*
X3728400Y-3576000D01*
X3728400Y-3536000D02*
X3688400Y-3576000D01*
X3713800Y-2151700D02*
X3753800Y-2191700D01*
X3753800Y-2151700D02*
X3713800Y-2191700D01*
X3790000Y-2329500D02*
X3830000Y-2369500D01*
X3830000Y-2329500D02*
X3790000Y-2369500D01*
X3790000Y-2710500D02*
X3830000Y-2750500D01*
X3830000Y-2710500D02*
X3790000Y-2750500D01*
X3929700Y-2266000D02*
X3969700Y-2306000D01*
X3969700Y-2266000D02*
X3929700Y-2306000D01*
X4044000Y-1973900D02*
X4084000Y-2013900D01*
X4084000Y-1973900D02*
X4044000Y-2013900D01*
X4234500Y-2405700D02*
X4274500Y-2445700D01*
X4274500Y-2405700D02*
X4234500Y-2445700D01*
X4234500Y-2786700D02*
X4274500Y-2826700D01*
X4274500Y-2786700D02*
X4234500Y-2826700D01*
X4323400Y-3116900D02*
X4363400Y-3156900D01*
X4363400Y-3116900D02*
X4323400Y-3156900D01*
X4615500Y-2443800D02*
X4655500Y-2483800D01*
X4655500Y-2443800D02*
X4615500Y-2483800D01*
X4617985Y-2586798D02*
X4657985Y-2626798D01*
X4657985Y-2586798D02*
X4617985Y-2626798D01*
X4742500Y-2735900D02*
X4782500Y-2775900D01*
X4782500Y-2735900D02*
X4742500Y-2775900D01*
X4742500Y-2850200D02*
X4782500Y-2890200D01*
X4782500Y-2850200D02*
X4742500Y-2890200D01*
X4755200Y-2634300D02*
X4795200Y-2674300D01*
X4795200Y-2634300D02*
X4755200Y-2674300D01*
X4856800Y-2875600D02*
X4896800Y-2915600D01*
X4896800Y-2875600D02*
X4856800Y-2915600D01*
X4933000Y-3091500D02*
X4973000Y-3131500D01*
X4973000Y-3091500D02*
X4933000Y-3131500D01*
X5212400Y-3015300D02*
X5252400Y-3055300D01*
X5252400Y-3015300D02*
X5212400Y-3055300D01*
X5301923Y-2951281D02*
X5341923Y-2991281D01*
X5341923Y-2951281D02*
X5301923Y-2991281D01*
X5815650Y-2456500D02*
X5855650Y-2496500D01*
X5855650Y-2456500D02*
X5815650Y-2496500D01*
X5841050Y-2577150D02*
X5881050Y-2617150D01*
X5881050Y-2577150D02*
X5841050Y-2617150D01*
X6076000Y-2139000D02*
X6116000Y-2179000D01*
X6116000Y-2139000D02*
X6076000Y-2179000D01*
X6139500Y-3358200D02*
X6179500Y-3398200D01*
X6179500Y-3358200D02*
X6139500Y-3398200D01*
X6222050Y-2456500D02*
X6262050Y-2496500D01*
X6262050Y-2456500D02*
X6222050Y-2496500D01*
X6253800Y-2621600D02*
X6293800Y-2661600D01*
X6293800Y-2621600D02*
X6253800Y-2661600D01*
X6393500Y-2139000D02*
X6433500Y-2179000D01*
X6433500Y-2139000D02*
X6393500Y-2179000D01*
X6609400Y-2913700D02*
X6649400Y-2953700D01*
X6649400Y-2913700D02*
X6609400Y-2953700D01*
X6628450Y-2456500D02*
X6668450Y-2496500D01*
X6668450Y-2456500D02*
X6628450Y-2496500D01*
X6660200Y-2621600D02*
X6700200Y-2661600D01*
X6700200Y-2621600D02*
X6660200Y-2661600D01*
X6749100Y-3193100D02*
X6789100Y-3233100D01*
X6789100Y-3193100D02*
X6749100Y-3233100D01*
X6799900Y-2139000D02*
X6839900Y-2179000D01*
X6839900Y-2139000D02*
X6799900Y-2179000D01*
X7028500Y-2240600D02*
X7068500Y-2280600D01*
X7068500Y-2240600D02*
X7028500Y-2280600D01*
X7130100Y-2583500D02*
X7170100Y-2623500D01*
X7170100Y-2583500D02*
X7130100Y-2623500D01*
X7130100Y-2964500D02*
X7170100Y-3004500D01*
X7170100Y-2964500D02*
X7130100Y-3004500D01*
X7130100Y-3345500D02*
X7170100Y-3385500D01*
X7170100Y-3345500D02*
X7130100Y-3385500D01*
X7485700Y-2189800D02*
X7525700Y-2229800D01*
X7525700Y-2189800D02*
X7485700Y-2229800D01*
X7485700Y-2850200D02*
X7525700Y-2890200D01*
X7525700Y-2850200D02*
X7485700Y-2890200D01*
X7485700Y-2951800D02*
X7525700Y-2991800D01*
X7525700Y-2951800D02*
X7485700Y-2991800D01*
X7485700Y-3612200D02*
X7525700Y-3652200D01*
X7525700Y-3612200D02*
X7485700Y-3652200D01*
X2832400Y-4140200D02*
G75*
G03*
X2832400Y-4140200I-25000J0D01*
G01*
X2891711Y-3997011D02*
G75*
G03*
X2891711Y-3997011I-25000J0D01*
G01*
X2891711Y-4283389D02*
G75*
G03*
X2891711Y-4283389I-25000J0D01*
G01*
X3034900Y-3937700D02*
G75*
G03*
X3034900Y-3937700I-25000J0D01*
G01*
X3034900Y-4342700D02*
G75*
G03*
X3034900Y-4342700I-25000J0D01*
G01*
X3178089Y-3997011D02*
G75*
G03*
X3178089Y-3997011I-25000J0D01*
G01*
X3178089Y-4283389D02*
G75*
G03*
X3178089Y-4283389I-25000J0D01*
G01*
X3237400Y-4140200D02*
G75*
G03*
X3237400Y-4140200I-25000J0D01*
G01*
X6972600Y-4140200D02*
G75*
G03*
X6972600Y-4140200I-25000J0D01*
G01*
X7031911Y-3997011D02*
G75*
G03*
X7031911Y-3997011I-25000J0D01*
G01*
X7031911Y-4283389D02*
G75*
G03*
X7031911Y-4283389I-25000J0D01*
G01*
X7175100Y-3937700D02*
G75*
G03*
X7175100Y-3937700I-25000J0D01*
G01*
X7175100Y-4342700D02*
G75*
G03*
X7175100Y-4342700I-25000J0D01*
G01*
X7318289Y-3997011D02*
G75*
G03*
X7318289Y-3997011I-25000J0D01*
G01*
X7318289Y-4283389D02*
G75*
G03*
X7318289Y-4283389I-25000J0D01*
G01*
X7377600Y-4140200D02*
G75*
G03*
X7377600Y-4140200I-25000J0D01*
G01*
X2827520Y-2649500D02*
X2827520Y-2709500D01*
X2797520Y-2679500D02*
X2857520Y-2679500D01*
X2797520Y-2699500D02*
X2857520Y-2699500D01*
X2797520Y-2659500D02*
X2857520Y-2659500D01*
X2857520Y-2699500D02*
G75*
G03*
X2857520Y-2659500I0J20000D01*
G01*
X2797520Y-2659500D02*
G75*
G03*
X2797520Y-2699500I0J-20000D01*
G01*
X2827520Y-3513500D02*
X2827520Y-3573500D01*
X2797520Y-3543500D02*
X2857520Y-3543500D01*
X2797520Y-3563500D02*
X2857520Y-3563500D01*
X2797520Y-3523500D02*
X2857520Y-3523500D01*
X2857520Y-3563500D02*
G75*
G03*
X2857520Y-3523500I0J20000D01*
G01*
X2797520Y-3523500D02*
G75*
G03*
X2797520Y-3563500I0J-20000D01*
G01*
X3207520Y-2649500D02*
X3207520Y-2709500D01*
X3177520Y-2679500D02*
X3237520Y-2679500D01*
X3177520Y-2699500D02*
X3237520Y-2699500D01*
X3177520Y-2659500D02*
X3237520Y-2659500D01*
X3237520Y-2699500D02*
G75*
G03*
X3237520Y-2659500I0J20000D01*
G01*
X3177520Y-2659500D02*
G75*
G03*
X3177520Y-2699500I0J-20000D01*
G01*
X3207520Y-3513500D02*
X3207520Y-3573500D01*
X3177520Y-3543500D02*
X3237520Y-3543500D01*
X3177520Y-3563500D02*
X3237520Y-3563500D01*
X3177520Y-3523500D02*
X3237520Y-3523500D01*
X3237520Y-3563500D02*
G75*
G03*
X3237520Y-3523500I0J20000D01*
G01*
X3177520Y-3523500D02*
G75*
G03*
X3177520Y-3563500I0J-20000D01*
G01*
X4471941Y-2122441D02*
X4471941Y-2068559D01*
X4418059Y-2068559D01*
X4418059Y-2122441D01*
X4471941Y-2122441D01*
X4471941Y-3646441D02*
X4471941Y-3592559D01*
X4418059Y-3592559D01*
X4418059Y-3646441D01*
X4471941Y-3646441D01*
X4725941Y-2122441D02*
X4725941Y-2068559D01*
X4672059Y-2068559D01*
X4672059Y-2122441D01*
X4725941Y-2122441D01*
X4725941Y-3646441D02*
X4725941Y-3592559D01*
X4672059Y-3592559D01*
X4672059Y-3646441D01*
X4725941Y-3646441D01*
X4979941Y-2122441D02*
X4979941Y-2068559D01*
X4926059Y-2068559D01*
X4926059Y-2122441D01*
X4979941Y-2122441D01*
X4979941Y-3646441D02*
X4979941Y-3592559D01*
X4926059Y-3592559D01*
X4926059Y-3646441D01*
X4979941Y-3646441D01*
X5233941Y-2122441D02*
X5233941Y-2068559D01*
X5180059Y-2068559D01*
X5180059Y-2122441D01*
X5233941Y-2122441D01*
X5233941Y-3646441D02*
X5233941Y-3592559D01*
X5180059Y-3592559D01*
X5180059Y-3646441D01*
X5233941Y-3646441D01*
X5487941Y-2122441D02*
X5487941Y-2068559D01*
X5434059Y-2068559D01*
X5434059Y-2122441D01*
X5487941Y-2122441D01*
X5487941Y-3646441D02*
X5487941Y-3592559D01*
X5434059Y-3592559D01*
X5434059Y-3646441D01*
X5487941Y-3646441D01*
X5741941Y-2122441D02*
X5741941Y-2068559D01*
X5688059Y-2068559D01*
X5688059Y-2122441D01*
X5741941Y-2122441D01*
X5741941Y-3646441D02*
X5741941Y-3592559D01*
X5688059Y-3592559D01*
X5688059Y-3646441D01*
X5741941Y-3646441D01*
X4089400Y-3085300D02*
X4139400Y-3035300D01*
X4089400Y-2985300D01*
X4039400Y-3035300D01*
X4089400Y-3085300D01*
X4089400Y-3339300D02*
X4139400Y-3289300D01*
X4089400Y-3239300D01*
X4039400Y-3289300D01*
X4089400Y-3339300D01*
X2874900Y-4005200D02*
X3144900Y-4275200D01*
X3144900Y-4005200D02*
X2874900Y-4275200D01*
X3144900Y-4140200D02*
G75*
G03*
X3144900Y-4140200I-135000J0D01*
G01*
X7015100Y-4005200D02*
X7285100Y-4275200D01*
X7285100Y-4005200D02*
X7015100Y-4275200D01*
X7285100Y-4140200D02*
G75*
G03*
X7285100Y-4140200I-135000J0D01*
G01*
D12*
X2849328Y-5160414D02*
X2849328Y-4860414D01*
X2920757Y-4860414D01*
X2963614Y-4874700D01*
X2992186Y-4903272D01*
X3006471Y-4931843D01*
X3020757Y-4988986D01*
X3020757Y-5031843D01*
X3006471Y-5088986D01*
X2992186Y-5117557D01*
X2963614Y-5146129D01*
X2920757Y-5160414D01*
X2849328Y-5160414D01*
X3149328Y-5160414D02*
X3149328Y-4960414D01*
X3149328Y-5017557D02*
X3163614Y-4988986D01*
X3177900Y-4974700D01*
X3206471Y-4960414D01*
X3235043Y-4960414D01*
X3335043Y-5160414D02*
X3335043Y-4960414D01*
X3335043Y-4860414D02*
X3320757Y-4874700D01*
X3335043Y-4888986D01*
X3349328Y-4874700D01*
X3335043Y-4860414D01*
X3335043Y-4888986D01*
X3520757Y-5160414D02*
X3492186Y-5146129D01*
X3477900Y-5117557D01*
X3477900Y-4860414D01*
X3677900Y-5160414D02*
X3649328Y-5146129D01*
X3635043Y-5117557D01*
X3635043Y-4860414D01*
X4020757Y-5160414D02*
X4020757Y-4860414D01*
X4120757Y-5074700D01*
X4220757Y-4860414D01*
X4220757Y-5160414D01*
X4492186Y-5160414D02*
X4492186Y-5003272D01*
X4477900Y-4974700D01*
X4449328Y-4960414D01*
X4392186Y-4960414D01*
X4363614Y-4974700D01*
X4492186Y-5146129D02*
X4463614Y-5160414D01*
X4392186Y-5160414D01*
X4363614Y-5146129D01*
X4349328Y-5117557D01*
X4349328Y-5088986D01*
X4363614Y-5060414D01*
X4392186Y-5046129D01*
X4463614Y-5046129D01*
X4492186Y-5031843D01*
X4635043Y-4960414D02*
X4635043Y-5260414D01*
X4635043Y-4974700D02*
X4663614Y-4960414D01*
X4720757Y-4960414D01*
X4749328Y-4974700D01*
X4763614Y-4988986D01*
X4777900Y-5017557D01*
X4777900Y-5103272D01*
X4763614Y-5131843D01*
X4749328Y-5146129D01*
X4720757Y-5160414D01*
X4663614Y-5160414D01*
X4635043Y-5146129D01*
X4906471Y-5131843D02*
X4920757Y-5146129D01*
X4906471Y-5160414D01*
X4892186Y-5146129D01*
X4906471Y-5131843D01*
X4906471Y-5160414D01*
X4906471Y-4974700D02*
X4920757Y-4988986D01*
X4906471Y-5003272D01*
X4892186Y-4988986D01*
X4906471Y-4974700D01*
X4906471Y-5003272D01*
X2522900Y-5634700D02*
X2562900Y-5674700D01*
X2562900Y-5634700D02*
X2522900Y-5674700D01*
X2906471Y-5490414D02*
X2935043Y-5490414D01*
X2963614Y-5504700D01*
X2977900Y-5518986D01*
X2992186Y-5547557D01*
X3006471Y-5604700D01*
X3006471Y-5676129D01*
X2992186Y-5733271D01*
X2977900Y-5761843D01*
X2963614Y-5776129D01*
X2935043Y-5790414D01*
X2906471Y-5790414D01*
X2877900Y-5776129D01*
X2863614Y-5761843D01*
X2849328Y-5733271D01*
X2835043Y-5676129D01*
X2835043Y-5604700D01*
X2849328Y-5547557D01*
X2863614Y-5518986D01*
X2877900Y-5504700D01*
X2906471Y-5490414D01*
X3135043Y-5761843D02*
X3149328Y-5776129D01*
X3135043Y-5790414D01*
X3120757Y-5776129D01*
X3135043Y-5761843D01*
X3135043Y-5790414D01*
X3406471Y-5590414D02*
X3406471Y-5790414D01*
X3335043Y-5476129D02*
X3263614Y-5690414D01*
X3449328Y-5690414D01*
X3620757Y-5490414D02*
X3649328Y-5490414D01*
X3677900Y-5504700D01*
X3692186Y-5518986D01*
X3706471Y-5547557D01*
X3720757Y-5604700D01*
X3720757Y-5676129D01*
X3706471Y-5733271D01*
X3692186Y-5761843D01*
X3677900Y-5776129D01*
X3649328Y-5790414D01*
X3620757Y-5790414D01*
X3592186Y-5776129D01*
X3577900Y-5761843D01*
X3563614Y-5733271D01*
X3549328Y-5676129D01*
X3549328Y-5604700D01*
X3563614Y-5547557D01*
X3577900Y-5518986D01*
X3592186Y-5504700D01*
X3620757Y-5490414D01*
X3906471Y-5490414D02*
X3935043Y-5490414D01*
X3963614Y-5504700D01*
X3977900Y-5518986D01*
X3992186Y-5547557D01*
X4006471Y-5604700D01*
X4006471Y-5676129D01*
X3992186Y-5733271D01*
X3977900Y-5761843D01*
X3963614Y-5776129D01*
X3935043Y-5790414D01*
X3906471Y-5790414D01*
X3877900Y-5776129D01*
X3863614Y-5761843D01*
X3849328Y-5733271D01*
X3835043Y-5676129D01*
X3835043Y-5604700D01*
X3849328Y-5547557D01*
X3863614Y-5518986D01*
X3877900Y-5504700D01*
X3906471Y-5490414D01*
X4135043Y-5790414D02*
X4135043Y-5590414D01*
X4135043Y-5618986D02*
X4149328Y-5604700D01*
X4177900Y-5590414D01*
X4220757Y-5590414D01*
X4249328Y-5604700D01*
X4263614Y-5633271D01*
X4263614Y-5790414D01*
X4263614Y-5633271D02*
X4277900Y-5604700D01*
X4306471Y-5590414D01*
X4349328Y-5590414D01*
X4377900Y-5604700D01*
X4392186Y-5633271D01*
X4392186Y-5790414D01*
X4535043Y-5790414D02*
X4535043Y-5590414D01*
X4535043Y-5618986D02*
X4549328Y-5604700D01*
X4577900Y-5590414D01*
X4620757Y-5590414D01*
X4649328Y-5604700D01*
X4663614Y-5633271D01*
X4663614Y-5790414D01*
X4663614Y-5633271D02*
X4677900Y-5604700D01*
X4706471Y-5590414D01*
X4749328Y-5590414D01*
X4777900Y-5604700D01*
X4792186Y-5633271D01*
X4792186Y-5790414D01*
X5377900Y-5476129D02*
X5120757Y-5861843D01*
X5763614Y-5490414D02*
X5792186Y-5490414D01*
X5820757Y-5504700D01*
X5835043Y-5518986D01*
X5849328Y-5547557D01*
X5863614Y-5604700D01*
X5863614Y-5676129D01*
X5849328Y-5733271D01*
X5835043Y-5761843D01*
X5820757Y-5776129D01*
X5792186Y-5790414D01*
X5763614Y-5790414D01*
X5735043Y-5776129D01*
X5720757Y-5761843D01*
X5706471Y-5733271D01*
X5692186Y-5676129D01*
X5692186Y-5604700D01*
X5706471Y-5547557D01*
X5720757Y-5518986D01*
X5735043Y-5504700D01*
X5763614Y-5490414D01*
X5992186Y-5761843D02*
X6006471Y-5776129D01*
X5992186Y-5790414D01*
X5977900Y-5776129D01*
X5992186Y-5761843D01*
X5992186Y-5790414D01*
X6192186Y-5490414D02*
X6220757Y-5490414D01*
X6249328Y-5504700D01*
X6263614Y-5518986D01*
X6277900Y-5547557D01*
X6292186Y-5604700D01*
X6292186Y-5676129D01*
X6277900Y-5733271D01*
X6263614Y-5761843D01*
X6249328Y-5776129D01*
X6220757Y-5790414D01*
X6192186Y-5790414D01*
X6163614Y-5776129D01*
X6149328Y-5761843D01*
X6135043Y-5733271D01*
X6120757Y-5676129D01*
X6120757Y-5604700D01*
X6135043Y-5547557D01*
X6149328Y-5518986D01*
X6163614Y-5504700D01*
X6192186Y-5490414D01*
X6577900Y-5790414D02*
X6406471Y-5790414D01*
X6492186Y-5790414D02*
X6492186Y-5490414D01*
X6463614Y-5533272D01*
X6435043Y-5561843D01*
X6406471Y-5576129D01*
X6849328Y-5490414D02*
X6706471Y-5490414D01*
X6692186Y-5633271D01*
X6706471Y-5618986D01*
X6735043Y-5604700D01*
X6806471Y-5604700D01*
X6835043Y-5618986D01*
X6849328Y-5633271D01*
X6863614Y-5661843D01*
X6863614Y-5733271D01*
X6849328Y-5761843D01*
X6835043Y-5776129D01*
X6806471Y-5790414D01*
X6735043Y-5790414D01*
X6706471Y-5776129D01*
X6692186Y-5761843D01*
X6963614Y-5490414D02*
X7163614Y-5490414D01*
X7035043Y-5790414D01*
X7263614Y-5490414D02*
X7263614Y-5547557D01*
X7377900Y-5490414D02*
X7377900Y-5547557D01*
X7820757Y-5904700D02*
X7806471Y-5890414D01*
X7777900Y-5847557D01*
X7763614Y-5818986D01*
X7749328Y-5776129D01*
X7735043Y-5704700D01*
X7735043Y-5647557D01*
X7749328Y-5576129D01*
X7763614Y-5533272D01*
X7777900Y-5504700D01*
X7806471Y-5461843D01*
X7820757Y-5447557D01*
X8077900Y-5490414D02*
X7935043Y-5490414D01*
X7920757Y-5633271D01*
X7935043Y-5618986D01*
X7963614Y-5604700D01*
X8035043Y-5604700D01*
X8063614Y-5618986D01*
X8077900Y-5633271D01*
X8092186Y-5661843D01*
X8092186Y-5733271D01*
X8077900Y-5761843D01*
X8063614Y-5776129D01*
X8035043Y-5790414D01*
X7963614Y-5790414D01*
X7935043Y-5776129D01*
X7920757Y-5761843D01*
X8277900Y-5490414D02*
X8306471Y-5490414D01*
X8335043Y-5504700D01*
X8349328Y-5518986D01*
X8363614Y-5547557D01*
X8377900Y-5604700D01*
X8377900Y-5676129D01*
X8363614Y-5733271D01*
X8349328Y-5761843D01*
X8335043Y-5776129D01*
X8306471Y-5790414D01*
X8277900Y-5790414D01*
X8249328Y-5776129D01*
X8235043Y-5761843D01*
X8220757Y-5733271D01*
X8206471Y-5676129D01*
X8206471Y-5604700D01*
X8220757Y-5547557D01*
X8235043Y-5518986D01*
X8249328Y-5504700D01*
X8277900Y-5490414D01*
X8735043Y-5790414D02*
X8735043Y-5490414D01*
X8863614Y-5790414D02*
X8863614Y-5633271D01*
X8849328Y-5604700D01*
X8820757Y-5590414D01*
X8777900Y-5590414D01*
X8749328Y-5604700D01*
X8735043Y-5618986D01*
X9049328Y-5790414D02*
X9020757Y-5776129D01*
X9006471Y-5761843D01*
X8992186Y-5733271D01*
X8992186Y-5647557D01*
X9006471Y-5618986D01*
X9020757Y-5604700D01*
X9049328Y-5590414D01*
X9092186Y-5590414D01*
X9120757Y-5604700D01*
X9135043Y-5618986D01*
X9149328Y-5647557D01*
X9149328Y-5733271D01*
X9135043Y-5761843D01*
X9120757Y-5776129D01*
X9092186Y-5790414D01*
X9049328Y-5790414D01*
X9320757Y-5790414D02*
X9292186Y-5776129D01*
X9277900Y-5747557D01*
X9277900Y-5490414D01*
X9549328Y-5776129D02*
X9520757Y-5790414D01*
X9463614Y-5790414D01*
X9435043Y-5776129D01*
X9420757Y-5747557D01*
X9420757Y-5633271D01*
X9435043Y-5604700D01*
X9463614Y-5590414D01*
X9520757Y-5590414D01*
X9549328Y-5604700D01*
X9563614Y-5633271D01*
X9563614Y-5661843D01*
X9420757Y-5690414D01*
X9677900Y-5776129D02*
X9706471Y-5790414D01*
X9763614Y-5790414D01*
X9792186Y-5776129D01*
X9806471Y-5747557D01*
X9806471Y-5733271D01*
X9792186Y-5704700D01*
X9763614Y-5690414D01*
X9720757Y-5690414D01*
X9692186Y-5676129D01*
X9677900Y-5647557D01*
X9677900Y-5633271D01*
X9692186Y-5604700D01*
X9720757Y-5590414D01*
X9763614Y-5590414D01*
X9792186Y-5604700D01*
X9906471Y-5904700D02*
X9920757Y-5890414D01*
X9949328Y-5847557D01*
X9963614Y-5818986D01*
X9977900Y-5776129D01*
X9992186Y-5704700D01*
X9992186Y-5647557D01*
X9977900Y-5576129D01*
X9963614Y-5533272D01*
X9949328Y-5504700D01*
X9920757Y-5461843D01*
X9906471Y-5447557D01*
X2562900Y-6050700D02*
G75*
G03*
X2562900Y-6050700I-25000J0D01*
G01*
X2906471Y-5886414D02*
X2935043Y-5886414D01*
X2963614Y-5900700D01*
X2977900Y-5914986D01*
X2992186Y-5943557D01*
X3006471Y-6000700D01*
X3006471Y-6072129D01*
X2992186Y-6129271D01*
X2977900Y-6157843D01*
X2963614Y-6172129D01*
X2935043Y-6186414D01*
X2906471Y-6186414D01*
X2877900Y-6172129D01*
X2863614Y-6157843D01*
X2849328Y-6129271D01*
X2835043Y-6072129D01*
X2835043Y-6000700D01*
X2849328Y-5943557D01*
X2863614Y-5914986D01*
X2877900Y-5900700D01*
X2906471Y-5886414D01*
X3135043Y-6157843D02*
X3149328Y-6172129D01*
X3135043Y-6186414D01*
X3120757Y-6172129D01*
X3135043Y-6157843D01*
X3135043Y-6186414D01*
X3420757Y-5886414D02*
X3277900Y-5886414D01*
X3263614Y-6029271D01*
X3277900Y-6014986D01*
X3306471Y-6000700D01*
X3377900Y-6000700D01*
X3406471Y-6014986D01*
X3420757Y-6029271D01*
X3435043Y-6057843D01*
X3435043Y-6129271D01*
X3420757Y-6157843D01*
X3406471Y-6172129D01*
X3377900Y-6186414D01*
X3306471Y-6186414D01*
X3277900Y-6172129D01*
X3263614Y-6157843D01*
X3620757Y-5886414D02*
X3649328Y-5886414D01*
X3677900Y-5900700D01*
X3692186Y-5914986D01*
X3706471Y-5943557D01*
X3720757Y-6000700D01*
X3720757Y-6072129D01*
X3706471Y-6129271D01*
X3692186Y-6157843D01*
X3677900Y-6172129D01*
X3649328Y-6186414D01*
X3620757Y-6186414D01*
X3592186Y-6172129D01*
X3577900Y-6157843D01*
X3563614Y-6129271D01*
X3549328Y-6072129D01*
X3549328Y-6000700D01*
X3563614Y-5943557D01*
X3577900Y-5914986D01*
X3592186Y-5900700D01*
X3620757Y-5886414D01*
X3906471Y-5886414D02*
X3935043Y-5886414D01*
X3963614Y-5900700D01*
X3977900Y-5914986D01*
X3992186Y-5943557D01*
X4006471Y-6000700D01*
X4006471Y-6072129D01*
X3992186Y-6129271D01*
X3977900Y-6157843D01*
X3963614Y-6172129D01*
X3935043Y-6186414D01*
X3906471Y-6186414D01*
X3877900Y-6172129D01*
X3863614Y-6157843D01*
X3849328Y-6129271D01*
X3835043Y-6072129D01*
X3835043Y-6000700D01*
X3849328Y-5943557D01*
X3863614Y-5914986D01*
X3877900Y-5900700D01*
X3906471Y-5886414D01*
X4135043Y-6186414D02*
X4135043Y-5986414D01*
X4135043Y-6014986D02*
X4149328Y-6000700D01*
X4177900Y-5986414D01*
X4220757Y-5986414D01*
X4249328Y-6000700D01*
X4263614Y-6029271D01*
X4263614Y-6186414D01*
X4263614Y-6029271D02*
X4277900Y-6000700D01*
X4306471Y-5986414D01*
X4349328Y-5986414D01*
X4377900Y-6000700D01*
X4392186Y-6029271D01*
X4392186Y-6186414D01*
X4535043Y-6186414D02*
X4535043Y-5986414D01*
X4535043Y-6014986D02*
X4549328Y-6000700D01*
X4577900Y-5986414D01*
X4620757Y-5986414D01*
X4649328Y-6000700D01*
X4663614Y-6029271D01*
X4663614Y-6186414D01*
X4663614Y-6029271D02*
X4677900Y-6000700D01*
X4706471Y-5986414D01*
X4749328Y-5986414D01*
X4777900Y-6000700D01*
X4792186Y-6029271D01*
X4792186Y-6186414D01*
X5377900Y-5872129D02*
X5120757Y-6257843D01*
X5763614Y-5886414D02*
X5792186Y-5886414D01*
X5820757Y-5900700D01*
X5835043Y-5914986D01*
X5849328Y-5943557D01*
X5863614Y-6000700D01*
X5863614Y-6072129D01*
X5849328Y-6129271D01*
X5835043Y-6157843D01*
X5820757Y-6172129D01*
X5792186Y-6186414D01*
X5763614Y-6186414D01*
X5735043Y-6172129D01*
X5720757Y-6157843D01*
X5706471Y-6129271D01*
X5692186Y-6072129D01*
X5692186Y-6000700D01*
X5706471Y-5943557D01*
X5720757Y-5914986D01*
X5735043Y-5900700D01*
X5763614Y-5886414D01*
X5992186Y-6157843D02*
X6006471Y-6172129D01*
X5992186Y-6186414D01*
X5977900Y-6172129D01*
X5992186Y-6157843D01*
X5992186Y-6186414D01*
X6192186Y-5886414D02*
X6220757Y-5886414D01*
X6249328Y-5900700D01*
X6263614Y-5914986D01*
X6277900Y-5943557D01*
X6292186Y-6000700D01*
X6292186Y-6072129D01*
X6277900Y-6129271D01*
X6263614Y-6157843D01*
X6249328Y-6172129D01*
X6220757Y-6186414D01*
X6192186Y-6186414D01*
X6163614Y-6172129D01*
X6149328Y-6157843D01*
X6135043Y-6129271D01*
X6120757Y-6072129D01*
X6120757Y-6000700D01*
X6135043Y-5943557D01*
X6149328Y-5914986D01*
X6163614Y-5900700D01*
X6192186Y-5886414D01*
X6577900Y-6186414D02*
X6406471Y-6186414D01*
X6492186Y-6186414D02*
X6492186Y-5886414D01*
X6463614Y-5929271D01*
X6435043Y-5957843D01*
X6406471Y-5972129D01*
X6720757Y-6186414D02*
X6777900Y-6186414D01*
X6806471Y-6172129D01*
X6820757Y-6157843D01*
X6849328Y-6114986D01*
X6863614Y-6057843D01*
X6863614Y-5943557D01*
X6849328Y-5914986D01*
X6835043Y-5900700D01*
X6806471Y-5886414D01*
X6749328Y-5886414D01*
X6720757Y-5900700D01*
X6706471Y-5914986D01*
X6692186Y-5943557D01*
X6692186Y-6014986D01*
X6706471Y-6043557D01*
X6720757Y-6057843D01*
X6749328Y-6072129D01*
X6806471Y-6072129D01*
X6835043Y-6057843D01*
X6849328Y-6043557D01*
X6863614Y-6014986D01*
X6963614Y-5886414D02*
X7163614Y-5886414D01*
X7035043Y-6186414D01*
X7263614Y-5886414D02*
X7263614Y-5943557D01*
X7377900Y-5886414D02*
X7377900Y-5943557D01*
X7820757Y-6300700D02*
X7806471Y-6286414D01*
X7777900Y-6243557D01*
X7763614Y-6214986D01*
X7749328Y-6172129D01*
X7735043Y-6100700D01*
X7735043Y-6043557D01*
X7749328Y-5972129D01*
X7763614Y-5929271D01*
X7777900Y-5900700D01*
X7806471Y-5857843D01*
X7820757Y-5843557D01*
X8092186Y-6186414D02*
X7920757Y-6186414D01*
X8006471Y-6186414D02*
X8006471Y-5886414D01*
X7977900Y-5929271D01*
X7949328Y-5957843D01*
X7920757Y-5972129D01*
X8349328Y-5886414D02*
X8292186Y-5886414D01*
X8263614Y-5900700D01*
X8249328Y-5914986D01*
X8220757Y-5957843D01*
X8206471Y-6014986D01*
X8206471Y-6129271D01*
X8220757Y-6157843D01*
X8235043Y-6172129D01*
X8263614Y-6186414D01*
X8320757Y-6186414D01*
X8349328Y-6172129D01*
X8363614Y-6157843D01*
X8377900Y-6129271D01*
X8377900Y-6057843D01*
X8363614Y-6029271D01*
X8349328Y-6014986D01*
X8320757Y-6000700D01*
X8263614Y-6000700D01*
X8235043Y-6014986D01*
X8220757Y-6029271D01*
X8206471Y-6057843D01*
X8735043Y-6186414D02*
X8735043Y-5886414D01*
X8863614Y-6186414D02*
X8863614Y-6029271D01*
X8849328Y-6000700D01*
X8820757Y-5986414D01*
X8777900Y-5986414D01*
X8749328Y-6000700D01*
X8735043Y-6014986D01*
X9049328Y-6186414D02*
X9020757Y-6172129D01*
X9006471Y-6157843D01*
X8992186Y-6129271D01*
X8992186Y-6043557D01*
X9006471Y-6014986D01*
X9020757Y-6000700D01*
X9049328Y-5986414D01*
X9092186Y-5986414D01*
X9120757Y-6000700D01*
X9135043Y-6014986D01*
X9149328Y-6043557D01*
X9149328Y-6129271D01*
X9135043Y-6157843D01*
X9120757Y-6172129D01*
X9092186Y-6186414D01*
X9049328Y-6186414D01*
X9320757Y-6186414D02*
X9292186Y-6172129D01*
X9277900Y-6143557D01*
X9277900Y-5886414D01*
X9549328Y-6172129D02*
X9520757Y-6186414D01*
X9463614Y-6186414D01*
X9435043Y-6172129D01*
X9420757Y-6143557D01*
X9420757Y-6029271D01*
X9435043Y-6000700D01*
X9463614Y-5986414D01*
X9520757Y-5986414D01*
X9549328Y-6000700D01*
X9563614Y-6029271D01*
X9563614Y-6057843D01*
X9420757Y-6086414D01*
X9677900Y-6172129D02*
X9706471Y-6186414D01*
X9763614Y-6186414D01*
X9792186Y-6172129D01*
X9806471Y-6143557D01*
X9806471Y-6129271D01*
X9792186Y-6100700D01*
X9763614Y-6086414D01*
X9720757Y-6086414D01*
X9692186Y-6072129D01*
X9677900Y-6043557D01*
X9677900Y-6029271D01*
X9692186Y-6000700D01*
X9720757Y-5986414D01*
X9763614Y-5986414D01*
X9792186Y-6000700D01*
X9906471Y-6300700D02*
X9920757Y-6286414D01*
X9949328Y-6243557D01*
X9963614Y-6214986D01*
X9977900Y-6172129D01*
X9992186Y-6100700D01*
X9992186Y-6043557D01*
X9977900Y-5972129D01*
X9963614Y-5929271D01*
X9949328Y-5900700D01*
X9920757Y-5857843D01*
X9906471Y-5843557D01*
X2532900Y-6416700D02*
X2532900Y-6476700D01*
X2502900Y-6446700D02*
X2562900Y-6446700D01*
X2906471Y-6282414D02*
X2935043Y-6282414D01*
X2963614Y-6296700D01*
X2977900Y-6310986D01*
X2992186Y-6339557D01*
X3006471Y-6396700D01*
X3006471Y-6468129D01*
X2992186Y-6525271D01*
X2977900Y-6553843D01*
X2963614Y-6568129D01*
X2935043Y-6582414D01*
X2906471Y-6582414D01*
X2877900Y-6568129D01*
X2863614Y-6553843D01*
X2849328Y-6525271D01*
X2835043Y-6468129D01*
X2835043Y-6396700D01*
X2849328Y-6339557D01*
X2863614Y-6310986D01*
X2877900Y-6296700D01*
X2906471Y-6282414D01*
X3135043Y-6553843D02*
X3149328Y-6568129D01*
X3135043Y-6582414D01*
X3120757Y-6568129D01*
X3135043Y-6553843D01*
X3135043Y-6582414D01*
X3406471Y-6282414D02*
X3349328Y-6282414D01*
X3320757Y-6296700D01*
X3306471Y-6310986D01*
X3277900Y-6353843D01*
X3263614Y-6410986D01*
X3263614Y-6525271D01*
X3277900Y-6553843D01*
X3292186Y-6568129D01*
X3320757Y-6582414D01*
X3377900Y-6582414D01*
X3406471Y-6568129D01*
X3420757Y-6553843D01*
X3435043Y-6525271D01*
X3435043Y-6453843D01*
X3420757Y-6425271D01*
X3406471Y-6410986D01*
X3377900Y-6396700D01*
X3320757Y-6396700D01*
X3292186Y-6410986D01*
X3277900Y-6425271D01*
X3263614Y-6453843D01*
X3620757Y-6282414D02*
X3649328Y-6282414D01*
X3677900Y-6296700D01*
X3692186Y-6310986D01*
X3706471Y-6339557D01*
X3720757Y-6396700D01*
X3720757Y-6468129D01*
X3706471Y-6525271D01*
X3692186Y-6553843D01*
X3677900Y-6568129D01*
X3649328Y-6582414D01*
X3620757Y-6582414D01*
X3592186Y-6568129D01*
X3577900Y-6553843D01*
X3563614Y-6525271D01*
X3549328Y-6468129D01*
X3549328Y-6396700D01*
X3563614Y-6339557D01*
X3577900Y-6310986D01*
X3592186Y-6296700D01*
X3620757Y-6282414D01*
X3906471Y-6282414D02*
X3935043Y-6282414D01*
X3963614Y-6296700D01*
X3977900Y-6310986D01*
X3992186Y-6339557D01*
X4006471Y-6396700D01*
X4006471Y-6468129D01*
X3992186Y-6525271D01*
X3977900Y-6553843D01*
X3963614Y-6568129D01*
X3935043Y-6582414D01*
X3906471Y-6582414D01*
X3877900Y-6568129D01*
X3863614Y-6553843D01*
X3849328Y-6525271D01*
X3835043Y-6468129D01*
X3835043Y-6396700D01*
X3849328Y-6339557D01*
X3863614Y-6310986D01*
X3877900Y-6296700D01*
X3906471Y-6282414D01*
X4135043Y-6582414D02*
X4135043Y-6382414D01*
X4135043Y-6410986D02*
X4149328Y-6396700D01*
X4177900Y-6382414D01*
X4220757Y-6382414D01*
X4249328Y-6396700D01*
X4263614Y-6425271D01*
X4263614Y-6582414D01*
X4263614Y-6425271D02*
X4277900Y-6396700D01*
X4306471Y-6382414D01*
X4349328Y-6382414D01*
X4377900Y-6396700D01*
X4392186Y-6425271D01*
X4392186Y-6582414D01*
X4535043Y-6582414D02*
X4535043Y-6382414D01*
X4535043Y-6410986D02*
X4549328Y-6396700D01*
X4577900Y-6382414D01*
X4620757Y-6382414D01*
X4649328Y-6396700D01*
X4663614Y-6425271D01*
X4663614Y-6582414D01*
X4663614Y-6425271D02*
X4677900Y-6396700D01*
X4706471Y-6382414D01*
X4749328Y-6382414D01*
X4777900Y-6396700D01*
X4792186Y-6425271D01*
X4792186Y-6582414D01*
X5377900Y-6268129D02*
X5120757Y-6653843D01*
X5763614Y-6282414D02*
X5792186Y-6282414D01*
X5820757Y-6296700D01*
X5835043Y-6310986D01*
X5849328Y-6339557D01*
X5863614Y-6396700D01*
X5863614Y-6468129D01*
X5849328Y-6525271D01*
X5835043Y-6553843D01*
X5820757Y-6568129D01*
X5792186Y-6582414D01*
X5763614Y-6582414D01*
X5735043Y-6568129D01*
X5720757Y-6553843D01*
X5706471Y-6525271D01*
X5692186Y-6468129D01*
X5692186Y-6396700D01*
X5706471Y-6339557D01*
X5720757Y-6310986D01*
X5735043Y-6296700D01*
X5763614Y-6282414D01*
X5992186Y-6553843D02*
X6006471Y-6568129D01*
X5992186Y-6582414D01*
X5977900Y-6568129D01*
X5992186Y-6553843D01*
X5992186Y-6582414D01*
X6192186Y-6282414D02*
X6220757Y-6282414D01*
X6249328Y-6296700D01*
X6263614Y-6310986D01*
X6277900Y-6339557D01*
X6292186Y-6396700D01*
X6292186Y-6468129D01*
X6277900Y-6525271D01*
X6263614Y-6553843D01*
X6249328Y-6568129D01*
X6220757Y-6582414D01*
X6192186Y-6582414D01*
X6163614Y-6568129D01*
X6149328Y-6553843D01*
X6135043Y-6525271D01*
X6120757Y-6468129D01*
X6120757Y-6396700D01*
X6135043Y-6339557D01*
X6149328Y-6310986D01*
X6163614Y-6296700D01*
X6192186Y-6282414D01*
X6406471Y-6310986D02*
X6420757Y-6296700D01*
X6449328Y-6282414D01*
X6520757Y-6282414D01*
X6549328Y-6296700D01*
X6563614Y-6310986D01*
X6577900Y-6339557D01*
X6577900Y-6368129D01*
X6563614Y-6410986D01*
X6392186Y-6582414D01*
X6577900Y-6582414D01*
X6677900Y-6282414D02*
X6863614Y-6282414D01*
X6763614Y-6396700D01*
X6806471Y-6396700D01*
X6835043Y-6410986D01*
X6849328Y-6425271D01*
X6863614Y-6453843D01*
X6863614Y-6525271D01*
X6849328Y-6553843D01*
X6835043Y-6568129D01*
X6806471Y-6582414D01*
X6720757Y-6582414D01*
X6692186Y-6568129D01*
X6677900Y-6553843D01*
X7120757Y-6282414D02*
X7063614Y-6282414D01*
X7035043Y-6296700D01*
X7020757Y-6310986D01*
X6992186Y-6353843D01*
X6977900Y-6410986D01*
X6977900Y-6525271D01*
X6992186Y-6553843D01*
X7006471Y-6568129D01*
X7035043Y-6582414D01*
X7092186Y-6582414D01*
X7120757Y-6568129D01*
X7135043Y-6553843D01*
X7149328Y-6525271D01*
X7149328Y-6453843D01*
X7135043Y-6425271D01*
X7120757Y-6410986D01*
X7092186Y-6396700D01*
X7035043Y-6396700D01*
X7006471Y-6410986D01*
X6992186Y-6425271D01*
X6977900Y-6453843D01*
X7263614Y-6282414D02*
X7263614Y-6339557D01*
X7377900Y-6282414D02*
X7377900Y-6339557D01*
X7820757Y-6696700D02*
X7806471Y-6682414D01*
X7777900Y-6639557D01*
X7763614Y-6610986D01*
X7749328Y-6568129D01*
X7735043Y-6496700D01*
X7735043Y-6439557D01*
X7749328Y-6368129D01*
X7763614Y-6325271D01*
X7777900Y-6296700D01*
X7806471Y-6253843D01*
X7820757Y-6239557D01*
X7992186Y-6282414D02*
X8020757Y-6282414D01*
X8049328Y-6296700D01*
X8063614Y-6310986D01*
X8077900Y-6339557D01*
X8092186Y-6396700D01*
X8092186Y-6468129D01*
X8077900Y-6525271D01*
X8063614Y-6553843D01*
X8049328Y-6568129D01*
X8020757Y-6582414D01*
X7992186Y-6582414D01*
X7963614Y-6568129D01*
X7949328Y-6553843D01*
X7935043Y-6525271D01*
X7920757Y-6468129D01*
X7920757Y-6396700D01*
X7935043Y-6339557D01*
X7949328Y-6310986D01*
X7963614Y-6296700D01*
X7992186Y-6282414D01*
X8449328Y-6582414D02*
X8449328Y-6282414D01*
X8577900Y-6582414D02*
X8577900Y-6425271D01*
X8563614Y-6396700D01*
X8535043Y-6382414D01*
X8492186Y-6382414D01*
X8463614Y-6396700D01*
X8449328Y-6410986D01*
X8763614Y-6582414D02*
X8735043Y-6568129D01*
X8720757Y-6553843D01*
X8706471Y-6525271D01*
X8706471Y-6439557D01*
X8720757Y-6410986D01*
X8735043Y-6396700D01*
X8763614Y-6382414D01*
X8806471Y-6382414D01*
X8835043Y-6396700D01*
X8849328Y-6410986D01*
X8863614Y-6439557D01*
X8863614Y-6525271D01*
X8849328Y-6553843D01*
X8835043Y-6568129D01*
X8806471Y-6582414D01*
X8763614Y-6582414D01*
X9035043Y-6582414D02*
X9006471Y-6568129D01*
X8992186Y-6539557D01*
X8992186Y-6282414D01*
X9263614Y-6568129D02*
X9235043Y-6582414D01*
X9177900Y-6582414D01*
X9149328Y-6568129D01*
X9135043Y-6539557D01*
X9135043Y-6425271D01*
X9149328Y-6396700D01*
X9177900Y-6382414D01*
X9235043Y-6382414D01*
X9263614Y-6396700D01*
X9277900Y-6425271D01*
X9277900Y-6453843D01*
X9135043Y-6482414D01*
X9392186Y-6568129D02*
X9420757Y-6582414D01*
X9477900Y-6582414D01*
X9506471Y-6568129D01*
X9520757Y-6539557D01*
X9520757Y-6525271D01*
X9506471Y-6496700D01*
X9477900Y-6482414D01*
X9435043Y-6482414D01*
X9406471Y-6468129D01*
X9392186Y-6439557D01*
X9392186Y-6425271D01*
X9406471Y-6396700D01*
X9435043Y-6382414D01*
X9477900Y-6382414D01*
X9506471Y-6396700D01*
X9877900Y-6468129D02*
X10106471Y-6468129D01*
X9992186Y-6582414D02*
X9992186Y-6353843D01*
X10606471Y-6382414D02*
X10606471Y-6582414D01*
X10535043Y-6268129D02*
X10463614Y-6482414D01*
X10649328Y-6482414D01*
X10977900Y-6568129D02*
X11006471Y-6582414D01*
X11063614Y-6582414D01*
X11092186Y-6568129D01*
X11106471Y-6539557D01*
X11106471Y-6525271D01*
X11092186Y-6496700D01*
X11063614Y-6482414D01*
X11020757Y-6482414D01*
X10992186Y-6468129D01*
X10977900Y-6439557D01*
X10977900Y-6425271D01*
X10992186Y-6396700D01*
X11020757Y-6382414D01*
X11063614Y-6382414D01*
X11092186Y-6396700D01*
X11277900Y-6582414D02*
X11249328Y-6568129D01*
X11235043Y-6539557D01*
X11235043Y-6282414D01*
X11435043Y-6582414D02*
X11406471Y-6568129D01*
X11392186Y-6553843D01*
X11377900Y-6525271D01*
X11377900Y-6439557D01*
X11392186Y-6410986D01*
X11406471Y-6396700D01*
X11435043Y-6382414D01*
X11477900Y-6382414D01*
X11506471Y-6396700D01*
X11520757Y-6410986D01*
X11535043Y-6439557D01*
X11535043Y-6525271D01*
X11520757Y-6553843D01*
X11506471Y-6568129D01*
X11477900Y-6582414D01*
X11435043Y-6582414D01*
X11620757Y-6382414D02*
X11735043Y-6382414D01*
X11663614Y-6282414D02*
X11663614Y-6539557D01*
X11677900Y-6568129D01*
X11706471Y-6582414D01*
X11735043Y-6582414D01*
X11820757Y-6568129D02*
X11849328Y-6582414D01*
X11906471Y-6582414D01*
X11935043Y-6568129D01*
X11949328Y-6539557D01*
X11949328Y-6525271D01*
X11935043Y-6496700D01*
X11906471Y-6482414D01*
X11863614Y-6482414D01*
X11835043Y-6468129D01*
X11820757Y-6439557D01*
X11820757Y-6425271D01*
X11835043Y-6396700D01*
X11863614Y-6382414D01*
X11906471Y-6382414D01*
X11935043Y-6396700D01*
X12049328Y-6696700D02*
X12063614Y-6682414D01*
X12092186Y-6639557D01*
X12106471Y-6610986D01*
X12120757Y-6568129D01*
X12135043Y-6496700D01*
X12135043Y-6439557D01*
X12120757Y-6368129D01*
X12106471Y-6325271D01*
X12092186Y-6296700D01*
X12063614Y-6253843D01*
X12049328Y-6239557D01*
X2551741Y-6869641D02*
X2551741Y-6815759D01*
X2497859Y-6815759D01*
X2497859Y-6869641D01*
X2551741Y-6869641D01*
X2906471Y-6678414D02*
X2935043Y-6678414D01*
X2963614Y-6692700D01*
X2977900Y-6706986D01*
X2992186Y-6735557D01*
X3006471Y-6792700D01*
X3006471Y-6864129D01*
X2992186Y-6921271D01*
X2977900Y-6949843D01*
X2963614Y-6964129D01*
X2935043Y-6978414D01*
X2906471Y-6978414D01*
X2877900Y-6964129D01*
X2863614Y-6949843D01*
X2849328Y-6921271D01*
X2835043Y-6864129D01*
X2835043Y-6792700D01*
X2849328Y-6735557D01*
X2863614Y-6706986D01*
X2877900Y-6692700D01*
X2906471Y-6678414D01*
X3135043Y-6949843D02*
X3149328Y-6964129D01*
X3135043Y-6978414D01*
X3120757Y-6964129D01*
X3135043Y-6949843D01*
X3135043Y-6978414D01*
X3249328Y-6678414D02*
X3449328Y-6678414D01*
X3320757Y-6978414D01*
X3692186Y-6678414D02*
X3635043Y-6678414D01*
X3606471Y-6692700D01*
X3592186Y-6706986D01*
X3563614Y-6749843D01*
X3549328Y-6806986D01*
X3549328Y-6921271D01*
X3563614Y-6949843D01*
X3577900Y-6964129D01*
X3606471Y-6978414D01*
X3663614Y-6978414D01*
X3692186Y-6964129D01*
X3706471Y-6949843D01*
X3720757Y-6921271D01*
X3720757Y-6849843D01*
X3706471Y-6821271D01*
X3692186Y-6806986D01*
X3663614Y-6792700D01*
X3606471Y-6792700D01*
X3577900Y-6806986D01*
X3563614Y-6821271D01*
X3549328Y-6849843D01*
X3835043Y-6706986D02*
X3849328Y-6692700D01*
X3877900Y-6678414D01*
X3949328Y-6678414D01*
X3977900Y-6692700D01*
X3992186Y-6706986D01*
X4006471Y-6735557D01*
X4006471Y-6764129D01*
X3992186Y-6806986D01*
X3820757Y-6978414D01*
X4006471Y-6978414D01*
X4135043Y-6978414D02*
X4135043Y-6778414D01*
X4135043Y-6806986D02*
X4149328Y-6792700D01*
X4177900Y-6778414D01*
X4220757Y-6778414D01*
X4249328Y-6792700D01*
X4263614Y-6821271D01*
X4263614Y-6978414D01*
X4263614Y-6821271D02*
X4277900Y-6792700D01*
X4306471Y-6778414D01*
X4349328Y-6778414D01*
X4377900Y-6792700D01*
X4392186Y-6821271D01*
X4392186Y-6978414D01*
X4535043Y-6978414D02*
X4535043Y-6778414D01*
X4535043Y-6806986D02*
X4549328Y-6792700D01*
X4577900Y-6778414D01*
X4620757Y-6778414D01*
X4649328Y-6792700D01*
X4663614Y-6821271D01*
X4663614Y-6978414D01*
X4663614Y-6821271D02*
X4677900Y-6792700D01*
X4706471Y-6778414D01*
X4749328Y-6778414D01*
X4777900Y-6792700D01*
X4792186Y-6821271D01*
X4792186Y-6978414D01*
X5377900Y-6664129D02*
X5120757Y-7049843D01*
X5763614Y-6678414D02*
X5792186Y-6678414D01*
X5820757Y-6692700D01*
X5835043Y-6706986D01*
X5849328Y-6735557D01*
X5863614Y-6792700D01*
X5863614Y-6864129D01*
X5849328Y-6921271D01*
X5835043Y-6949843D01*
X5820757Y-6964129D01*
X5792186Y-6978414D01*
X5763614Y-6978414D01*
X5735043Y-6964129D01*
X5720757Y-6949843D01*
X5706471Y-6921271D01*
X5692186Y-6864129D01*
X5692186Y-6792700D01*
X5706471Y-6735557D01*
X5720757Y-6706986D01*
X5735043Y-6692700D01*
X5763614Y-6678414D01*
X5992186Y-6949843D02*
X6006471Y-6964129D01*
X5992186Y-6978414D01*
X5977900Y-6964129D01*
X5992186Y-6949843D01*
X5992186Y-6978414D01*
X6192186Y-6678414D02*
X6220757Y-6678414D01*
X6249328Y-6692700D01*
X6263614Y-6706986D01*
X6277900Y-6735557D01*
X6292186Y-6792700D01*
X6292186Y-6864129D01*
X6277900Y-6921271D01*
X6263614Y-6949843D01*
X6249328Y-6964129D01*
X6220757Y-6978414D01*
X6192186Y-6978414D01*
X6163614Y-6964129D01*
X6149328Y-6949843D01*
X6135043Y-6921271D01*
X6120757Y-6864129D01*
X6120757Y-6792700D01*
X6135043Y-6735557D01*
X6149328Y-6706986D01*
X6163614Y-6692700D01*
X6192186Y-6678414D01*
X6392186Y-6678414D02*
X6577900Y-6678414D01*
X6477900Y-6792700D01*
X6520757Y-6792700D01*
X6549328Y-6806986D01*
X6563614Y-6821271D01*
X6577900Y-6849843D01*
X6577900Y-6921271D01*
X6563614Y-6949843D01*
X6549328Y-6964129D01*
X6520757Y-6978414D01*
X6435043Y-6978414D01*
X6406471Y-6964129D01*
X6392186Y-6949843D01*
X6763614Y-6678414D02*
X6792186Y-6678414D01*
X6820757Y-6692700D01*
X6835043Y-6706986D01*
X6849328Y-6735557D01*
X6863614Y-6792700D01*
X6863614Y-6864129D01*
X6849328Y-6921271D01*
X6835043Y-6949843D01*
X6820757Y-6964129D01*
X6792186Y-6978414D01*
X6763614Y-6978414D01*
X6735043Y-6964129D01*
X6720757Y-6949843D01*
X6706471Y-6921271D01*
X6692186Y-6864129D01*
X6692186Y-6792700D01*
X6706471Y-6735557D01*
X6720757Y-6706986D01*
X6735043Y-6692700D01*
X6763614Y-6678414D01*
X7049328Y-6678414D02*
X7077900Y-6678414D01*
X7106471Y-6692700D01*
X7120757Y-6706986D01*
X7135043Y-6735557D01*
X7149328Y-6792700D01*
X7149328Y-6864129D01*
X7135043Y-6921271D01*
X7120757Y-6949843D01*
X7106471Y-6964129D01*
X7077900Y-6978414D01*
X7049328Y-6978414D01*
X7020757Y-6964129D01*
X7006471Y-6949843D01*
X6992186Y-6921271D01*
X6977900Y-6864129D01*
X6977900Y-6792700D01*
X6992186Y-6735557D01*
X7006471Y-6706986D01*
X7020757Y-6692700D01*
X7049328Y-6678414D01*
X7263614Y-6678414D02*
X7263614Y-6735557D01*
X7377900Y-6678414D02*
X7377900Y-6735557D01*
X7820757Y-7092700D02*
X7806471Y-7078414D01*
X7777900Y-7035557D01*
X7763614Y-7006986D01*
X7749328Y-6964129D01*
X7735043Y-6892700D01*
X7735043Y-6835557D01*
X7749328Y-6764129D01*
X7763614Y-6721271D01*
X7777900Y-6692700D01*
X7806471Y-6649843D01*
X7820757Y-6635557D01*
X8092186Y-6978414D02*
X7920757Y-6978414D01*
X8006471Y-6978414D02*
X8006471Y-6678414D01*
X7977900Y-6721271D01*
X7949328Y-6749843D01*
X7920757Y-6764129D01*
X8206471Y-6706986D02*
X8220757Y-6692700D01*
X8249328Y-6678414D01*
X8320757Y-6678414D01*
X8349328Y-6692700D01*
X8363614Y-6706986D01*
X8377900Y-6735557D01*
X8377900Y-6764129D01*
X8363614Y-6806986D01*
X8192186Y-6978414D01*
X8377900Y-6978414D01*
X8735043Y-6978414D02*
X8735043Y-6678414D01*
X8863614Y-6978414D02*
X8863614Y-6821271D01*
X8849328Y-6792700D01*
X8820757Y-6778414D01*
X8777900Y-6778414D01*
X8749328Y-6792700D01*
X8735043Y-6806986D01*
X9049328Y-6978414D02*
X9020757Y-6964129D01*
X9006471Y-6949843D01*
X8992186Y-6921271D01*
X8992186Y-6835557D01*
X9006471Y-6806986D01*
X9020757Y-6792700D01*
X9049328Y-6778414D01*
X9092186Y-6778414D01*
X9120757Y-6792700D01*
X9135043Y-6806986D01*
X9149328Y-6835557D01*
X9149328Y-6921271D01*
X9135043Y-6949843D01*
X9120757Y-6964129D01*
X9092186Y-6978414D01*
X9049328Y-6978414D01*
X9320757Y-6978414D02*
X9292186Y-6964129D01*
X9277900Y-6935557D01*
X9277900Y-6678414D01*
X9549328Y-6964129D02*
X9520757Y-6978414D01*
X9463614Y-6978414D01*
X9435043Y-6964129D01*
X9420757Y-6935557D01*
X9420757Y-6821271D01*
X9435043Y-6792700D01*
X9463614Y-6778414D01*
X9520757Y-6778414D01*
X9549328Y-6792700D01*
X9563614Y-6821271D01*
X9563614Y-6849843D01*
X9420757Y-6878414D01*
X9677900Y-6964129D02*
X9706471Y-6978414D01*
X9763614Y-6978414D01*
X9792186Y-6964129D01*
X9806471Y-6935557D01*
X9806471Y-6921271D01*
X9792186Y-6892700D01*
X9763614Y-6878414D01*
X9720757Y-6878414D01*
X9692186Y-6864129D01*
X9677900Y-6835557D01*
X9677900Y-6821271D01*
X9692186Y-6792700D01*
X9720757Y-6778414D01*
X9763614Y-6778414D01*
X9792186Y-6792700D01*
X9906471Y-7092700D02*
X9920757Y-7078414D01*
X9949328Y-7035557D01*
X9963614Y-7006986D01*
X9977900Y-6964129D01*
X9992186Y-6892700D01*
X9992186Y-6835557D01*
X9977900Y-6764129D01*
X9963614Y-6721271D01*
X9949328Y-6692700D01*
X9920757Y-6649843D01*
X9906471Y-6635557D01*
X2512900Y-7288700D02*
X2562900Y-7238700D01*
X2512900Y-7188700D01*
X2462900Y-7238700D01*
X2512900Y-7288700D01*
X3006471Y-7374414D02*
X2835043Y-7374414D01*
X2920757Y-7374414D02*
X2920757Y-7074414D01*
X2892186Y-7117271D01*
X2863614Y-7145843D01*
X2835043Y-7160129D01*
X3135043Y-7345843D02*
X3149328Y-7360129D01*
X3135043Y-7374414D01*
X3120757Y-7360129D01*
X3135043Y-7345843D01*
X3135043Y-7374414D01*
X3335043Y-7074414D02*
X3363614Y-7074414D01*
X3392186Y-7088700D01*
X3406471Y-7102986D01*
X3420757Y-7131557D01*
X3435043Y-7188700D01*
X3435043Y-7260129D01*
X3420757Y-7317271D01*
X3406471Y-7345843D01*
X3392186Y-7360129D01*
X3363614Y-7374414D01*
X3335043Y-7374414D01*
X3306471Y-7360129D01*
X3292186Y-7345843D01*
X3277900Y-7317271D01*
X3263614Y-7260129D01*
X3263614Y-7188700D01*
X3277900Y-7131557D01*
X3292186Y-7102986D01*
X3306471Y-7088700D01*
X3335043Y-7074414D01*
X3620757Y-7074414D02*
X3649328Y-7074414D01*
X3677900Y-7088700D01*
X3692186Y-7102986D01*
X3706471Y-7131557D01*
X3720757Y-7188700D01*
X3720757Y-7260129D01*
X3706471Y-7317271D01*
X3692186Y-7345843D01*
X3677900Y-7360129D01*
X3649328Y-7374414D01*
X3620757Y-7374414D01*
X3592186Y-7360129D01*
X3577900Y-7345843D01*
X3563614Y-7317271D01*
X3549328Y-7260129D01*
X3549328Y-7188700D01*
X3563614Y-7131557D01*
X3577900Y-7102986D01*
X3592186Y-7088700D01*
X3620757Y-7074414D01*
X3906471Y-7074414D02*
X3935043Y-7074414D01*
X3963614Y-7088700D01*
X3977900Y-7102986D01*
X3992186Y-7131557D01*
X4006471Y-7188700D01*
X4006471Y-7260129D01*
X3992186Y-7317271D01*
X3977900Y-7345843D01*
X3963614Y-7360129D01*
X3935043Y-7374414D01*
X3906471Y-7374414D01*
X3877900Y-7360129D01*
X3863614Y-7345843D01*
X3849328Y-7317271D01*
X3835043Y-7260129D01*
X3835043Y-7188700D01*
X3849328Y-7131557D01*
X3863614Y-7102986D01*
X3877900Y-7088700D01*
X3906471Y-7074414D01*
X4135043Y-7374414D02*
X4135043Y-7174414D01*
X4135043Y-7202986D02*
X4149328Y-7188700D01*
X4177900Y-7174414D01*
X4220757Y-7174414D01*
X4249328Y-7188700D01*
X4263614Y-7217271D01*
X4263614Y-7374414D01*
X4263614Y-7217271D02*
X4277900Y-7188700D01*
X4306471Y-7174414D01*
X4349328Y-7174414D01*
X4377900Y-7188700D01*
X4392186Y-7217271D01*
X4392186Y-7374414D01*
X4535043Y-7374414D02*
X4535043Y-7174414D01*
X4535043Y-7202986D02*
X4549328Y-7188700D01*
X4577900Y-7174414D01*
X4620757Y-7174414D01*
X4649328Y-7188700D01*
X4663614Y-7217271D01*
X4663614Y-7374414D01*
X4663614Y-7217271D02*
X4677900Y-7188700D01*
X4706471Y-7174414D01*
X4749328Y-7174414D01*
X4777900Y-7188700D01*
X4792186Y-7217271D01*
X4792186Y-7374414D01*
X5377900Y-7060129D02*
X5120757Y-7445843D01*
X5763614Y-7074414D02*
X5792186Y-7074414D01*
X5820757Y-7088700D01*
X5835043Y-7102986D01*
X5849328Y-7131557D01*
X5863614Y-7188700D01*
X5863614Y-7260129D01*
X5849328Y-7317271D01*
X5835043Y-7345843D01*
X5820757Y-7360129D01*
X5792186Y-7374414D01*
X5763614Y-7374414D01*
X5735043Y-7360129D01*
X5720757Y-7345843D01*
X5706471Y-7317271D01*
X5692186Y-7260129D01*
X5692186Y-7188700D01*
X5706471Y-7131557D01*
X5720757Y-7102986D01*
X5735043Y-7088700D01*
X5763614Y-7074414D01*
X5992186Y-7345843D02*
X6006471Y-7360129D01*
X5992186Y-7374414D01*
X5977900Y-7360129D01*
X5992186Y-7345843D01*
X5992186Y-7374414D01*
X6192186Y-7074414D02*
X6220757Y-7074414D01*
X6249328Y-7088700D01*
X6263614Y-7102986D01*
X6277900Y-7131557D01*
X6292186Y-7188700D01*
X6292186Y-7260129D01*
X6277900Y-7317271D01*
X6263614Y-7345843D01*
X6249328Y-7360129D01*
X6220757Y-7374414D01*
X6192186Y-7374414D01*
X6163614Y-7360129D01*
X6149328Y-7345843D01*
X6135043Y-7317271D01*
X6120757Y-7260129D01*
X6120757Y-7188700D01*
X6135043Y-7131557D01*
X6149328Y-7102986D01*
X6163614Y-7088700D01*
X6192186Y-7074414D01*
X6392186Y-7074414D02*
X6577900Y-7074414D01*
X6477900Y-7188700D01*
X6520757Y-7188700D01*
X6549328Y-7202986D01*
X6563614Y-7217271D01*
X6577900Y-7245843D01*
X6577900Y-7317271D01*
X6563614Y-7345843D01*
X6549328Y-7360129D01*
X6520757Y-7374414D01*
X6435043Y-7374414D01*
X6406471Y-7360129D01*
X6392186Y-7345843D01*
X6720757Y-7374414D02*
X6777900Y-7374414D01*
X6806471Y-7360129D01*
X6820757Y-7345843D01*
X6849328Y-7302986D01*
X6863614Y-7245843D01*
X6863614Y-7131557D01*
X6849328Y-7102986D01*
X6835043Y-7088700D01*
X6806471Y-7074414D01*
X6749328Y-7074414D01*
X6720757Y-7088700D01*
X6706471Y-7102986D01*
X6692186Y-7131557D01*
X6692186Y-7202986D01*
X6706471Y-7231557D01*
X6720757Y-7245843D01*
X6749328Y-7260129D01*
X6806471Y-7260129D01*
X6835043Y-7245843D01*
X6849328Y-7231557D01*
X6863614Y-7202986D01*
X7120757Y-7174414D02*
X7120757Y-7374414D01*
X7049328Y-7060129D02*
X6977900Y-7274414D01*
X7163614Y-7274414D01*
X7263614Y-7074414D02*
X7263614Y-7131557D01*
X7377900Y-7074414D02*
X7377900Y-7131557D01*
X7820757Y-7488700D02*
X7806471Y-7474414D01*
X7777900Y-7431557D01*
X7763614Y-7402986D01*
X7749328Y-7360129D01*
X7735043Y-7288700D01*
X7735043Y-7231557D01*
X7749328Y-7160129D01*
X7763614Y-7117271D01*
X7777900Y-7088700D01*
X7806471Y-7045843D01*
X7820757Y-7031557D01*
X7920757Y-7102986D02*
X7935043Y-7088700D01*
X7963614Y-7074414D01*
X8035043Y-7074414D01*
X8063614Y-7088700D01*
X8077900Y-7102986D01*
X8092186Y-7131557D01*
X8092186Y-7160129D01*
X8077900Y-7202986D01*
X7906471Y-7374414D01*
X8092186Y-7374414D01*
X8449328Y-7374414D02*
X8449328Y-7074414D01*
X8577900Y-7374414D02*
X8577900Y-7217271D01*
X8563614Y-7188700D01*
X8535043Y-7174414D01*
X8492186Y-7174414D01*
X8463614Y-7188700D01*
X8449328Y-7202986D01*
X8763614Y-7374414D02*
X8735043Y-7360129D01*
X8720757Y-7345843D01*
X8706471Y-7317271D01*
X8706471Y-7231557D01*
X8720757Y-7202986D01*
X8735043Y-7188700D01*
X8763614Y-7174414D01*
X8806471Y-7174414D01*
X8835043Y-7188700D01*
X8849328Y-7202986D01*
X8863614Y-7231557D01*
X8863614Y-7317271D01*
X8849328Y-7345843D01*
X8835043Y-7360129D01*
X8806471Y-7374414D01*
X8763614Y-7374414D01*
X9035043Y-7374414D02*
X9006471Y-7360129D01*
X8992186Y-7331557D01*
X8992186Y-7074414D01*
X9263614Y-7360129D02*
X9235043Y-7374414D01*
X9177900Y-7374414D01*
X9149328Y-7360129D01*
X9135043Y-7331557D01*
X9135043Y-7217271D01*
X9149328Y-7188700D01*
X9177900Y-7174414D01*
X9235043Y-7174414D01*
X9263614Y-7188700D01*
X9277900Y-7217271D01*
X9277900Y-7245843D01*
X9135043Y-7274414D01*
X9392186Y-7360129D02*
X9420757Y-7374414D01*
X9477900Y-7374414D01*
X9506471Y-7360129D01*
X9520757Y-7331557D01*
X9520757Y-7317271D01*
X9506471Y-7288700D01*
X9477900Y-7274414D01*
X9435043Y-7274414D01*
X9406471Y-7260129D01*
X9392186Y-7231557D01*
X9392186Y-7217271D01*
X9406471Y-7188700D01*
X9435043Y-7174414D01*
X9477900Y-7174414D01*
X9506471Y-7188700D01*
X9620757Y-7488700D02*
X9635043Y-7474414D01*
X9663614Y-7431557D01*
X9677900Y-7402986D01*
X9692186Y-7360129D01*
X9706471Y-7288700D01*
X9706471Y-7231557D01*
X9692186Y-7160129D01*
X9677900Y-7117271D01*
X9663614Y-7088700D01*
X9635043Y-7045843D01*
X9620757Y-7031557D01*
X2292900Y-7499700D02*
X2562900Y-7769700D01*
X2562900Y-7499700D02*
X2292900Y-7769700D01*
X2562900Y-7634700D02*
G75*
G03*
X2562900Y-7634700I-135000J0D01*
G01*
X2835043Y-7498986D02*
X2849328Y-7484700D01*
X2877900Y-7470414D01*
X2949328Y-7470414D01*
X2977900Y-7484700D01*
X2992186Y-7498986D01*
X3006471Y-7527557D01*
X3006471Y-7556129D01*
X2992186Y-7598986D01*
X2820757Y-7770414D01*
X3006471Y-7770414D01*
X3135043Y-7741843D02*
X3149328Y-7756129D01*
X3135043Y-7770414D01*
X3120757Y-7756129D01*
X3135043Y-7741843D01*
X3135043Y-7770414D01*
X3249328Y-7470414D02*
X3449328Y-7470414D01*
X3320757Y-7770414D01*
X3620757Y-7470414D02*
X3649328Y-7470414D01*
X3677900Y-7484700D01*
X3692186Y-7498986D01*
X3706471Y-7527557D01*
X3720757Y-7584700D01*
X3720757Y-7656129D01*
X3706471Y-7713271D01*
X3692186Y-7741843D01*
X3677900Y-7756129D01*
X3649328Y-7770414D01*
X3620757Y-7770414D01*
X3592186Y-7756129D01*
X3577900Y-7741843D01*
X3563614Y-7713271D01*
X3549328Y-7656129D01*
X3549328Y-7584700D01*
X3563614Y-7527557D01*
X3577900Y-7498986D01*
X3592186Y-7484700D01*
X3620757Y-7470414D01*
X3906471Y-7470414D02*
X3935043Y-7470414D01*
X3963614Y-7484700D01*
X3977900Y-7498986D01*
X3992186Y-7527557D01*
X4006471Y-7584700D01*
X4006471Y-7656129D01*
X3992186Y-7713271D01*
X3977900Y-7741843D01*
X3963614Y-7756129D01*
X3935043Y-7770414D01*
X3906471Y-7770414D01*
X3877900Y-7756129D01*
X3863614Y-7741843D01*
X3849328Y-7713271D01*
X3835043Y-7656129D01*
X3835043Y-7584700D01*
X3849328Y-7527557D01*
X3863614Y-7498986D01*
X3877900Y-7484700D01*
X3906471Y-7470414D01*
X4135043Y-7770414D02*
X4135043Y-7570414D01*
X4135043Y-7598986D02*
X4149328Y-7584700D01*
X4177900Y-7570414D01*
X4220757Y-7570414D01*
X4249328Y-7584700D01*
X4263614Y-7613271D01*
X4263614Y-7770414D01*
X4263614Y-7613271D02*
X4277900Y-7584700D01*
X4306471Y-7570414D01*
X4349328Y-7570414D01*
X4377900Y-7584700D01*
X4392186Y-7613271D01*
X4392186Y-7770414D01*
X4535043Y-7770414D02*
X4535043Y-7570414D01*
X4535043Y-7598986D02*
X4549328Y-7584700D01*
X4577900Y-7570414D01*
X4620757Y-7570414D01*
X4649328Y-7584700D01*
X4663614Y-7613271D01*
X4663614Y-7770414D01*
X4663614Y-7613271D02*
X4677900Y-7584700D01*
X4706471Y-7570414D01*
X4749328Y-7570414D01*
X4777900Y-7584700D01*
X4792186Y-7613271D01*
X4792186Y-7770414D01*
X5377900Y-7456129D02*
X5120757Y-7841843D01*
X5763614Y-7470414D02*
X5792186Y-7470414D01*
X5820757Y-7484700D01*
X5835043Y-7498986D01*
X5849328Y-7527557D01*
X5863614Y-7584700D01*
X5863614Y-7656129D01*
X5849328Y-7713271D01*
X5835043Y-7741843D01*
X5820757Y-7756129D01*
X5792186Y-7770414D01*
X5763614Y-7770414D01*
X5735043Y-7756129D01*
X5720757Y-7741843D01*
X5706471Y-7713271D01*
X5692186Y-7656129D01*
X5692186Y-7584700D01*
X5706471Y-7527557D01*
X5720757Y-7498986D01*
X5735043Y-7484700D01*
X5763614Y-7470414D01*
X5992186Y-7741843D02*
X6006471Y-7756129D01*
X5992186Y-7770414D01*
X5977900Y-7756129D01*
X5992186Y-7741843D01*
X5992186Y-7770414D01*
X6292186Y-7770414D02*
X6120757Y-7770414D01*
X6206471Y-7770414D02*
X6206471Y-7470414D01*
X6177900Y-7513271D01*
X6149328Y-7541843D01*
X6120757Y-7556129D01*
X6477900Y-7470414D02*
X6506471Y-7470414D01*
X6535043Y-7484700D01*
X6549328Y-7498986D01*
X6563614Y-7527557D01*
X6577900Y-7584700D01*
X6577900Y-7656129D01*
X6563614Y-7713271D01*
X6549328Y-7741843D01*
X6535043Y-7756129D01*
X6506471Y-7770414D01*
X6477900Y-7770414D01*
X6449328Y-7756129D01*
X6435043Y-7741843D01*
X6420757Y-7713271D01*
X6406471Y-7656129D01*
X6406471Y-7584700D01*
X6420757Y-7527557D01*
X6435043Y-7498986D01*
X6449328Y-7484700D01*
X6477900Y-7470414D01*
X6835043Y-7470414D02*
X6777900Y-7470414D01*
X6749328Y-7484700D01*
X6735043Y-7498986D01*
X6706471Y-7541843D01*
X6692186Y-7598986D01*
X6692186Y-7713271D01*
X6706471Y-7741843D01*
X6720757Y-7756129D01*
X6749328Y-7770414D01*
X6806471Y-7770414D01*
X6835043Y-7756129D01*
X6849328Y-7741843D01*
X6863614Y-7713271D01*
X6863614Y-7641843D01*
X6849328Y-7613271D01*
X6835043Y-7598986D01*
X6806471Y-7584700D01*
X6749328Y-7584700D01*
X6720757Y-7598986D01*
X6706471Y-7613271D01*
X6692186Y-7641843D01*
X6963614Y-7470414D02*
X7149328Y-7470414D01*
X7049328Y-7584700D01*
X7092186Y-7584700D01*
X7120757Y-7598986D01*
X7135043Y-7613271D01*
X7149328Y-7641843D01*
X7149328Y-7713271D01*
X7135043Y-7741843D01*
X7120757Y-7756129D01*
X7092186Y-7770414D01*
X7006471Y-7770414D01*
X6977900Y-7756129D01*
X6963614Y-7741843D01*
X7263614Y-7470414D02*
X7263614Y-7527557D01*
X7377900Y-7470414D02*
X7377900Y-7527557D01*
X7820757Y-7884700D02*
X7806471Y-7870414D01*
X7777900Y-7827557D01*
X7763614Y-7798986D01*
X7749328Y-7756129D01*
X7735043Y-7684700D01*
X7735043Y-7627557D01*
X7749328Y-7556129D01*
X7763614Y-7513271D01*
X7777900Y-7484700D01*
X7806471Y-7441843D01*
X7820757Y-7427557D01*
X7920757Y-7498986D02*
X7935043Y-7484700D01*
X7963614Y-7470414D01*
X8035043Y-7470414D01*
X8063614Y-7484700D01*
X8077900Y-7498986D01*
X8092186Y-7527557D01*
X8092186Y-7556129D01*
X8077900Y-7598986D01*
X7906471Y-7770414D01*
X8092186Y-7770414D01*
X8449328Y-7770414D02*
X8449328Y-7470414D01*
X8577900Y-7770414D02*
X8577900Y-7613271D01*
X8563614Y-7584700D01*
X8535043Y-7570414D01*
X8492186Y-7570414D01*
X8463614Y-7584700D01*
X8449328Y-7598986D01*
X8763614Y-7770414D02*
X8735043Y-7756129D01*
X8720757Y-7741843D01*
X8706471Y-7713271D01*
X8706471Y-7627557D01*
X8720757Y-7598986D01*
X8735043Y-7584700D01*
X8763614Y-7570414D01*
X8806471Y-7570414D01*
X8835043Y-7584700D01*
X8849328Y-7598986D01*
X8863614Y-7627557D01*
X8863614Y-7713271D01*
X8849328Y-7741843D01*
X8835043Y-7756129D01*
X8806471Y-7770414D01*
X8763614Y-7770414D01*
X9035043Y-7770414D02*
X9006471Y-7756129D01*
X8992186Y-7727557D01*
X8992186Y-7470414D01*
X9263614Y-7756129D02*
X9235043Y-7770414D01*
X9177900Y-7770414D01*
X9149328Y-7756129D01*
X9135043Y-7727557D01*
X9135043Y-7613271D01*
X9149328Y-7584700D01*
X9177900Y-7570414D01*
X9235043Y-7570414D01*
X9263614Y-7584700D01*
X9277900Y-7613271D01*
X9277900Y-7641843D01*
X9135043Y-7670414D01*
X9392186Y-7756129D02*
X9420757Y-7770414D01*
X9477900Y-7770414D01*
X9506471Y-7756129D01*
X9520757Y-7727557D01*
X9520757Y-7713271D01*
X9506471Y-7684700D01*
X9477900Y-7670414D01*
X9435043Y-7670414D01*
X9406471Y-7656129D01*
X9392186Y-7627557D01*
X9392186Y-7613271D01*
X9406471Y-7584700D01*
X9435043Y-7570414D01*
X9477900Y-7570414D01*
X9506471Y-7584700D01*
X9620757Y-7884700D02*
X9635043Y-7870414D01*
X9663614Y-7827557D01*
X9677900Y-7798986D01*
X9692186Y-7756129D01*
X9706471Y-7684700D01*
X9706471Y-7627557D01*
X9692186Y-7556129D01*
X9677900Y-7513271D01*
X9663614Y-7484700D01*
X9635043Y-7441843D01*
X9620757Y-7427557D01*
M02*
