G04 #@! TF.GenerationSoftware,KiCad,Pcbnew,(5.1.10)-1*
G04 #@! TF.CreationDate,2021-07-15T16:55:59+03:00*
G04 #@! TF.ProjectId,clock,636c6f63-6b2e-46b6-9963-61645f706362,rev?*
G04 #@! TF.SameCoordinates,Original*
G04 #@! TF.FileFunction,Copper,L2,Inr*
G04 #@! TF.FilePolarity,Positive*
%FSLAX46Y46*%
G04 Gerber Fmt 4.6, Leading zero omitted, Abs format (unit mm)*
G04 Created by KiCad (PCBNEW (5.1.10)-1) date 2021-07-15 16:55:59*
%MOMM*%
%LPD*%
G01*
G04 APERTURE LIST*
G04 #@! TA.AperFunction,ComponentPad*
%ADD10O,1.700000X1.700000*%
G04 #@! TD*
G04 #@! TA.AperFunction,ComponentPad*
%ADD11R,1.700000X1.700000*%
G04 #@! TD*
G04 #@! TA.AperFunction,ComponentPad*
%ADD12C,1.524000*%
G04 #@! TD*
G04 #@! TA.AperFunction,ComponentPad*
%ADD13R,1.524000X1.524000*%
G04 #@! TD*
G04 #@! TA.AperFunction,ComponentPad*
%ADD14O,1.700000X1.100000*%
G04 #@! TD*
G04 #@! TA.AperFunction,ComponentPad*
%ADD15C,5.400000*%
G04 #@! TD*
G04 #@! TA.AperFunction,ComponentPad*
%ADD16C,0.800000*%
G04 #@! TD*
G04 #@! TA.AperFunction,ViaPad*
%ADD17C,0.800000*%
G04 #@! TD*
G04 #@! TA.AperFunction,Conductor*
%ADD18C,0.254000*%
G04 #@! TD*
G04 #@! TA.AperFunction,Conductor*
%ADD19C,0.100000*%
G04 #@! TD*
G04 APERTURE END LIST*
D10*
X40894000Y-32893000D03*
D11*
X40894000Y-30353000D03*
D12*
X44450000Y-20955000D03*
X46990000Y-20955000D03*
X49530000Y-20955000D03*
X52070000Y-20955000D03*
X54610000Y-20955000D03*
X57150000Y-20955000D03*
X57150000Y-36195000D03*
X54610000Y-36195000D03*
X52070000Y-36195000D03*
X49530000Y-36195000D03*
X46990000Y-36195000D03*
D13*
X44450000Y-36195000D03*
D14*
X28275200Y-35435000D03*
X32075200Y-35435000D03*
X28275200Y-26795000D03*
X32075200Y-26795000D03*
D15*
X71501000Y-41402000D03*
D16*
X69476000Y-41402000D03*
X70069109Y-42833891D03*
X71501000Y-43427000D03*
X72932891Y-42833891D03*
X73526000Y-41402000D03*
X72932891Y-39970109D03*
X71501000Y-39377000D03*
X70069109Y-39970109D03*
D15*
X30099000Y-41402000D03*
D16*
X32124000Y-41402000D03*
X31530891Y-39970109D03*
X30099000Y-39377000D03*
X28667109Y-39970109D03*
X28074000Y-41402000D03*
X28667109Y-42833891D03*
X30099000Y-43427000D03*
X31530891Y-42833891D03*
D17*
X61595000Y-33782000D03*
X60960000Y-21590002D03*
X64135000Y-21590000D03*
X68199000Y-21590000D03*
X37084000Y-28448000D03*
X37084000Y-30226000D03*
X37084000Y-32004000D03*
X37084000Y-35560000D03*
X38100000Y-23495000D03*
X33020000Y-21717000D03*
X42545000Y-28067000D03*
X30861000Y-28448000D03*
X30861000Y-33782000D03*
X28194000Y-22225000D03*
X30099000Y-22225000D03*
X32004000Y-22225000D03*
X36322000Y-23114000D03*
X43434000Y-31369000D03*
X40640000Y-19939000D03*
X58356500Y-24765000D03*
X62420500Y-24765000D03*
X66484500Y-24765000D03*
X67691000Y-32131000D03*
X75057000Y-29718000D03*
X75057000Y-36322000D03*
X75057000Y-28702000D03*
X75057000Y-22098000D03*
X46379845Y-26067979D03*
X49530000Y-31115000D03*
X37084000Y-33782000D03*
X38100000Y-27305000D03*
X37338000Y-21717000D03*
X42545000Y-24257000D03*
X36322000Y-27178000D03*
X39497000Y-22860000D03*
X71501000Y-33655000D03*
X71501000Y-26035000D03*
X46355000Y-24638000D03*
X70485000Y-22606000D03*
X53219231Y-29712808D03*
X71501000Y-29845000D03*
X52324000Y-30353000D03*
X47752000Y-26543000D03*
X58610500Y-25971500D03*
X62738000Y-26416000D03*
X47625000Y-27559000D03*
X66802000Y-26416000D03*
X47625000Y-28702000D03*
X66294000Y-29337000D03*
X48767996Y-28956000D03*
D18*
X39947887Y-19569058D02*
X39889013Y-19711191D01*
X39859000Y-19862078D01*
X39859000Y-20015922D01*
X39889013Y-20166809D01*
X39947887Y-20308942D01*
X40033358Y-20436859D01*
X40142141Y-20545642D01*
X40270058Y-20631113D01*
X40412191Y-20689987D01*
X40563078Y-20720000D01*
X40716922Y-20720000D01*
X40867809Y-20689987D01*
X41009942Y-20631113D01*
X41137859Y-20545642D01*
X41246642Y-20436859D01*
X41332113Y-20308942D01*
X41390987Y-20166809D01*
X41421000Y-20015922D01*
X41421000Y-19862078D01*
X41390987Y-19711191D01*
X41332113Y-19569058D01*
X41256570Y-19456000D01*
X72860571Y-19456000D01*
X75312841Y-21358624D01*
X75284809Y-21347013D01*
X75133922Y-21317000D01*
X74980078Y-21317000D01*
X74829191Y-21347013D01*
X74687058Y-21405887D01*
X74559141Y-21491358D01*
X74450358Y-21600141D01*
X74364887Y-21728058D01*
X74306013Y-21870191D01*
X74276000Y-22021078D01*
X74276000Y-22174922D01*
X74306013Y-22325809D01*
X74364887Y-22467942D01*
X74450358Y-22595859D01*
X74559141Y-22704642D01*
X74687058Y-22790113D01*
X74829191Y-22848987D01*
X74980078Y-22879000D01*
X75133922Y-22879000D01*
X75284809Y-22848987D01*
X75426942Y-22790113D01*
X75540000Y-22714570D01*
X75540000Y-24747226D01*
X75535040Y-24745171D01*
X75403473Y-24719000D01*
X75269327Y-24719000D01*
X75137760Y-24745171D01*
X75013826Y-24796506D01*
X74902288Y-24871033D01*
X74807433Y-24965888D01*
X74732906Y-25077426D01*
X74681571Y-25201360D01*
X74655400Y-25332927D01*
X74655400Y-25467073D01*
X74681571Y-25598640D01*
X74732906Y-25722574D01*
X74807433Y-25834112D01*
X74902288Y-25928967D01*
X75013826Y-26003494D01*
X75137760Y-26054829D01*
X75269327Y-26081000D01*
X75403473Y-26081000D01*
X75535040Y-26054829D01*
X75540000Y-26052774D01*
X75540000Y-28085430D01*
X75426942Y-28009887D01*
X75284809Y-27951013D01*
X75133922Y-27921000D01*
X74980078Y-27921000D01*
X74829191Y-27951013D01*
X74687058Y-28009887D01*
X74559141Y-28095358D01*
X74450358Y-28204141D01*
X74364887Y-28332058D01*
X74306013Y-28474191D01*
X74276000Y-28625078D01*
X74276000Y-28778922D01*
X74306013Y-28929809D01*
X74364887Y-29071942D01*
X74450358Y-29199859D01*
X74460499Y-29210000D01*
X74450358Y-29220141D01*
X74364887Y-29348058D01*
X74306013Y-29490191D01*
X74276000Y-29641078D01*
X74276000Y-29794922D01*
X74306013Y-29945809D01*
X74364887Y-30087942D01*
X74450358Y-30215859D01*
X74559141Y-30324642D01*
X74687058Y-30410113D01*
X74829191Y-30468987D01*
X74980078Y-30499000D01*
X75133922Y-30499000D01*
X75284809Y-30468987D01*
X75426942Y-30410113D01*
X75540000Y-30334570D01*
X75540001Y-32367226D01*
X75535040Y-32365171D01*
X75403473Y-32339000D01*
X75269327Y-32339000D01*
X75137760Y-32365171D01*
X75013826Y-32416506D01*
X74902288Y-32491033D01*
X74807433Y-32585888D01*
X74732906Y-32697426D01*
X74681571Y-32821360D01*
X74655400Y-32952927D01*
X74655400Y-33087073D01*
X74681571Y-33218640D01*
X74732906Y-33342574D01*
X74807433Y-33454112D01*
X74902288Y-33548967D01*
X75013826Y-33623494D01*
X75137760Y-33674829D01*
X75269327Y-33701000D01*
X75403473Y-33701000D01*
X75535040Y-33674829D01*
X75540001Y-33672774D01*
X75540001Y-35705430D01*
X75426942Y-35629887D01*
X75284809Y-35571013D01*
X75133922Y-35541000D01*
X74980078Y-35541000D01*
X74829191Y-35571013D01*
X74687058Y-35629887D01*
X74559141Y-35715358D01*
X74450358Y-35824141D01*
X74364887Y-35952058D01*
X74306013Y-36094191D01*
X74276000Y-36245078D01*
X74276000Y-36398922D01*
X74306013Y-36549809D01*
X74364887Y-36691942D01*
X74450358Y-36819859D01*
X74559141Y-36928642D01*
X74687058Y-37014113D01*
X74829191Y-37072987D01*
X74980078Y-37103000D01*
X75133922Y-37103000D01*
X75284809Y-37072987D01*
X75426942Y-37014113D01*
X75540001Y-36938570D01*
X75540001Y-37719000D01*
X26060000Y-37719000D01*
X26060000Y-35435000D01*
X27039696Y-35435000D01*
X27057671Y-35617508D01*
X27110907Y-35793002D01*
X27197357Y-35954738D01*
X27313699Y-36096501D01*
X27455462Y-36212843D01*
X27617198Y-36299293D01*
X27792692Y-36352529D01*
X27929469Y-36366000D01*
X28620931Y-36366000D01*
X28757708Y-36352529D01*
X28933202Y-36299293D01*
X29094938Y-36212843D01*
X29236701Y-36096501D01*
X29353043Y-35954738D01*
X29439493Y-35793002D01*
X29492729Y-35617508D01*
X29510704Y-35435000D01*
X30839696Y-35435000D01*
X30857671Y-35617508D01*
X30910907Y-35793002D01*
X30997357Y-35954738D01*
X31113699Y-36096501D01*
X31255462Y-36212843D01*
X31417198Y-36299293D01*
X31592692Y-36352529D01*
X31729469Y-36366000D01*
X32420931Y-36366000D01*
X32557708Y-36352529D01*
X32733202Y-36299293D01*
X32894938Y-36212843D01*
X33036701Y-36096501D01*
X33153043Y-35954738D01*
X33239493Y-35793002D01*
X33292729Y-35617508D01*
X33305968Y-35483078D01*
X36303000Y-35483078D01*
X36303000Y-35636922D01*
X36333013Y-35787809D01*
X36391887Y-35929942D01*
X36477358Y-36057859D01*
X36586141Y-36166642D01*
X36714058Y-36252113D01*
X36856191Y-36310987D01*
X37007078Y-36341000D01*
X37160922Y-36341000D01*
X37311809Y-36310987D01*
X37453942Y-36252113D01*
X37581859Y-36166642D01*
X37690642Y-36057859D01*
X37776113Y-35929942D01*
X37834987Y-35787809D01*
X37865000Y-35636922D01*
X37865000Y-35483078D01*
X37855039Y-35433000D01*
X43305157Y-35433000D01*
X43305157Y-36957000D01*
X43312513Y-37031689D01*
X43334299Y-37103508D01*
X43369678Y-37169696D01*
X43417289Y-37227711D01*
X43475304Y-37275322D01*
X43541492Y-37310701D01*
X43613311Y-37332487D01*
X43688000Y-37339843D01*
X45212000Y-37339843D01*
X45286689Y-37332487D01*
X45358508Y-37310701D01*
X45424696Y-37275322D01*
X45482711Y-37227711D01*
X45530322Y-37169696D01*
X45565701Y-37103508D01*
X45587487Y-37031689D01*
X45594843Y-36957000D01*
X45594843Y-36082424D01*
X45847000Y-36082424D01*
X45847000Y-36307576D01*
X45890925Y-36528401D01*
X45977087Y-36736413D01*
X46102174Y-36923620D01*
X46261380Y-37082826D01*
X46448587Y-37207913D01*
X46656599Y-37294075D01*
X46877424Y-37338000D01*
X47102576Y-37338000D01*
X47323401Y-37294075D01*
X47531413Y-37207913D01*
X47718620Y-37082826D01*
X47877826Y-36923620D01*
X48002913Y-36736413D01*
X48089075Y-36528401D01*
X48133000Y-36307576D01*
X48133000Y-36082424D01*
X48387000Y-36082424D01*
X48387000Y-36307576D01*
X48430925Y-36528401D01*
X48517087Y-36736413D01*
X48642174Y-36923620D01*
X48801380Y-37082826D01*
X48988587Y-37207913D01*
X49196599Y-37294075D01*
X49417424Y-37338000D01*
X49642576Y-37338000D01*
X49863401Y-37294075D01*
X50071413Y-37207913D01*
X50258620Y-37082826D01*
X50417826Y-36923620D01*
X50542913Y-36736413D01*
X50629075Y-36528401D01*
X50673000Y-36307576D01*
X50673000Y-36082424D01*
X50927000Y-36082424D01*
X50927000Y-36307576D01*
X50970925Y-36528401D01*
X51057087Y-36736413D01*
X51182174Y-36923620D01*
X51341380Y-37082826D01*
X51528587Y-37207913D01*
X51736599Y-37294075D01*
X51957424Y-37338000D01*
X52182576Y-37338000D01*
X52403401Y-37294075D01*
X52611413Y-37207913D01*
X52798620Y-37082826D01*
X52957826Y-36923620D01*
X53082913Y-36736413D01*
X53169075Y-36528401D01*
X53213000Y-36307576D01*
X53213000Y-36082424D01*
X53467000Y-36082424D01*
X53467000Y-36307576D01*
X53510925Y-36528401D01*
X53597087Y-36736413D01*
X53722174Y-36923620D01*
X53881380Y-37082826D01*
X54068587Y-37207913D01*
X54276599Y-37294075D01*
X54497424Y-37338000D01*
X54722576Y-37338000D01*
X54943401Y-37294075D01*
X55151413Y-37207913D01*
X55338620Y-37082826D01*
X55497826Y-36923620D01*
X55622913Y-36736413D01*
X55709075Y-36528401D01*
X55753000Y-36307576D01*
X55753000Y-36082424D01*
X56007000Y-36082424D01*
X56007000Y-36307576D01*
X56050925Y-36528401D01*
X56137087Y-36736413D01*
X56262174Y-36923620D01*
X56421380Y-37082826D01*
X56608587Y-37207913D01*
X56816599Y-37294075D01*
X57037424Y-37338000D01*
X57262576Y-37338000D01*
X57483401Y-37294075D01*
X57691413Y-37207913D01*
X57878620Y-37082826D01*
X58037826Y-36923620D01*
X58162913Y-36736413D01*
X58249075Y-36528401D01*
X58293000Y-36307576D01*
X58293000Y-36082424D01*
X58249075Y-35861599D01*
X58162913Y-35653587D01*
X58037826Y-35466380D01*
X57878620Y-35307174D01*
X57691413Y-35182087D01*
X57483401Y-35095925D01*
X57262576Y-35052000D01*
X57037424Y-35052000D01*
X56816599Y-35095925D01*
X56608587Y-35182087D01*
X56421380Y-35307174D01*
X56262174Y-35466380D01*
X56137087Y-35653587D01*
X56050925Y-35861599D01*
X56007000Y-36082424D01*
X55753000Y-36082424D01*
X55709075Y-35861599D01*
X55622913Y-35653587D01*
X55497826Y-35466380D01*
X55338620Y-35307174D01*
X55151413Y-35182087D01*
X54943401Y-35095925D01*
X54722576Y-35052000D01*
X54497424Y-35052000D01*
X54276599Y-35095925D01*
X54068587Y-35182087D01*
X53881380Y-35307174D01*
X53722174Y-35466380D01*
X53597087Y-35653587D01*
X53510925Y-35861599D01*
X53467000Y-36082424D01*
X53213000Y-36082424D01*
X53169075Y-35861599D01*
X53082913Y-35653587D01*
X52957826Y-35466380D01*
X52798620Y-35307174D01*
X52611413Y-35182087D01*
X52403401Y-35095925D01*
X52182576Y-35052000D01*
X51957424Y-35052000D01*
X51736599Y-35095925D01*
X51528587Y-35182087D01*
X51341380Y-35307174D01*
X51182174Y-35466380D01*
X51057087Y-35653587D01*
X50970925Y-35861599D01*
X50927000Y-36082424D01*
X50673000Y-36082424D01*
X50629075Y-35861599D01*
X50542913Y-35653587D01*
X50417826Y-35466380D01*
X50258620Y-35307174D01*
X50071413Y-35182087D01*
X49863401Y-35095925D01*
X49642576Y-35052000D01*
X49417424Y-35052000D01*
X49196599Y-35095925D01*
X48988587Y-35182087D01*
X48801380Y-35307174D01*
X48642174Y-35466380D01*
X48517087Y-35653587D01*
X48430925Y-35861599D01*
X48387000Y-36082424D01*
X48133000Y-36082424D01*
X48089075Y-35861599D01*
X48002913Y-35653587D01*
X47877826Y-35466380D01*
X47718620Y-35307174D01*
X47531413Y-35182087D01*
X47323401Y-35095925D01*
X47102576Y-35052000D01*
X46877424Y-35052000D01*
X46656599Y-35095925D01*
X46448587Y-35182087D01*
X46261380Y-35307174D01*
X46102174Y-35466380D01*
X45977087Y-35653587D01*
X45890925Y-35861599D01*
X45847000Y-36082424D01*
X45594843Y-36082424D01*
X45594843Y-35433000D01*
X45587487Y-35358311D01*
X45565701Y-35286492D01*
X45530322Y-35220304D01*
X45482711Y-35162289D01*
X45424696Y-35114678D01*
X45358508Y-35079299D01*
X45286689Y-35057513D01*
X45212000Y-35050157D01*
X43688000Y-35050157D01*
X43613311Y-35057513D01*
X43541492Y-35079299D01*
X43475304Y-35114678D01*
X43417289Y-35162289D01*
X43369678Y-35220304D01*
X43334299Y-35286492D01*
X43312513Y-35358311D01*
X43305157Y-35433000D01*
X37855039Y-35433000D01*
X37834987Y-35332191D01*
X37776113Y-35190058D01*
X37690642Y-35062141D01*
X37581859Y-34953358D01*
X37453942Y-34867887D01*
X37311809Y-34809013D01*
X37160922Y-34779000D01*
X37007078Y-34779000D01*
X36856191Y-34809013D01*
X36714058Y-34867887D01*
X36586141Y-34953358D01*
X36477358Y-35062141D01*
X36391887Y-35190058D01*
X36333013Y-35332191D01*
X36303000Y-35483078D01*
X33305968Y-35483078D01*
X33310704Y-35435000D01*
X33292729Y-35252492D01*
X33239493Y-35076998D01*
X33153043Y-34915262D01*
X33036701Y-34773499D01*
X32894938Y-34657157D01*
X32733202Y-34570707D01*
X32557708Y-34517471D01*
X32420931Y-34504000D01*
X31729469Y-34504000D01*
X31592692Y-34517471D01*
X31417198Y-34570707D01*
X31255462Y-34657157D01*
X31113699Y-34773499D01*
X30997357Y-34915262D01*
X30910907Y-35076998D01*
X30857671Y-35252492D01*
X30839696Y-35435000D01*
X29510704Y-35435000D01*
X29492729Y-35252492D01*
X29439493Y-35076998D01*
X29353043Y-34915262D01*
X29236701Y-34773499D01*
X29094938Y-34657157D01*
X28933202Y-34570707D01*
X28757708Y-34517471D01*
X28620931Y-34504000D01*
X27929469Y-34504000D01*
X27792692Y-34517471D01*
X27617198Y-34570707D01*
X27455462Y-34657157D01*
X27313699Y-34773499D01*
X27197357Y-34915262D01*
X27110907Y-35076998D01*
X27057671Y-35252492D01*
X27039696Y-35435000D01*
X26060000Y-35435000D01*
X26060000Y-33705078D01*
X30080000Y-33705078D01*
X30080000Y-33858922D01*
X30110013Y-34009809D01*
X30168887Y-34151942D01*
X30254358Y-34279859D01*
X30363141Y-34388642D01*
X30491058Y-34474113D01*
X30633191Y-34532987D01*
X30784078Y-34563000D01*
X30937922Y-34563000D01*
X31088809Y-34532987D01*
X31230942Y-34474113D01*
X31358859Y-34388642D01*
X31467642Y-34279859D01*
X31553113Y-34151942D01*
X31611987Y-34009809D01*
X31642000Y-33858922D01*
X31642000Y-33705078D01*
X31611987Y-33554191D01*
X31553113Y-33412058D01*
X31467642Y-33284141D01*
X31358859Y-33175358D01*
X31230942Y-33089887D01*
X31088809Y-33031013D01*
X30937922Y-33001000D01*
X30784078Y-33001000D01*
X30633191Y-33031013D01*
X30491058Y-33089887D01*
X30363141Y-33175358D01*
X30254358Y-33284141D01*
X30168887Y-33412058D01*
X30110013Y-33554191D01*
X30080000Y-33705078D01*
X26060000Y-33705078D01*
X26060000Y-31927078D01*
X36303000Y-31927078D01*
X36303000Y-32080922D01*
X36333013Y-32231809D01*
X36391887Y-32373942D01*
X36477358Y-32501859D01*
X36586141Y-32610642D01*
X36714058Y-32696113D01*
X36856191Y-32754987D01*
X37007078Y-32785000D01*
X37160922Y-32785000D01*
X37227499Y-32771757D01*
X39663000Y-32771757D01*
X39663000Y-33014243D01*
X39710307Y-33252069D01*
X39803102Y-33476097D01*
X39937820Y-33677717D01*
X40109283Y-33849180D01*
X40310903Y-33983898D01*
X40534931Y-34076693D01*
X40772757Y-34124000D01*
X41015243Y-34124000D01*
X41253069Y-34076693D01*
X41477097Y-33983898D01*
X41678717Y-33849180D01*
X41850180Y-33677717D01*
X41984898Y-33476097D01*
X42077693Y-33252069D01*
X42125000Y-33014243D01*
X42125000Y-32771757D01*
X42077693Y-32533931D01*
X41984898Y-32309903D01*
X41850180Y-32108283D01*
X41678717Y-31936820D01*
X41477097Y-31802102D01*
X41253069Y-31709307D01*
X41015243Y-31662000D01*
X40772757Y-31662000D01*
X40534931Y-31709307D01*
X40310903Y-31802102D01*
X40109283Y-31936820D01*
X39937820Y-32108283D01*
X39803102Y-32309903D01*
X39710307Y-32533931D01*
X39663000Y-32771757D01*
X37227499Y-32771757D01*
X37311809Y-32754987D01*
X37453942Y-32696113D01*
X37581859Y-32610642D01*
X37690642Y-32501859D01*
X37776113Y-32373942D01*
X37834987Y-32231809D01*
X37865000Y-32080922D01*
X37865000Y-31927078D01*
X37834987Y-31776191D01*
X37776113Y-31634058D01*
X37690642Y-31506141D01*
X37581859Y-31397358D01*
X37453942Y-31311887D01*
X37311809Y-31253013D01*
X37160922Y-31223000D01*
X37007078Y-31223000D01*
X36856191Y-31253013D01*
X36714058Y-31311887D01*
X36586141Y-31397358D01*
X36477358Y-31506141D01*
X36391887Y-31634058D01*
X36333013Y-31776191D01*
X36303000Y-31927078D01*
X26060000Y-31927078D01*
X26060000Y-30149078D01*
X36303000Y-30149078D01*
X36303000Y-30302922D01*
X36333013Y-30453809D01*
X36391887Y-30595942D01*
X36477358Y-30723859D01*
X36586141Y-30832642D01*
X36714058Y-30918113D01*
X36856191Y-30976987D01*
X37007078Y-31007000D01*
X37160922Y-31007000D01*
X37311809Y-30976987D01*
X37453942Y-30918113D01*
X37581859Y-30832642D01*
X37690642Y-30723859D01*
X37776113Y-30595942D01*
X37834987Y-30453809D01*
X37865000Y-30302922D01*
X37865000Y-30149078D01*
X37834987Y-29998191D01*
X37776113Y-29856058D01*
X37690642Y-29728141D01*
X37581859Y-29619358D01*
X37453942Y-29533887D01*
X37379375Y-29503000D01*
X39661157Y-29503000D01*
X39661157Y-31203000D01*
X39668513Y-31277689D01*
X39690299Y-31349508D01*
X39725678Y-31415696D01*
X39773289Y-31473711D01*
X39831304Y-31521322D01*
X39897492Y-31556701D01*
X39969311Y-31578487D01*
X40044000Y-31585843D01*
X41744000Y-31585843D01*
X41818689Y-31578487D01*
X41890508Y-31556701D01*
X41956696Y-31521322D01*
X42014711Y-31473711D01*
X42062322Y-31415696D01*
X42097701Y-31349508D01*
X42119487Y-31277689D01*
X42126843Y-31203000D01*
X42126843Y-29718000D01*
X42418000Y-29718000D01*
X42418000Y-33147000D01*
X42420440Y-33171776D01*
X42427667Y-33195601D01*
X42439403Y-33217557D01*
X42455197Y-33236803D01*
X43598197Y-34379803D01*
X43617443Y-34395597D01*
X43639399Y-34407333D01*
X43663224Y-34414560D01*
X43688000Y-34417000D01*
X50800000Y-34417000D01*
X50824776Y-34414560D01*
X50848601Y-34407333D01*
X50870557Y-34395597D01*
X50889803Y-34379803D01*
X51564528Y-33705078D01*
X60814000Y-33705078D01*
X60814000Y-33858922D01*
X60844013Y-34009809D01*
X60902887Y-34151942D01*
X60988358Y-34279859D01*
X61097141Y-34388642D01*
X61225058Y-34474113D01*
X61367191Y-34532987D01*
X61518078Y-34563000D01*
X61671922Y-34563000D01*
X61822809Y-34532987D01*
X61964942Y-34474113D01*
X62092859Y-34388642D01*
X62201642Y-34279859D01*
X62287113Y-34151942D01*
X62345987Y-34009809D01*
X62376000Y-33858922D01*
X62376000Y-33705078D01*
X62345987Y-33554191D01*
X62287113Y-33412058D01*
X62201642Y-33284141D01*
X62092859Y-33175358D01*
X61964942Y-33089887D01*
X61822809Y-33031013D01*
X61671922Y-33001000D01*
X61518078Y-33001000D01*
X61367191Y-33031013D01*
X61225058Y-33089887D01*
X61097141Y-33175358D01*
X60988358Y-33284141D01*
X60902887Y-33412058D01*
X60844013Y-33554191D01*
X60814000Y-33705078D01*
X51564528Y-33705078D01*
X51905803Y-33363803D01*
X51921597Y-33344557D01*
X51933333Y-33322601D01*
X51940560Y-33298776D01*
X51943000Y-33274000D01*
X51943000Y-32952927D01*
X72855400Y-32952927D01*
X72855400Y-33087073D01*
X72881571Y-33218640D01*
X72932906Y-33342574D01*
X73007433Y-33454112D01*
X73102288Y-33548967D01*
X73213826Y-33623494D01*
X73337760Y-33674829D01*
X73469327Y-33701000D01*
X73603473Y-33701000D01*
X73735040Y-33674829D01*
X73858974Y-33623494D01*
X73970512Y-33548967D01*
X74065367Y-33454112D01*
X74139894Y-33342574D01*
X74191229Y-33218640D01*
X74217400Y-33087073D01*
X74217400Y-32952927D01*
X74191229Y-32821360D01*
X74139894Y-32697426D01*
X74065367Y-32585888D01*
X73970512Y-32491033D01*
X73858974Y-32416506D01*
X73735040Y-32365171D01*
X73603473Y-32339000D01*
X73469327Y-32339000D01*
X73337760Y-32365171D01*
X73213826Y-32416506D01*
X73102288Y-32491033D01*
X73007433Y-32585888D01*
X72932906Y-32697426D01*
X72881571Y-32821360D01*
X72855400Y-32952927D01*
X51943000Y-32952927D01*
X51943000Y-32054078D01*
X66910000Y-32054078D01*
X66910000Y-32207922D01*
X66940013Y-32358809D01*
X66998887Y-32500942D01*
X67084358Y-32628859D01*
X67193141Y-32737642D01*
X67321058Y-32823113D01*
X67463191Y-32881987D01*
X67614078Y-32912000D01*
X67767922Y-32912000D01*
X67918809Y-32881987D01*
X68060942Y-32823113D01*
X68188859Y-32737642D01*
X68297642Y-32628859D01*
X68383113Y-32500942D01*
X68441987Y-32358809D01*
X68472000Y-32207922D01*
X68472000Y-32054078D01*
X68441987Y-31903191D01*
X68383113Y-31761058D01*
X68297642Y-31633141D01*
X68188859Y-31524358D01*
X68060942Y-31438887D01*
X67918809Y-31380013D01*
X67767922Y-31350000D01*
X67614078Y-31350000D01*
X67463191Y-31380013D01*
X67321058Y-31438887D01*
X67193141Y-31524358D01*
X67084358Y-31633141D01*
X66998887Y-31761058D01*
X66940013Y-31903191D01*
X66910000Y-32054078D01*
X51943000Y-32054078D01*
X51943000Y-31115000D01*
X51940560Y-31090224D01*
X51933333Y-31066399D01*
X51921597Y-31044443D01*
X51905803Y-31025197D01*
X51868654Y-30988048D01*
X51954058Y-31045113D01*
X52096191Y-31103987D01*
X52247078Y-31134000D01*
X52400922Y-31134000D01*
X52551809Y-31103987D01*
X52693942Y-31045113D01*
X52821859Y-30959642D01*
X52930642Y-30850859D01*
X53016113Y-30722942D01*
X53074987Y-30580809D01*
X53094196Y-30484238D01*
X53142309Y-30493808D01*
X53296153Y-30493808D01*
X53447040Y-30463795D01*
X53589173Y-30404921D01*
X53717090Y-30319450D01*
X53825873Y-30210667D01*
X53911344Y-30082750D01*
X53970218Y-29940617D01*
X54000231Y-29789730D01*
X54000231Y-29635886D01*
X53970218Y-29484999D01*
X53911344Y-29342866D01*
X53856028Y-29260078D01*
X65513000Y-29260078D01*
X65513000Y-29413922D01*
X65543013Y-29564809D01*
X65601887Y-29706942D01*
X65687358Y-29834859D01*
X65796141Y-29943642D01*
X65924058Y-30029113D01*
X66066191Y-30087987D01*
X66217078Y-30118000D01*
X66370922Y-30118000D01*
X66521809Y-30087987D01*
X66663942Y-30029113D01*
X66791859Y-29943642D01*
X66900642Y-29834859D01*
X66945263Y-29768078D01*
X70720000Y-29768078D01*
X70720000Y-29921922D01*
X70750013Y-30072809D01*
X70808887Y-30214942D01*
X70894358Y-30342859D01*
X71003141Y-30451642D01*
X71131058Y-30537113D01*
X71273191Y-30595987D01*
X71424078Y-30626000D01*
X71577922Y-30626000D01*
X71728809Y-30595987D01*
X71870942Y-30537113D01*
X71998859Y-30451642D01*
X72107642Y-30342859D01*
X72193113Y-30214942D01*
X72251987Y-30072809D01*
X72282000Y-29921922D01*
X72282000Y-29768078D01*
X72251987Y-29617191D01*
X72193113Y-29475058D01*
X72107642Y-29347141D01*
X71998859Y-29238358D01*
X71870942Y-29152887D01*
X71728809Y-29094013D01*
X71577922Y-29064000D01*
X71424078Y-29064000D01*
X71273191Y-29094013D01*
X71131058Y-29152887D01*
X71003141Y-29238358D01*
X70894358Y-29347141D01*
X70808887Y-29475058D01*
X70750013Y-29617191D01*
X70720000Y-29768078D01*
X66945263Y-29768078D01*
X66986113Y-29706942D01*
X67044987Y-29564809D01*
X67075000Y-29413922D01*
X67075000Y-29260078D01*
X67044987Y-29109191D01*
X66986113Y-28967058D01*
X66900642Y-28839141D01*
X66791859Y-28730358D01*
X66663942Y-28644887D01*
X66521809Y-28586013D01*
X66370922Y-28556000D01*
X66217078Y-28556000D01*
X66066191Y-28586013D01*
X65924058Y-28644887D01*
X65796141Y-28730358D01*
X65687358Y-28839141D01*
X65601887Y-28967058D01*
X65543013Y-29109191D01*
X65513000Y-29260078D01*
X53856028Y-29260078D01*
X53825873Y-29214949D01*
X53717090Y-29106166D01*
X53589173Y-29020695D01*
X53447040Y-28961821D01*
X53296153Y-28931808D01*
X53142309Y-28931808D01*
X52991422Y-28961821D01*
X52849289Y-29020695D01*
X52721372Y-29106166D01*
X52612589Y-29214949D01*
X52527118Y-29342866D01*
X52468244Y-29484999D01*
X52449035Y-29581570D01*
X52400922Y-29572000D01*
X52247078Y-29572000D01*
X52096191Y-29602013D01*
X51954058Y-29660887D01*
X51826141Y-29746358D01*
X51717358Y-29855141D01*
X51631887Y-29983058D01*
X51573013Y-30125191D01*
X51543000Y-30276078D01*
X51543000Y-30429922D01*
X51573013Y-30580809D01*
X51631887Y-30722942D01*
X51688952Y-30808346D01*
X51016803Y-30136197D01*
X50997557Y-30120403D01*
X50975601Y-30108667D01*
X50951776Y-30101440D01*
X50927000Y-30099000D01*
X47550606Y-30099000D01*
X46190803Y-28739197D01*
X46171557Y-28723403D01*
X46149601Y-28711667D01*
X46125776Y-28704440D01*
X46101000Y-28702000D01*
X43434000Y-28702000D01*
X43409224Y-28704440D01*
X43385399Y-28711667D01*
X43363443Y-28723403D01*
X43344197Y-28739197D01*
X42455197Y-29628197D01*
X42439403Y-29647443D01*
X42427667Y-29669399D01*
X42420440Y-29693224D01*
X42418000Y-29718000D01*
X42126843Y-29718000D01*
X42126843Y-29503000D01*
X42119487Y-29428311D01*
X42097701Y-29356492D01*
X42062322Y-29290304D01*
X42014711Y-29232289D01*
X41956696Y-29184678D01*
X41890508Y-29149299D01*
X41818689Y-29127513D01*
X41744000Y-29120157D01*
X40044000Y-29120157D01*
X39969311Y-29127513D01*
X39897492Y-29149299D01*
X39831304Y-29184678D01*
X39773289Y-29232289D01*
X39725678Y-29290304D01*
X39690299Y-29356492D01*
X39668513Y-29428311D01*
X39661157Y-29503000D01*
X37379375Y-29503000D01*
X37311809Y-29475013D01*
X37160922Y-29445000D01*
X37007078Y-29445000D01*
X36856191Y-29475013D01*
X36714058Y-29533887D01*
X36586141Y-29619358D01*
X36477358Y-29728141D01*
X36391887Y-29856058D01*
X36333013Y-29998191D01*
X36303000Y-30149078D01*
X26060000Y-30149078D01*
X26060000Y-28371078D01*
X30080000Y-28371078D01*
X30080000Y-28524922D01*
X30110013Y-28675809D01*
X30168887Y-28817942D01*
X30254358Y-28945859D01*
X30363141Y-29054642D01*
X30491058Y-29140113D01*
X30633191Y-29198987D01*
X30784078Y-29229000D01*
X30937922Y-29229000D01*
X31088809Y-29198987D01*
X31230942Y-29140113D01*
X31358859Y-29054642D01*
X31467642Y-28945859D01*
X31553113Y-28817942D01*
X31611987Y-28675809D01*
X31642000Y-28524922D01*
X31642000Y-28371078D01*
X36303000Y-28371078D01*
X36303000Y-28524922D01*
X36333013Y-28675809D01*
X36391887Y-28817942D01*
X36477358Y-28945859D01*
X36586141Y-29054642D01*
X36714058Y-29140113D01*
X36856191Y-29198987D01*
X37007078Y-29229000D01*
X37160922Y-29229000D01*
X37311809Y-29198987D01*
X37453942Y-29140113D01*
X37581859Y-29054642D01*
X37690642Y-28945859D01*
X37776113Y-28817942D01*
X37834987Y-28675809D01*
X37865000Y-28524922D01*
X37865000Y-28371078D01*
X37834987Y-28220191D01*
X37776113Y-28078058D01*
X37717327Y-27990078D01*
X41764000Y-27990078D01*
X41764000Y-28143922D01*
X41794013Y-28294809D01*
X41852887Y-28436942D01*
X41938358Y-28564859D01*
X42047141Y-28673642D01*
X42175058Y-28759113D01*
X42317191Y-28817987D01*
X42468078Y-28848000D01*
X42621922Y-28848000D01*
X42772809Y-28817987D01*
X42914942Y-28759113D01*
X43042859Y-28673642D01*
X43151642Y-28564859D01*
X43237113Y-28436942D01*
X43295987Y-28294809D01*
X43326000Y-28143922D01*
X43326000Y-27990078D01*
X43295987Y-27839191D01*
X43237113Y-27697058D01*
X43151642Y-27569141D01*
X43042859Y-27460358D01*
X42914942Y-27374887D01*
X42772809Y-27316013D01*
X42621922Y-27286000D01*
X42468078Y-27286000D01*
X42317191Y-27316013D01*
X42175058Y-27374887D01*
X42047141Y-27460358D01*
X41938358Y-27569141D01*
X41852887Y-27697058D01*
X41794013Y-27839191D01*
X41764000Y-27990078D01*
X37717327Y-27990078D01*
X37690642Y-27950141D01*
X37581859Y-27841358D01*
X37453942Y-27755887D01*
X37311809Y-27697013D01*
X37160922Y-27667000D01*
X37007078Y-27667000D01*
X36856191Y-27697013D01*
X36714058Y-27755887D01*
X36586141Y-27841358D01*
X36477358Y-27950141D01*
X36391887Y-28078058D01*
X36333013Y-28220191D01*
X36303000Y-28371078D01*
X31642000Y-28371078D01*
X31611987Y-28220191D01*
X31553113Y-28078058D01*
X31467642Y-27950141D01*
X31358859Y-27841358D01*
X31230942Y-27755887D01*
X31088809Y-27697013D01*
X30937922Y-27667000D01*
X30784078Y-27667000D01*
X30633191Y-27697013D01*
X30491058Y-27755887D01*
X30363141Y-27841358D01*
X30254358Y-27950141D01*
X30168887Y-28078058D01*
X30110013Y-28220191D01*
X30080000Y-28371078D01*
X26060000Y-28371078D01*
X26060000Y-26795000D01*
X27039696Y-26795000D01*
X27057671Y-26977508D01*
X27110907Y-27153002D01*
X27197357Y-27314738D01*
X27313699Y-27456501D01*
X27455462Y-27572843D01*
X27617198Y-27659293D01*
X27792692Y-27712529D01*
X27929469Y-27726000D01*
X28620931Y-27726000D01*
X28757708Y-27712529D01*
X28933202Y-27659293D01*
X29094938Y-27572843D01*
X29236701Y-27456501D01*
X29353043Y-27314738D01*
X29439493Y-27153002D01*
X29492729Y-26977508D01*
X29510704Y-26795000D01*
X30839696Y-26795000D01*
X30857671Y-26977508D01*
X30910907Y-27153002D01*
X30997357Y-27314738D01*
X31113699Y-27456501D01*
X31255462Y-27572843D01*
X31417198Y-27659293D01*
X31592692Y-27712529D01*
X31729469Y-27726000D01*
X32420931Y-27726000D01*
X32557708Y-27712529D01*
X32733202Y-27659293D01*
X32894938Y-27572843D01*
X33036701Y-27456501D01*
X33153043Y-27314738D01*
X33239493Y-27153002D01*
X33292729Y-26977508D01*
X33310704Y-26795000D01*
X33292729Y-26612492D01*
X33239493Y-26436998D01*
X33153043Y-26275262D01*
X33036701Y-26133499D01*
X32894938Y-26017157D01*
X32846109Y-25991057D01*
X45598845Y-25991057D01*
X45598845Y-26144901D01*
X45628858Y-26295788D01*
X45687732Y-26437921D01*
X45773203Y-26565838D01*
X45881986Y-26674621D01*
X46009903Y-26760092D01*
X46152036Y-26818966D01*
X46302923Y-26848979D01*
X46456767Y-26848979D01*
X46607654Y-26818966D01*
X46749787Y-26760092D01*
X46877704Y-26674621D01*
X46971000Y-26581325D01*
X46971000Y-26619922D01*
X47001013Y-26770809D01*
X47059887Y-26912942D01*
X47102613Y-26976886D01*
X47018358Y-27061141D01*
X46932887Y-27189058D01*
X46874013Y-27331191D01*
X46844000Y-27482078D01*
X46844000Y-27635922D01*
X46874013Y-27786809D01*
X46932887Y-27928942D01*
X47018358Y-28056859D01*
X47091999Y-28130500D01*
X47018358Y-28204141D01*
X46932887Y-28332058D01*
X46874013Y-28474191D01*
X46844000Y-28625078D01*
X46844000Y-28778922D01*
X46874013Y-28929809D01*
X46932887Y-29071942D01*
X47018358Y-29199859D01*
X47127141Y-29308642D01*
X47255058Y-29394113D01*
X47397191Y-29452987D01*
X47548078Y-29483000D01*
X47701922Y-29483000D01*
X47852809Y-29452987D01*
X47994942Y-29394113D01*
X48082391Y-29335682D01*
X48161354Y-29453859D01*
X48270137Y-29562642D01*
X48398054Y-29648113D01*
X48540187Y-29706987D01*
X48691074Y-29737000D01*
X48844918Y-29737000D01*
X48995805Y-29706987D01*
X49137938Y-29648113D01*
X49265855Y-29562642D01*
X49374638Y-29453859D01*
X49460109Y-29325942D01*
X49518983Y-29183809D01*
X49548996Y-29032922D01*
X49548996Y-28879078D01*
X49518983Y-28728191D01*
X49460109Y-28586058D01*
X49374638Y-28458141D01*
X49265855Y-28349358D01*
X49137938Y-28263887D01*
X48995805Y-28205013D01*
X48844918Y-28175000D01*
X48691074Y-28175000D01*
X48540187Y-28205013D01*
X48398054Y-28263887D01*
X48310605Y-28322318D01*
X48231642Y-28204141D01*
X48158001Y-28130500D01*
X48231642Y-28056859D01*
X48317113Y-27928942D01*
X48375987Y-27786809D01*
X48406000Y-27635922D01*
X48406000Y-27482078D01*
X48375987Y-27331191D01*
X48317113Y-27189058D01*
X48274387Y-27125114D01*
X48358642Y-27040859D01*
X48444113Y-26912942D01*
X48502987Y-26770809D01*
X48533000Y-26619922D01*
X48533000Y-26466078D01*
X48502987Y-26315191D01*
X48444113Y-26173058D01*
X48358642Y-26045141D01*
X48249859Y-25936358D01*
X48121942Y-25850887D01*
X47979809Y-25792013D01*
X47828922Y-25762000D01*
X47675078Y-25762000D01*
X47524191Y-25792013D01*
X47382058Y-25850887D01*
X47254141Y-25936358D01*
X47160845Y-26029654D01*
X47160845Y-25991057D01*
X47130832Y-25840170D01*
X47071958Y-25698037D01*
X46986487Y-25570120D01*
X46877704Y-25461337D01*
X46749787Y-25375866D01*
X46607654Y-25316992D01*
X46456767Y-25286979D01*
X46302923Y-25286979D01*
X46152036Y-25316992D01*
X46009903Y-25375866D01*
X45881986Y-25461337D01*
X45773203Y-25570120D01*
X45687732Y-25698037D01*
X45628858Y-25840170D01*
X45598845Y-25991057D01*
X32846109Y-25991057D01*
X32733202Y-25930707D01*
X32557708Y-25877471D01*
X32420931Y-25864000D01*
X31729469Y-25864000D01*
X31592692Y-25877471D01*
X31417198Y-25930707D01*
X31255462Y-26017157D01*
X31113699Y-26133499D01*
X30997357Y-26275262D01*
X30910907Y-26436998D01*
X30857671Y-26612492D01*
X30839696Y-26795000D01*
X29510704Y-26795000D01*
X29492729Y-26612492D01*
X29439493Y-26436998D01*
X29353043Y-26275262D01*
X29236701Y-26133499D01*
X29094938Y-26017157D01*
X28933202Y-25930707D01*
X28757708Y-25877471D01*
X28620931Y-25864000D01*
X27929469Y-25864000D01*
X27792692Y-25877471D01*
X27617198Y-25930707D01*
X27455462Y-26017157D01*
X27313699Y-26133499D01*
X27197357Y-26275262D01*
X27110907Y-26436998D01*
X27057671Y-26612492D01*
X27039696Y-26795000D01*
X26060000Y-26795000D01*
X26060000Y-24688078D01*
X57575500Y-24688078D01*
X57575500Y-24841922D01*
X57605513Y-24992809D01*
X57664387Y-25134942D01*
X57749858Y-25262859D01*
X57858641Y-25371642D01*
X57986558Y-25457113D01*
X58010478Y-25467021D01*
X58003858Y-25473641D01*
X57918387Y-25601558D01*
X57859513Y-25743691D01*
X57829500Y-25894578D01*
X57829500Y-26048422D01*
X57859513Y-26199309D01*
X57918387Y-26341442D01*
X58003858Y-26469359D01*
X58112641Y-26578142D01*
X58240558Y-26663613D01*
X58382691Y-26722487D01*
X58533578Y-26752500D01*
X58687422Y-26752500D01*
X58838309Y-26722487D01*
X58980442Y-26663613D01*
X59108359Y-26578142D01*
X59217142Y-26469359D01*
X59302613Y-26341442D01*
X59303592Y-26339078D01*
X61957000Y-26339078D01*
X61957000Y-26492922D01*
X61987013Y-26643809D01*
X62045887Y-26785942D01*
X62131358Y-26913859D01*
X62240141Y-27022642D01*
X62368058Y-27108113D01*
X62510191Y-27166987D01*
X62661078Y-27197000D01*
X62814922Y-27197000D01*
X62965809Y-27166987D01*
X63107942Y-27108113D01*
X63235859Y-27022642D01*
X63344642Y-26913859D01*
X63430113Y-26785942D01*
X63488987Y-26643809D01*
X63519000Y-26492922D01*
X63519000Y-26339078D01*
X66021000Y-26339078D01*
X66021000Y-26492922D01*
X66051013Y-26643809D01*
X66109887Y-26785942D01*
X66195358Y-26913859D01*
X66304141Y-27022642D01*
X66432058Y-27108113D01*
X66574191Y-27166987D01*
X66725078Y-27197000D01*
X66878922Y-27197000D01*
X67029809Y-27166987D01*
X67171942Y-27108113D01*
X67299859Y-27022642D01*
X67408642Y-26913859D01*
X67494113Y-26785942D01*
X67552987Y-26643809D01*
X67583000Y-26492922D01*
X67583000Y-26339078D01*
X67552987Y-26188191D01*
X67494113Y-26046058D01*
X67408642Y-25918141D01*
X67299859Y-25809358D01*
X67171942Y-25723887D01*
X67029809Y-25665013D01*
X66878922Y-25635000D01*
X66725078Y-25635000D01*
X66574191Y-25665013D01*
X66432058Y-25723887D01*
X66304141Y-25809358D01*
X66195358Y-25918141D01*
X66109887Y-26046058D01*
X66051013Y-26188191D01*
X66021000Y-26339078D01*
X63519000Y-26339078D01*
X63488987Y-26188191D01*
X63430113Y-26046058D01*
X63344642Y-25918141D01*
X63235859Y-25809358D01*
X63107942Y-25723887D01*
X62965809Y-25665013D01*
X62814922Y-25635000D01*
X62661078Y-25635000D01*
X62510191Y-25665013D01*
X62368058Y-25723887D01*
X62240141Y-25809358D01*
X62131358Y-25918141D01*
X62045887Y-26046058D01*
X61987013Y-26188191D01*
X61957000Y-26339078D01*
X59303592Y-26339078D01*
X59361487Y-26199309D01*
X59391500Y-26048422D01*
X59391500Y-25894578D01*
X59361487Y-25743691D01*
X59302613Y-25601558D01*
X59217142Y-25473641D01*
X59108359Y-25364858D01*
X58980442Y-25279387D01*
X58956522Y-25269479D01*
X58963142Y-25262859D01*
X59048613Y-25134942D01*
X59107487Y-24992809D01*
X59137500Y-24841922D01*
X59137500Y-24688078D01*
X61639500Y-24688078D01*
X61639500Y-24841922D01*
X61669513Y-24992809D01*
X61728387Y-25134942D01*
X61813858Y-25262859D01*
X61922641Y-25371642D01*
X62050558Y-25457113D01*
X62192691Y-25515987D01*
X62343578Y-25546000D01*
X62497422Y-25546000D01*
X62648309Y-25515987D01*
X62790442Y-25457113D01*
X62918359Y-25371642D01*
X63027142Y-25262859D01*
X63112613Y-25134942D01*
X63171487Y-24992809D01*
X63201500Y-24841922D01*
X63201500Y-24688078D01*
X65703500Y-24688078D01*
X65703500Y-24841922D01*
X65733513Y-24992809D01*
X65792387Y-25134942D01*
X65877858Y-25262859D01*
X65986641Y-25371642D01*
X66114558Y-25457113D01*
X66256691Y-25515987D01*
X66407578Y-25546000D01*
X66561422Y-25546000D01*
X66712309Y-25515987D01*
X66854442Y-25457113D01*
X66982359Y-25371642D01*
X67021074Y-25332927D01*
X72855400Y-25332927D01*
X72855400Y-25467073D01*
X72881571Y-25598640D01*
X72932906Y-25722574D01*
X73007433Y-25834112D01*
X73102288Y-25928967D01*
X73213826Y-26003494D01*
X73337760Y-26054829D01*
X73469327Y-26081000D01*
X73603473Y-26081000D01*
X73735040Y-26054829D01*
X73858974Y-26003494D01*
X73970512Y-25928967D01*
X74065367Y-25834112D01*
X74139894Y-25722574D01*
X74191229Y-25598640D01*
X74217400Y-25467073D01*
X74217400Y-25332927D01*
X74191229Y-25201360D01*
X74139894Y-25077426D01*
X74065367Y-24965888D01*
X73970512Y-24871033D01*
X73858974Y-24796506D01*
X73735040Y-24745171D01*
X73603473Y-24719000D01*
X73469327Y-24719000D01*
X73337760Y-24745171D01*
X73213826Y-24796506D01*
X73102288Y-24871033D01*
X73007433Y-24965888D01*
X72932906Y-25077426D01*
X72881571Y-25201360D01*
X72855400Y-25332927D01*
X67021074Y-25332927D01*
X67091142Y-25262859D01*
X67176613Y-25134942D01*
X67235487Y-24992809D01*
X67265500Y-24841922D01*
X67265500Y-24688078D01*
X67235487Y-24537191D01*
X67176613Y-24395058D01*
X67091142Y-24267141D01*
X66982359Y-24158358D01*
X66854442Y-24072887D01*
X66712309Y-24014013D01*
X66561422Y-23984000D01*
X66407578Y-23984000D01*
X66256691Y-24014013D01*
X66114558Y-24072887D01*
X65986641Y-24158358D01*
X65877858Y-24267141D01*
X65792387Y-24395058D01*
X65733513Y-24537191D01*
X65703500Y-24688078D01*
X63201500Y-24688078D01*
X63171487Y-24537191D01*
X63112613Y-24395058D01*
X63027142Y-24267141D01*
X62918359Y-24158358D01*
X62790442Y-24072887D01*
X62648309Y-24014013D01*
X62497422Y-23984000D01*
X62343578Y-23984000D01*
X62192691Y-24014013D01*
X62050558Y-24072887D01*
X61922641Y-24158358D01*
X61813858Y-24267141D01*
X61728387Y-24395058D01*
X61669513Y-24537191D01*
X61639500Y-24688078D01*
X59137500Y-24688078D01*
X59107487Y-24537191D01*
X59048613Y-24395058D01*
X58963142Y-24267141D01*
X58854359Y-24158358D01*
X58726442Y-24072887D01*
X58584309Y-24014013D01*
X58433422Y-23984000D01*
X58279578Y-23984000D01*
X58128691Y-24014013D01*
X57986558Y-24072887D01*
X57858641Y-24158358D01*
X57749858Y-24267141D01*
X57664387Y-24395058D01*
X57605513Y-24537191D01*
X57575500Y-24688078D01*
X26060000Y-24688078D01*
X26060000Y-23037078D01*
X35541000Y-23037078D01*
X35541000Y-23190922D01*
X35571013Y-23341809D01*
X35629887Y-23483942D01*
X35715358Y-23611859D01*
X35824141Y-23720642D01*
X35952058Y-23806113D01*
X36094191Y-23864987D01*
X36245078Y-23895000D01*
X36398922Y-23895000D01*
X36549809Y-23864987D01*
X36691942Y-23806113D01*
X36819859Y-23720642D01*
X36928642Y-23611859D01*
X37014113Y-23483942D01*
X37041395Y-23418078D01*
X37319000Y-23418078D01*
X37319000Y-23571922D01*
X37349013Y-23722809D01*
X37407887Y-23864942D01*
X37493358Y-23992859D01*
X37602141Y-24101642D01*
X37730058Y-24187113D01*
X37872191Y-24245987D01*
X38023078Y-24276000D01*
X38176922Y-24276000D01*
X38327809Y-24245987D01*
X38469942Y-24187113D01*
X38597859Y-24101642D01*
X38706642Y-23992859D01*
X38792113Y-23864942D01*
X38850987Y-23722809D01*
X38881000Y-23571922D01*
X38881000Y-23418078D01*
X38850987Y-23267191D01*
X38792113Y-23125058D01*
X38706642Y-22997141D01*
X38597859Y-22888358D01*
X38469942Y-22802887D01*
X38327809Y-22744013D01*
X38176922Y-22714000D01*
X38023078Y-22714000D01*
X37872191Y-22744013D01*
X37730058Y-22802887D01*
X37602141Y-22888358D01*
X37493358Y-22997141D01*
X37407887Y-23125058D01*
X37349013Y-23267191D01*
X37319000Y-23418078D01*
X37041395Y-23418078D01*
X37072987Y-23341809D01*
X37103000Y-23190922D01*
X37103000Y-23037078D01*
X37072987Y-22886191D01*
X37014113Y-22744058D01*
X36928642Y-22616141D01*
X36841579Y-22529078D01*
X69704000Y-22529078D01*
X69704000Y-22682922D01*
X69734013Y-22833809D01*
X69792887Y-22975942D01*
X69878358Y-23103859D01*
X69987141Y-23212642D01*
X70115058Y-23298113D01*
X70257191Y-23356987D01*
X70408078Y-23387000D01*
X70561922Y-23387000D01*
X70712809Y-23356987D01*
X70854942Y-23298113D01*
X70982859Y-23212642D01*
X71091642Y-23103859D01*
X71177113Y-22975942D01*
X71235987Y-22833809D01*
X71266000Y-22682922D01*
X71266000Y-22529078D01*
X71235987Y-22378191D01*
X71177113Y-22236058D01*
X71091642Y-22108141D01*
X70982859Y-21999358D01*
X70854942Y-21913887D01*
X70712809Y-21855013D01*
X70561922Y-21825000D01*
X70408078Y-21825000D01*
X70257191Y-21855013D01*
X70115058Y-21913887D01*
X69987141Y-21999358D01*
X69878358Y-22108141D01*
X69792887Y-22236058D01*
X69734013Y-22378191D01*
X69704000Y-22529078D01*
X36841579Y-22529078D01*
X36819859Y-22507358D01*
X36691942Y-22421887D01*
X36549809Y-22363013D01*
X36398922Y-22333000D01*
X36245078Y-22333000D01*
X36094191Y-22363013D01*
X35952058Y-22421887D01*
X35824141Y-22507358D01*
X35715358Y-22616141D01*
X35629887Y-22744058D01*
X35571013Y-22886191D01*
X35541000Y-23037078D01*
X26060000Y-23037078D01*
X26060000Y-22148078D01*
X27413000Y-22148078D01*
X27413000Y-22301922D01*
X27443013Y-22452809D01*
X27501887Y-22594942D01*
X27587358Y-22722859D01*
X27696141Y-22831642D01*
X27824058Y-22917113D01*
X27966191Y-22975987D01*
X28117078Y-23006000D01*
X28270922Y-23006000D01*
X28421809Y-22975987D01*
X28563942Y-22917113D01*
X28691859Y-22831642D01*
X28800642Y-22722859D01*
X28886113Y-22594942D01*
X28944987Y-22452809D01*
X28975000Y-22301922D01*
X28975000Y-22148078D01*
X29318000Y-22148078D01*
X29318000Y-22301922D01*
X29348013Y-22452809D01*
X29406887Y-22594942D01*
X29492358Y-22722859D01*
X29601141Y-22831642D01*
X29729058Y-22917113D01*
X29871191Y-22975987D01*
X30022078Y-23006000D01*
X30175922Y-23006000D01*
X30326809Y-22975987D01*
X30468942Y-22917113D01*
X30596859Y-22831642D01*
X30705642Y-22722859D01*
X30791113Y-22594942D01*
X30849987Y-22452809D01*
X30880000Y-22301922D01*
X30880000Y-22148078D01*
X31223000Y-22148078D01*
X31223000Y-22301922D01*
X31253013Y-22452809D01*
X31311887Y-22594942D01*
X31397358Y-22722859D01*
X31506141Y-22831642D01*
X31634058Y-22917113D01*
X31776191Y-22975987D01*
X31927078Y-23006000D01*
X32080922Y-23006000D01*
X32231809Y-22975987D01*
X32373942Y-22917113D01*
X32501859Y-22831642D01*
X32610642Y-22722859D01*
X32696113Y-22594942D01*
X32754987Y-22452809D01*
X32755030Y-22452594D01*
X32792191Y-22467987D01*
X32943078Y-22498000D01*
X33096922Y-22498000D01*
X33247809Y-22467987D01*
X33389942Y-22409113D01*
X33517859Y-22323642D01*
X33626642Y-22214859D01*
X33712113Y-22086942D01*
X33770987Y-21944809D01*
X33801000Y-21793922D01*
X33801000Y-21640078D01*
X33770987Y-21489191D01*
X33712113Y-21347058D01*
X33626642Y-21219141D01*
X33517859Y-21110358D01*
X33389942Y-21024887D01*
X33247809Y-20966013D01*
X33096922Y-20936000D01*
X32943078Y-20936000D01*
X32792191Y-20966013D01*
X32650058Y-21024887D01*
X32522141Y-21110358D01*
X32413358Y-21219141D01*
X32327887Y-21347058D01*
X32269013Y-21489191D01*
X32268970Y-21489406D01*
X32231809Y-21474013D01*
X32080922Y-21444000D01*
X31927078Y-21444000D01*
X31776191Y-21474013D01*
X31634058Y-21532887D01*
X31506141Y-21618358D01*
X31397358Y-21727141D01*
X31311887Y-21855058D01*
X31253013Y-21997191D01*
X31223000Y-22148078D01*
X30880000Y-22148078D01*
X30849987Y-21997191D01*
X30791113Y-21855058D01*
X30705642Y-21727141D01*
X30596859Y-21618358D01*
X30468942Y-21532887D01*
X30326809Y-21474013D01*
X30175922Y-21444000D01*
X30022078Y-21444000D01*
X29871191Y-21474013D01*
X29729058Y-21532887D01*
X29601141Y-21618358D01*
X29492358Y-21727141D01*
X29406887Y-21855058D01*
X29348013Y-21997191D01*
X29318000Y-22148078D01*
X28975000Y-22148078D01*
X28944987Y-21997191D01*
X28886113Y-21855058D01*
X28800642Y-21727141D01*
X28691859Y-21618358D01*
X28563942Y-21532887D01*
X28421809Y-21474013D01*
X28270922Y-21444000D01*
X28117078Y-21444000D01*
X27966191Y-21474013D01*
X27824058Y-21532887D01*
X27696141Y-21618358D01*
X27587358Y-21727141D01*
X27501887Y-21855058D01*
X27443013Y-21997191D01*
X27413000Y-22148078D01*
X26060000Y-22148078D01*
X26060000Y-21534868D01*
X26952483Y-20842424D01*
X43307000Y-20842424D01*
X43307000Y-21067576D01*
X43350925Y-21288401D01*
X43437087Y-21496413D01*
X43562174Y-21683620D01*
X43721380Y-21842826D01*
X43908587Y-21967913D01*
X44116599Y-22054075D01*
X44337424Y-22098000D01*
X44562576Y-22098000D01*
X44783401Y-22054075D01*
X44991413Y-21967913D01*
X45178620Y-21842826D01*
X45337826Y-21683620D01*
X45462913Y-21496413D01*
X45549075Y-21288401D01*
X45593000Y-21067576D01*
X45593000Y-20842424D01*
X45847000Y-20842424D01*
X45847000Y-21067576D01*
X45890925Y-21288401D01*
X45977087Y-21496413D01*
X46102174Y-21683620D01*
X46261380Y-21842826D01*
X46448587Y-21967913D01*
X46656599Y-22054075D01*
X46877424Y-22098000D01*
X47102576Y-22098000D01*
X47323401Y-22054075D01*
X47531413Y-21967913D01*
X47718620Y-21842826D01*
X47877826Y-21683620D01*
X48002913Y-21496413D01*
X48089075Y-21288401D01*
X48133000Y-21067576D01*
X48133000Y-20842424D01*
X48387000Y-20842424D01*
X48387000Y-21067576D01*
X48430925Y-21288401D01*
X48517087Y-21496413D01*
X48642174Y-21683620D01*
X48801380Y-21842826D01*
X48988587Y-21967913D01*
X49196599Y-22054075D01*
X49417424Y-22098000D01*
X49642576Y-22098000D01*
X49863401Y-22054075D01*
X50071413Y-21967913D01*
X50258620Y-21842826D01*
X50417826Y-21683620D01*
X50542913Y-21496413D01*
X50629075Y-21288401D01*
X50673000Y-21067576D01*
X50673000Y-20842424D01*
X50927000Y-20842424D01*
X50927000Y-21067576D01*
X50970925Y-21288401D01*
X51057087Y-21496413D01*
X51182174Y-21683620D01*
X51341380Y-21842826D01*
X51528587Y-21967913D01*
X51736599Y-22054075D01*
X51957424Y-22098000D01*
X52182576Y-22098000D01*
X52403401Y-22054075D01*
X52611413Y-21967913D01*
X52798620Y-21842826D01*
X52957826Y-21683620D01*
X53082913Y-21496413D01*
X53169075Y-21288401D01*
X53213000Y-21067576D01*
X53213000Y-20842424D01*
X53467000Y-20842424D01*
X53467000Y-21067576D01*
X53510925Y-21288401D01*
X53597087Y-21496413D01*
X53722174Y-21683620D01*
X53881380Y-21842826D01*
X54068587Y-21967913D01*
X54276599Y-22054075D01*
X54497424Y-22098000D01*
X54722576Y-22098000D01*
X54943401Y-22054075D01*
X55151413Y-21967913D01*
X55338620Y-21842826D01*
X55497826Y-21683620D01*
X55622913Y-21496413D01*
X55709075Y-21288401D01*
X55753000Y-21067576D01*
X55753000Y-20842424D01*
X56007000Y-20842424D01*
X56007000Y-21067576D01*
X56050925Y-21288401D01*
X56137087Y-21496413D01*
X56262174Y-21683620D01*
X56421380Y-21842826D01*
X56608587Y-21967913D01*
X56816599Y-22054075D01*
X57037424Y-22098000D01*
X57262576Y-22098000D01*
X57483401Y-22054075D01*
X57691413Y-21967913D01*
X57878620Y-21842826D01*
X58037826Y-21683620D01*
X58151776Y-21513080D01*
X60179000Y-21513080D01*
X60179000Y-21666924D01*
X60209013Y-21817811D01*
X60267887Y-21959944D01*
X60353358Y-22087861D01*
X60462141Y-22196644D01*
X60590058Y-22282115D01*
X60732191Y-22340989D01*
X60883078Y-22371002D01*
X61036922Y-22371002D01*
X61187809Y-22340989D01*
X61329942Y-22282115D01*
X61457859Y-22196644D01*
X61566642Y-22087861D01*
X61652113Y-21959944D01*
X61710987Y-21817811D01*
X61741000Y-21666924D01*
X61741000Y-21513080D01*
X61741000Y-21513078D01*
X63354000Y-21513078D01*
X63354000Y-21666922D01*
X63384013Y-21817809D01*
X63442887Y-21959942D01*
X63528358Y-22087859D01*
X63637141Y-22196642D01*
X63765058Y-22282113D01*
X63907191Y-22340987D01*
X64058078Y-22371000D01*
X64211922Y-22371000D01*
X64362809Y-22340987D01*
X64504942Y-22282113D01*
X64632859Y-22196642D01*
X64741642Y-22087859D01*
X64827113Y-21959942D01*
X64885987Y-21817809D01*
X64916000Y-21666922D01*
X64916000Y-21513078D01*
X67418000Y-21513078D01*
X67418000Y-21666922D01*
X67448013Y-21817809D01*
X67506887Y-21959942D01*
X67592358Y-22087859D01*
X67701141Y-22196642D01*
X67829058Y-22282113D01*
X67971191Y-22340987D01*
X68122078Y-22371000D01*
X68275922Y-22371000D01*
X68426809Y-22340987D01*
X68568942Y-22282113D01*
X68696859Y-22196642D01*
X68805642Y-22087859D01*
X68891113Y-21959942D01*
X68949987Y-21817809D01*
X68980000Y-21666922D01*
X68980000Y-21513078D01*
X68949987Y-21362191D01*
X68891113Y-21220058D01*
X68805642Y-21092141D01*
X68696859Y-20983358D01*
X68568942Y-20897887D01*
X68426809Y-20839013D01*
X68275922Y-20809000D01*
X68122078Y-20809000D01*
X67971191Y-20839013D01*
X67829058Y-20897887D01*
X67701141Y-20983358D01*
X67592358Y-21092141D01*
X67506887Y-21220058D01*
X67448013Y-21362191D01*
X67418000Y-21513078D01*
X64916000Y-21513078D01*
X64885987Y-21362191D01*
X64827113Y-21220058D01*
X64741642Y-21092141D01*
X64632859Y-20983358D01*
X64504942Y-20897887D01*
X64362809Y-20839013D01*
X64211922Y-20809000D01*
X64058078Y-20809000D01*
X63907191Y-20839013D01*
X63765058Y-20897887D01*
X63637141Y-20983358D01*
X63528358Y-21092141D01*
X63442887Y-21220058D01*
X63384013Y-21362191D01*
X63354000Y-21513078D01*
X61741000Y-21513078D01*
X61710987Y-21362193D01*
X61652113Y-21220060D01*
X61566642Y-21092143D01*
X61457859Y-20983360D01*
X61329942Y-20897889D01*
X61187809Y-20839015D01*
X61036922Y-20809002D01*
X60883078Y-20809002D01*
X60732191Y-20839015D01*
X60590058Y-20897889D01*
X60462141Y-20983360D01*
X60353358Y-21092143D01*
X60267887Y-21220060D01*
X60209013Y-21362193D01*
X60179000Y-21513080D01*
X58151776Y-21513080D01*
X58162913Y-21496413D01*
X58249075Y-21288401D01*
X58293000Y-21067576D01*
X58293000Y-20842424D01*
X58249075Y-20621599D01*
X58162913Y-20413587D01*
X58037826Y-20226380D01*
X57878620Y-20067174D01*
X57691413Y-19942087D01*
X57483401Y-19855925D01*
X57262576Y-19812000D01*
X57037424Y-19812000D01*
X56816599Y-19855925D01*
X56608587Y-19942087D01*
X56421380Y-20067174D01*
X56262174Y-20226380D01*
X56137087Y-20413587D01*
X56050925Y-20621599D01*
X56007000Y-20842424D01*
X55753000Y-20842424D01*
X55709075Y-20621599D01*
X55622913Y-20413587D01*
X55497826Y-20226380D01*
X55338620Y-20067174D01*
X55151413Y-19942087D01*
X54943401Y-19855925D01*
X54722576Y-19812000D01*
X54497424Y-19812000D01*
X54276599Y-19855925D01*
X54068587Y-19942087D01*
X53881380Y-20067174D01*
X53722174Y-20226380D01*
X53597087Y-20413587D01*
X53510925Y-20621599D01*
X53467000Y-20842424D01*
X53213000Y-20842424D01*
X53169075Y-20621599D01*
X53082913Y-20413587D01*
X52957826Y-20226380D01*
X52798620Y-20067174D01*
X52611413Y-19942087D01*
X52403401Y-19855925D01*
X52182576Y-19812000D01*
X51957424Y-19812000D01*
X51736599Y-19855925D01*
X51528587Y-19942087D01*
X51341380Y-20067174D01*
X51182174Y-20226380D01*
X51057087Y-20413587D01*
X50970925Y-20621599D01*
X50927000Y-20842424D01*
X50673000Y-20842424D01*
X50629075Y-20621599D01*
X50542913Y-20413587D01*
X50417826Y-20226380D01*
X50258620Y-20067174D01*
X50071413Y-19942087D01*
X49863401Y-19855925D01*
X49642576Y-19812000D01*
X49417424Y-19812000D01*
X49196599Y-19855925D01*
X48988587Y-19942087D01*
X48801380Y-20067174D01*
X48642174Y-20226380D01*
X48517087Y-20413587D01*
X48430925Y-20621599D01*
X48387000Y-20842424D01*
X48133000Y-20842424D01*
X48089075Y-20621599D01*
X48002913Y-20413587D01*
X47877826Y-20226380D01*
X47718620Y-20067174D01*
X47531413Y-19942087D01*
X47323401Y-19855925D01*
X47102576Y-19812000D01*
X46877424Y-19812000D01*
X46656599Y-19855925D01*
X46448587Y-19942087D01*
X46261380Y-20067174D01*
X46102174Y-20226380D01*
X45977087Y-20413587D01*
X45890925Y-20621599D01*
X45847000Y-20842424D01*
X45593000Y-20842424D01*
X45549075Y-20621599D01*
X45462913Y-20413587D01*
X45337826Y-20226380D01*
X45178620Y-20067174D01*
X44991413Y-19942087D01*
X44783401Y-19855925D01*
X44562576Y-19812000D01*
X44337424Y-19812000D01*
X44116599Y-19855925D01*
X43908587Y-19942087D01*
X43721380Y-20067174D01*
X43562174Y-20226380D01*
X43437087Y-20413587D01*
X43350925Y-20621599D01*
X43307000Y-20842424D01*
X26952483Y-20842424D01*
X28739430Y-19456000D01*
X40023430Y-19456000D01*
X39947887Y-19569058D01*
G04 #@! TA.AperFunction,Conductor*
D19*
G36*
X39947887Y-19569058D02*
G01*
X39889013Y-19711191D01*
X39859000Y-19862078D01*
X39859000Y-20015922D01*
X39889013Y-20166809D01*
X39947887Y-20308942D01*
X40033358Y-20436859D01*
X40142141Y-20545642D01*
X40270058Y-20631113D01*
X40412191Y-20689987D01*
X40563078Y-20720000D01*
X40716922Y-20720000D01*
X40867809Y-20689987D01*
X41009942Y-20631113D01*
X41137859Y-20545642D01*
X41246642Y-20436859D01*
X41332113Y-20308942D01*
X41390987Y-20166809D01*
X41421000Y-20015922D01*
X41421000Y-19862078D01*
X41390987Y-19711191D01*
X41332113Y-19569058D01*
X41256570Y-19456000D01*
X72860571Y-19456000D01*
X75312841Y-21358624D01*
X75284809Y-21347013D01*
X75133922Y-21317000D01*
X74980078Y-21317000D01*
X74829191Y-21347013D01*
X74687058Y-21405887D01*
X74559141Y-21491358D01*
X74450358Y-21600141D01*
X74364887Y-21728058D01*
X74306013Y-21870191D01*
X74276000Y-22021078D01*
X74276000Y-22174922D01*
X74306013Y-22325809D01*
X74364887Y-22467942D01*
X74450358Y-22595859D01*
X74559141Y-22704642D01*
X74687058Y-22790113D01*
X74829191Y-22848987D01*
X74980078Y-22879000D01*
X75133922Y-22879000D01*
X75284809Y-22848987D01*
X75426942Y-22790113D01*
X75540000Y-22714570D01*
X75540000Y-24747226D01*
X75535040Y-24745171D01*
X75403473Y-24719000D01*
X75269327Y-24719000D01*
X75137760Y-24745171D01*
X75013826Y-24796506D01*
X74902288Y-24871033D01*
X74807433Y-24965888D01*
X74732906Y-25077426D01*
X74681571Y-25201360D01*
X74655400Y-25332927D01*
X74655400Y-25467073D01*
X74681571Y-25598640D01*
X74732906Y-25722574D01*
X74807433Y-25834112D01*
X74902288Y-25928967D01*
X75013826Y-26003494D01*
X75137760Y-26054829D01*
X75269327Y-26081000D01*
X75403473Y-26081000D01*
X75535040Y-26054829D01*
X75540000Y-26052774D01*
X75540000Y-28085430D01*
X75426942Y-28009887D01*
X75284809Y-27951013D01*
X75133922Y-27921000D01*
X74980078Y-27921000D01*
X74829191Y-27951013D01*
X74687058Y-28009887D01*
X74559141Y-28095358D01*
X74450358Y-28204141D01*
X74364887Y-28332058D01*
X74306013Y-28474191D01*
X74276000Y-28625078D01*
X74276000Y-28778922D01*
X74306013Y-28929809D01*
X74364887Y-29071942D01*
X74450358Y-29199859D01*
X74460499Y-29210000D01*
X74450358Y-29220141D01*
X74364887Y-29348058D01*
X74306013Y-29490191D01*
X74276000Y-29641078D01*
X74276000Y-29794922D01*
X74306013Y-29945809D01*
X74364887Y-30087942D01*
X74450358Y-30215859D01*
X74559141Y-30324642D01*
X74687058Y-30410113D01*
X74829191Y-30468987D01*
X74980078Y-30499000D01*
X75133922Y-30499000D01*
X75284809Y-30468987D01*
X75426942Y-30410113D01*
X75540000Y-30334570D01*
X75540001Y-32367226D01*
X75535040Y-32365171D01*
X75403473Y-32339000D01*
X75269327Y-32339000D01*
X75137760Y-32365171D01*
X75013826Y-32416506D01*
X74902288Y-32491033D01*
X74807433Y-32585888D01*
X74732906Y-32697426D01*
X74681571Y-32821360D01*
X74655400Y-32952927D01*
X74655400Y-33087073D01*
X74681571Y-33218640D01*
X74732906Y-33342574D01*
X74807433Y-33454112D01*
X74902288Y-33548967D01*
X75013826Y-33623494D01*
X75137760Y-33674829D01*
X75269327Y-33701000D01*
X75403473Y-33701000D01*
X75535040Y-33674829D01*
X75540001Y-33672774D01*
X75540001Y-35705430D01*
X75426942Y-35629887D01*
X75284809Y-35571013D01*
X75133922Y-35541000D01*
X74980078Y-35541000D01*
X74829191Y-35571013D01*
X74687058Y-35629887D01*
X74559141Y-35715358D01*
X74450358Y-35824141D01*
X74364887Y-35952058D01*
X74306013Y-36094191D01*
X74276000Y-36245078D01*
X74276000Y-36398922D01*
X74306013Y-36549809D01*
X74364887Y-36691942D01*
X74450358Y-36819859D01*
X74559141Y-36928642D01*
X74687058Y-37014113D01*
X74829191Y-37072987D01*
X74980078Y-37103000D01*
X75133922Y-37103000D01*
X75284809Y-37072987D01*
X75426942Y-37014113D01*
X75540001Y-36938570D01*
X75540001Y-37719000D01*
X26060000Y-37719000D01*
X26060000Y-35435000D01*
X27039696Y-35435000D01*
X27057671Y-35617508D01*
X27110907Y-35793002D01*
X27197357Y-35954738D01*
X27313699Y-36096501D01*
X27455462Y-36212843D01*
X27617198Y-36299293D01*
X27792692Y-36352529D01*
X27929469Y-36366000D01*
X28620931Y-36366000D01*
X28757708Y-36352529D01*
X28933202Y-36299293D01*
X29094938Y-36212843D01*
X29236701Y-36096501D01*
X29353043Y-35954738D01*
X29439493Y-35793002D01*
X29492729Y-35617508D01*
X29510704Y-35435000D01*
X30839696Y-35435000D01*
X30857671Y-35617508D01*
X30910907Y-35793002D01*
X30997357Y-35954738D01*
X31113699Y-36096501D01*
X31255462Y-36212843D01*
X31417198Y-36299293D01*
X31592692Y-36352529D01*
X31729469Y-36366000D01*
X32420931Y-36366000D01*
X32557708Y-36352529D01*
X32733202Y-36299293D01*
X32894938Y-36212843D01*
X33036701Y-36096501D01*
X33153043Y-35954738D01*
X33239493Y-35793002D01*
X33292729Y-35617508D01*
X33305968Y-35483078D01*
X36303000Y-35483078D01*
X36303000Y-35636922D01*
X36333013Y-35787809D01*
X36391887Y-35929942D01*
X36477358Y-36057859D01*
X36586141Y-36166642D01*
X36714058Y-36252113D01*
X36856191Y-36310987D01*
X37007078Y-36341000D01*
X37160922Y-36341000D01*
X37311809Y-36310987D01*
X37453942Y-36252113D01*
X37581859Y-36166642D01*
X37690642Y-36057859D01*
X37776113Y-35929942D01*
X37834987Y-35787809D01*
X37865000Y-35636922D01*
X37865000Y-35483078D01*
X37855039Y-35433000D01*
X43305157Y-35433000D01*
X43305157Y-36957000D01*
X43312513Y-37031689D01*
X43334299Y-37103508D01*
X43369678Y-37169696D01*
X43417289Y-37227711D01*
X43475304Y-37275322D01*
X43541492Y-37310701D01*
X43613311Y-37332487D01*
X43688000Y-37339843D01*
X45212000Y-37339843D01*
X45286689Y-37332487D01*
X45358508Y-37310701D01*
X45424696Y-37275322D01*
X45482711Y-37227711D01*
X45530322Y-37169696D01*
X45565701Y-37103508D01*
X45587487Y-37031689D01*
X45594843Y-36957000D01*
X45594843Y-36082424D01*
X45847000Y-36082424D01*
X45847000Y-36307576D01*
X45890925Y-36528401D01*
X45977087Y-36736413D01*
X46102174Y-36923620D01*
X46261380Y-37082826D01*
X46448587Y-37207913D01*
X46656599Y-37294075D01*
X46877424Y-37338000D01*
X47102576Y-37338000D01*
X47323401Y-37294075D01*
X47531413Y-37207913D01*
X47718620Y-37082826D01*
X47877826Y-36923620D01*
X48002913Y-36736413D01*
X48089075Y-36528401D01*
X48133000Y-36307576D01*
X48133000Y-36082424D01*
X48387000Y-36082424D01*
X48387000Y-36307576D01*
X48430925Y-36528401D01*
X48517087Y-36736413D01*
X48642174Y-36923620D01*
X48801380Y-37082826D01*
X48988587Y-37207913D01*
X49196599Y-37294075D01*
X49417424Y-37338000D01*
X49642576Y-37338000D01*
X49863401Y-37294075D01*
X50071413Y-37207913D01*
X50258620Y-37082826D01*
X50417826Y-36923620D01*
X50542913Y-36736413D01*
X50629075Y-36528401D01*
X50673000Y-36307576D01*
X50673000Y-36082424D01*
X50927000Y-36082424D01*
X50927000Y-36307576D01*
X50970925Y-36528401D01*
X51057087Y-36736413D01*
X51182174Y-36923620D01*
X51341380Y-37082826D01*
X51528587Y-37207913D01*
X51736599Y-37294075D01*
X51957424Y-37338000D01*
X52182576Y-37338000D01*
X52403401Y-37294075D01*
X52611413Y-37207913D01*
X52798620Y-37082826D01*
X52957826Y-36923620D01*
X53082913Y-36736413D01*
X53169075Y-36528401D01*
X53213000Y-36307576D01*
X53213000Y-36082424D01*
X53467000Y-36082424D01*
X53467000Y-36307576D01*
X53510925Y-36528401D01*
X53597087Y-36736413D01*
X53722174Y-36923620D01*
X53881380Y-37082826D01*
X54068587Y-37207913D01*
X54276599Y-37294075D01*
X54497424Y-37338000D01*
X54722576Y-37338000D01*
X54943401Y-37294075D01*
X55151413Y-37207913D01*
X55338620Y-37082826D01*
X55497826Y-36923620D01*
X55622913Y-36736413D01*
X55709075Y-36528401D01*
X55753000Y-36307576D01*
X55753000Y-36082424D01*
X56007000Y-36082424D01*
X56007000Y-36307576D01*
X56050925Y-36528401D01*
X56137087Y-36736413D01*
X56262174Y-36923620D01*
X56421380Y-37082826D01*
X56608587Y-37207913D01*
X56816599Y-37294075D01*
X57037424Y-37338000D01*
X57262576Y-37338000D01*
X57483401Y-37294075D01*
X57691413Y-37207913D01*
X57878620Y-37082826D01*
X58037826Y-36923620D01*
X58162913Y-36736413D01*
X58249075Y-36528401D01*
X58293000Y-36307576D01*
X58293000Y-36082424D01*
X58249075Y-35861599D01*
X58162913Y-35653587D01*
X58037826Y-35466380D01*
X57878620Y-35307174D01*
X57691413Y-35182087D01*
X57483401Y-35095925D01*
X57262576Y-35052000D01*
X57037424Y-35052000D01*
X56816599Y-35095925D01*
X56608587Y-35182087D01*
X56421380Y-35307174D01*
X56262174Y-35466380D01*
X56137087Y-35653587D01*
X56050925Y-35861599D01*
X56007000Y-36082424D01*
X55753000Y-36082424D01*
X55709075Y-35861599D01*
X55622913Y-35653587D01*
X55497826Y-35466380D01*
X55338620Y-35307174D01*
X55151413Y-35182087D01*
X54943401Y-35095925D01*
X54722576Y-35052000D01*
X54497424Y-35052000D01*
X54276599Y-35095925D01*
X54068587Y-35182087D01*
X53881380Y-35307174D01*
X53722174Y-35466380D01*
X53597087Y-35653587D01*
X53510925Y-35861599D01*
X53467000Y-36082424D01*
X53213000Y-36082424D01*
X53169075Y-35861599D01*
X53082913Y-35653587D01*
X52957826Y-35466380D01*
X52798620Y-35307174D01*
X52611413Y-35182087D01*
X52403401Y-35095925D01*
X52182576Y-35052000D01*
X51957424Y-35052000D01*
X51736599Y-35095925D01*
X51528587Y-35182087D01*
X51341380Y-35307174D01*
X51182174Y-35466380D01*
X51057087Y-35653587D01*
X50970925Y-35861599D01*
X50927000Y-36082424D01*
X50673000Y-36082424D01*
X50629075Y-35861599D01*
X50542913Y-35653587D01*
X50417826Y-35466380D01*
X50258620Y-35307174D01*
X50071413Y-35182087D01*
X49863401Y-35095925D01*
X49642576Y-35052000D01*
X49417424Y-35052000D01*
X49196599Y-35095925D01*
X48988587Y-35182087D01*
X48801380Y-35307174D01*
X48642174Y-35466380D01*
X48517087Y-35653587D01*
X48430925Y-35861599D01*
X48387000Y-36082424D01*
X48133000Y-36082424D01*
X48089075Y-35861599D01*
X48002913Y-35653587D01*
X47877826Y-35466380D01*
X47718620Y-35307174D01*
X47531413Y-35182087D01*
X47323401Y-35095925D01*
X47102576Y-35052000D01*
X46877424Y-35052000D01*
X46656599Y-35095925D01*
X46448587Y-35182087D01*
X46261380Y-35307174D01*
X46102174Y-35466380D01*
X45977087Y-35653587D01*
X45890925Y-35861599D01*
X45847000Y-36082424D01*
X45594843Y-36082424D01*
X45594843Y-35433000D01*
X45587487Y-35358311D01*
X45565701Y-35286492D01*
X45530322Y-35220304D01*
X45482711Y-35162289D01*
X45424696Y-35114678D01*
X45358508Y-35079299D01*
X45286689Y-35057513D01*
X45212000Y-35050157D01*
X43688000Y-35050157D01*
X43613311Y-35057513D01*
X43541492Y-35079299D01*
X43475304Y-35114678D01*
X43417289Y-35162289D01*
X43369678Y-35220304D01*
X43334299Y-35286492D01*
X43312513Y-35358311D01*
X43305157Y-35433000D01*
X37855039Y-35433000D01*
X37834987Y-35332191D01*
X37776113Y-35190058D01*
X37690642Y-35062141D01*
X37581859Y-34953358D01*
X37453942Y-34867887D01*
X37311809Y-34809013D01*
X37160922Y-34779000D01*
X37007078Y-34779000D01*
X36856191Y-34809013D01*
X36714058Y-34867887D01*
X36586141Y-34953358D01*
X36477358Y-35062141D01*
X36391887Y-35190058D01*
X36333013Y-35332191D01*
X36303000Y-35483078D01*
X33305968Y-35483078D01*
X33310704Y-35435000D01*
X33292729Y-35252492D01*
X33239493Y-35076998D01*
X33153043Y-34915262D01*
X33036701Y-34773499D01*
X32894938Y-34657157D01*
X32733202Y-34570707D01*
X32557708Y-34517471D01*
X32420931Y-34504000D01*
X31729469Y-34504000D01*
X31592692Y-34517471D01*
X31417198Y-34570707D01*
X31255462Y-34657157D01*
X31113699Y-34773499D01*
X30997357Y-34915262D01*
X30910907Y-35076998D01*
X30857671Y-35252492D01*
X30839696Y-35435000D01*
X29510704Y-35435000D01*
X29492729Y-35252492D01*
X29439493Y-35076998D01*
X29353043Y-34915262D01*
X29236701Y-34773499D01*
X29094938Y-34657157D01*
X28933202Y-34570707D01*
X28757708Y-34517471D01*
X28620931Y-34504000D01*
X27929469Y-34504000D01*
X27792692Y-34517471D01*
X27617198Y-34570707D01*
X27455462Y-34657157D01*
X27313699Y-34773499D01*
X27197357Y-34915262D01*
X27110907Y-35076998D01*
X27057671Y-35252492D01*
X27039696Y-35435000D01*
X26060000Y-35435000D01*
X26060000Y-33705078D01*
X30080000Y-33705078D01*
X30080000Y-33858922D01*
X30110013Y-34009809D01*
X30168887Y-34151942D01*
X30254358Y-34279859D01*
X30363141Y-34388642D01*
X30491058Y-34474113D01*
X30633191Y-34532987D01*
X30784078Y-34563000D01*
X30937922Y-34563000D01*
X31088809Y-34532987D01*
X31230942Y-34474113D01*
X31358859Y-34388642D01*
X31467642Y-34279859D01*
X31553113Y-34151942D01*
X31611987Y-34009809D01*
X31642000Y-33858922D01*
X31642000Y-33705078D01*
X31611987Y-33554191D01*
X31553113Y-33412058D01*
X31467642Y-33284141D01*
X31358859Y-33175358D01*
X31230942Y-33089887D01*
X31088809Y-33031013D01*
X30937922Y-33001000D01*
X30784078Y-33001000D01*
X30633191Y-33031013D01*
X30491058Y-33089887D01*
X30363141Y-33175358D01*
X30254358Y-33284141D01*
X30168887Y-33412058D01*
X30110013Y-33554191D01*
X30080000Y-33705078D01*
X26060000Y-33705078D01*
X26060000Y-31927078D01*
X36303000Y-31927078D01*
X36303000Y-32080922D01*
X36333013Y-32231809D01*
X36391887Y-32373942D01*
X36477358Y-32501859D01*
X36586141Y-32610642D01*
X36714058Y-32696113D01*
X36856191Y-32754987D01*
X37007078Y-32785000D01*
X37160922Y-32785000D01*
X37227499Y-32771757D01*
X39663000Y-32771757D01*
X39663000Y-33014243D01*
X39710307Y-33252069D01*
X39803102Y-33476097D01*
X39937820Y-33677717D01*
X40109283Y-33849180D01*
X40310903Y-33983898D01*
X40534931Y-34076693D01*
X40772757Y-34124000D01*
X41015243Y-34124000D01*
X41253069Y-34076693D01*
X41477097Y-33983898D01*
X41678717Y-33849180D01*
X41850180Y-33677717D01*
X41984898Y-33476097D01*
X42077693Y-33252069D01*
X42125000Y-33014243D01*
X42125000Y-32771757D01*
X42077693Y-32533931D01*
X41984898Y-32309903D01*
X41850180Y-32108283D01*
X41678717Y-31936820D01*
X41477097Y-31802102D01*
X41253069Y-31709307D01*
X41015243Y-31662000D01*
X40772757Y-31662000D01*
X40534931Y-31709307D01*
X40310903Y-31802102D01*
X40109283Y-31936820D01*
X39937820Y-32108283D01*
X39803102Y-32309903D01*
X39710307Y-32533931D01*
X39663000Y-32771757D01*
X37227499Y-32771757D01*
X37311809Y-32754987D01*
X37453942Y-32696113D01*
X37581859Y-32610642D01*
X37690642Y-32501859D01*
X37776113Y-32373942D01*
X37834987Y-32231809D01*
X37865000Y-32080922D01*
X37865000Y-31927078D01*
X37834987Y-31776191D01*
X37776113Y-31634058D01*
X37690642Y-31506141D01*
X37581859Y-31397358D01*
X37453942Y-31311887D01*
X37311809Y-31253013D01*
X37160922Y-31223000D01*
X37007078Y-31223000D01*
X36856191Y-31253013D01*
X36714058Y-31311887D01*
X36586141Y-31397358D01*
X36477358Y-31506141D01*
X36391887Y-31634058D01*
X36333013Y-31776191D01*
X36303000Y-31927078D01*
X26060000Y-31927078D01*
X26060000Y-30149078D01*
X36303000Y-30149078D01*
X36303000Y-30302922D01*
X36333013Y-30453809D01*
X36391887Y-30595942D01*
X36477358Y-30723859D01*
X36586141Y-30832642D01*
X36714058Y-30918113D01*
X36856191Y-30976987D01*
X37007078Y-31007000D01*
X37160922Y-31007000D01*
X37311809Y-30976987D01*
X37453942Y-30918113D01*
X37581859Y-30832642D01*
X37690642Y-30723859D01*
X37776113Y-30595942D01*
X37834987Y-30453809D01*
X37865000Y-30302922D01*
X37865000Y-30149078D01*
X37834987Y-29998191D01*
X37776113Y-29856058D01*
X37690642Y-29728141D01*
X37581859Y-29619358D01*
X37453942Y-29533887D01*
X37379375Y-29503000D01*
X39661157Y-29503000D01*
X39661157Y-31203000D01*
X39668513Y-31277689D01*
X39690299Y-31349508D01*
X39725678Y-31415696D01*
X39773289Y-31473711D01*
X39831304Y-31521322D01*
X39897492Y-31556701D01*
X39969311Y-31578487D01*
X40044000Y-31585843D01*
X41744000Y-31585843D01*
X41818689Y-31578487D01*
X41890508Y-31556701D01*
X41956696Y-31521322D01*
X42014711Y-31473711D01*
X42062322Y-31415696D01*
X42097701Y-31349508D01*
X42119487Y-31277689D01*
X42126843Y-31203000D01*
X42126843Y-29718000D01*
X42418000Y-29718000D01*
X42418000Y-33147000D01*
X42420440Y-33171776D01*
X42427667Y-33195601D01*
X42439403Y-33217557D01*
X42455197Y-33236803D01*
X43598197Y-34379803D01*
X43617443Y-34395597D01*
X43639399Y-34407333D01*
X43663224Y-34414560D01*
X43688000Y-34417000D01*
X50800000Y-34417000D01*
X50824776Y-34414560D01*
X50848601Y-34407333D01*
X50870557Y-34395597D01*
X50889803Y-34379803D01*
X51564528Y-33705078D01*
X60814000Y-33705078D01*
X60814000Y-33858922D01*
X60844013Y-34009809D01*
X60902887Y-34151942D01*
X60988358Y-34279859D01*
X61097141Y-34388642D01*
X61225058Y-34474113D01*
X61367191Y-34532987D01*
X61518078Y-34563000D01*
X61671922Y-34563000D01*
X61822809Y-34532987D01*
X61964942Y-34474113D01*
X62092859Y-34388642D01*
X62201642Y-34279859D01*
X62287113Y-34151942D01*
X62345987Y-34009809D01*
X62376000Y-33858922D01*
X62376000Y-33705078D01*
X62345987Y-33554191D01*
X62287113Y-33412058D01*
X62201642Y-33284141D01*
X62092859Y-33175358D01*
X61964942Y-33089887D01*
X61822809Y-33031013D01*
X61671922Y-33001000D01*
X61518078Y-33001000D01*
X61367191Y-33031013D01*
X61225058Y-33089887D01*
X61097141Y-33175358D01*
X60988358Y-33284141D01*
X60902887Y-33412058D01*
X60844013Y-33554191D01*
X60814000Y-33705078D01*
X51564528Y-33705078D01*
X51905803Y-33363803D01*
X51921597Y-33344557D01*
X51933333Y-33322601D01*
X51940560Y-33298776D01*
X51943000Y-33274000D01*
X51943000Y-32952927D01*
X72855400Y-32952927D01*
X72855400Y-33087073D01*
X72881571Y-33218640D01*
X72932906Y-33342574D01*
X73007433Y-33454112D01*
X73102288Y-33548967D01*
X73213826Y-33623494D01*
X73337760Y-33674829D01*
X73469327Y-33701000D01*
X73603473Y-33701000D01*
X73735040Y-33674829D01*
X73858974Y-33623494D01*
X73970512Y-33548967D01*
X74065367Y-33454112D01*
X74139894Y-33342574D01*
X74191229Y-33218640D01*
X74217400Y-33087073D01*
X74217400Y-32952927D01*
X74191229Y-32821360D01*
X74139894Y-32697426D01*
X74065367Y-32585888D01*
X73970512Y-32491033D01*
X73858974Y-32416506D01*
X73735040Y-32365171D01*
X73603473Y-32339000D01*
X73469327Y-32339000D01*
X73337760Y-32365171D01*
X73213826Y-32416506D01*
X73102288Y-32491033D01*
X73007433Y-32585888D01*
X72932906Y-32697426D01*
X72881571Y-32821360D01*
X72855400Y-32952927D01*
X51943000Y-32952927D01*
X51943000Y-32054078D01*
X66910000Y-32054078D01*
X66910000Y-32207922D01*
X66940013Y-32358809D01*
X66998887Y-32500942D01*
X67084358Y-32628859D01*
X67193141Y-32737642D01*
X67321058Y-32823113D01*
X67463191Y-32881987D01*
X67614078Y-32912000D01*
X67767922Y-32912000D01*
X67918809Y-32881987D01*
X68060942Y-32823113D01*
X68188859Y-32737642D01*
X68297642Y-32628859D01*
X68383113Y-32500942D01*
X68441987Y-32358809D01*
X68472000Y-32207922D01*
X68472000Y-32054078D01*
X68441987Y-31903191D01*
X68383113Y-31761058D01*
X68297642Y-31633141D01*
X68188859Y-31524358D01*
X68060942Y-31438887D01*
X67918809Y-31380013D01*
X67767922Y-31350000D01*
X67614078Y-31350000D01*
X67463191Y-31380013D01*
X67321058Y-31438887D01*
X67193141Y-31524358D01*
X67084358Y-31633141D01*
X66998887Y-31761058D01*
X66940013Y-31903191D01*
X66910000Y-32054078D01*
X51943000Y-32054078D01*
X51943000Y-31115000D01*
X51940560Y-31090224D01*
X51933333Y-31066399D01*
X51921597Y-31044443D01*
X51905803Y-31025197D01*
X51868654Y-30988048D01*
X51954058Y-31045113D01*
X52096191Y-31103987D01*
X52247078Y-31134000D01*
X52400922Y-31134000D01*
X52551809Y-31103987D01*
X52693942Y-31045113D01*
X52821859Y-30959642D01*
X52930642Y-30850859D01*
X53016113Y-30722942D01*
X53074987Y-30580809D01*
X53094196Y-30484238D01*
X53142309Y-30493808D01*
X53296153Y-30493808D01*
X53447040Y-30463795D01*
X53589173Y-30404921D01*
X53717090Y-30319450D01*
X53825873Y-30210667D01*
X53911344Y-30082750D01*
X53970218Y-29940617D01*
X54000231Y-29789730D01*
X54000231Y-29635886D01*
X53970218Y-29484999D01*
X53911344Y-29342866D01*
X53856028Y-29260078D01*
X65513000Y-29260078D01*
X65513000Y-29413922D01*
X65543013Y-29564809D01*
X65601887Y-29706942D01*
X65687358Y-29834859D01*
X65796141Y-29943642D01*
X65924058Y-30029113D01*
X66066191Y-30087987D01*
X66217078Y-30118000D01*
X66370922Y-30118000D01*
X66521809Y-30087987D01*
X66663942Y-30029113D01*
X66791859Y-29943642D01*
X66900642Y-29834859D01*
X66945263Y-29768078D01*
X70720000Y-29768078D01*
X70720000Y-29921922D01*
X70750013Y-30072809D01*
X70808887Y-30214942D01*
X70894358Y-30342859D01*
X71003141Y-30451642D01*
X71131058Y-30537113D01*
X71273191Y-30595987D01*
X71424078Y-30626000D01*
X71577922Y-30626000D01*
X71728809Y-30595987D01*
X71870942Y-30537113D01*
X71998859Y-30451642D01*
X72107642Y-30342859D01*
X72193113Y-30214942D01*
X72251987Y-30072809D01*
X72282000Y-29921922D01*
X72282000Y-29768078D01*
X72251987Y-29617191D01*
X72193113Y-29475058D01*
X72107642Y-29347141D01*
X71998859Y-29238358D01*
X71870942Y-29152887D01*
X71728809Y-29094013D01*
X71577922Y-29064000D01*
X71424078Y-29064000D01*
X71273191Y-29094013D01*
X71131058Y-29152887D01*
X71003141Y-29238358D01*
X70894358Y-29347141D01*
X70808887Y-29475058D01*
X70750013Y-29617191D01*
X70720000Y-29768078D01*
X66945263Y-29768078D01*
X66986113Y-29706942D01*
X67044987Y-29564809D01*
X67075000Y-29413922D01*
X67075000Y-29260078D01*
X67044987Y-29109191D01*
X66986113Y-28967058D01*
X66900642Y-28839141D01*
X66791859Y-28730358D01*
X66663942Y-28644887D01*
X66521809Y-28586013D01*
X66370922Y-28556000D01*
X66217078Y-28556000D01*
X66066191Y-28586013D01*
X65924058Y-28644887D01*
X65796141Y-28730358D01*
X65687358Y-28839141D01*
X65601887Y-28967058D01*
X65543013Y-29109191D01*
X65513000Y-29260078D01*
X53856028Y-29260078D01*
X53825873Y-29214949D01*
X53717090Y-29106166D01*
X53589173Y-29020695D01*
X53447040Y-28961821D01*
X53296153Y-28931808D01*
X53142309Y-28931808D01*
X52991422Y-28961821D01*
X52849289Y-29020695D01*
X52721372Y-29106166D01*
X52612589Y-29214949D01*
X52527118Y-29342866D01*
X52468244Y-29484999D01*
X52449035Y-29581570D01*
X52400922Y-29572000D01*
X52247078Y-29572000D01*
X52096191Y-29602013D01*
X51954058Y-29660887D01*
X51826141Y-29746358D01*
X51717358Y-29855141D01*
X51631887Y-29983058D01*
X51573013Y-30125191D01*
X51543000Y-30276078D01*
X51543000Y-30429922D01*
X51573013Y-30580809D01*
X51631887Y-30722942D01*
X51688952Y-30808346D01*
X51016803Y-30136197D01*
X50997557Y-30120403D01*
X50975601Y-30108667D01*
X50951776Y-30101440D01*
X50927000Y-30099000D01*
X47550606Y-30099000D01*
X46190803Y-28739197D01*
X46171557Y-28723403D01*
X46149601Y-28711667D01*
X46125776Y-28704440D01*
X46101000Y-28702000D01*
X43434000Y-28702000D01*
X43409224Y-28704440D01*
X43385399Y-28711667D01*
X43363443Y-28723403D01*
X43344197Y-28739197D01*
X42455197Y-29628197D01*
X42439403Y-29647443D01*
X42427667Y-29669399D01*
X42420440Y-29693224D01*
X42418000Y-29718000D01*
X42126843Y-29718000D01*
X42126843Y-29503000D01*
X42119487Y-29428311D01*
X42097701Y-29356492D01*
X42062322Y-29290304D01*
X42014711Y-29232289D01*
X41956696Y-29184678D01*
X41890508Y-29149299D01*
X41818689Y-29127513D01*
X41744000Y-29120157D01*
X40044000Y-29120157D01*
X39969311Y-29127513D01*
X39897492Y-29149299D01*
X39831304Y-29184678D01*
X39773289Y-29232289D01*
X39725678Y-29290304D01*
X39690299Y-29356492D01*
X39668513Y-29428311D01*
X39661157Y-29503000D01*
X37379375Y-29503000D01*
X37311809Y-29475013D01*
X37160922Y-29445000D01*
X37007078Y-29445000D01*
X36856191Y-29475013D01*
X36714058Y-29533887D01*
X36586141Y-29619358D01*
X36477358Y-29728141D01*
X36391887Y-29856058D01*
X36333013Y-29998191D01*
X36303000Y-30149078D01*
X26060000Y-30149078D01*
X26060000Y-28371078D01*
X30080000Y-28371078D01*
X30080000Y-28524922D01*
X30110013Y-28675809D01*
X30168887Y-28817942D01*
X30254358Y-28945859D01*
X30363141Y-29054642D01*
X30491058Y-29140113D01*
X30633191Y-29198987D01*
X30784078Y-29229000D01*
X30937922Y-29229000D01*
X31088809Y-29198987D01*
X31230942Y-29140113D01*
X31358859Y-29054642D01*
X31467642Y-28945859D01*
X31553113Y-28817942D01*
X31611987Y-28675809D01*
X31642000Y-28524922D01*
X31642000Y-28371078D01*
X36303000Y-28371078D01*
X36303000Y-28524922D01*
X36333013Y-28675809D01*
X36391887Y-28817942D01*
X36477358Y-28945859D01*
X36586141Y-29054642D01*
X36714058Y-29140113D01*
X36856191Y-29198987D01*
X37007078Y-29229000D01*
X37160922Y-29229000D01*
X37311809Y-29198987D01*
X37453942Y-29140113D01*
X37581859Y-29054642D01*
X37690642Y-28945859D01*
X37776113Y-28817942D01*
X37834987Y-28675809D01*
X37865000Y-28524922D01*
X37865000Y-28371078D01*
X37834987Y-28220191D01*
X37776113Y-28078058D01*
X37717327Y-27990078D01*
X41764000Y-27990078D01*
X41764000Y-28143922D01*
X41794013Y-28294809D01*
X41852887Y-28436942D01*
X41938358Y-28564859D01*
X42047141Y-28673642D01*
X42175058Y-28759113D01*
X42317191Y-28817987D01*
X42468078Y-28848000D01*
X42621922Y-28848000D01*
X42772809Y-28817987D01*
X42914942Y-28759113D01*
X43042859Y-28673642D01*
X43151642Y-28564859D01*
X43237113Y-28436942D01*
X43295987Y-28294809D01*
X43326000Y-28143922D01*
X43326000Y-27990078D01*
X43295987Y-27839191D01*
X43237113Y-27697058D01*
X43151642Y-27569141D01*
X43042859Y-27460358D01*
X42914942Y-27374887D01*
X42772809Y-27316013D01*
X42621922Y-27286000D01*
X42468078Y-27286000D01*
X42317191Y-27316013D01*
X42175058Y-27374887D01*
X42047141Y-27460358D01*
X41938358Y-27569141D01*
X41852887Y-27697058D01*
X41794013Y-27839191D01*
X41764000Y-27990078D01*
X37717327Y-27990078D01*
X37690642Y-27950141D01*
X37581859Y-27841358D01*
X37453942Y-27755887D01*
X37311809Y-27697013D01*
X37160922Y-27667000D01*
X37007078Y-27667000D01*
X36856191Y-27697013D01*
X36714058Y-27755887D01*
X36586141Y-27841358D01*
X36477358Y-27950141D01*
X36391887Y-28078058D01*
X36333013Y-28220191D01*
X36303000Y-28371078D01*
X31642000Y-28371078D01*
X31611987Y-28220191D01*
X31553113Y-28078058D01*
X31467642Y-27950141D01*
X31358859Y-27841358D01*
X31230942Y-27755887D01*
X31088809Y-27697013D01*
X30937922Y-27667000D01*
X30784078Y-27667000D01*
X30633191Y-27697013D01*
X30491058Y-27755887D01*
X30363141Y-27841358D01*
X30254358Y-27950141D01*
X30168887Y-28078058D01*
X30110013Y-28220191D01*
X30080000Y-28371078D01*
X26060000Y-28371078D01*
X26060000Y-26795000D01*
X27039696Y-26795000D01*
X27057671Y-26977508D01*
X27110907Y-27153002D01*
X27197357Y-27314738D01*
X27313699Y-27456501D01*
X27455462Y-27572843D01*
X27617198Y-27659293D01*
X27792692Y-27712529D01*
X27929469Y-27726000D01*
X28620931Y-27726000D01*
X28757708Y-27712529D01*
X28933202Y-27659293D01*
X29094938Y-27572843D01*
X29236701Y-27456501D01*
X29353043Y-27314738D01*
X29439493Y-27153002D01*
X29492729Y-26977508D01*
X29510704Y-26795000D01*
X30839696Y-26795000D01*
X30857671Y-26977508D01*
X30910907Y-27153002D01*
X30997357Y-27314738D01*
X31113699Y-27456501D01*
X31255462Y-27572843D01*
X31417198Y-27659293D01*
X31592692Y-27712529D01*
X31729469Y-27726000D01*
X32420931Y-27726000D01*
X32557708Y-27712529D01*
X32733202Y-27659293D01*
X32894938Y-27572843D01*
X33036701Y-27456501D01*
X33153043Y-27314738D01*
X33239493Y-27153002D01*
X33292729Y-26977508D01*
X33310704Y-26795000D01*
X33292729Y-26612492D01*
X33239493Y-26436998D01*
X33153043Y-26275262D01*
X33036701Y-26133499D01*
X32894938Y-26017157D01*
X32846109Y-25991057D01*
X45598845Y-25991057D01*
X45598845Y-26144901D01*
X45628858Y-26295788D01*
X45687732Y-26437921D01*
X45773203Y-26565838D01*
X45881986Y-26674621D01*
X46009903Y-26760092D01*
X46152036Y-26818966D01*
X46302923Y-26848979D01*
X46456767Y-26848979D01*
X46607654Y-26818966D01*
X46749787Y-26760092D01*
X46877704Y-26674621D01*
X46971000Y-26581325D01*
X46971000Y-26619922D01*
X47001013Y-26770809D01*
X47059887Y-26912942D01*
X47102613Y-26976886D01*
X47018358Y-27061141D01*
X46932887Y-27189058D01*
X46874013Y-27331191D01*
X46844000Y-27482078D01*
X46844000Y-27635922D01*
X46874013Y-27786809D01*
X46932887Y-27928942D01*
X47018358Y-28056859D01*
X47091999Y-28130500D01*
X47018358Y-28204141D01*
X46932887Y-28332058D01*
X46874013Y-28474191D01*
X46844000Y-28625078D01*
X46844000Y-28778922D01*
X46874013Y-28929809D01*
X46932887Y-29071942D01*
X47018358Y-29199859D01*
X47127141Y-29308642D01*
X47255058Y-29394113D01*
X47397191Y-29452987D01*
X47548078Y-29483000D01*
X47701922Y-29483000D01*
X47852809Y-29452987D01*
X47994942Y-29394113D01*
X48082391Y-29335682D01*
X48161354Y-29453859D01*
X48270137Y-29562642D01*
X48398054Y-29648113D01*
X48540187Y-29706987D01*
X48691074Y-29737000D01*
X48844918Y-29737000D01*
X48995805Y-29706987D01*
X49137938Y-29648113D01*
X49265855Y-29562642D01*
X49374638Y-29453859D01*
X49460109Y-29325942D01*
X49518983Y-29183809D01*
X49548996Y-29032922D01*
X49548996Y-28879078D01*
X49518983Y-28728191D01*
X49460109Y-28586058D01*
X49374638Y-28458141D01*
X49265855Y-28349358D01*
X49137938Y-28263887D01*
X48995805Y-28205013D01*
X48844918Y-28175000D01*
X48691074Y-28175000D01*
X48540187Y-28205013D01*
X48398054Y-28263887D01*
X48310605Y-28322318D01*
X48231642Y-28204141D01*
X48158001Y-28130500D01*
X48231642Y-28056859D01*
X48317113Y-27928942D01*
X48375987Y-27786809D01*
X48406000Y-27635922D01*
X48406000Y-27482078D01*
X48375987Y-27331191D01*
X48317113Y-27189058D01*
X48274387Y-27125114D01*
X48358642Y-27040859D01*
X48444113Y-26912942D01*
X48502987Y-26770809D01*
X48533000Y-26619922D01*
X48533000Y-26466078D01*
X48502987Y-26315191D01*
X48444113Y-26173058D01*
X48358642Y-26045141D01*
X48249859Y-25936358D01*
X48121942Y-25850887D01*
X47979809Y-25792013D01*
X47828922Y-25762000D01*
X47675078Y-25762000D01*
X47524191Y-25792013D01*
X47382058Y-25850887D01*
X47254141Y-25936358D01*
X47160845Y-26029654D01*
X47160845Y-25991057D01*
X47130832Y-25840170D01*
X47071958Y-25698037D01*
X46986487Y-25570120D01*
X46877704Y-25461337D01*
X46749787Y-25375866D01*
X46607654Y-25316992D01*
X46456767Y-25286979D01*
X46302923Y-25286979D01*
X46152036Y-25316992D01*
X46009903Y-25375866D01*
X45881986Y-25461337D01*
X45773203Y-25570120D01*
X45687732Y-25698037D01*
X45628858Y-25840170D01*
X45598845Y-25991057D01*
X32846109Y-25991057D01*
X32733202Y-25930707D01*
X32557708Y-25877471D01*
X32420931Y-25864000D01*
X31729469Y-25864000D01*
X31592692Y-25877471D01*
X31417198Y-25930707D01*
X31255462Y-26017157D01*
X31113699Y-26133499D01*
X30997357Y-26275262D01*
X30910907Y-26436998D01*
X30857671Y-26612492D01*
X30839696Y-26795000D01*
X29510704Y-26795000D01*
X29492729Y-26612492D01*
X29439493Y-26436998D01*
X29353043Y-26275262D01*
X29236701Y-26133499D01*
X29094938Y-26017157D01*
X28933202Y-25930707D01*
X28757708Y-25877471D01*
X28620931Y-25864000D01*
X27929469Y-25864000D01*
X27792692Y-25877471D01*
X27617198Y-25930707D01*
X27455462Y-26017157D01*
X27313699Y-26133499D01*
X27197357Y-26275262D01*
X27110907Y-26436998D01*
X27057671Y-26612492D01*
X27039696Y-26795000D01*
X26060000Y-26795000D01*
X26060000Y-24688078D01*
X57575500Y-24688078D01*
X57575500Y-24841922D01*
X57605513Y-24992809D01*
X57664387Y-25134942D01*
X57749858Y-25262859D01*
X57858641Y-25371642D01*
X57986558Y-25457113D01*
X58010478Y-25467021D01*
X58003858Y-25473641D01*
X57918387Y-25601558D01*
X57859513Y-25743691D01*
X57829500Y-25894578D01*
X57829500Y-26048422D01*
X57859513Y-26199309D01*
X57918387Y-26341442D01*
X58003858Y-26469359D01*
X58112641Y-26578142D01*
X58240558Y-26663613D01*
X58382691Y-26722487D01*
X58533578Y-26752500D01*
X58687422Y-26752500D01*
X58838309Y-26722487D01*
X58980442Y-26663613D01*
X59108359Y-26578142D01*
X59217142Y-26469359D01*
X59302613Y-26341442D01*
X59303592Y-26339078D01*
X61957000Y-26339078D01*
X61957000Y-26492922D01*
X61987013Y-26643809D01*
X62045887Y-26785942D01*
X62131358Y-26913859D01*
X62240141Y-27022642D01*
X62368058Y-27108113D01*
X62510191Y-27166987D01*
X62661078Y-27197000D01*
X62814922Y-27197000D01*
X62965809Y-27166987D01*
X63107942Y-27108113D01*
X63235859Y-27022642D01*
X63344642Y-26913859D01*
X63430113Y-26785942D01*
X63488987Y-26643809D01*
X63519000Y-26492922D01*
X63519000Y-26339078D01*
X66021000Y-26339078D01*
X66021000Y-26492922D01*
X66051013Y-26643809D01*
X66109887Y-26785942D01*
X66195358Y-26913859D01*
X66304141Y-27022642D01*
X66432058Y-27108113D01*
X66574191Y-27166987D01*
X66725078Y-27197000D01*
X66878922Y-27197000D01*
X67029809Y-27166987D01*
X67171942Y-27108113D01*
X67299859Y-27022642D01*
X67408642Y-26913859D01*
X67494113Y-26785942D01*
X67552987Y-26643809D01*
X67583000Y-26492922D01*
X67583000Y-26339078D01*
X67552987Y-26188191D01*
X67494113Y-26046058D01*
X67408642Y-25918141D01*
X67299859Y-25809358D01*
X67171942Y-25723887D01*
X67029809Y-25665013D01*
X66878922Y-25635000D01*
X66725078Y-25635000D01*
X66574191Y-25665013D01*
X66432058Y-25723887D01*
X66304141Y-25809358D01*
X66195358Y-25918141D01*
X66109887Y-26046058D01*
X66051013Y-26188191D01*
X66021000Y-26339078D01*
X63519000Y-26339078D01*
X63488987Y-26188191D01*
X63430113Y-26046058D01*
X63344642Y-25918141D01*
X63235859Y-25809358D01*
X63107942Y-25723887D01*
X62965809Y-25665013D01*
X62814922Y-25635000D01*
X62661078Y-25635000D01*
X62510191Y-25665013D01*
X62368058Y-25723887D01*
X62240141Y-25809358D01*
X62131358Y-25918141D01*
X62045887Y-26046058D01*
X61987013Y-26188191D01*
X61957000Y-26339078D01*
X59303592Y-26339078D01*
X59361487Y-26199309D01*
X59391500Y-26048422D01*
X59391500Y-25894578D01*
X59361487Y-25743691D01*
X59302613Y-25601558D01*
X59217142Y-25473641D01*
X59108359Y-25364858D01*
X58980442Y-25279387D01*
X58956522Y-25269479D01*
X58963142Y-25262859D01*
X59048613Y-25134942D01*
X59107487Y-24992809D01*
X59137500Y-24841922D01*
X59137500Y-24688078D01*
X61639500Y-24688078D01*
X61639500Y-24841922D01*
X61669513Y-24992809D01*
X61728387Y-25134942D01*
X61813858Y-25262859D01*
X61922641Y-25371642D01*
X62050558Y-25457113D01*
X62192691Y-25515987D01*
X62343578Y-25546000D01*
X62497422Y-25546000D01*
X62648309Y-25515987D01*
X62790442Y-25457113D01*
X62918359Y-25371642D01*
X63027142Y-25262859D01*
X63112613Y-25134942D01*
X63171487Y-24992809D01*
X63201500Y-24841922D01*
X63201500Y-24688078D01*
X65703500Y-24688078D01*
X65703500Y-24841922D01*
X65733513Y-24992809D01*
X65792387Y-25134942D01*
X65877858Y-25262859D01*
X65986641Y-25371642D01*
X66114558Y-25457113D01*
X66256691Y-25515987D01*
X66407578Y-25546000D01*
X66561422Y-25546000D01*
X66712309Y-25515987D01*
X66854442Y-25457113D01*
X66982359Y-25371642D01*
X67021074Y-25332927D01*
X72855400Y-25332927D01*
X72855400Y-25467073D01*
X72881571Y-25598640D01*
X72932906Y-25722574D01*
X73007433Y-25834112D01*
X73102288Y-25928967D01*
X73213826Y-26003494D01*
X73337760Y-26054829D01*
X73469327Y-26081000D01*
X73603473Y-26081000D01*
X73735040Y-26054829D01*
X73858974Y-26003494D01*
X73970512Y-25928967D01*
X74065367Y-25834112D01*
X74139894Y-25722574D01*
X74191229Y-25598640D01*
X74217400Y-25467073D01*
X74217400Y-25332927D01*
X74191229Y-25201360D01*
X74139894Y-25077426D01*
X74065367Y-24965888D01*
X73970512Y-24871033D01*
X73858974Y-24796506D01*
X73735040Y-24745171D01*
X73603473Y-24719000D01*
X73469327Y-24719000D01*
X73337760Y-24745171D01*
X73213826Y-24796506D01*
X73102288Y-24871033D01*
X73007433Y-24965888D01*
X72932906Y-25077426D01*
X72881571Y-25201360D01*
X72855400Y-25332927D01*
X67021074Y-25332927D01*
X67091142Y-25262859D01*
X67176613Y-25134942D01*
X67235487Y-24992809D01*
X67265500Y-24841922D01*
X67265500Y-24688078D01*
X67235487Y-24537191D01*
X67176613Y-24395058D01*
X67091142Y-24267141D01*
X66982359Y-24158358D01*
X66854442Y-24072887D01*
X66712309Y-24014013D01*
X66561422Y-23984000D01*
X66407578Y-23984000D01*
X66256691Y-24014013D01*
X66114558Y-24072887D01*
X65986641Y-24158358D01*
X65877858Y-24267141D01*
X65792387Y-24395058D01*
X65733513Y-24537191D01*
X65703500Y-24688078D01*
X63201500Y-24688078D01*
X63171487Y-24537191D01*
X63112613Y-24395058D01*
X63027142Y-24267141D01*
X62918359Y-24158358D01*
X62790442Y-24072887D01*
X62648309Y-24014013D01*
X62497422Y-23984000D01*
X62343578Y-23984000D01*
X62192691Y-24014013D01*
X62050558Y-24072887D01*
X61922641Y-24158358D01*
X61813858Y-24267141D01*
X61728387Y-24395058D01*
X61669513Y-24537191D01*
X61639500Y-24688078D01*
X59137500Y-24688078D01*
X59107487Y-24537191D01*
X59048613Y-24395058D01*
X58963142Y-24267141D01*
X58854359Y-24158358D01*
X58726442Y-24072887D01*
X58584309Y-24014013D01*
X58433422Y-23984000D01*
X58279578Y-23984000D01*
X58128691Y-24014013D01*
X57986558Y-24072887D01*
X57858641Y-24158358D01*
X57749858Y-24267141D01*
X57664387Y-24395058D01*
X57605513Y-24537191D01*
X57575500Y-24688078D01*
X26060000Y-24688078D01*
X26060000Y-23037078D01*
X35541000Y-23037078D01*
X35541000Y-23190922D01*
X35571013Y-23341809D01*
X35629887Y-23483942D01*
X35715358Y-23611859D01*
X35824141Y-23720642D01*
X35952058Y-23806113D01*
X36094191Y-23864987D01*
X36245078Y-23895000D01*
X36398922Y-23895000D01*
X36549809Y-23864987D01*
X36691942Y-23806113D01*
X36819859Y-23720642D01*
X36928642Y-23611859D01*
X37014113Y-23483942D01*
X37041395Y-23418078D01*
X37319000Y-23418078D01*
X37319000Y-23571922D01*
X37349013Y-23722809D01*
X37407887Y-23864942D01*
X37493358Y-23992859D01*
X37602141Y-24101642D01*
X37730058Y-24187113D01*
X37872191Y-24245987D01*
X38023078Y-24276000D01*
X38176922Y-24276000D01*
X38327809Y-24245987D01*
X38469942Y-24187113D01*
X38597859Y-24101642D01*
X38706642Y-23992859D01*
X38792113Y-23864942D01*
X38850987Y-23722809D01*
X38881000Y-23571922D01*
X38881000Y-23418078D01*
X38850987Y-23267191D01*
X38792113Y-23125058D01*
X38706642Y-22997141D01*
X38597859Y-22888358D01*
X38469942Y-22802887D01*
X38327809Y-22744013D01*
X38176922Y-22714000D01*
X38023078Y-22714000D01*
X37872191Y-22744013D01*
X37730058Y-22802887D01*
X37602141Y-22888358D01*
X37493358Y-22997141D01*
X37407887Y-23125058D01*
X37349013Y-23267191D01*
X37319000Y-23418078D01*
X37041395Y-23418078D01*
X37072987Y-23341809D01*
X37103000Y-23190922D01*
X37103000Y-23037078D01*
X37072987Y-22886191D01*
X37014113Y-22744058D01*
X36928642Y-22616141D01*
X36841579Y-22529078D01*
X69704000Y-22529078D01*
X69704000Y-22682922D01*
X69734013Y-22833809D01*
X69792887Y-22975942D01*
X69878358Y-23103859D01*
X69987141Y-23212642D01*
X70115058Y-23298113D01*
X70257191Y-23356987D01*
X70408078Y-23387000D01*
X70561922Y-23387000D01*
X70712809Y-23356987D01*
X70854942Y-23298113D01*
X70982859Y-23212642D01*
X71091642Y-23103859D01*
X71177113Y-22975942D01*
X71235987Y-22833809D01*
X71266000Y-22682922D01*
X71266000Y-22529078D01*
X71235987Y-22378191D01*
X71177113Y-22236058D01*
X71091642Y-22108141D01*
X70982859Y-21999358D01*
X70854942Y-21913887D01*
X70712809Y-21855013D01*
X70561922Y-21825000D01*
X70408078Y-21825000D01*
X70257191Y-21855013D01*
X70115058Y-21913887D01*
X69987141Y-21999358D01*
X69878358Y-22108141D01*
X69792887Y-22236058D01*
X69734013Y-22378191D01*
X69704000Y-22529078D01*
X36841579Y-22529078D01*
X36819859Y-22507358D01*
X36691942Y-22421887D01*
X36549809Y-22363013D01*
X36398922Y-22333000D01*
X36245078Y-22333000D01*
X36094191Y-22363013D01*
X35952058Y-22421887D01*
X35824141Y-22507358D01*
X35715358Y-22616141D01*
X35629887Y-22744058D01*
X35571013Y-22886191D01*
X35541000Y-23037078D01*
X26060000Y-23037078D01*
X26060000Y-22148078D01*
X27413000Y-22148078D01*
X27413000Y-22301922D01*
X27443013Y-22452809D01*
X27501887Y-22594942D01*
X27587358Y-22722859D01*
X27696141Y-22831642D01*
X27824058Y-22917113D01*
X27966191Y-22975987D01*
X28117078Y-23006000D01*
X28270922Y-23006000D01*
X28421809Y-22975987D01*
X28563942Y-22917113D01*
X28691859Y-22831642D01*
X28800642Y-22722859D01*
X28886113Y-22594942D01*
X28944987Y-22452809D01*
X28975000Y-22301922D01*
X28975000Y-22148078D01*
X29318000Y-22148078D01*
X29318000Y-22301922D01*
X29348013Y-22452809D01*
X29406887Y-22594942D01*
X29492358Y-22722859D01*
X29601141Y-22831642D01*
X29729058Y-22917113D01*
X29871191Y-22975987D01*
X30022078Y-23006000D01*
X30175922Y-23006000D01*
X30326809Y-22975987D01*
X30468942Y-22917113D01*
X30596859Y-22831642D01*
X30705642Y-22722859D01*
X30791113Y-22594942D01*
X30849987Y-22452809D01*
X30880000Y-22301922D01*
X30880000Y-22148078D01*
X31223000Y-22148078D01*
X31223000Y-22301922D01*
X31253013Y-22452809D01*
X31311887Y-22594942D01*
X31397358Y-22722859D01*
X31506141Y-22831642D01*
X31634058Y-22917113D01*
X31776191Y-22975987D01*
X31927078Y-23006000D01*
X32080922Y-23006000D01*
X32231809Y-22975987D01*
X32373942Y-22917113D01*
X32501859Y-22831642D01*
X32610642Y-22722859D01*
X32696113Y-22594942D01*
X32754987Y-22452809D01*
X32755030Y-22452594D01*
X32792191Y-22467987D01*
X32943078Y-22498000D01*
X33096922Y-22498000D01*
X33247809Y-22467987D01*
X33389942Y-22409113D01*
X33517859Y-22323642D01*
X33626642Y-22214859D01*
X33712113Y-22086942D01*
X33770987Y-21944809D01*
X33801000Y-21793922D01*
X33801000Y-21640078D01*
X33770987Y-21489191D01*
X33712113Y-21347058D01*
X33626642Y-21219141D01*
X33517859Y-21110358D01*
X33389942Y-21024887D01*
X33247809Y-20966013D01*
X33096922Y-20936000D01*
X32943078Y-20936000D01*
X32792191Y-20966013D01*
X32650058Y-21024887D01*
X32522141Y-21110358D01*
X32413358Y-21219141D01*
X32327887Y-21347058D01*
X32269013Y-21489191D01*
X32268970Y-21489406D01*
X32231809Y-21474013D01*
X32080922Y-21444000D01*
X31927078Y-21444000D01*
X31776191Y-21474013D01*
X31634058Y-21532887D01*
X31506141Y-21618358D01*
X31397358Y-21727141D01*
X31311887Y-21855058D01*
X31253013Y-21997191D01*
X31223000Y-22148078D01*
X30880000Y-22148078D01*
X30849987Y-21997191D01*
X30791113Y-21855058D01*
X30705642Y-21727141D01*
X30596859Y-21618358D01*
X30468942Y-21532887D01*
X30326809Y-21474013D01*
X30175922Y-21444000D01*
X30022078Y-21444000D01*
X29871191Y-21474013D01*
X29729058Y-21532887D01*
X29601141Y-21618358D01*
X29492358Y-21727141D01*
X29406887Y-21855058D01*
X29348013Y-21997191D01*
X29318000Y-22148078D01*
X28975000Y-22148078D01*
X28944987Y-21997191D01*
X28886113Y-21855058D01*
X28800642Y-21727141D01*
X28691859Y-21618358D01*
X28563942Y-21532887D01*
X28421809Y-21474013D01*
X28270922Y-21444000D01*
X28117078Y-21444000D01*
X27966191Y-21474013D01*
X27824058Y-21532887D01*
X27696141Y-21618358D01*
X27587358Y-21727141D01*
X27501887Y-21855058D01*
X27443013Y-21997191D01*
X27413000Y-22148078D01*
X26060000Y-22148078D01*
X26060000Y-21534868D01*
X26952483Y-20842424D01*
X43307000Y-20842424D01*
X43307000Y-21067576D01*
X43350925Y-21288401D01*
X43437087Y-21496413D01*
X43562174Y-21683620D01*
X43721380Y-21842826D01*
X43908587Y-21967913D01*
X44116599Y-22054075D01*
X44337424Y-22098000D01*
X44562576Y-22098000D01*
X44783401Y-22054075D01*
X44991413Y-21967913D01*
X45178620Y-21842826D01*
X45337826Y-21683620D01*
X45462913Y-21496413D01*
X45549075Y-21288401D01*
X45593000Y-21067576D01*
X45593000Y-20842424D01*
X45847000Y-20842424D01*
X45847000Y-21067576D01*
X45890925Y-21288401D01*
X45977087Y-21496413D01*
X46102174Y-21683620D01*
X46261380Y-21842826D01*
X46448587Y-21967913D01*
X46656599Y-22054075D01*
X46877424Y-22098000D01*
X47102576Y-22098000D01*
X47323401Y-22054075D01*
X47531413Y-21967913D01*
X47718620Y-21842826D01*
X47877826Y-21683620D01*
X48002913Y-21496413D01*
X48089075Y-21288401D01*
X48133000Y-21067576D01*
X48133000Y-20842424D01*
X48387000Y-20842424D01*
X48387000Y-21067576D01*
X48430925Y-21288401D01*
X48517087Y-21496413D01*
X48642174Y-21683620D01*
X48801380Y-21842826D01*
X48988587Y-21967913D01*
X49196599Y-22054075D01*
X49417424Y-22098000D01*
X49642576Y-22098000D01*
X49863401Y-22054075D01*
X50071413Y-21967913D01*
X50258620Y-21842826D01*
X50417826Y-21683620D01*
X50542913Y-21496413D01*
X50629075Y-21288401D01*
X50673000Y-21067576D01*
X50673000Y-20842424D01*
X50927000Y-20842424D01*
X50927000Y-21067576D01*
X50970925Y-21288401D01*
X51057087Y-21496413D01*
X51182174Y-21683620D01*
X51341380Y-21842826D01*
X51528587Y-21967913D01*
X51736599Y-22054075D01*
X51957424Y-22098000D01*
X52182576Y-22098000D01*
X52403401Y-22054075D01*
X52611413Y-21967913D01*
X52798620Y-21842826D01*
X52957826Y-21683620D01*
X53082913Y-21496413D01*
X53169075Y-21288401D01*
X53213000Y-21067576D01*
X53213000Y-20842424D01*
X53467000Y-20842424D01*
X53467000Y-21067576D01*
X53510925Y-21288401D01*
X53597087Y-21496413D01*
X53722174Y-21683620D01*
X53881380Y-21842826D01*
X54068587Y-21967913D01*
X54276599Y-22054075D01*
X54497424Y-22098000D01*
X54722576Y-22098000D01*
X54943401Y-22054075D01*
X55151413Y-21967913D01*
X55338620Y-21842826D01*
X55497826Y-21683620D01*
X55622913Y-21496413D01*
X55709075Y-21288401D01*
X55753000Y-21067576D01*
X55753000Y-20842424D01*
X56007000Y-20842424D01*
X56007000Y-21067576D01*
X56050925Y-21288401D01*
X56137087Y-21496413D01*
X56262174Y-21683620D01*
X56421380Y-21842826D01*
X56608587Y-21967913D01*
X56816599Y-22054075D01*
X57037424Y-22098000D01*
X57262576Y-22098000D01*
X57483401Y-22054075D01*
X57691413Y-21967913D01*
X57878620Y-21842826D01*
X58037826Y-21683620D01*
X58151776Y-21513080D01*
X60179000Y-21513080D01*
X60179000Y-21666924D01*
X60209013Y-21817811D01*
X60267887Y-21959944D01*
X60353358Y-22087861D01*
X60462141Y-22196644D01*
X60590058Y-22282115D01*
X60732191Y-22340989D01*
X60883078Y-22371002D01*
X61036922Y-22371002D01*
X61187809Y-22340989D01*
X61329942Y-22282115D01*
X61457859Y-22196644D01*
X61566642Y-22087861D01*
X61652113Y-21959944D01*
X61710987Y-21817811D01*
X61741000Y-21666924D01*
X61741000Y-21513080D01*
X61741000Y-21513078D01*
X63354000Y-21513078D01*
X63354000Y-21666922D01*
X63384013Y-21817809D01*
X63442887Y-21959942D01*
X63528358Y-22087859D01*
X63637141Y-22196642D01*
X63765058Y-22282113D01*
X63907191Y-22340987D01*
X64058078Y-22371000D01*
X64211922Y-22371000D01*
X64362809Y-22340987D01*
X64504942Y-22282113D01*
X64632859Y-22196642D01*
X64741642Y-22087859D01*
X64827113Y-21959942D01*
X64885987Y-21817809D01*
X64916000Y-21666922D01*
X64916000Y-21513078D01*
X67418000Y-21513078D01*
X67418000Y-21666922D01*
X67448013Y-21817809D01*
X67506887Y-21959942D01*
X67592358Y-22087859D01*
X67701141Y-22196642D01*
X67829058Y-22282113D01*
X67971191Y-22340987D01*
X68122078Y-22371000D01*
X68275922Y-22371000D01*
X68426809Y-22340987D01*
X68568942Y-22282113D01*
X68696859Y-22196642D01*
X68805642Y-22087859D01*
X68891113Y-21959942D01*
X68949987Y-21817809D01*
X68980000Y-21666922D01*
X68980000Y-21513078D01*
X68949987Y-21362191D01*
X68891113Y-21220058D01*
X68805642Y-21092141D01*
X68696859Y-20983358D01*
X68568942Y-20897887D01*
X68426809Y-20839013D01*
X68275922Y-20809000D01*
X68122078Y-20809000D01*
X67971191Y-20839013D01*
X67829058Y-20897887D01*
X67701141Y-20983358D01*
X67592358Y-21092141D01*
X67506887Y-21220058D01*
X67448013Y-21362191D01*
X67418000Y-21513078D01*
X64916000Y-21513078D01*
X64885987Y-21362191D01*
X64827113Y-21220058D01*
X64741642Y-21092141D01*
X64632859Y-20983358D01*
X64504942Y-20897887D01*
X64362809Y-20839013D01*
X64211922Y-20809000D01*
X64058078Y-20809000D01*
X63907191Y-20839013D01*
X63765058Y-20897887D01*
X63637141Y-20983358D01*
X63528358Y-21092141D01*
X63442887Y-21220058D01*
X63384013Y-21362191D01*
X63354000Y-21513078D01*
X61741000Y-21513078D01*
X61710987Y-21362193D01*
X61652113Y-21220060D01*
X61566642Y-21092143D01*
X61457859Y-20983360D01*
X61329942Y-20897889D01*
X61187809Y-20839015D01*
X61036922Y-20809002D01*
X60883078Y-20809002D01*
X60732191Y-20839015D01*
X60590058Y-20897889D01*
X60462141Y-20983360D01*
X60353358Y-21092143D01*
X60267887Y-21220060D01*
X60209013Y-21362193D01*
X60179000Y-21513080D01*
X58151776Y-21513080D01*
X58162913Y-21496413D01*
X58249075Y-21288401D01*
X58293000Y-21067576D01*
X58293000Y-20842424D01*
X58249075Y-20621599D01*
X58162913Y-20413587D01*
X58037826Y-20226380D01*
X57878620Y-20067174D01*
X57691413Y-19942087D01*
X57483401Y-19855925D01*
X57262576Y-19812000D01*
X57037424Y-19812000D01*
X56816599Y-19855925D01*
X56608587Y-19942087D01*
X56421380Y-20067174D01*
X56262174Y-20226380D01*
X56137087Y-20413587D01*
X56050925Y-20621599D01*
X56007000Y-20842424D01*
X55753000Y-20842424D01*
X55709075Y-20621599D01*
X55622913Y-20413587D01*
X55497826Y-20226380D01*
X55338620Y-20067174D01*
X55151413Y-19942087D01*
X54943401Y-19855925D01*
X54722576Y-19812000D01*
X54497424Y-19812000D01*
X54276599Y-19855925D01*
X54068587Y-19942087D01*
X53881380Y-20067174D01*
X53722174Y-20226380D01*
X53597087Y-20413587D01*
X53510925Y-20621599D01*
X53467000Y-20842424D01*
X53213000Y-20842424D01*
X53169075Y-20621599D01*
X53082913Y-20413587D01*
X52957826Y-20226380D01*
X52798620Y-20067174D01*
X52611413Y-19942087D01*
X52403401Y-19855925D01*
X52182576Y-19812000D01*
X51957424Y-19812000D01*
X51736599Y-19855925D01*
X51528587Y-19942087D01*
X51341380Y-20067174D01*
X51182174Y-20226380D01*
X51057087Y-20413587D01*
X50970925Y-20621599D01*
X50927000Y-20842424D01*
X50673000Y-20842424D01*
X50629075Y-20621599D01*
X50542913Y-20413587D01*
X50417826Y-20226380D01*
X50258620Y-20067174D01*
X50071413Y-19942087D01*
X49863401Y-19855925D01*
X49642576Y-19812000D01*
X49417424Y-19812000D01*
X49196599Y-19855925D01*
X48988587Y-19942087D01*
X48801380Y-20067174D01*
X48642174Y-20226380D01*
X48517087Y-20413587D01*
X48430925Y-20621599D01*
X48387000Y-20842424D01*
X48133000Y-20842424D01*
X48089075Y-20621599D01*
X48002913Y-20413587D01*
X47877826Y-20226380D01*
X47718620Y-20067174D01*
X47531413Y-19942087D01*
X47323401Y-19855925D01*
X47102576Y-19812000D01*
X46877424Y-19812000D01*
X46656599Y-19855925D01*
X46448587Y-19942087D01*
X46261380Y-20067174D01*
X46102174Y-20226380D01*
X45977087Y-20413587D01*
X45890925Y-20621599D01*
X45847000Y-20842424D01*
X45593000Y-20842424D01*
X45549075Y-20621599D01*
X45462913Y-20413587D01*
X45337826Y-20226380D01*
X45178620Y-20067174D01*
X44991413Y-19942087D01*
X44783401Y-19855925D01*
X44562576Y-19812000D01*
X44337424Y-19812000D01*
X44116599Y-19855925D01*
X43908587Y-19942087D01*
X43721380Y-20067174D01*
X43562174Y-20226380D01*
X43437087Y-20413587D01*
X43350925Y-20621599D01*
X43307000Y-20842424D01*
X26952483Y-20842424D01*
X28739430Y-19456000D01*
X40023430Y-19456000D01*
X39947887Y-19569058D01*
G37*
G04 #@! TD.AperFunction*
M02*
